<?xml version="1.0" encoding="utf-8"?>
<!-- Generator: Adobe Illustrator 25.0.1, SVG Export Plug-In . SVG Version: 6.00 Build 0)  -->
<svg version="1.1" id="圖層_1" xmlns="http://www.w3.org/2000/svg" xmlns:xlink="http://www.w3.org/1999/xlink" x="0px" y="0px"
	 viewBox="0 0 403.3 146.8" style="enable-background:new 0 0 403.3 146.8;" xml:space="preserve">
<style type="text/css">
	.st0{fill:#FFFFFF;}
</style>
<path class="st0" d="M49.1,32.2c-2.3,10.3-15.2,16.6-29.5,16.6c-12.1,0-19-4.6-19.6-12.9l12.4-4.5c-3,8.8,5.1,14.1,17.4,14.1
	c6.3,0,11.7-2.4,12.7-7.1c0.7-3.1-0.6-6.1-2.3-8.6c-4.6,2.1-9.5,3.2-14.5,3.2C12.4,33,4,25.3,6,16.3S19.8,0,33,0l20.5,0.5l-0.7,2.1
	l-9.3,8.8c0.4-5-12.9-8.1-20.2-8.1c-5.8,0-9.9,2.6-10.7,6.6c-0.7,3.1,0.5,6.2,2.3,8.7c4.6-2.2,9.6-3.3,14.6-3.3
	C42.3,15.5,51,23.3,49.1,32.2z M35.2,29.2c1.4,0,2.8-0.1,4.2-0.5c-4.9-5.8-12-9.3-19.6-9.5c-1.4,0-2.8,0.2-4.2,0.5
	C20.5,25.6,27.6,29,35.2,29.2z"/>
<path class="st0" d="M76.9,45c2.1,0,4.1-0.6,5.8-1.8l0.6,0.7c-4.1,3.1-9.1,4.8-14.2,4.9c-10.7,0-17-7.8-15.2-16.7S65.3,15.4,76,15.4
	c6.1,0,11.1,2.7,13.7,6.9l-6.9,5.2c-2.4-4.9-8.4-8.4-14.6-8.4c-4.8,0-8,2.8-8.8,6.6C57.7,34.1,66.9,45,76.9,45z"/>
<path class="st0" d="M115.3,15.9c1.3,0,2.7,0.2,4,0.5l-2.3,8.5c-1.3-3.8-4.8-5.5-8.6-5.5c-5,0-9.4,3.6-10.3,7.5
	c-0.7,3.4,0.6,5.7,2.5,8.4l-2.8,12.6h-1.1L88.6,40l2.6-1.7L96,16.3h8.8l-0.6,3.1C107.7,17.4,111.2,15.9,115.3,15.9z"/>
<path class="st0" d="M115.8,32.1c1.6-8.8,10.2-16.7,19.8-16.7s15.2,7.9,13.5,16.7S139,48.8,129.4,48.8S114.2,40.9,115.8,32.1z
	 M120.7,25.8c-1.5,8.3,6.8,19.2,15.7,19.2c3.9,0.1,7.4-2.7,7.9-6.6c1.5-8.2-6.7-19.2-15.7-19.2C124.7,19,121.3,21.9,120.7,25.8z"/>
<path class="st0" d="M163.1,45.2c2.7-0.1,5.3-0.6,7.8-1.5l-1.1,5.1c-10.9,0-18.2-7.1-16.3-15.8l5-22.8l-1.8-1.7l11.6-7.9h1.1
	L163,29.8c-2.9,2.5-5.6,5.8-6.4,9.1C155.8,42.8,158.2,45.2,163.1,45.2z"/>
<path class="st0" d="M184.2,45.2c2.7-0.1,5.3-0.6,7.8-1.5l-1.1,5.1c-10.9,0-18.2-7.1-16.3-15.8l5-22.8l-1.8-1.7l11.6-7.9h1.1
	l-6.4,29.3c-3,2.5-5.6,5.8-6.4,9.1C177,42.8,179.4,45.2,184.2,45.2z"/>
<path class="st0" d="M266.8,23.3c-2.5,11.5-14.5,25.1-30.8,25.1c-5.8,0-10-2.2-12.2-6.1l-8.3,5.6h-1.1l8.4-38l-1.7-1.6l11.5-7.8h1.1
	l-1,4.7l5.7-4.6c1.7-0.2,3.4-0.3,5.1-0.3C259.9,0.3,269.7,10.2,266.8,23.3z M262.6,18.1c2-9.2-1.4-14.5-13-14.5
	c-5.9,0-12.6,2.3-17.8,5.2l-3,13.7c-0.4,1.9,1.9,5.3,3.4,6.4c-3.4,3-6.1,6.4-7,10.1s0.2,6.2,5.4,6.2C245,45.1,260.4,28.1,262.6,18.1
	z"/>
<path class="st0" d="M269.1,32.1c1.6-8.8,10.2-16.7,19.8-16.7s15.2,7.9,13.5,16.7s-10.2,16.7-19.8,16.7S267.4,40.9,269.1,32.1z
	 M274,25.8c-1.6,8.3,6.7,19.2,15.6,19.2c3.9,0.1,7.4-2.7,7.9-6.6c1.5-8.2-6.7-19.2-15.7-19.2C277.9,19,274.6,21.9,274,25.8z"/>
<path class="st0" d="M341.4,23.8c0.5,8.2-0.2,13.8-3.1,22.2c16.6,1.4,16.6-17.5,12.4-29.7h7.1c6.9,12.1-3.8,30.9-21,32.3l-5.5-5.8
	c-4.4,3.4-9.8,5.4-15.4,5.8l-6.1-6.5l2.6-1.7c1.2-7.2,4.8-13.2,8.5-18l-11-0.3l-2.9,4.5h-0.8l4.3-10.4h15.6l0.9,0.5
	c-6.4,13.2-8.4,17.2-7.6,27.9c14.7,1,16.9-10.2,14.9-20.9L341.4,23.8z"/>
<path class="st0" d="M396.4,31.2l-2.2,10.2l8.4-7.7l0.7,0.3l-10.5,13.9l-7.6-5.2l2.5-11.5c0.8-3.6,12.1-14.9,7.5-14.9
	c-7.4,0-19.1,29.4-20.8,31.6h-8.8l5.5-25l-8.4,7.6l-0.7-0.3l10.5-13.9h1.1l8.1,7.8l-2.5,1.8l-3.5,16.1c5-9.6,11.9-26.7,20.4-26.7
	C400.4,15.4,399,19.9,396.4,31.2z"/>
<g>
	<polygon class="st0" points="198.1,146.8 149.5,98.3 152.3,95.4 198.1,141.2 243.8,95.4 246.7,98.3 	"/>
</g>
</svg>
