<?xml version="1.0" encoding="utf-8"?>
<!-- Generator: Adobe Illustrator 25.0.1, SVG Export Plug-In . SVG Version: 6.00 Build 0)  -->
<svg version="1.1" id="圖層_1" xmlns="http://www.w3.org/2000/svg" xmlns:xlink="http://www.w3.org/1999/xlink" x="0px" y="0px"
	 viewBox="0 0 109.8 1319" style="enable-background:new 0 0 109.8 1319;" xml:space="preserve">
<style type="text/css">
	.st0{fill:#FFFFFF;}
	.st1{enable-background:new    ;}
</style>
<g id="圖層_2_1_">
	<g id="跑馬燈">
		<g>
			<path class="st0" d="M35.7,527.7C16,527.7,0,511.7,0,492.1c0-19.7,16-35.7,35.7-35.7c19.7,0,35.7,16,35.7,35.7
				C71.3,511.7,55.3,527.7,35.7,527.7z M35.7,458.9c-18.3,0-33.2,14.9-33.2,33.2c0,18.3,14.9,33.2,33.2,33.2s33.2-14.9,33.2-33.2
				C68.8,473.8,54,458.9,35.7,458.9z"/>
		</g>
		<g>
			<path class="st0" d="M35.7,596.6C16,596.6,0,580.6,0,560.9c0-19.7,16-35.7,35.7-35.7c19.7,0,35.7,16,35.7,35.7
				C71.3,580.6,55.3,596.6,35.7,596.6z M35.7,527.7c-18.3,0-33.2,14.9-33.2,33.2c0,18.3,14.9,33.2,33.2,33.2s33.2-14.9,33.2-33.2
				C68.8,542.6,54,527.7,35.7,527.7z"/>
		</g>
		<g>
			<rect x="26.3" y="343.1" class="st0" width="2.5" height="316.4"/>
		</g>
		<g class="st1">
			<g>
				<path class="st0" d="M29.2,14.3c0,3.8,1,7.6,2.2,11.3l-7.3-1.6c0-15.8,10.2-26.3,22.8-23.5l32.9,7.2l2.5-2.6l11.4,16.7v1.6
					l-42.2-9.3C47.8,9.9,43,6.1,38.3,5C32.7,3.7,29.2,7.3,29.2,14.3z"/>
			</g>
			<g>
				<path class="st0" d="M48.1,29.4C60.8,31.7,72.2,44,72.2,58c0,13.8-11.4,21.9-24.1,19.5C35.4,75.2,24.1,62.8,24.1,49
					C24.1,35.1,35.4,26.9,48.1,29.4z M57.2,36.4c-12-2.2-27.7,9.8-27.7,22.6c0,6.2,4,10.3,9.6,11.4c11.9,2.2,27.7-9.7,27.7-22.6
					C66.8,41.7,62.8,37.5,57.2,36.4z M78.8,69.5l0.1-8.2l7.2-4.2l-7.2-10.2v-3.2l10.1,13.1v4.8L78.8,69.5z"/>
			</g>
			<g>
				<path class="st0" d="M48.1,84.6c12.7,2.3,24.1,14.7,24.1,28.6c0,13.8-11.4,21.9-24.1,19.5c-12.8-2.3-24.1-14.7-24.1-28.5
					C24.1,90.3,35.4,82.2,48.1,84.6z M57.2,91.7c-12-2.2-27.7,9.8-27.7,22.6c0,6.2,4,10.3,9.6,11.4c11.9,2.2,27.7-9.7,27.7-22.6
					C66.8,97,62.8,92.8,57.2,91.7z"/>
			</g>
		</g>
		<g class="st1">
			<g>
				<path class="st0" d="M52.9,190.4l-4.3-1l0.8-2.2v-41.1l-0.8-2.6l4.3,1l-0.8,2.2v41.1L52.9,190.4z"/>
			</g>
		</g>
		<g class="st1">
			<g>
				<path class="st0" d="M40.1,247.3c-11.1-3.4-16-19.8-16-30c0-8.5,3-18.3,10.3-20.3l5.8,8.1c-7.1,3.1-12.6,13.4-12.6,22.7
					c0,4.4,1.4,10.4,6.4,12c3.4,1,6.7-0.7,8.9-2.4c-1.9-5-2.8-10.3-2.8-15.2c0-10.1,4.9-23.6,15.9-20.3c11,3.4,16,19.9,16,30
					c0,7-1.8,13.9-6.1,17.9l-6-8.4c4.7-4.3,8.5-12.1,8.5-20c0-4.4-1.4-10.4-6.4-11.9c-3.4-1.1-6.7,0.6-8.9,2.3
					c1.9,5,2.8,10.3,2.8,15.3C56.1,237.3,51.1,250.7,40.1,247.3z M43.7,232.7c0,1.3,0.1,2.5,0.3,3.8c4.4-4,8.5-12,8.5-19.9
					c0-1.3-0.1-2.5-0.3-3.8C47.8,216.8,43.7,224.8,43.7,232.7z"/>
			</g>
		</g>
		<g class="st1">
			<g>
				<path class="st0" d="M48.1,254.2l24.1,5.2l-7.6,11l-16.4-3.6c-5.2-1.2-21.4-17.5-21.4-10.3c0,9.8,30,26.2,45.4,29.6v12.7
					L36,290.8L47.1,303l-0.5,1l-20-15.3v-1.5L38,275.5l2.5,3.7l16.4,3.7c-15.5-7.1-31.6-17.1-31.6-27.6
					C25.3,248.5,31.8,250.5,48.1,254.2z M89.7,277.5l0.1,8.2l-10.2-12.3v-4.8L89.7,277.5z"/>
			</g>
		</g>
		<g class="st1">
			<g>
				<path class="st0" d="M49.4,350.2L34.7,347l11.1,12.2l-0.5,1l-20-15.2l7.5-11l16.5,3.6c5.2,1.2,21.5,17.5,21.5,10.8
					c0-10.7-42.3-27.5-45.5-30.1v-12.7l36.1,7.9l-11-12.1l0.5-1l20,15.2v1.5l-11.3,11.7l-2.6-3.7l-23.3-5.1
					c13.8,7.2,38.6,17.1,38.6,29.5C72.2,355.9,65.7,353.8,49.4,350.2z"/>
			</g>
		</g>
		<g>
			<path class="st0" d="M14.2,519.9h-0.1c-0.4,0-0.8-0.3-0.8-0.7c0,0,0,0,0,0c1.2-1.9,2.1-3.9,2.7-6c0.8-2.8,1.2-5.6,1.4-8.5
				c0.3-3.4,0.4-7.4,0.4-12.1c0-3.2,0-5.6-0.1-7.4c0-1.1-0.1-2.2-0.4-3.3c-0.1-0.2,0-0.4,0.2-0.5c0.1-0.1,0.3-0.1,0.5-0.1
				c0.5,0.2,1.1,0.4,2.1,0.8l2.8,1.3c0.9,0.4,1.6,0.7,1.9,1H36v-3.4c0-0.9,0-1.8-0.1-2.7c0-0.5-0.1-0.9-0.3-1.4
				c-0.1-0.2-0.1-0.4-0.1-0.6c0.1-0.2,0.3-0.3,0.6-0.3c0.5,0,1.2,0.1,2.2,0.2l3.1,0.4c0.7,0.1,1.5,0.2,2.2,0.4
				c0.4,0.1,0.6,0.4,0.5,0.8c0,0,0,0.1,0,0.1c0,0.4-0.2,0.7-0.6,0.7c-0.1,0-0.1,0-0.2,0c-0.7,0.1-1.1,0.5-1.1,1v0.5h8.6
				c0.4,0,0.8-0.1,1-0.4c0.2-0.3,0.5-0.8,0.9-1.4l0.9-1.2c0.2-0.2,0.4-0.4,0.7-0.4c0.2,0,0.4,0.1,0.5,0.2c0.5,0.4,1.2,0.9,2.1,1.7
				c0.7,0.6,1.3,1.2,1.9,1.9c0.1,0.1,0.2,0.3,0.2,0.5c0,0.5-0.2,0.7-0.5,0.7H42.3v2.7h15.6c0.3,0,0.5,0,0.8-0.2l1.9-1.9
				c0.1-0.2,0.3-0.3,0.5-0.3c0.2,0,0.3,0.1,0.5,0.2c0.5,0.4,1,0.8,1.5,1.3c0.6,0.6,1.2,1.2,1.8,1.8s1,1.1,1.3,1.4
				c0.2,0.2,0.3,0.5,0.3,0.7c0,0.2-0.1,0.5-0.2,0.6c-0.2,0.2-0.5,0.4-0.8,0.3c-0.8,0-1.5,0.1-2.3,0.3c-0.9,0.2-1.9,0.5-2.7,1
				c-0.8,0.3-1.5,0.8-2.1,1.4c0.4,0.4,0.6,0.9,0.6,1.5c0,0.6-0.2,1.2-0.7,1.7c-0.6,0.5-1.4,0.8-2.2,0.9l-1.6,0.2
				c0.7,0.3,1.4,0.6,2.3,0.9c0.7,0.3,1.4,0.6,2,1c0.3,0.1,0.5,0.5,0.5,0.9c0,0.4-0.3,0.8-0.7,0.9c-0.2,0.1-0.4,0.2-0.6,0.3
				c-0.5,0.4-0.7,1.1-0.6,1.7c0,0.8,0,1.6,0,2.5s0,1.7,0.1,2.4c0.1,0.7,0.1,1.1,0.1,1.3c0,0.4-0.4,0.7-1.1,1c0.8,0.3,1.6,0.6,2.4,1
				c0.7,0.3,1.3,0.6,1.9,1c0.3,0.2,0.6,0.6,0.6,1c0,0.4-0.3,0.8-0.7,0.9c-0.2,0-0.3,0.1-0.5,0.2c-0.5,0.4-0.8,1-0.7,1.7v3.5
				c0.3,0,0.6-0.1,0.8-0.3l0.8-1.4c0.4-0.6,0.7-1.1,1-1.4c0.1-0.2,0.3-0.4,0.6-0.4c0.2,0,0.4,0.1,0.6,0.2c0.4,0.3,0.8,0.6,1.1,1
				c0.5,0.5,0.9,0.9,1.3,1.4c0.4,0.4,0.7,0.8,0.9,1.2c0.1,0.1,0.2,0.3,0.2,0.5c0,0.5-0.2,0.7-0.6,0.7H24.8c-2,0-3.5,0.1-4.8,0.2
				l-0.7-2c1.5,0.2,3.3,0.2,5.4,0.3h0.1V512c0-1,0-1.8-0.1-2.4c0-0.5-0.1-0.9-0.2-1.4c0-0.2,0-0.3,0.1-0.5c0.1-0.1,0.2-0.1,0.3-0.1
				c0.2,0,0.5,0.1,0.7,0.2l1.1,0.4V508c0-0.2,0-0.8,0-1.8c0-1,0-2.1,0.1-3.4c0.1-1.3,0-2.5,0-3.6c0-0.8,0-1.6-0.1-2.3
				c0-0.5-0.1-1.1-0.3-1.6c-0.1-0.3,0-0.4,0.2-0.5c0.1-0.1,0.3-0.1,0.5-0.1c0.3,0.1,0.8,0.3,1.6,0.6l2.4,0.9
				c0.6,0.2,1.2,0.5,1.8,0.8h17.4c0.3,0,0.6-0.1,0.8-0.4l0.7-1.3c-1.5,0.1-3.1,0.1-4.8,0.2c-1.7,0.1-3.3,0.1-4.8,0.1
				c-1.2,0-2.4,0-3.4,0l-2.5-0.1c-2.1-0.2-3.2-1.2-3.2-2.9V491c-0.8,0.1-1.5,0.1-2.1,0.2c-0.3,0-0.7,0.1-1,0.1
				c-2,0.2-3.5,0.4-4.8,0.6l-0.8-2c1.5,0,3.3,0,5.3-0.2l3.3-0.2v-3.6h-9.1v8.9c0,3.6-0.5,7.2-1.5,10.6c-0.9,3.1-2.2,6-3.8,8.7
				C17.8,516.3,16.1,518.3,14.2,519.9z M30.1,479.3c-1,0-1.6-0.4-1.6-1.3c0-0.3,0-0.7,0-1.3c0-0.6,0.1-1.2,0.1-1.8h-7.1
				c-1.2,0-2.3,0-3.2,0.1c-0.9,0.1-1.9,0.1-2.9,0.2l-0.7-2.4c1.8,0.2,4.1,0.4,6.7,0.5h7.1v-0.6c0-0.7,0-1.5-0.1-2.2
				c0-0.4-0.2-0.9-0.3-1.3c0-0.1-0.1-0.3-0.1-0.5c0-0.3,0.2-0.5,0.6-0.5c0.8,0,1.5,0.1,2.3,0.2l3.1,0.4c0.8,0.1,1.5,0.2,2.2,0.4
				c0.4,0.1,0.7,0.4,0.6,0.9c0,0,0,0.1,0,0.1c0,0.5-0.3,0.7-0.8,0.8c-0.6,0-1.1,0.5-1.1,1.1c0,0,0,0,0,0v1.1h9.2v-0.6
				c0.1-1.2-0.1-2.3-0.4-3.5c-0.1-0.2-0.1-0.4,0-0.6c0.1-0.2,0.3-0.3,0.6-0.3c0.8,0,1.6,0.1,2.3,0.2l3.1,0.4
				c0.8,0.1,1.5,0.2,2.2,0.4c0.4,0.1,0.6,0.4,0.6,1c0,0.6-0.3,0.7-0.8,0.8c-0.7,0.1-1.1,0.5-1.1,1.1v1.1h5.1c0.5,0,1-0.2,1.4-0.5
				c0.4-0.4,0.7-0.9,1-1.3c0.3-0.4,0.6-0.9,0.9-1.3c0.2-0.3,0.4-0.4,0.7-0.5c0.2,0,0.4,0.1,0.6,0.2c0.6,0.3,1.2,0.6,1.7,0.9
				c0.7,0.4,1.3,0.9,1.9,1.4c0.5,0.4,1,0.8,1.4,1.4c0.2,0.2,0.2,0.5,0.2,0.7c0,0.5-0.2,0.7-0.6,0.7H50.8c0,0.5,0,1,0,1.5
				c0,0.4,0,0.7,0,0.8c0,0.5-0.5,1-1.4,1.3c-1.1,0.4-2.3,0.6-3.5,0.5c-1,0-1.6-0.4-1.6-1.3V475h-9.2v2.5c0,0.5-0.5,1-1.5,1.3
				C32.5,479.2,31.3,479.4,30.1,479.3L30.1,479.3z M31.5,510h20.8c0.3,0,0.7-0.2,0.9-0.5l0.5-0.8c-0.2,0-0.5,0.1-0.7,0.1h-0.7
				c-0.8,0-1.2-0.4-1.2-1.1v-0.2H33v0.1c0,0.4-0.4,0.7-1.1,1c-0.8,0.3-1.6,0.5-2.4,0.6l1.2,0.5C31,509.7,31.3,509.9,31.5,510z
				 M34.5,511.5h-3.3v5.8h3.3L34.5,511.5z M39,498.7h-6.1v2.8h6.1L39,498.7z M39,503h-6.1v2.9h6.1L39,503z M40.6,491.2
				c0.3,0,0.6,0.1,0.9,0.1h1.3c0.9,0,2,0,3.1-0.1c1.1,0,2.3-0.1,3.4-0.2c1.1-0.1,2-0.2,2.7-0.2c0.6,0,1.1-0.4,1.3-1
				c0.3-0.7,0.5-1.3,0.7-2c0.2-0.8,0.4-1.4,0.6-1.9H48c0.6,0.4,1.2,0.8,1.8,1.3c0.5,0.3,0.9,0.7,1.3,1.2c0.2,0.2,0.2,0.4,0.2,0.6
				c0,0.3-0.2,0.5-0.5,0.6l-11.4,1c0,0.2,0.1,0.4,0.3,0.5C40.1,491.1,40.4,491.2,40.6,491.2z M45.6,485.9h-6v3l4-0.3
				c0.3,0,0.6-0.2,0.8-0.5c0.1-0.2,0.3-0.6,0.6-1C45.1,486.7,45.4,486.2,45.6,485.9L45.6,485.9z M43.8,511.5h-3.4v5.8h3.4V511.5z
				 M51.1,498.7h-6.2v2.8h6.2V498.7z M51.1,503h-6.2v2.9h6.2V503z M52.9,511.5h-3.4v5.8h3.4L52.9,511.5z M56.9,490.4l1-4.6h-2v3.6
				c-0.1,0.4,0.1,0.7,0.5,0.8c0.1,0,0.2,0,0.2,0c0,0,0.1,0.1,0.1,0.1C56.8,490.3,56.9,490.4,56.9,490.4
				C56.9,490.4,56.9,490.4,56.9,490.4L56.9,490.4z"/>
		</g>
		<g>
			<path class="st0" d="M50.6,582.1c0-1.1-0.1-2.3-0.4-3.4c-0.2-0.8-0.8-1.5-1.5-2c-1.1-0.6-2.3-1-3.5-1.2c-0.1-0.2-0.1-0.3-0.1-0.5
				c0-0.2,0-0.3,0.1-0.5c-0.6,0.2-1.1,0.3-1.7,0.4c-0.6,0.1-1.2,0.1-1.9,0.1c-0.9,0-1.4-0.4-1.4-1.2v-1.3h-8.2v2.1
				c0,0.4-0.3,0.7-0.8,1c-0.6,0.3-1.3,0.5-2,0.6c-0.8,0.1-1.6,0.2-2.3,0.2c-0.9,0-1.4-0.4-1.4-1.3c0-0.3,0.1-1.6,0.1-4
				s0.1-5.6,0.1-9.9c0-2.3-0.1-4-0.2-5.3c-1.7,2.1-3.5,4.1-5.5,6c-1.7,1.7-3.5,3.3-5.5,4.6c-0.2,0-0.4-0.1-0.6-0.3
				c-0.1-0.2-0.2-0.4-0.2-0.6c1.1-1.2,2.1-2.5,3-3.9c1.1-1.7,2-3.4,2.9-5.2c0.9-1.9,1.7-3.7,2.5-5.6c0.7-1.7,1.2-3.4,1.6-5.1
				c0.2-0.5,0.3-1,0.3-1.6c0.1-0.3,0.2-0.5,0.4-0.5c0.3,0,0.7,0.1,1,0.2c0.6,0.2,1.3,0.4,2,0.6l2.3,0.7c0-0.1,0-0.3-0.1-0.4
				c-0.2-1.2-0.4-2.4-0.8-3.6c-0.3-1-0.8-1.9-1.5-2.6h-2.3c-1.7,2.2-3.4,4.2-5.4,6.2c-1.6,1.7-3.3,3.2-5.1,4.7
				c-0.6,0-0.9-0.3-0.9-0.8c0.7-1.1,1.4-2.2,2-3.3c0.7-1.3,1.4-2.8,2.1-4.4c0.7-1.6,1.3-3.2,1.9-4.8c0.5-1.5,0.9-3,1.2-4.5
				c0.1-0.3,0.1-0.6,0.2-0.9c0.1-0.3,0.1-0.5,0.1-0.8c0-0.3,0.2-0.5,0.6-0.3c0.8,0.2,1.6,0.4,2.4,0.6c1,0.3,2,0.6,3,1
				s1.8,0.6,2.4,0.9c0.2,0.1,0.4,0.4,0.3,0.7c0,0.2-0.1,0.4-0.2,0.6c-0.1,0.2-0.3,0.3-0.5,0.3c-0.3,0-0.6,0-0.9,0.1
				c-0.3,0.2-0.5,0.4-0.7,0.7c-0.2,0.4-0.5,0.8-0.7,1.2l-0.8,1.2h5.4c0.3,0,0.5,0,0.8-0.1c0.2-0.1,0.4-0.3,0.5-0.5l0.9-1.2l0.9-1.3
				c0.2-0.3,0.5-0.5,0.9-0.5c0.1,0,0.2,0,0.3,0.1c0.1,0,0.2,0.1,0.3,0.2c0.8,0.5,1.5,1.1,2.2,1.7c0.8,0.7,1.5,1.3,2,1.9
				c0.2,0.2,0.3,0.4,0.3,0.7c0,0.5-0.2,0.7-0.7,0.7H29.7c1.4,0.1,2.7,0.5,3.9,1.1c1,0.6,1.8,1.6,2,2.8c0,0.2,0.1,0.3,0.1,0.4
				c0,0.1,0,0.3,0,0.4c0,0.8-0.2,1.5-0.7,2.1c-0.4,0.5-1,0.9-1.6,1.1l-0.4,0.1l-0.4,0.1c0,0.1,0,0.1,0,0.2c-0.1,0.3-0.4,0.5-0.7,0.5
				h-0.3c-0.2,0-0.5,0.1-0.6,0.2c-0.2,0.2-0.4,0.5-0.5,0.8c-0.1,0.2-0.2,0.5-0.3,0.7c-0.1,0.3-0.3,0.5-0.5,0.8h25.5
				c0.4,0,0.7-0.2,0.9-0.5c0.1-0.2,0.3-0.5,0.5-0.8c0.2-0.4,0.4-0.7,0.5-0.9c0.2-0.2,0.4-0.5,0.6-0.5c0.2,0,0.3,0.1,0.5,0.1
				c0.6,0.2,1.2,0.4,1.8,0.7c0.7,0.3,1.4,0.6,2.2,1c0.7,0.4,1.3,0.6,1.8,0.9c0.4,0.2,0.7,0.6,0.6,1.1c0,0.5-0.3,0.9-0.8,1
				c-0.2,0.1-0.5,0.2-0.7,0.3c-0.6,0.5-0.8,1.3-0.7,2v2.5c0,4-0.2,8-0.6,11.9c-0.3,2.6-0.9,5.1-2,7.5c-0.8,1.7-2.1,3-3.7,3.9
				C54.4,581.7,52.5,582.1,50.6,582.1z M51.9,574.7c0.7-0.1,1.3-0.3,1.8-0.8c0.6-0.7,1-1.6,1.2-2.5c0.4-1.7,0.6-3.4,0.7-5.2
				c0.2-2.2,0.2-5.2,0.2-8.8v-5.2H28.6l-1.5,2.2c0.6,0.2,1.2,0.4,2,0.7l2.1,0.8c0.5,0.2,1,0.4,1.5,0.7h7.1c0.3,0,0.7-0.1,0.8-0.5
				l1-1.6c0.1-0.2,0.4-0.4,0.6-0.4c0.2,0,0.3,0.1,0.5,0.1c0.5,0.2,1,0.4,1.7,0.7s1.4,0.6,2.1,0.9c0.6,0.2,1.1,0.5,1.6,0.8
				c0.4,0.2,0.7,0.6,0.6,1c0,0.5-0.3,0.9-0.7,1l-0.3,0.1c-0.1,0-0.2,0.1-0.3,0.2c-0.5,0.5-0.8,1.2-0.7,1.9c0,1.9,0,3.7,0.1,5.6
				s0.1,3.4,0.1,4.7c0,1.3,0.1,2,0.1,2.2c0,0.4-0.4,0.8-1.3,1.2c0.6,0,1.3,0.1,2,0.2s1.5,0.1,2.3,0.1H51
				C51.3,574.8,51.6,574.8,51.9,574.7z M40.3,558.4h-8.2v5h8.2V558.4z M40.3,565.2h-8.2v5.8h8.2V565.2z M54.7,548.2
				c-0.7,0-1.4-0.2-1.9-0.7c-0.6-0.5-1-1.2-1-1.9c-0.1-1.3-0.4-2.6-0.9-3.8c-0.4-1-1-1.9-1.9-2.6h-1.7c-1.3,1.6-2.7,3.2-4.2,4.6
				c-1.3,1.3-2.7,2.6-4.2,3.8h-0.1c-0.2,0-0.4-0.1-0.5-0.3c-0.1-0.2-0.2-0.3-0.2-0.5c0.8-1.3,1.6-2.7,2.2-4.1
				c0.8-1.8,1.5-3.6,2.1-5.5c0.6-1.7,1-3.5,1.3-5.3l0.2-1.4c0-0.3,0.2-0.5,0.6-0.3c0.8,0.2,1.6,0.4,2.4,0.6c1,0.3,2,0.6,3,1
				c1,0.4,1.8,0.6,2.4,0.9c0.2,0.1,0.3,0.3,0.4,0.5c0.1,0.2,0.1,0.4,0,0.6c-0.2,0.4-0.4,0.6-0.6,0.6c-0.3,0-0.6,0-0.8,0.1
				c-0.3,0.2-0.6,0.4-0.7,0.7l-1.7,2.4h7.4c0.5,0.1,1-0.2,1.4-0.6l1.1-1.5c0.4-0.6,0.8-1,1.1-1.4c0.2-0.3,0.5-0.5,0.8-0.5
				c0.1,0,0.2,0,0.3,0.1c0.1,0,0.2,0.1,0.3,0.2c0.6,0.3,1.1,0.7,1.6,1.1c0.6,0.5,1.2,1,1.8,1.6c0.5,0.4,0.9,0.8,1.3,1.3
				c0.2,0.2,0.3,0.4,0.3,0.7c0,0.5-0.2,0.7-0.6,0.7H51.1c1,0.2,2.1,0.5,3.1,0.9c1,0.4,1.9,0.9,2.8,1.5c0.7,0.6,1.2,1.4,1.3,2.3
				c0,0.1,0,0.2,0,0.3c0,0.1,0,0.2,0,0.3c0.1,1.1-0.4,2.1-1.2,2.8C56.5,547.8,55.6,548.2,54.7,548.2L54.7,548.2z"/>
		</g>
		<g>
			<rect x="26.3" class="st0" width="2.5" height="19.5"/>
		</g>
		<g>
			<path class="st0" d="M35.7,1187.2c-19.7,0-35.7-16-35.7-35.7s16-35.7,35.7-35.7c19.7,0,35.7,16,35.7,35.7
				S55.3,1187.2,35.7,1187.2z M35.7,1118.4c-18.3,0-33.2,14.9-33.2,33.2s14.9,33.2,33.2,33.2s33.2-14.9,33.2-33.2
				S54,1118.4,35.7,1118.4z"/>
		</g>
		<g>
			<path class="st0" d="M35.7,1256C16,1256,0,1240,0,1220.4s16-35.7,35.7-35.7c19.7,0,35.7,16,35.7,35.7S55.3,1256,35.7,1256z
				 M35.7,1187.2c-18.3,0-33.2,14.9-33.2,33.2s14.9,33.2,33.2,33.2s33.2-14.9,33.2-33.2S54,1187.2,35.7,1187.2z"/>
		</g>
		<g>
			<rect x="26.3" y="1002.6" class="st0" width="2.5" height="316.4"/>
		</g>
		<g class="st1">
			<g>
				<path class="st0" d="M29.2,673.8c0,3.8,1,7.6,2.2,11.3l-7.3-1.6c0-15.8,10.2-26.3,22.8-23.5l32.9,7.2l2.5-2.6l11.4,16.7v1.6
					l-42.2-9.3c-3.7-4.3-8.4-8.1-13.1-9.2C32.7,663.2,29.2,666.8,29.2,673.8z"/>
			</g>
			<g>
				<path class="st0" d="M48.1,688.8c12.7,2.3,24.1,14.7,24.1,28.6c0,13.8-11.4,21.9-24.1,19.5c-12.8-2.3-24.1-14.7-24.1-28.5
					C24.1,694.5,35.4,686.4,48.1,688.8z M57.2,695.9c-12-2.2-27.7,9.8-27.7,22.6c0,6.2,4,10.3,9.6,11.4c11.9,2.2,27.7-9.7,27.7-22.6
					C66.8,701.2,62.8,697,57.2,695.9z M78.8,728.9l0.1-8.2l7.2-4.2l-7.2-10.2v-3.2l10.1,13.1v4.8L78.8,728.9z"/>
			</g>
			<g>
				<path class="st0" d="M48.1,744.1c12.7,2.3,24.1,14.7,24.1,28.6c0,13.8-11.4,21.9-24.1,19.5c-12.8-2.3-24.1-14.7-24.1-28.5
					C24.1,749.8,35.4,741.7,48.1,744.1z M57.2,751.2c-12-2.2-27.7,9.8-27.7,22.6c0,6.2,4,10.3,9.6,11.4c11.9,2.2,27.7-9.7,27.7-22.6
					C66.8,756.5,62.8,752.2,57.2,751.2z"/>
			</g>
		</g>
		<g class="st1">
			<g>
				<path class="st0" d="M52.9,849.9l-4.3-1l0.8-2.2v-41.1l-0.8-2.6l4.3,1l-0.8,2.2v41.1L52.9,849.9z"/>
			</g>
		</g>
		<g class="st1">
			<g>
				<path class="st0" d="M40.1,906.8c-11.1-3.4-16-19.8-16-30c0-8.5,3-18.3,10.3-20.3l5.8,8.1c-7.1,3.1-12.6,13.4-12.6,22.7
					c0,4.4,1.4,10.4,6.4,12c3.4,1,6.7-0.7,8.9-2.4c-1.9-5-2.8-10.3-2.8-15.2c0-10.1,4.9-23.6,15.9-20.3c11,3.4,16,19.9,16,30
					c0,7-1.8,13.9-6.1,17.9l-6-8.4c4.7-4.3,8.5-12.1,8.5-20c0-4.4-1.4-10.4-6.4-11.9c-3.4-1.1-6.7,0.6-8.9,2.3
					c1.9,5,2.8,10.3,2.8,15.3C56.1,896.7,51.1,910.2,40.1,906.8z M43.7,892.2c0,1.3,0.1,2.5,0.3,3.8c4.4-4,8.5-12,8.5-19.9
					c0-1.3-0.1-2.5-0.3-3.8C47.8,876.3,43.7,884.3,43.7,892.2z"/>
			</g>
		</g>
		<g class="st1">
			<g>
				<path class="st0" d="M48.1,913.7l24.1,5.2l-7.6,11l-16.4-3.6c-5.2-1.2-21.4-17.5-21.4-10.3c0,9.8,30,26.2,45.4,29.6v12.7
					L36,950.3l11.1,12.2l-0.5,1l-20-15.3v-1.5L38,934.9l2.5,3.7l16.4,3.7c-15.5-7.1-31.6-17.1-31.6-27.6
					C25.3,908,31.8,910,48.1,913.7z M89.7,937l0.1,8.2l-10.2-12.3v-4.8L89.7,937z"/>
			</g>
		</g>
		<g class="st1">
			<g>
				<path class="st0" d="M49.4,1009.6l-14.7-3.2l11.1,12.2l-0.5,1l-20-15.2l7.5-11l16.5,3.6c5.2,1.2,21.5,17.5,21.5,10.8
					c0-10.7-42.3-27.5-45.5-30.1v-12.7l36.1,7.9l-11-12.1l0.5-1l20,15.2v1.5l-11.3,11.7l-2.6-3.7l-23.3-5.1
					c13.8,7.2,38.6,17.1,38.6,29.5C72.2,1015.3,65.7,1013.3,49.4,1009.6z"/>
			</g>
		</g>
		<g>
			<path class="st0" d="M14.2,1179.4h-0.1c-0.4,0-0.8-0.3-0.8-0.7c0,0,0,0,0,0c1.2-1.9,2.1-3.9,2.7-6c0.8-2.8,1.2-5.6,1.4-8.5
				c0.3-3.4,0.4-7.4,0.4-12.1c0-3.2,0-5.6-0.1-7.4c0-1.1-0.1-2.2-0.4-3.3c-0.1-0.2,0-0.4,0.2-0.5c0.1-0.1,0.3-0.1,0.5-0.1
				c0.5,0.2,1.1,0.4,2.1,0.8l2.8,1.3c0.9,0.4,1.6,0.7,1.9,1H36v-3.4c0-0.9,0-1.8-0.1-2.7c0-0.5-0.1-0.9-0.3-1.4
				c-0.1-0.2-0.1-0.4-0.1-0.6c0.1-0.2,0.3-0.3,0.6-0.3c0.5,0,1.2,0.1,2.2,0.2l3.1,0.4c0.7,0.1,1.5,0.2,2.2,0.4
				c0.4,0.1,0.6,0.4,0.5,0.8c0,0,0,0.1,0,0.1c0,0.4-0.2,0.7-0.6,0.7c-0.1,0-0.1,0-0.2,0c-0.7,0.1-1.1,0.5-1.1,1v0.5h8.6
				c0.4,0,0.8-0.1,1-0.4c0.2-0.3,0.5-0.8,0.9-1.4l0.9-1.2c0.2-0.2,0.4-0.4,0.7-0.4c0.2,0,0.4,0.1,0.5,0.2c0.5,0.4,1.2,0.9,2.1,1.7
				c0.7,0.6,1.3,1.2,1.9,1.9c0.1,0.1,0.2,0.3,0.2,0.5c0,0.5-0.2,0.7-0.5,0.7H42.3v2.7h15.6c0.3,0,0.6-0.1,0.8-0.3l1.9-1.9
				c0.1-0.2,0.3-0.3,0.5-0.3c0.2,0,0.3,0.1,0.5,0.2c0.5,0.4,1,0.8,1.5,1.3c0.6,0.6,1.2,1.2,1.8,1.8c0.6,0.6,1,1.1,1.3,1.4
				c0.2,0.2,0.3,0.5,0.3,0.7c0,0.2-0.1,0.5-0.2,0.6c-0.2,0.2-0.5,0.4-0.8,0.3c-0.8,0-1.5,0.1-2.3,0.3c-0.9,0.2-1.9,0.6-2.7,1
				c-0.8,0.3-1.5,0.8-2.1,1.4c0.4,0.4,0.6,0.9,0.6,1.5c0,0.6-0.2,1.2-0.7,1.7c-0.6,0.5-1.4,0.8-2.2,0.9l-1.6,0.2
				c0.7,0.3,1.4,0.6,2.3,0.9c0.7,0.3,1.4,0.6,2,1c0.3,0.1,0.5,0.5,0.5,0.8c0,0.4-0.3,0.8-0.7,0.9c-0.2,0.1-0.4,0.2-0.6,0.3
				c-0.5,0.4-0.7,1.1-0.6,1.7c0,0.8,0,1.6,0,2.5s0,1.7,0.1,2.3c0.1,0.7,0.1,1.1,0.1,1.3c0,0.4-0.4,0.7-1.1,1c0.8,0.3,1.6,0.6,2.4,1
				c0.7,0.3,1.3,0.6,1.9,1c0.4,0.2,0.6,0.6,0.6,1c0,0.4-0.3,0.8-0.7,0.9c-0.2,0-0.3,0.1-0.5,0.2c-0.5,0.4-0.8,1-0.7,1.7v3.5
				c0.3,0,0.6-0.1,0.8-0.3l0.8-1.4c0.4-0.6,0.7-1.1,1-1.4c0.1-0.2,0.3-0.4,0.6-0.4c0.2,0,0.4,0.1,0.6,0.2c0.4,0.3,0.8,0.6,1.1,1
				c0.5,0.5,0.9,0.9,1.3,1.4c0.4,0.4,0.7,0.8,0.9,1.2c0.1,0.1,0.2,0.3,0.2,0.5c0,0.5-0.2,0.7-0.6,0.7H24.8c-2,0-3.5,0.1-4.8,0.2
				l-0.7-2c1.5,0.2,3.3,0.2,5.4,0.3h0.1v-5.3c0-1,0-1.8-0.1-2.4c0-0.5-0.1-0.9-0.2-1.4c0-0.2,0-0.3,0.1-0.5c0.1-0.1,0.2-0.1,0.3-0.1
				c0.2,0,0.5,0.1,0.7,0.2l1.1,0.4v-0.1c0-0.2,0-0.8,0-1.8c0-1,0-2.1,0.1-3.4c0.1-1.3,0-2.5,0-3.6c0-0.8,0-1.6-0.1-2.3
				c0-0.5-0.1-1.1-0.3-1.6c-0.1-0.3,0-0.4,0.2-0.5c0.1-0.1,0.3-0.1,0.5-0.1c0.3,0.1,0.8,0.3,1.6,0.6l2.4,0.9
				c0.6,0.2,1.2,0.5,1.8,0.8h17.4c0.3,0,0.6-0.1,0.8-0.4l0.7-1.3c-1.5,0.1-3.1,0.1-4.8,0.2s-3.3,0.1-4.8,0.1c-1.2,0-2.4,0-3.4-0.1
				c-1-0.1-1.8-0.1-2.5-0.1c-2.1-0.2-3.2-1.1-3.2-2.9v-1.7c-0.8,0.1-1.5,0.1-2.1,0.2c-0.3,0-0.7,0.1-1,0.1c-2,0.2-3.5,0.4-4.8,0.6
				l-0.8-2c1.5,0,3.3,0,5.3-0.2l3.3-0.3v-3.6h-9.1v8.9c0,3.6-0.5,7.2-1.5,10.6c-0.9,3.1-2.2,6-3.8,8.7
				C17.7,1175.9,16.1,1177.8,14.2,1179.4z M30.1,1138.8c-1,0-1.6-0.4-1.6-1.3c0-0.3,0-0.7,0-1.3s0.1-1.2,0.1-1.8h-7.1
				c-1.2,0-2.3,0-3.2,0.1s-1.9,0.1-2.9,0.2l-0.7-2.4c1.8,0.2,4.1,0.4,6.7,0.5h7.1v-0.6c0-0.7,0-1.5-0.1-2.2c0-0.4-0.2-0.9-0.3-1.2
				c0-0.1-0.1-0.3-0.1-0.5c0-0.3,0.2-0.5,0.6-0.5c0.8,0,1.5,0.1,2.3,0.2l3.1,0.4c1,0.1,1.8,0.3,2.2,0.4c0.4,0.1,0.7,0.4,0.7,0.9
				c0,0.1,0,0.1,0,0.1c0,0.5-0.3,0.7-0.8,0.8c-0.7,0.1-1.1,0.5-1.1,1.1v1.1h9.2v-0.6c0.1-1.2-0.1-2.3-0.4-3.5
				c-0.1-0.2-0.1-0.4,0-0.6c0.1-0.2,0.3-0.4,0.6-0.3c0.8,0,1.6,0.1,2.3,0.2l3.1,0.4c1,0.1,1.8,0.3,2.2,0.4c0.4,0.1,0.6,0.4,0.6,1
				c0,0.6-0.3,0.7-0.8,0.8c-0.7,0.1-1.1,0.5-1.1,1.1v1.1h5.1c0.5,0,1-0.2,1.4-0.5c0.4-0.4,0.7-0.9,1-1.3c0.3-0.4,0.6-0.9,0.9-1.3
				c0.2-0.3,0.4-0.4,0.7-0.5c0.2,0,0.4,0.1,0.6,0.2c0.6,0.2,1.2,0.6,1.7,0.9c0.7,0.4,1.3,0.9,1.9,1.4c0.5,0.4,1,0.8,1.4,1.4
				c0.2,0.2,0.2,0.5,0.2,0.7c0,0.5-0.2,0.7-0.6,0.7H50.8c0,0.5,0,1,0,1.5c0,0.4,0,0.7,0,0.8c0,0.5-0.5,1-1.4,1.3
				c-1.1,0.4-2.3,0.6-3.5,0.5c-1,0-1.6-0.4-1.6-1.3v-2.8h-9.2v2.5c0,0.5-0.5,1-1.5,1.3C32.5,1138.7,31.3,1138.8,30.1,1138.8
				L30.1,1138.8z M31.5,1169.4h20.8c0.3,0,0.7-0.2,0.9-0.5l0.5-0.8c-0.2,0-0.5,0.1-0.7,0.1h-0.7c-0.8,0-1.2-0.4-1.2-1.1v-0.2H33v0.1
				c0,0.4-0.4,0.7-1.1,1c-0.8,0.3-1.6,0.5-2.4,0.6l1.2,0.5C31,1169.2,31.3,1169.3,31.5,1169.4L31.5,1169.4z M34.5,1171h-3.3v5.8h3.3
				L34.5,1171z M39,1158.2h-6.1v2.8h6.1L39,1158.2z M39,1162.5h-6.1v2.9h6.1L39,1162.5z M40.6,1150.6c0.3,0,0.6,0.1,0.9,0.1h1.3
				c0.9,0,2,0,3.1-0.1c1.1,0,2.3-0.1,3.4-0.2c1.1-0.1,2-0.2,2.7-0.2c0.6,0,1.1-0.4,1.3-1c0.3-0.7,0.5-1.3,0.7-2
				c0.2-0.8,0.4-1.4,0.6-1.9H48c0.6,0.4,1.2,0.8,1.8,1.3c0.5,0.3,0.9,0.7,1.3,1.2c0.2,0.2,0.2,0.4,0.2,0.6c0,0.3-0.2,0.5-0.5,0.6
				l-11.4,1c0,0.2,0.1,0.4,0.3,0.5C40.1,1150.6,40.4,1150.6,40.6,1150.6z M45.6,1145.3h-6v3l4-0.3c0.3,0,0.6-0.2,0.8-0.5
				c0.1-0.2,0.3-0.6,0.6-1C45.1,1146.1,45.4,1145.7,45.6,1145.3L45.6,1145.3z M43.8,1171h-3.4v5.8h3.4V1171z M51.1,1158.1h-6.2v2.8
				h6.2V1158.1z M51.1,1162.5h-6.2v2.9h6.2V1162.5z M52.9,1171h-3.4v5.8h3.4L52.9,1171z M56.9,1149.9l1-4.6h-2v3.6
				c0,0.2,0,0.4,0.1,0.6c0.2,0.2,0.4,0.3,0.6,0.3c0,0,0.1,0,0.1,0C56.8,1149.7,56.9,1149.8,56.9,1149.9
				C56.9,1149.9,57,1149.9,56.9,1149.9L56.9,1149.9z"/>
		</g>
		<g>
			<path class="st0" d="M50.6,1241.6c0-1.1-0.1-2.3-0.4-3.4c-0.2-0.8-0.8-1.5-1.5-2c-1.1-0.6-2.3-1-3.5-1.2
				c-0.1-0.2-0.1-0.3-0.1-0.5c0-0.2,0-0.3,0.1-0.5c-0.6,0.2-1.1,0.3-1.7,0.4c-0.6,0.1-1.2,0.1-1.9,0.1c-0.9,0-1.4-0.4-1.4-1.3v-1.2
				h-8.2v2.2c0,0.4-0.3,0.7-0.8,1c-0.6,0.3-1.3,0.5-2,0.6c-0.8,0.1-1.6,0.2-2.3,0.2c-0.9,0-1.4-0.4-1.4-1.3c0-0.3,0.1-1.6,0.1-4
				c0.1-2.3,0.1-5.6,0.1-9.9c0-2.3-0.1-4-0.2-5.3c-1.7,2.1-3.5,4.1-5.5,6c-1.7,1.7-3.5,3.3-5.5,4.6c-0.2,0-0.4-0.1-0.6-0.3
				c-0.1-0.2-0.2-0.4-0.2-0.6c1.1-1.2,2.1-2.5,3-3.9c1.1-1.7,2-3.4,2.9-5.2c0.9-1.9,1.7-3.7,2.5-5.6c0.7-1.7,1.2-3.4,1.6-5.1
				c0.2-0.5,0.3-1,0.3-1.6c0.1-0.3,0.2-0.5,0.4-0.5c0.3,0,0.7,0.1,1,0.2c0.6,0.2,1.3,0.4,2,0.6l2.3,0.7c0-0.1,0-0.3-0.1-0.4
				c-0.2-1.2-0.4-2.4-0.8-3.6c-0.3-1-0.8-1.9-1.5-2.6h-2.3c-1.7,2.2-3.5,4.2-5.4,6.2c-1.6,1.7-3.3,3.2-5.1,4.7
				c-0.6,0-0.9-0.3-0.9-0.8c0.8-1.1,1.4-2.2,2-3.3c0.7-1.3,1.4-2.8,2.1-4.4c0.7-1.6,1.3-3.2,1.9-4.8c0.5-1.5,0.9-3,1.2-4.5
				c0.1-0.3,0.1-0.6,0.2-0.8c0.1-0.3,0.1-0.5,0.1-0.8c0-0.3,0.2-0.5,0.6-0.3c0.8,0.2,1.6,0.4,2.4,0.6c1,0.3,2,0.6,3,1
				c1,0.4,1.8,0.6,2.4,0.9c0.2,0.1,0.4,0.4,0.3,0.7c0,0.2-0.1,0.4-0.2,0.6c-0.1,0.2-0.3,0.3-0.5,0.3c-0.3,0-0.6,0-0.9,0.1
				c-0.3,0.2-0.5,0.4-0.7,0.7c-0.2,0.4-0.5,0.8-0.7,1.2l-0.8,1.2h5.4c0.3,0,0.5,0,0.8-0.1c0.2-0.1,0.4-0.3,0.5-0.5l0.9-1.2l0.9-1.3
				c0.2-0.3,0.5-0.5,0.9-0.5c0.1,0,0.2,0,0.3,0.1c0.1,0,0.2,0.1,0.3,0.2c0.8,0.5,1.5,1.1,2.2,1.7c0.7,0.6,1.3,1.2,2,1.9
				c0.2,0.2,0.3,0.4,0.3,0.7c0,0.5-0.2,0.7-0.7,0.7H29.7c1.4,0.1,2.7,0.5,3.9,1.1c1,0.6,1.8,1.6,2,2.8c0,0.2,0.1,0.3,0.1,0.4
				c0,0.1,0,0.3,0,0.4c0,0.8-0.2,1.5-0.7,2.1c-0.4,0.6-1,1-1.7,1.2l-0.4,0.1l-0.4,0.1c0,0.1,0,0.1,0,0.2c-0.1,0.3-0.4,0.5-0.7,0.5
				h-0.3c-0.2,0-0.5,0.1-0.6,0.2c-0.2,0.2-0.4,0.5-0.5,0.8l-0.3,0.7c-0.1,0.3-0.3,0.5-0.5,0.8h25.6c0.4,0,0.7-0.2,0.9-0.5
				c0.1-0.2,0.3-0.5,0.5-0.8c0.2-0.4,0.4-0.7,0.5-0.9c0.2-0.2,0.4-0.5,0.6-0.5c0.2,0,0.3,0.1,0.5,0.1c0.6,0.2,1.2,0.4,1.8,0.7
				c0.7,0.3,1.4,0.6,2.2,1c0.7,0.4,1.3,0.6,1.8,0.9c0.4,0.2,0.6,0.5,0.6,0.9c0,0.5-0.3,0.9-0.8,1c-0.2,0.1-0.5,0.2-0.7,0.3
				c-0.6,0.5-0.8,1.3-0.7,2v2.5c0,4-0.2,8-0.6,11.9c-0.3,2.6-0.9,5.1-2,7.5c-0.8,1.7-2.1,3-3.7,3.9
				C54.4,1241.1,52.5,1241.6,50.6,1241.6z M51.9,1234.2c0.7-0.1,1.3-0.3,1.8-0.8c0.6-0.7,1-1.6,1.2-2.5c0.4-1.7,0.6-3.4,0.7-5.2
				c0.2-2.2,0.2-5.2,0.2-8.8v-5.2H28.6l-1.5,2.2c0.6,0.2,1.2,0.4,2,0.7s1.4,0.6,2.1,0.9c0.5,0.2,1,0.4,1.5,0.7h7.1
				c0.3,0,0.7-0.1,0.8-0.5l1-1.6c0.1-0.2,0.4-0.4,0.6-0.5c0.2,0,0.3,0.1,0.5,0.1c0.5,0.2,1,0.4,1.7,0.7s1.4,0.6,2.1,0.9
				c0.6,0.2,1.1,0.5,1.6,0.8c0.4,0.2,0.7,0.6,0.6,1c0.1,0.5-0.3,0.9-0.7,1l-0.3,0.1c-0.1,0-0.2,0.1-0.3,0.2
				c-0.5,0.5-0.8,1.2-0.7,1.9c0,1.9,0,3.7,0.1,5.6s0.1,3.4,0.1,4.7s0.1,2,0.1,2.2c0,0.4-0.4,0.8-1.3,1.2c0.6,0,1.3,0.1,2,0.2
				c0.8,0.1,1.6,0.1,2.3,0.1H51C51.3,1234.3,51.6,1234.3,51.9,1234.2z M40.3,1217.9h-8.2v5h8.2L40.3,1217.9z M40.3,1224.7h-8.2v5.8
				h8.2L40.3,1224.7z M54.7,1207.7c-0.7,0-1.4-0.2-1.9-0.7c-0.6-0.5-1-1.2-1-1.9c-0.1-1.3-0.4-2.6-0.9-3.8c-0.4-1-1-1.9-1.9-2.6
				h-1.7c-1.3,1.6-2.7,3.2-4.2,4.6c-1.3,1.3-2.7,2.6-4.2,3.8h-0.1c-0.2,0-0.4-0.1-0.5-0.3c-0.1-0.2-0.2-0.3-0.2-0.5
				c0.8-1.3,1.6-2.7,2.2-4.1c0.8-1.8,1.5-3.6,2.1-5.5c0.6-1.7,1-3.5,1.3-5.4l0.2-1.4c0-0.3,0.2-0.5,0.6-0.3c0.8,0.2,1.6,0.4,2.4,0.6
				c1,0.3,2,0.6,3,1c1,0.4,1.8,0.6,2.4,0.9c0.2,0.1,0.3,0.2,0.4,0.5c0.1,0.2,0.1,0.4,0,0.6c-0.2,0.4-0.4,0.6-0.6,0.6
				c-0.3,0-0.6,0-0.8,0.1c-0.3,0.2-0.6,0.4-0.7,0.7l-1.7,2.4h7.4c0.5,0.1,1-0.2,1.4-0.6l1.1-1.5c0.4-0.6,0.8-1.1,1.1-1.4
				c0.2-0.3,0.5-0.5,0.8-0.5c0.1,0,0.2,0,0.3,0.1c0.1,0,0.2,0.1,0.3,0.2c0.6,0.3,1.1,0.7,1.6,1.2c0.6,0.5,1.2,1,1.8,1.6
				c0.5,0.4,0.9,0.9,1.3,1.3c0.2,0.2,0.3,0.4,0.3,0.7c0,0.5-0.2,0.7-0.6,0.7H51.1c1,0.2,2.1,0.5,3.1,0.9c1,0.4,1.9,0.9,2.8,1.5
				c0.7,0.6,1.2,1.4,1.3,2.3c0,0.1,0,0.2,0,0.3c0,0.1,0,0.2,0,0.3c0.1,1.1-0.4,2.1-1.2,2.8C56.5,1207.3,55.6,1207.7,54.7,1207.7
				L54.7,1207.7z"/>
		</g>
		<g>
			<rect x="26.3" y="659.5" class="st0" width="2.5" height="19.5"/>
		</g>
	</g>
</g>
</svg>
