<svg xmlns="http://www.w3.org/2000/svg" viewBox="0 0 806 96.53"><defs><style>.cls-1{fill:#fff;}</style></defs><g id="圖層_2" data-name="圖層 2"><g id="煮成底線"><path class="cls-1" d="M0,95.55c258.19-1.3,547.81-1.31,806,0-258.19,1.32-547.81,1.3-806,0Z"/></g><g id="可以煮成"><path class="cls-1" d="M205.25,71.51a29.78,29.78,0,0,0-1.14-5.92,5,5,0,0,0-2.52-3,16.54,16.54,0,0,0-5.51-1.29,1.23,1.23,0,0,1-.22-.59.87.87,0,0,1,.51-.89h10.07a1.89,1.89,0,0,0,2.14-2.15V14.09H170c-1.58,0-3,0-4.22.07s-2.49.15-3.78.3l-.88-3.18q3.61.44,8.88.59h42.1a2.48,2.48,0,0,0,1.93-.82c.24-.29.6-.75,1.07-1.37s.94-1.24,1.4-1.88.81-1.09,1-1.33a1.34,1.34,0,0,1,1.11-.6,4.25,4.25,0,0,1,1.89.71,23,23,0,0,1,2.59,1.74q1.37,1,2.55,2.07c.79.69,1.38,1.23,1.78,1.63a1.27,1.27,0,0,1,.37,1q0,1.11-1,1.11h-9V33.18c0,1.82,0,3.85,0,6.07s.06,4.47.11,6.77.08,4.43.11,6.4,0,3.64.07,5,0,2.2,0,2.55a10.47,10.47,0,0,1-2.81,7.62Q212.5,70.47,205.25,71.51ZM171.73,59.15q-2.07,0-2.07-1.92c0-.25,0-1.1.07-2.55s.13-3.3.23-5.52.17-4.62.22-7.21.07-5.12.07-7.59c0-3.2-.05-5.92-.15-8.14a12.65,12.65,0,0,0-.74-4.51.55.55,0,0,1,.15-.81c.15-.25.42-.32.82-.23a18.14,18.14,0,0,1,2.92.89l3.51,1.37c1.19.47,2.17.9,3,1.3h7a1.42,1.42,0,0,0,1.34-.67c.14-.25.38-.64.7-1.18s.55-1,.7-1.26a1.22,1.22,0,0,1,1-.67,1.48,1.48,0,0,1,.34,0,2.43,2.43,0,0,1,.4.11,17.3,17.3,0,0,1,2.52,1l2.92,1.4c1,.47,1.77.91,2.41,1.3a1.64,1.64,0,0,1,.89,1.48,1.53,1.53,0,0,1-1.11,1.48l-.3.15-.3.15a2.35,2.35,0,0,0-1.11,1.14,5.14,5.14,0,0,0-.29,1.89q0,3.25.07,6.92t.22,6.88c.1,2.15.18,3.94.23,5.37s.07,2.22.07,2.36a1.79,1.79,0,0,1-1.11,1.52,10.19,10.19,0,0,1-2.81,1A16.19,16.19,0,0,1,190,55q-2.07,0-2.07-1.92V48.72h-9v7.62c0,.84-.77,1.52-2.29,2A15.37,15.37,0,0,1,171.73,59.15Zm16.21-32.63h-9v20h9Z"/><path class="cls-1" d="M242.7,65.52l-2.19-2.78q-1.37-1.74-2.59-3.55C237.11,58,236.48,57,236,56.27c-.15-.3-.15-.52,0-.67a1.65,1.65,0,0,1,.51-.44c.4-.2.86-.41,1.37-.63s1.1-.46,1.74-.7l5.55-2.37V15.72a27.34,27.34,0,0,0-.26-4.33,9.92,9.92,0,0,0-.55-2.26,1.07,1.07,0,0,1,0-1,1,1,0,0,1,.81-.3c.55,0,1.32,0,2.33.15s2.1.22,3.26.37,2.24.31,3.26.48,1.76.31,2.25.41a1.15,1.15,0,0,1,.89,1.18,1.27,1.27,0,0,1-1.26,1.41,1.63,1.63,0,0,0-1.29.55,2.9,2.9,0,0,0-.33,1.59V47.76q4.73-2,9.36-3.85t8.14-3.29q3.51-1.45,4.92-2a.89.89,0,0,1,.66.44.92.92,0,0,1,.08.81c-.55.35-1.61,1.06-3.19,2.15s-3.46,2.36-5.66,3.81-4.49,3-6.88,4.66l-6.95,4.81q-3.37,2.34-5.92,4.15t-3.67,2.7c-.59.44-.88.86-.88,1.26a1.91,1.91,0,0,0,.22.88.16.16,0,0,0,0,.11.16.16,0,0,1,0,.12,1,1,0,0,1-.66.88C243.41,65.79,243,65.81,242.7,65.52Zm11.54,5.4a1.3,1.3,0,0,1-.44-.89,1,1,0,0,1,.22-.66,70.38,70.38,0,0,0,13-3.89,28.33,28.33,0,0,0,9.73-6.62,28,28,0,0,0,6.14-11.07A58.1,58.1,0,0,0,285,30.66V16.53a36.33,36.33,0,0,0-.37-6.07,16.48,16.48,0,0,0-.74-2.81c-.25-.4-.28-.72-.08-1a.87.87,0,0,1,.82-.37q.81,0,2.4.15c1.06.1,2.21.23,3.44.4l3.41.48a17,17,0,0,1,2.29.45.92.92,0,0,1,.78.48,2.06,2.06,0,0,1,.18.85c-.05.69-.47,1.08-1.26,1.18-1.13.15-1.7.67-1.7,1.56v20.5a52.47,52.47,0,0,1-1.07,11.06,35.62,35.62,0,0,1-3.07,8.77,19.94,19.94,0,0,1,9.4,3.4,10,10,0,0,1,4.14,7.18,6.06,6.06,0,0,1-.7,3.74A6.7,6.7,0,0,1,300.53,69a5.67,5.67,0,0,1-2.92.85,3.69,3.69,0,0,1-2.34-.85,3.5,3.5,0,0,1-1.22-2.55,29.27,29.27,0,0,0-1.59-6.81,12.49,12.49,0,0,0-3.66-5.26,27.49,27.49,0,0,1-9,9.14,43,43,0,0,1-12,5.07A85.2,85.2,0,0,1,254.24,70.92Zm18.21-44.55a4.93,4.93,0,0,1-.52.11,2.68,2.68,0,0,1-.52,0,3.65,3.65,0,0,1-2.15-.67,3.47,3.47,0,0,1-1.33-2.07,30.72,30.72,0,0,0-2.89-7.1,13.63,13.63,0,0,0-5-5,1.16,1.16,0,0,1-.14-.52.92.92,0,0,1,.51-1,30.4,30.4,0,0,1,8.51,1.07,13.13,13.13,0,0,1,5.85,3.25,7.65,7.65,0,0,1,2.14,5.59,6.37,6.37,0,0,1-1.36,4.18A6,6,0,0,1,272.45,26.37Z"/><path class="cls-1" d="M337.71,71.07a3.86,3.86,0,0,1-2.59-.89,3,3,0,0,1-1-2.37,33.52,33.52,0,0,0-.74-7.43,12.61,12.61,0,0,0-2.74-5.52v-.15c0-.69.32-1,1-1a22.48,22.48,0,0,1,8.29,4.07,15.41,15.41,0,0,0-1-3.78,4.32,4.32,0,0,0-2-2.11,11.19,11.19,0,0,0-4-.92.94.94,0,0,1,.15-1.48h6.36a1.75,1.75,0,0,0,1.37-.41,1.89,1.89,0,0,0,.34-1.22V44.5a11.33,11.33,0,0,0-.6-4.22.83.83,0,0,1,.08-.59.71.71,0,0,1,.59-.29l2.07.22c.94.1,1.95.22,3,.37s2.08.29,3,.44,1.59.27,2,.37a22.66,22.66,0,0,0,3-1.81l3.58-2.48H319.06q-3.76.08-6.14.3l-.81-2.89q2.88.3,6.95.37h39.59a1.71,1.71,0,0,0,1.26-.44L363,31.63l.41-.3a.62.62,0,0,1,.4-.15,1.12,1.12,0,0,1,.67.3c.59.39,1.39,1,2.4,1.81s2,1.65,3.08,2.52,1.87,1.59,2.51,2.18a1.39,1.39,0,0,1,.37,1l-.07.74a1.36,1.36,0,0,1-1.33.88,11.39,11.39,0,0,0-1.67-.18c-.62,0-1.27,0-2,0q-2.67,0-5.73.3t-5.78.81A23.39,23.39,0,0,0,352,42.73a2.17,2.17,0,0,0-1.18.74,2.9,2.9,0,0,0-.3,1.55c0,1.14,0,2.21.11,3.22s.12,1.81.12,2.4a6.51,6.51,0,0,1-1.11,3.63,22.26,22.26,0,0,1,7.69,4.29,8.37,8.37,0,0,1,3,6.44,5,5,0,0,1-1.85,4.18,6.36,6.36,0,0,1-4,1.44,3.55,3.55,0,0,1-2.37-.81A3.22,3.22,0,0,1,351,67.59a30.46,30.46,0,0,0-1.19-6.11,18,18,0,0,0-2.44-5.14,17.09,17.09,0,0,1-6.73,2.07,11.75,11.75,0,0,1,2.22,3.07,8.11,8.11,0,0,1,.81,3.59,5.27,5.27,0,0,1-1.77,4.48A6.41,6.41,0,0,1,337.71,71.07Zm-20.27.52a4.34,4.34,0,0,1-4-1.26,5.12,5.12,0,0,1-1.33-3.41,5.58,5.58,0,0,1,.77-2.81,4.11,4.11,0,0,1,2.26-1.85,18.23,18.23,0,0,0,5.55-3,9.62,9.62,0,0,0,3-5.14,1.09,1.09,0,0,1,.74-.37.8.8,0,0,1,.74.37,26.06,26.06,0,0,1,.48,3.48c.08,1.09.11,2.12.11,3.11q0,5.25-2.07,7.88A8.46,8.46,0,0,1,317.44,71.59Zm-4-56.61-.81-2.89q2.88.3,6.95.37h20.2v-.59a38.63,38.63,0,0,0-.18-4.22A6.48,6.48,0,0,0,339,5.43a1.16,1.16,0,0,1-.14-.52c0-.49.32-.74,1-.74s1.37,0,2.48.15,2.29.22,3.55.37l3.51.44a16.77,16.77,0,0,1,2.37.45,1.06,1.06,0,0,1,.89,1.11,1.24,1.24,0,0,1-1.18,1.4c-1.09.15-1.63.67-1.63,1.56v2.81h13.76a4.48,4.48,0,0,0,1.08-.11,1.51,1.51,0,0,0,.77-.63c.25-.3.58-.73,1-1.3l1.26-1.7.92-1.22a1.31,1.31,0,0,1,1-.59,3.74,3.74,0,0,1,1.7.67,24.61,24.61,0,0,1,2.41,1.66c.86.67,1.66,1.33,2.4,2a21.36,21.36,0,0,1,1.63,1.59,1.61,1.61,0,0,1,.37.89c0,.69-.3,1-.89,1H319.58Q315.82,14.83,313.44,15Zm11.91,17.83c-1.28,0-1.92-.59-1.92-1.78,0-.44,0-1.5.11-3.18s.11-3.62.11-5.84c0-1.53,0-2.73-.11-3.59a7.39,7.39,0,0,0-.33-1.89.49.49,0,0,1,.07-.67.75.75,0,0,1,.67-.14l1.92.51c.89.25,1.88.55,3,.89s2.1.68,3,1,1.62.58,2.07.78H355.4a1.41,1.41,0,0,0,1.26-.74l1.18-2a1.12,1.12,0,0,1,1-.59l.3,0,.37.12c.69.19,1.6.49,2.74.88s2.25.81,3.36,1.22A19,19,0,0,1,368.13,19a1.48,1.48,0,0,1,.88,1.41,1.46,1.46,0,0,1-1,1.4,1.85,1.85,0,0,0-.82.37,2.86,2.86,0,0,0-1,2.59,21.53,21.53,0,0,0,.15,2.48c.09.87.14,1.47.14,1.82q0,.81-1.29,1.44a12,12,0,0,1-3.15,1,19.79,19.79,0,0,1-3.47.33c-1.34,0-2-.61-2-1.85v-.14H333.12v.37c0,.54-.43,1-1.29,1.4a13.58,13.58,0,0,1-3.07.93A18.71,18.71,0,0,1,325.35,32.81Zm31.16-11.69H333.12v6.44h23.39Zm19.24,49.65a4.55,4.55,0,0,1-2.22.52,3.8,3.8,0,0,1-2-.59,3.07,3.07,0,0,1-1.33-1.78,35.79,35.79,0,0,0-3.59-8.21,19.56,19.56,0,0,0-5.81-6.29.82.82,0,0,1-.07-.37.91.91,0,0,1,.74-1,40.41,40.41,0,0,1,9,2.44,16.8,16.8,0,0,1,6.25,4.18,8.71,8.71,0,0,1,2.29,6,4.91,4.91,0,0,1-.92,3.07A7,7,0,0,1,375.75,70.77Z"/><path class="cls-1" d="M413.56,70.85a3.53,3.53,0,0,1-2.26-.74,2.62,2.62,0,0,1-.92-2.15,30.42,30.42,0,0,0-.7-6.92A10.53,10.53,0,0,0,406.83,56a2.75,2.75,0,0,1,.14-.74,16.31,16.31,0,0,1-2.73.22c-1.24,0-1.85-.56-1.85-1.7q0-.22,0-.78c0-.37,0-.8,0-1.29.05-1.38.12-3.23.22-5.55s.13-4.81.08-7.47v-.45q-3.63,1-7.44,1.74c-2.54.52-5.14,1-7.81,1.52a.82.82,0,0,1-.51-.82,1.07,1.07,0,0,1,.22-.66c2.61-.69,5.21-1.45,7.8-2.26S400.19,36,402.76,35a27.93,27.93,0,0,0-.26-3.26c-.13-.74-.24-1.28-.33-1.63a.57.57,0,0,1,.14-.66.72.72,0,0,1,.67-.15c.59.15,1.61.47,3.07,1s2.8,1,4,1.48c1.68-.84,3.34-1.74,5-2.7s3.29-2,4.92-3.07H396.54c-1.58,0-3,0-4.22.07s-2.49.15-3.77.3l-.89-3.18c2.42.29,5.35.49,8.81.59h15.39V15.49h-8.51c-1.63,0-3.06,0-4.29.08s-2.49.15-3.78.29l-.89-3.18q3.63.45,9,.59h8.51V10.91a29.69,29.69,0,0,0-.15-3.3,7.26,7.26,0,0,0-.37-1.81,1.13,1.13,0,0,1-.07-.89.68.68,0,0,1,.74-.44c.69,0,1.75.07,3.18.22s2.86.32,4.29.52a22,22,0,0,1,3.11.59,1,1,0,0,1,.81,1.11,1.18,1.18,0,0,1-1.11,1.33,1.55,1.55,0,0,0-1.11.45,1.78,1.78,0,0,0-.29,1.11v3.47h1.33a1.69,1.69,0,0,0,1.48-.74c.25-.44.63-1.07,1.15-1.88s.9-1.4,1.14-1.74a.9.9,0,0,1,.82-.52,1.27,1.27,0,0,1,.81.3,15.2,15.2,0,0,1,1.89,1.48c.71.64,1.4,1.29,2.07,2a19,19,0,0,1,1.52,1.66c.1.1.15.17.15.22.49-.54,1-1.11,1.4-1.7s.91-1.21,1.41-1.85a10.48,10.48,0,0,0,1.44-2.4,12.08,12.08,0,0,0,.63-1.67,1.26,1.26,0,0,1,.37-.66,1.13,1.13,0,0,1,.81,0l9.55,5.1c.34.2.42.59.22,1.19s-.64.79-1,.74l-.55-.12-.41,0a2.28,2.28,0,0,0-1.48.81,68.34,68.34,0,0,1-5.36,5.51,71.6,71.6,0,0,1-5.74,4.78h6.59a2,2,0,0,0,1.78-.74c.29-.45.76-1.15,1.4-2.11a21.52,21.52,0,0,1,1.41-2,1.07,1.07,0,0,1,1-.59,3.42,3.42,0,0,1,1.55.66,23.7,23.7,0,0,1,2.19,1.63c.76.64,1.48,1.28,2.14,1.92s1.17,1.16,1.52,1.56a1.2,1.2,0,0,1,.37.89q0,1-.81,1H431.39a69.65,69.65,0,0,1-6.06,3.66c-2.07,1.11-4.2,2.13-6.37,3.07H433.1a1.38,1.38,0,0,0,1.26-.59l.66-1.15c.3-.52.52-.92.67-1.22a1.05,1.05,0,0,1,.89-.59,1,1,0,0,1,.29,0l.37.11c.69.2,1.55.5,2.59.92s2.07.87,3.11,1.33a27,27,0,0,1,2.44,1.23,1.49,1.49,0,0,1,.82,1.4,1.43,1.43,0,0,1-1,1.33l-.41.15a1.19,1.19,0,0,0-.33.22,1.84,1.84,0,0,0-.89,1,5.4,5.4,0,0,0-.22,1.7c0,1.19,0,2.51.07,4s.1,2.86.15,4.22.1,2.51.15,3.48.07,1.51.07,1.66c0,.5-.39.94-1.18,1.33a11.15,11.15,0,0,1-2.92.93,17.74,17.74,0,0,1-3.3.33c-1.23,0-1.85-.59-1.85-1.77v-.23h-23v.45c0,.44-.3.84-.89,1.18a9.31,9.31,0,0,1-2.22.89,20.49,20.49,0,0,1,7.51,3.85,8.48,8.48,0,0,1,2.85,6.81A4.54,4.54,0,0,1,417,69.51,5.66,5.66,0,0,1,413.56,70.85Zm-21.68.66a4.26,4.26,0,0,1-3.41-1.29,4.35,4.35,0,0,1-1.1-2.85,4.66,4.66,0,0,1,.81-2.63,4.05,4.05,0,0,1,2.29-1.66,31.89,31.89,0,0,0,4.33-1.67A8.22,8.22,0,0,0,397.72,59a12.86,12.86,0,0,0,2-4.25,1,1,0,0,1,.74-.3.76.76,0,0,1,.74.45,10.37,10.37,0,0,1,.15,1.73v1.67q0,6.66-2.55,9.92A8.32,8.32,0,0,1,391.88,71.51Zm19.61-36v5.77h23V35H413.34C412.65,35.2,412,35.4,411.49,35.55Zm23,8h-23v6.73h23Zm-2.51-28h-11.1v8.22h2.22A67.7,67.7,0,0,0,432,15.49Zm-2,55.13a3.22,3.22,0,0,1-2.07-.7,2.89,2.89,0,0,1-1-2A30.11,30.11,0,0,0,425.59,61a10.25,10.25,0,0,0-3.45-5v-.29a.9.9,0,0,1,.82-1,21.8,21.8,0,0,1,8.88,3.93A8.12,8.12,0,0,1,435,65.22a4.9,4.9,0,0,1-1.66,4A5.27,5.27,0,0,1,430,70.62Zm19.61.82a3.61,3.61,0,0,1-1.81-.48,2.74,2.74,0,0,1-1.22-1.67,40.91,40.91,0,0,0-3.7-7.4,17.83,17.83,0,0,0-6-5.84.84.84,0,0,1-.07-.37.93.93,0,0,1,.74-1,39.89,39.89,0,0,1,11.39,3.41,9.09,9.09,0,0,1,5.33,6.95,2.36,2.36,0,0,1,.08.56v.55A5,5,0,0,1,452.82,70,4.69,4.69,0,0,1,449.6,71.44Z"/><path class="cls-1" d="M462.92,71.51c-.79-.1-1.14-.47-1-1.11a25.09,25.09,0,0,0,4.33-9,63.37,63.37,0,0,0,1.89-12.62q.43-7.32.44-17c0-3.5-.08-6.68-.26-9.54a35.48,35.48,0,0,0-.63-5.7.83.83,0,0,1,.15-.74c.15-.15.42-.15.82,0,.64.2,1.56.55,2.77,1.07l3.78,1.63c1.3.57,2.37,1.07,3.21,1.52H497c0-1.14-.07-2.31-.07-3.52V12.83a46.8,46.8,0,0,0-.19-4.77,8.32,8.32,0,0,0-.55-2.56c-.15-.19-.13-.44.07-.74s.32-.32.67-.22c.89,0,2,.17,3.29.37s2.63.42,4,.67a28.63,28.63,0,0,1,3.18.74,1.16,1.16,0,0,1,.82,1.18,1.09,1.09,0,0,1-.37.74,1.63,1.63,0,0,1-.67.3,2.07,2.07,0,0,0-1.3.48,2.29,2.29,0,0,0-.4,1.59,86.73,86.73,0,0,0-.22,9.4h11.32a4.35,4.35,0,0,0,1.11-.11,1.27,1.27,0,0,0,.66-.63c.4-.49.92-1.19,1.56-2.07s1.13-1.53,1.48-1.93a.91.91,0,0,1,.81-.52A1.86,1.86,0,0,1,523,15a27.35,27.35,0,0,1,3.4,2.51,20.5,20.5,0,0,1,2.89,2.89,1.66,1.66,0,0,1,.37.89c0,.64-.3,1-.89,1H505.25A97,97,0,0,0,506.32,36a45.69,45.69,0,0,0,2.55,9.7,64.75,64.75,0,0,0,5.77-16.14,13.91,13.91,0,0,0,.26-1.88c0-.47,0-.88,0-1.22v-.23c0-.34.07-.56.22-.66s.35-.25.74-.15a28.49,28.49,0,0,1,2.89.85c1.23.42,2.46.86,3.7,1.33a26.48,26.48,0,0,1,2.81,1.22,1,1,0,0,1,.74,1,1.19,1.19,0,0,1-.41,1,1.51,1.51,0,0,1-.92.3,1.69,1.69,0,0,0-1.78,1.4,66,66,0,0,1-4.14,11.4,49.87,49.87,0,0,1-5.55,9.1q1.26,1.41,2.55,2.67a26.39,26.39,0,0,0,2.7,2.29,5.05,5.05,0,0,0,2.81,1.33c.84,0,1.53-.56,2.08-1.7.44-.79,1-1.87,1.62-3.26s1.29-2.75,1.93-4.1,1.08-2.36,1.33-3a1,1,0,0,1,.59-.15.86.86,0,0,1,.89.52q-.3,1.56-.81,3.81c-.35,1.51-.68,3-1,4.4s-.56,2.52-.71,3.26a8.39,8.39,0,0,0-.22,1.78,3.78,3.78,0,0,0,1.48,3,4.81,4.81,0,0,1,1.22,1.7,4.91,4.91,0,0,1,.41,1.92,3.43,3.43,0,0,1-1.41,3,5.12,5.12,0,0,1-3.25.88,13.23,13.23,0,0,1-3.85-.66,17.56,17.56,0,0,1-4.29-2.07,50.75,50.75,0,0,1-5.33-4,30.86,30.86,0,0,1-4.81-5.25,44.72,44.72,0,0,1-13.58,7.8,86.55,86.55,0,0,1-17.2,4.26,1.06,1.06,0,0,1-.45-.82.94.94,0,0,1,.22-.66,54.68,54.68,0,0,0,15.36-6A44.73,44.73,0,0,0,503.69,53.6a58.78,58.78,0,0,1-4.29-13,109,109,0,0,1-2.22-18.42H477.42v7.62c0,.74,0,1.48,0,2.22s-.06,1.46-.11,2.15h7.92a1,1,0,0,0,.89-.52c.1-.25.3-.66.59-1.22s.54-1,.74-1.37a.71.71,0,0,1,.67-.45,2.24,2.24,0,0,1,.66.15c.55.2,1.32.51,2.33.93s2,.86,3,1.33a22,22,0,0,1,2.33,1.22,1.54,1.54,0,0,1-.22,2.81,2.66,2.66,0,0,0-.74.37,2.35,2.35,0,0,0-1,2.22v1a61.52,61.52,0,0,1-1.22,13.69c-.81,3.45-2.21,6-4.18,7.69a14.4,14.4,0,0,1-8.07,3,12.44,12.44,0,0,0-.88-4.52,4.65,4.65,0,0,0-2.19-2.25,13.65,13.65,0,0,0-3.73-1.08,1.31,1.31,0,0,1-.23-.66.83.83,0,0,1,.45-.82h6.66a3.38,3.38,0,0,0,2.88-1.55,12.54,12.54,0,0,0,1.67-5.18,68.49,68.49,0,0,0,.55-9.84V36.44H477.2A67.89,67.89,0,0,1,473,57.23,34.77,34.77,0,0,1,462.92,71.51Zm53.2-53.8a3.26,3.26,0,0,1-1.77-.51,2.3,2.3,0,0,1-1-1.48,15.34,15.34,0,0,0-1.63-4.37A8.59,8.59,0,0,0,509,8.46,1.15,1.15,0,0,1,508.8,8a1,1,0,0,1,.66-1,17.66,17.66,0,0,1,7.18,1.37A5.54,5.54,0,0,1,520,11.87a6.61,6.61,0,0,1,.22,1.63,3.78,3.78,0,0,1-1.33,3.14A4.3,4.3,0,0,1,516.12,17.71Z"/><path class="cls-1" d="M559.11,65l-1.62,1c-10.64-7.88-14.7-20.46-11.94-33S558,7.8,572.11,0l1,1.06c-11,9.25-18.76,20.13-21.36,31.91S552.13,55.71,559.11,65Z"/><path class="cls-1" d="M594.76,45.48l2.2-.65-.82,3.57-1.86-.65H570.16l-2.2.65.82-3.57,1.86.65Zm4.47-11L598.42,38l-1.87-.64H572.43l-2.19.64.81-3.57,2,.65h24Z"/><path class="cls-1" d="M626,33.94C623.27,46.53,613.69,59.12,599.56,67l-1.14-1.14c11-9.18,18.76-20.14,21.44-31.92S619.45,11.29,612.47,2L614.09,1C624.73,8.77,628.79,21.44,626,33.94Z"/></g></g></svg>