<svg xmlns="http://www.w3.org/2000/svg" viewBox="0 0 732.3 756.26"><defs><style>.cls-1{fill:none;stroke:#fff;stroke-miterlimit:10;stroke-width:0.75px;}.cls-2{fill:#fff;}</style></defs><g id="圖層_2" data-name="圖層 2"><g id="磅秤"><circle class="cls-1" cx="366.15" cy="390.11" r="365.78"/><path class="cls-2" d="M405.06,28.8c-1.1,4.9-2.1,9.8-3.2,14.8h-.1c-3.4,15.1-17.9,28.5-38,28.5-20.3,0-28.8-13.6-25.4-28.8l3.2-14.5C344.85,13.6,359.35,0,379.66,0S408.36,13.6,405.06,28.8Zm-11.2-4.4c2.1-9.4,0-23-14.5-23s-22.61,13.4-24.71,23l-4.2,19.1v-.1l-.9,4.3c-2.1,9.5,0,23,14.4,23,14.61,0,22.71-13.4,24.81-23Z"/><path class="cls-2" d="M633.74,94.74l-15.6,70.81H605l12.4-56.41-2.7-2.6L632,94.74Z"/></g></g></svg>