<svg xmlns="http://www.w3.org/2000/svg" viewBox="0 0 224.66 63.6"><defs><style>.cls-1{fill:#fff;}</style></defs><g id="圖層_2" data-name="圖層 2"><g id="Head"><path class="cls-1" d="M15.79,1.36h1.16a1.42,1.42,0,0,1,1.42,1.42V9.23a1.42,1.42,0,0,1-1.42,1.42H6.51a0,0,0,0,1,0,0v0A9.28,9.28,0,0,1,15.79,1.36Z"/><path class="cls-1" d="M6.51,10.24H8.65a0,0,0,0,1,0,0v4.52a1.42,1.42,0,0,1-1.42,1.42H6.51a0,0,0,0,1,0,0V10.24A0,0,0,0,1,6.51,10.24Z"/><path class="cls-1" d="M6.51,54.26H16.95a1.42,1.42,0,0,1,1.42,1.42v6.44a1.42,1.42,0,0,1-1.42,1.42H15.79a9.28,9.28,0,0,1-9.28-9.28v0A0,0,0,0,1,6.51,54.26Z"/><path class="cls-1" d="M6.51,48.72h.72a1.42,1.42,0,0,1,1.42,1.42v4.52a0,0,0,0,1,0,0H6.51a0,0,0,0,1,0,0V48.72A0,0,0,0,1,6.51,48.72Z"/><path class="cls-1" d="M6.51,16.18h0a0,0,0,0,1,0,0V48.72a0,0,0,0,1,0,0h0A6.51,6.51,0,0,1,0,42.21V22.68a6.51,6.51,0,0,1,6.51-6.51Z"/><path class="cls-1" d="M206.3,1.36h10.44a1.42,1.42,0,0,1,1.42,1.42V9.23a1.42,1.42,0,0,1-1.42,1.42h-1.16a9.28,9.28,0,0,1-9.28-9.28v0A0,0,0,0,1,206.3,1.36Z" transform="translate(424.46 12.01) rotate(-180)"/><path class="cls-1" d="M216,10.24h.72a1.42,1.42,0,0,1,1.42,1.42v4.52a0,0,0,0,1,0,0H216a0,0,0,0,1,0,0V10.24A0,0,0,0,1,216,10.24Z" transform="translate(434.17 26.42) rotate(-180)"/><path class="cls-1" d="M215.58,54.26h1.16a1.42,1.42,0,0,1,1.42,1.42v6.44a1.42,1.42,0,0,1-1.42,1.42H206.3a0,0,0,0,1,0,0v0A9.28,9.28,0,0,1,215.58,54.26Z" transform="translate(424.46 117.79) rotate(-180)"/><path class="cls-1" d="M216,48.72h2.14a0,0,0,0,1,0,0v4.52a1.42,1.42,0,0,1-1.42,1.42H216a0,0,0,0,1,0,0V48.72A0,0,0,0,1,216,48.72Z" transform="translate(434.17 103.38) rotate(-180)"/><path class="cls-1" d="M224.66,16.18h0a0,0,0,0,1,0,0V48.72a0,0,0,0,1,0,0h0a6.51,6.51,0,0,1-6.51-6.51V22.68A6.51,6.51,0,0,1,224.66,16.18Z" transform="translate(442.82 64.9) rotate(180)"/><path class="cls-1" d="M95.59,43.81a6,6,0,0,0,2.5-4.23.68.68,0,0,1,.67-.6h29a.66.66,0,0,1,.67.74,6,6,0,0,1-6,5.31H96A.67.67,0,0,1,95.59,43.81Z"/><path class="cls-1" d="M85.65,0H68.22a.67.67,0,0,0-.67.74,11.2,11.2,0,0,1-2.21,8.12c-2.49,3.06-4.06,3-4.7,2.87a9.39,9.39,0,0,0-8.89,2.94A10.58,10.58,0,0,0,49.43,22a6,6,0,0,1-2,4.67h0A19,19,0,0,1,34.4,31.8,18.69,18.69,0,0,1,31,31.5a.67.67,0,0,0-.78.67V50.78a.67.67,0,0,0,.69.68c3.32-.12,17.74-1.08,25.1-9.29,3-3.36,5-6.72,5.28-10.75A12.42,12.42,0,0,0,58.66,23h0l-2.38-3,0,0a4.26,4.26,0,0,1-.74-.95h0a4.15,4.15,0,0,1,.92-5.21,1.8,1.8,0,0,1,.4-.33l.21-.11a4.13,4.13,0,0,1,2.12-.58,4.18,4.18,0,0,1,3.26,1.56l.07.09c.78,1,4.08,5,8.72,5.35S80.3,18.51,83.73,12A21.6,21.6,0,0,0,86.33.62.68.68,0,0,0,85.65,0Z"/><path class="cls-1" d="M88.77,35.07H59.93V29H88.77a5.9,5.9,0,0,0,4.83-2.51.67.67,0,0,1,1.22.4V29a6.05,6.05,0,0,1-6,6.05"/><path class="cls-1" d="M82.89,36.05l-6.61,27a.68.68,0,0,1-.66.51H64.43a.67.67,0,0,1-.66-.82l4.57-20.06a2.64,2.64,0,0,0,0-.29A1.4,1.4,0,0,0,67.1,41h0A.74.74,0,0,1,67,39.58L82,35.24A.68.68,0,0,1,82.89,36.05Z"/><path class="cls-1" d="M189.53,0H172.1a.67.67,0,0,0-.67.74,11.24,11.24,0,0,1-2.21,8.12c-2.49,3.06-4.06,3-4.7,2.87a9.39,9.39,0,0,0-8.89,2.94A10.58,10.58,0,0,0,153.31,22a6,6,0,0,1-2,4.67h0a19,19,0,0,1-13.07,5.17,18.66,18.66,0,0,1-3.36-.3.67.67,0,0,0-.78.67V50.78a.67.67,0,0,0,.69.68c3.32-.12,17.74-1.08,25.1-9.29,3-3.36,5-6.72,5.28-10.75A12.42,12.42,0,0,0,162.54,23h0l-2.38-3,0,0a4.53,4.53,0,0,1-.73-.95h0a4.15,4.15,0,0,1,.92-5.21,2,2,0,0,1,.39-.33l.22-.11A4.13,4.13,0,0,1,163,12.7a4.18,4.18,0,0,1,3.26,1.56l.07.09c.78,1,4.07,5,8.72,5.35s9.1-1.19,12.53-7.73A21.45,21.45,0,0,0,190.2.62.67.67,0,0,0,189.53,0Z"/><path class="cls-1" d="M192.65,35.07H163.81V29h28.84a5.9,5.9,0,0,0,4.83-2.51.67.67,0,0,1,1.22.4V29a6.05,6.05,0,0,1-6,6.05"/><path class="cls-1" d="M186.76,36.05l-6.6,27a.68.68,0,0,1-.66.51H168.3a.67.67,0,0,1-.65-.82l4.56-20.06a1.36,1.36,0,0,0,0-.29A1.4,1.4,0,0,0,171,41h0a.74.74,0,0,1-.13-1.45l15.07-4.34A.67.67,0,0,1,186.76,36.05Z"/></g></g></svg>