<?xml version="1.0" encoding="utf-8"?>
<!-- Generator: Adobe Illustrator 25.0.1, SVG Export Plug-In . SVG Version: 6.00 Build 0)  -->
<svg version="1.1" id="圖層_1" xmlns="http://www.w3.org/2000/svg" xmlns:xlink="http://www.w3.org/1999/xlink" x="0px" y="0px"
	 viewBox="0 0 92.8 1619.3" style="enable-background:new 0 0 92.8 1619.3;" xml:space="preserve">
<style type="text/css">
	.st0{fill:#FFFFFF;}
</style>
<rect x="24.5" y="0.5" class="st0" width="2.4" height="1618.7"/>
<g>
	<path class="st0" d="M36.2,682.9c-19.5,0-35.3-15.8-35.3-35.3s15.8-35.3,35.3-35.3s35.3,15.8,35.3,35.3l0,0
		C71.5,667.1,55.7,682.9,36.2,682.9z M36.2,614.7c-18.2,0-32.9,14.7-32.9,32.9s14.7,32.9,32.9,32.9s32.9-14.7,32.9-32.9
		C69.1,629.4,54.4,614.7,36.2,614.7z"/>
	<path class="st0" d="M36.2,751.2c-19.5,0-35.3-15.8-35.3-35.3s15.8-35.3,35.3-35.3s35.3,15.8,35.3,35.3l0,0
		C71.5,735.4,55.7,751.2,36.2,751.2z M36.2,682.9c-18.2,0-32.9,14.7-32.9,32.9s14.7,32.9,32.9,32.9s32.9-14.7,32.9-32.9
		C69.1,697.7,54.4,683,36.2,682.9z"/>
	<path class="st0" d="M41.1,673.2c-1.1,0-1.6-0.5-1.6-1.5c0-0.2,0-0.9,0-2.1s0.1-2.7,0.2-4.5s0.1-3.8,0.2-5.8s0.1-4,0.1-5.8v-1.2H25
		c-1.2,0-2.3,0-3.2,0.1s-1.9,0.1-2.9,0.2l-0.7-2.5c2.2,0.3,4.5,0.5,6.8,0.5h15v-13.7H29.4c-1.3,2.5-2.8,4.8-4.6,7
		c-1.5,1.9-3.3,3.7-5.1,5.4c-0.6,0-0.9-0.2-0.9-0.7c1-1.4,1.8-2.9,2.4-4.5c0.8-1.9,1.4-3.8,2-5.7c0.6-2,1-4,1.4-6
		c0.3-1.7,0.5-3.5,0.6-5.2v-1.4c0-0.2,0-0.4,0.2-0.5s0.3-0.1,0.5-0.1c0.8,0.1,1.7,0.3,2.5,0.5l3.3,0.9c1.1,0.3,2,0.6,2.6,0.8
		c0.3,0,0.4,0.2,0.4,0.6c0,0.6-0.2,0.8-0.7,0.8c-0.4-0.1-0.7,0-1,0.2c-0.3,0.3-0.4,0.6-0.5,1c-0.3,0.9-0.6,1.8-1,2.6
		s-0.7,1.7-1.1,2.5H40v-7.3c0-1,0-2.1-0.2-3.1c-0.1-0.6-0.2-1.1-0.4-1.6c-0.1-0.2-0.1-0.4,0-0.7c0.1-0.2,0.4-0.3,0.6-0.3
		c0.8,0,1.6,0.1,2.4,0.2c1.1,0.1,2.2,0.3,3.3,0.4c0.8,0.1,1.6,0.2,2.4,0.5c0.2,0,0.5,0.1,0.6,0.3s0.1,0.4,0.1,0.6
		c0,0.2-0.1,0.5-0.3,0.6s-0.4,0.2-0.6,0.2c-0.8,0.1-1.2,0.5-1.2,1.2v9h7.8c0.5,0,1-0.2,1.4-0.6c0.2-0.2,0.4-0.5,0.7-1l0.9-1.3
		c0.2-0.3,0.5-0.6,0.7-0.9c0.2-0.3,0.4-0.4,0.7-0.5c0.4,0.1,0.9,0.2,1.2,0.5c0.6,0.4,1.2,0.8,1.8,1.2c0.6,0.5,1.2,1,1.8,1.5
		c0.4,0.4,0.8,0.8,1.2,1.2c0.2,0.2,0.3,0.4,0.3,0.7c0,0.5-0.2,0.7-0.7,0.7h-18v13.7H57c0.6,0,1.1-0.2,1.5-0.6
		c0.2-0.2,0.5-0.6,0.8-1.1l1.1-1.4c0.3-0.5,0.6-0.8,0.8-1c0.2-0.3,0.5-0.4,0.8-0.5c0.5,0.1,1,0.2,1.4,0.5c0.7,0.4,1.4,0.8,2,1.3
		c0.7,0.5,1.3,1,2,1.6s1,0.9,1.4,1.2c0.2,0.2,0.3,0.5,0.3,0.7c0,0.6-0.2,0.8-0.7,0.8H46.5v1.2c0,1.8,0,3.7,0.1,5.7s0.1,3.8,0.2,5.5
		s0.1,3.2,0.2,4.3s0.1,1.8,0.1,2c0,0.5-0.3,0.8-0.9,1.2c-0.7,0.4-1.5,0.6-2.3,0.8C42.9,673.1,42,673.2,41.1,673.2z"/>
	<path class="st0" d="M27.1,742c-0.1-1.2-0.2-2.4-0.5-3.5c-0.2-0.7-0.7-1.3-1.3-1.7c-0.9-0.4-1.9-0.6-2.9-0.6
		c-0.1-0.2-0.1-0.4-0.1-0.6c0-0.2,0.1-0.4,0.2-0.6h4.3c1,0,1.5-0.5,1.5-1.4v-13.3h-3.8c-0.1,3-0.5,6-1.2,9c-0.5,2.3-1.2,4.6-2.2,6.8
		c-0.9,2-1.9,3.9-3.1,5.8c-0.1,0-0.2,0.1-0.3,0.1c-0.4,0-0.7-0.2-0.7-0.6c0.7-2.2,1.2-4.5,1.5-6.9c0.3-2.5,0.6-5.5,0.7-9
		s0.2-7.6,0.2-12.6c0-3.2,0-6.1-0.1-8.9s-0.1-5.2-0.2-7.2c0-1.4-0.2-2.7-0.4-4.1c0-0.2,0-0.4,0.1-0.6c0.2-0.1,0.4-0.1,0.6-0.1
		c1,0.3,1.9,0.6,2.8,1c1.2,0.5,2.2,1,3,1.4h2.4c0.3,0,0.7-0.2,0.9-0.5l0.8-1.5c0.1-0.2,0.3-0.4,0.6-0.4c0.2,0,0.3,0.1,0.5,0.1
		c0.6,0.2,1.1,0.4,1.7,0.6l2,0.9c0.5,0.2,1.1,0.5,1.6,0.8c0.3,0.2,0.5,0.6,0.5,1c0,0.2-0.1,0.4-0.2,0.6c0.3,0,0.7,0.1,1.1,0.1H38
		h1.2c0.3,0,0.5-0.1,0.7-0.3l1.3-1.6c0.2-0.3,0.6-0.3,0.8-0.1c0.6,0.2,1.2,0.5,1.8,0.8c0.8,0.4,1.4,0.8,2,1.1c0.5,0,1.1,0.1,1.8,0.1
		s1.4,0.1,2.1,0.1h1.5v-1c0-0.8,0-1.7-0.1-2.5c0-0.4-0.2-0.9-0.3-1.3c-0.1-0.1-0.1-0.2-0.1-0.3c0-0.3,0.2-0.5,0.6-0.4s1.1,0,2,0.1
		s1.9,0.2,2.8,0.3c0.7,0.1,1.3,0.2,2,0.3c0.3,0.1,0.6,0.4,0.5,0.8c0,0.4-0.3,0.7-0.7,0.7c-0.7,0.1-1,0.4-1,0.9v2.3h2.5
		c0.4,0,0.7-0.1,0.8-0.4s0.2-0.4,0.4-0.7c0.1-0.2,0.3-0.5,0.4-0.7c0.2-0.4,0.6-0.5,1-0.3l0,0c0.9,0.3,1.7,0.6,2.5,1
		c1,0.5,1.8,0.9,2.4,1.2c0.3,0.1,0.5,0.5,0.5,0.8c0,0.4-0.2,0.7-0.6,0.8l-0.3,0.1l-0.2,0.1c-0.5,0.4-0.8,1-0.7,1.7
		c0,0.6,0,1.2,0,1.9s0,1.3,0,1.9l0.2-0.2c0.2-0.3,0.4-0.7,0.7-1.2s0.5-0.9,0.7-1.2s0.6-0.5,0.9-0.3c0.1,0,0.2,0.1,0.2,0.2
		c0.5,0.5,1,1,1.4,1.6c0.5,0.6,0.9,1.2,1.3,1.8c0.1,0.2,0.1,0.3,0.1,0.5c0,0.4-0.2,0.6-0.6,0.6h-4.9l0.2,7.8c0,0.5-0.5,0.9-1.4,1.3
		c-0.9,0.4-1.9,0.6-2.9,0.6c-0.4,0.1-0.9-0.1-1.2-0.4c-0.2-0.3-0.3-0.6-0.3-1v-0.7h-3v5.5h2c0.5,0,0.9-0.2,1.1-0.6
		c0.2-0.3,0.5-0.7,0.9-1.2s0.7-0.9,0.8-1.1c0.1-0.2,0.3-0.3,0.6-0.3c0.2,0,0.3,0.1,0.5,0.2c0.5,0.3,0.9,0.6,1.4,0.9
		c0.5,0.4,1,0.9,1.6,1.3c0.4,0.4,0.8,0.7,1.1,1.2c0.1,0.1,0.2,0.3,0.2,0.5c0,0.4-0.2,0.6-0.5,0.6H57v2.5c0,0.9,0,1.7,0.1,2.5h3.1
		c0.5,0.1,0.9-0.1,1.2-0.5c0.2-0.3,0.5-0.8,0.9-1.3c0.4-0.6,0.7-1,0.9-1.3c0.2-0.2,0.4-0.4,0.7-0.4c0.2,0,0.4,0.1,0.5,0.2
		c0.8,0.5,1.6,1.1,2.2,1.8c0.7,0.6,1.3,1.3,1.8,2c0.1,0.2,0.2,0.4,0.2,0.6c0,0.5-0.2,0.7-0.6,0.7H57c0.1,1.3,0.1,2.5,0.1,3.4
		s0,1.5,0,1.6c0,0.3-0.2,0.6-0.8,0.9c-0.6,0.3-1.2,0.5-1.9,0.6s-1.4,0.2-2.2,0.2S51,733,51,732.3l0.1-5.6h-1c-0.3,0-0.6,0-0.9,0
		c-2,0-3.5,0.1-4.7,0.2c-0.2,0.5-0.4,0.9-0.6,1.3c-0.2,0.5-0.4,0.9-0.7,1.4c1.7,1.8,3.9,3.1,6.3,3.8c3.2,0.8,6.6,1.2,9.9,1.1
		c2.1,0,4,0,5.9-0.2c1.5-0.1,3-0.2,4.4-0.4c-0.5,0.6-0.9,1.2-1.2,2c-0.4,0.9-0.7,1.8-0.9,2.7c-0.2,0.8-0.3,1.6-0.4,2.4h-6.9
		c-4,0.1-8-0.6-11.7-2.3c-2.9-1.4-5.4-3.5-7.1-6.2c-1.2,2-2.5,3.8-4,5.5c-1.3,1.5-2.7,2.8-4.3,3.9c-0.6,0-0.8-0.3-0.8-0.8
		c1.6-1.7,2.9-3.6,3.9-5.8c1.2-2.6,2.2-5.2,3-8c-0.3-1-0.6-2.1-0.8-3.1c-0.2-1.1-0.4-2.3-0.5-3.4c-0.2,0.5-0.4,1.2-0.7,2.1
		s-0.5,1.5-0.6,2c0,0.1-0.1,0.2-0.1,0.3s0,0.2,0,0.2c0,0.1,0,0.2,0,0.3s0,0.2,0.1,0.3v0.2c0,0.3-0.2,0.5-0.5,0.6
		c-0.1,0-0.2,0.1-0.3,0.1c-0.2,0-0.4-0.1-0.5-0.3l-0.7-1.5c-0.3-0.7-0.7-1.3-1-2c0,1.9,0.1,3.7,0.1,5.4s0,3.1,0.1,4.2s0,1.9,0,2.2
		c0.1,1.6-0.4,3.2-1.4,4.5C31.7,740.8,29.8,741.6,27.1,742z M24.5,718.7h3.7v-10.6h-3.7v8.4C24.5,717.3,24.5,718,24.5,718.7z
		 M28.2,696.4h-3.7v10.1h3.7V696.4z M40.3,724.2c0.3-1.5,0.5-3.1,0.8-4.8c0.2-1.7,0.3-3.3,0.4-5h-0.6l-0.3,1c-0.1,0.4-0.5,0.7-1.2,1
		s-1.5,0.4-2.3,0.4c-0.3,0-0.6,0-0.9-0.1c-0.3-0.1-0.6-0.1-0.8-0.1c-0.5-0.1-0.9-0.6-0.8-1.1c0-0.1,0-0.2,0-0.3s0.1-0.2,0.1-0.3
		c0.2-0.6,0.5-1.4,0.8-2.6l1.1-3.9c0.4-1.4,0.8-2.8,1.2-4.2s0.7-2.7,1-3.8s0.5-1.9,0.6-2.3H38c-1.2,0-2.2,0.1-2.9,0.2l-0.3-1.4
		l-0.2,0.1c-0.5,0.4-0.7,1.1-0.7,1.8V721l0.2-0.1l0.3-0.1c0.7-0.3,1.4-0.7,2.1-1.2c0.6-0.4,1.2-0.9,1.6-1.5c0.1-0.1,0.3-0.1,0.5-0.1
		c0.4,0,0.7,0.3,0.9,0.8c-0.2,0.3-0.3,0.6-0.3,0.9v0.3c0,0.1,0,0.3,0,0.4C39.6,721.7,40,722.9,40.3,724.2L40.3,724.2z M43.4,705.6
		l-2.1,7.1l0,0c0.2,0,0.5-0.1,0.6-0.3c0.2-0.2,0.3-0.5,0.6-0.8s0.4-0.6,0.6-0.8c0.2-0.3,0.6-0.4,0.9-0.2l0.7,0.3
		c0.3,0.1,0.7,0.3,1,0.5l1.8,0.1c0.8,0.1,1.5,0.1,2.4,0.1h1.5v-6.2h-4.6c-0.7,0-1.3,0-1.9,0C44.4,705.5,43.8,705.6,43.4,705.6
		L43.4,705.6z M46.8,704h4.6v-6h-3.1c-0.5,0-1,0-1.4,0.1c-0.1,0.2-0.4,0.3-0.6,0.3c-0.1,0-0.2,0.1-0.3,0.1c-0.4,0.1-0.7,0.4-0.8,1.1
		l-1.2,4.3c0.5,0,0.9,0.1,1.4,0.1L46.8,704z M49.4,725.3h2c0-0.8,0-1.7,0-2.5v-2.5h-1c-0.7,0-1.4,0-2,0s-1.2,0-1.6,0.1
		c-0.3,1.6-0.8,3.2-1.4,4.7c0.5,0,1.2,0.1,1.9,0.1S48.7,725.2,49.4,725.3L49.4,725.3z M50.4,718.7h1.1v-5.5h-2.3l0.1,0.1
		c0.2,0.2,0.4,0.4,0.3,0.7c0,0.2-0.1,0.4-0.2,0.6c-0.1,0.2-0.3,0.3-0.5,0.3s-0.4,0-0.6,0.1c-0.3,0-0.5,0.2-0.7,0.4
		c-0.2,0.3-0.3,0.7-0.3,1.1c0,0.3-0.1,0.7-0.1,1s-0.1,0.7-0.2,1c0.5,0,1.1,0.1,1.7,0.1L50.4,718.7z M60.1,698H57v6h3L60.1,698z
		 M60.1,705.5H57v6.2h3L60.1,705.5z"/>
	<path class="st0" d="M36.2,1480.5c-19.5,0-35.3-15.8-35.3-35.3s15.8-35.3,35.3-35.3s35.3,15.8,35.3,35.3l0,0
		C71.5,1464.7,55.7,1480.5,36.2,1480.5z M36.2,1412.2c-18.2,0-32.9,14.7-32.9,32.9S18,1478,36.2,1478s32.9-14.7,32.9-32.9l0,0
		C69.1,1427,54.4,1412.2,36.2,1412.2z"/>
	<path class="st0" d="M36.2,1548.7c-19.5,0-35.3-15.8-35.3-35.3s15.8-35.3,35.3-35.3s35.3,15.8,35.3,35.3l0,0
		C71.5,1532.9,55.7,1548.7,36.2,1548.7z M36.2,1480.5c-18.2,0-32.9,14.7-32.9,32.9s14.7,32.9,32.9,32.9s32.9-14.7,32.9-32.9l0,0
		C69.1,1495.2,54.4,1480.5,36.2,1480.5L36.2,1480.5z"/>
	<path class="st0" d="M41.1,1470.7c-1.1,0-1.6-0.5-1.6-1.5c0-0.2,0-0.9,0-2.1s0.1-2.7,0.2-4.5s0.1-3.8,0.2-5.8s0.1-3.9,0.1-5.8v-1.2
		H25c-1.2,0-2.3,0-3.2,0.1s-1.9,0.1-2.9,0.2l-0.7-2.5c2.2,0.3,4.5,0.5,6.8,0.5h15v-13.7H29.4c-1.3,2.5-2.8,4.8-4.6,7
		c-1.5,1.9-3.3,3.7-5.1,5.4c-0.6,0-0.9-0.2-0.9-0.7c1-1.4,1.8-2.9,2.4-4.5c0.8-1.9,1.4-3.8,2-5.7c0.6-2,1-4,1.4-6
		c0.3-1.7,0.5-3.5,0.6-5.2v-1.4c0-0.2,0-0.4,0.2-0.4c0.2-0.1,0.3-0.1,0.5-0.1c0.8,0.1,1.7,0.3,2.5,0.5l3.3,0.9
		c1.1,0.3,2,0.6,2.6,0.8c0.3,0,0.4,0.2,0.4,0.6c0,0.6-0.2,0.8-0.7,0.8c-0.4-0.1-0.7,0-1,0.2c-0.3,0.3-0.4,0.6-0.5,1
		c-0.3,0.9-0.6,1.8-1,2.6s-0.7,1.7-1.1,2.5H40v-7.3c0-1,0-2.1-0.2-3.1c-0.1-0.6-0.2-1.1-0.4-1.6c-0.1-0.2-0.1-0.4,0-0.7
		c0.1-0.2,0.4-0.3,0.6-0.3c0.8,0,1.6,0.1,2.4,0.2c1.1,0.1,2.2,0.3,3.3,0.4c0.8,0.1,1.6,0.2,2.4,0.4c0.2,0,0.5,0.1,0.6,0.3
		c0.1,0.2,0.1,0.4,0.1,0.6s-0.1,0.5-0.3,0.6s-0.4,0.2-0.6,0.2c-0.8,0.1-1.2,0.5-1.2,1.2v9h7.8c0.5,0,1-0.2,1.4-0.6
		c0.2-0.2,0.4-0.5,0.7-1l0.9-1.3c0.2-0.3,0.5-0.6,0.7-0.9s0.4-0.4,0.7-0.5c0.4,0.1,0.9,0.2,1.2,0.5c0.6,0.4,1.2,0.8,1.8,1.2
		c0.6,0.5,1.2,1,1.8,1.5c0.4,0.4,0.8,0.8,1.2,1.2c0.2,0.2,0.3,0.4,0.3,0.7c0,0.5-0.2,0.7-0.7,0.7h-18v13.7H57c0.6,0,1.1-0.2,1.5-0.6
		c0.2-0.2,0.5-0.6,0.8-1.1l1.1-1.4c0.3-0.5,0.6-0.8,0.8-1c0.2-0.3,0.5-0.4,0.8-0.5c0.5,0.1,1,0.2,1.4,0.5c0.7,0.4,1.4,0.8,2,1.3
		c0.7,0.5,1.3,1,2,1.6s1,0.9,1.4,1.2c0.2,0.2,0.3,0.5,0.3,0.7c0,0.6-0.2,0.8-0.7,0.8H46.5v1.2c0,1.8,0,3.7,0.1,5.7s0.1,3.8,0.2,5.5
		s0.1,3.2,0.2,4.3s0.1,1.8,0.1,2c0,0.4-0.3,0.8-0.9,1.2c-0.7,0.4-1.5,0.6-2.3,0.8C42.9,1470.6,42,1470.7,41.1,1470.7z"/>
	<path class="st0" d="M27.1,1539.6c-0.1-1.2-0.2-2.4-0.5-3.5c-0.2-0.7-0.7-1.3-1.3-1.7c-0.9-0.4-1.9-0.6-2.9-0.6
		c-0.1-0.2-0.1-0.4-0.1-0.6s0.1-0.4,0.2-0.6h4.3c1,0,1.5-0.5,1.5-1.4v-13.3h-3.8c-0.1,3-0.5,6-1.2,9c-0.5,2.3-1.2,4.6-2.2,6.8
		c-0.9,2-1.9,3.9-3.1,5.8c-0.1,0-0.2,0.1-0.3,0.1c-0.4,0-0.7-0.2-0.7-0.6c0.7-2.2,1.2-4.5,1.5-6.9c0.3-2.5,0.6-5.5,0.7-9
		s0.2-7.6,0.2-12.6c0-3.2,0-6.1-0.1-8.9s-0.1-5.2-0.2-7.2c0-1.4-0.2-2.7-0.4-4.1c0-0.2,0-0.4,0.1-0.6c0.2-0.1,0.4-0.1,0.6-0.1
		c1,0.3,1.9,0.6,2.8,1c1.2,0.5,2.2,1,3,1.4h2.4c0.3,0,0.7-0.2,0.9-0.4l0.8-1.5c0.1-0.2,0.3-0.4,0.6-0.4c0.2,0,0.3,0.1,0.5,0.1
		c0.6,0.2,1.1,0.4,1.7,0.6l2,0.9c0.5,0.2,1.1,0.5,1.6,0.8c0.3,0.2,0.5,0.6,0.5,1c0,0.2-0.1,0.4-0.2,0.6c0.3,0,0.7,0.1,1.1,0.1H38
		h1.2c0.3,0,0.5-0.1,0.7-0.3l1.3-1.6c0.2-0.3,0.6-0.3,0.8-0.1c0.6,0.2,1.2,0.5,1.8,0.8c0.8,0.4,1.4,0.8,2,1.1c0.5,0,1.1,0.1,1.8,0.1
		s1.4,0.1,2.1,0.1h1.5v-1c0-0.8,0-1.7-0.1-2.5c0-0.4-0.2-0.9-0.3-1.3c-0.1-0.1-0.1-0.2-0.1-0.3c0-0.3,0.2-0.5,0.6-0.4s1.1,0,2,0.1
		s1.9,0.2,2.8,0.3c0.7,0.1,1.3,0.2,2,0.3c0.3,0.1,0.6,0.4,0.5,0.8c0,0.4-0.3,0.7-0.7,0.7c-0.7,0.1-1,0.4-1,0.9v2.3h2.5
		c0.4,0,0.7-0.1,0.8-0.4s0.2-0.4,0.4-0.7c0.1-0.2,0.3-0.5,0.4-0.7c0.2-0.4,0.6-0.5,1-0.3l0,0c0.9,0.3,1.7,0.6,2.5,1
		c1,0.5,1.8,0.9,2.4,1.2c0.3,0.1,0.5,0.5,0.5,0.8c0,0.4-0.2,0.7-0.6,0.8l-0.3,0.1l-0.2,0.1c-0.5,0.4-0.8,1-0.7,1.7
		c0,0.6,0,1.2,0,1.9c0,0.6,0,1.3,0,1.9l0.2-0.2c0.2-0.3,0.4-0.7,0.7-1.2s0.5-0.9,0.7-1.2c0.2-0.3,0.6-0.5,0.9-0.3
		c0.1,0,0.2,0.1,0.2,0.2c0.5,0.5,1,1,1.4,1.6c0.4,0.5,0.8,1.1,1.2,1.8c0.1,0.2,0.1,0.3,0.1,0.5c0,0.4-0.2,0.6-0.6,0.6h-4.8l0.2,7.8
		c0,0.5-0.5,0.9-1.4,1.3s-1.9,0.6-2.9,0.6c-0.7,0.2-1.3-0.3-1.5-0.9c0-0.2,0-0.3,0-0.5v-0.6h-3v5.5h2c0.5,0,0.9-0.2,1.1-0.6
		c0.2-0.3,0.5-0.7,0.9-1.2s0.7-0.9,0.8-1.1c0.2-0.3,0.6-0.4,0.9-0.2c0,0,0.1,0,0.1,0.1c0.5,0.3,0.9,0.6,1.3,0.9
		c0.5,0.4,1,0.9,1.6,1.3c0.4,0.4,0.8,0.7,1.1,1.2c0.1,0.1,0.2,0.3,0.2,0.5c0,0.4-0.2,0.6-0.5,0.6H57v2.5c0,0.9,0,1.7,0.1,2.5h3.1
		c0.5,0.1,0.9-0.1,1.2-0.5c0.2-0.3,0.5-0.8,0.9-1.3c0.4-0.6,0.7-1,0.9-1.3c0.2-0.2,0.4-0.4,0.7-0.4c0.2,0,0.4,0.1,0.5,0.2
		c0.8,0.5,1.6,1.1,2.2,1.8c0.7,0.6,1.3,1.3,1.8,2c0.1,0.2,0.2,0.4,0.2,0.6c0,0.4-0.2,0.7-0.6,0.7H57c0.1,1.3,0.1,2.5,0.1,3.4
		s0,1.5,0,1.6c0,0.3-0.2,0.6-0.8,0.9s-1.2,0.5-1.9,0.6s-1.4,0.2-2.2,0.2s-1.2-0.4-1.2-1.1l0.1-5.6h-1c-0.3,0-0.6,0-0.9,0
		c-2,0-3.5,0.1-4.7,0.2c-0.2,0.5-0.4,0.9-0.6,1.3c-0.2,0.5-0.4,0.9-0.7,1.4c1.7,1.8,3.9,3.1,6.3,3.8c3.2,0.8,6.6,1.2,9.9,1.1
		c2.1,0,4,0,5.9-0.2c1.5-0.1,3-0.2,4.5-0.4c-0.5,0.6-0.9,1.3-1.2,2c-0.4,0.9-0.7,1.8-0.9,2.7c-0.2,0.8-0.3,1.6-0.4,2.4h-6.9
		c-4,0.1-8-0.7-11.7-2.3c-2.9-1.4-5.4-3.5-7.1-6.2c-1.2,2-2.5,3.8-4,5.5c-1.3,1.5-2.7,2.8-4.3,3.9c-0.6,0-0.8-0.3-0.8-0.8
		c1.6-1.7,2.9-3.6,3.9-5.8c1.2-2.6,2.2-5.2,3-8c-0.3-1-0.6-2.1-0.8-3.1c-0.2-1.1-0.4-2.3-0.5-3.4c-0.2,0.5-0.4,1.2-0.7,2.1
		s-0.5,1.5-0.6,2c0,0.1-0.1,0.2-0.1,0.3c0,0.1,0,0.2,0,0.2c0,0.1,0,0.2,0,0.3c0,0.1,0,0.2,0.1,0.3v0.2c0,0.3-0.2,0.5-0.5,0.6
		c-0.1,0-0.2,0.1-0.3,0.1c-0.2,0-0.4-0.1-0.5-0.3l-0.7-1.5c-0.3-0.7-0.7-1.3-1-2c0,1.9,0.1,3.7,0.1,5.4s0,3.1,0.1,4.2s0,1.9,0,2.2
		c0.1,1.6-0.4,3.2-1.4,4.5C31.7,1538.4,29.8,1539.2,27.1,1539.6z M24.5,1516.2h3.7v-10.5h-3.7v8.4
		C24.5,1514.8,24.5,1515.5,24.5,1516.2z M28.2,1493.9h-3.7v10.1h3.7V1493.9z M40.3,1521.7c0.3-1.5,0.5-3.1,0.8-4.8
		c0.2-1.7,0.3-3.3,0.4-5h-0.6l-0.3,1c-0.1,0.4-0.5,0.7-1.2,1s-1.5,0.4-2.3,0.4c-0.3,0-0.6,0-0.9-0.1c-0.3-0.1-0.6-0.1-0.8-0.1
		c-0.5-0.1-0.9-0.6-0.8-1.1c0-0.1,0-0.2,0-0.3c0-0.1,0.1-0.2,0.1-0.3c0.2-0.6,0.5-1.4,0.8-2.6l1.2-3.9c0.4-1.4,0.8-2.8,1.2-4.2
		s0.7-2.7,1-3.8s0.5-1.9,0.6-2.3H38c-1.2,0-2.2,0.1-2.9,0.2l-0.3-1.4l-0.2,0.1c-0.5,0.4-0.8,1.1-0.7,1.8v22.2l0.2-0.1l0.3-0.1
		c0.7-0.3,1.4-0.7,2.1-1.2c0.6-0.4,1.2-0.9,1.6-1.5c0.1-0.1,0.3-0.1,0.5-0.1c0.4,0,0.7,0.3,0.9,0.8c-0.2,0.3-0.3,0.6-0.3,0.9v0.3
		c0,0.1,0,0.3,0,0.4C39.6,1519.2,40,1520.5,40.3,1521.7z M43.4,1503.2l-2.1,7.2l0,0c0.2,0,0.5-0.1,0.6-0.3c0.2-0.2,0.3-0.5,0.6-0.8
		s0.4-0.6,0.6-0.8c0.2-0.3,0.6-0.4,0.9-0.2l0.7,0.3c0.3,0.1,0.7,0.3,1,0.5l1.8,0.1c0.8,0.1,1.5,0.1,2.4,0.1h1.5v-6.2h-4.6
		c-0.7,0-1.3,0-1.9,0C44.4,1503.1,43.8,1503.1,43.4,1503.2z M46.8,1501.5h4.6v-6h-3.1c-0.5,0-1,0-1.4,0.1c-0.1,0.2-0.4,0.3-0.6,0.3
		c-0.1,0-0.2,0-0.3,0.1c-0.4,0.1-0.7,0.4-0.8,1.1l-1.2,4.3c0.5,0,0.9,0.1,1.4,0.1H46.8z M49.4,1522.8h2c0-0.8,0-1.7,0-2.5v-2.6h-1
		c-0.7,0-1.4,0-2,0s-1.2,0-1.6,0.1c-0.3,1.6-0.8,3.2-1.4,4.7c0.5,0,1.2,0.1,1.9,0.1S48.7,1522.8,49.4,1522.8z M50.4,1516.2h1.1v-5.5
		h-2.3l0.1,0.1c0.2,0.2,0.4,0.4,0.3,0.7c0,0.2-0.1,0.4-0.2,0.6c-0.1,0.2-0.3,0.3-0.5,0.3s-0.4,0-0.6,0.1c-0.3,0-0.5,0.2-0.7,0.4
		c-0.2,0.3-0.3,0.7-0.3,1.1c0,0.3-0.1,0.7-0.1,1s-0.1,0.7-0.2,1c0.5,0,1.1,0.1,1.7,0.1L50.4,1516.2z M60.1,1495.5H57v6h3
		L60.1,1495.5z M60.1,1503H57v6.2h3L60.1,1503z"/>
	<path class="st0" d="M27.7,38.3l13.2,14.6l-0.5,0.9L21.1,39v-9.9l23.4-9.4c0-0.7-0.1-1.5-0.1-2.2l-23.3-5.2V0l52.7,11.6l2.4-2.5
		l11,16.3v1.5l-40.9-9l17.5,17.6l1.4,12.1L65,46.4l0.2,1.6c-13-3.6-19.6-14-20.3-25.3l-2,8.5L27.7,38.3z M45.6,18.6
		c0.2,7.5,2.1,17.9,8.9,19.4c2.8,0.7,5.6-0.8,8.1-2.1L45.6,18.6z"/>
	<path class="st0" d="M65.2,70.6L30.1,63l10.8,11.9l-0.5,0.9L21.1,61.1v-0.2h0.2l7.1-10.5l22.1,4.8l2.4-2.5L65.2,70.6z M77.4,59.6
		c3.4,0.8,6.2,4.8,6.2,9s-2.8,7.1-6.2,6.4s-6.1-4.9-6.1-9.1S74,58.8,77.4,59.6L77.4,59.6z"/>
	<path class="st0" d="M42.6,75.3c13.7,2.6,23.6,12.2,23.6,20.2c0,4.9-3.7,13.6-7.4,16.6l6.4,9.4l-35.1-7.7l10.8,11.9l-0.5,0.9
		L21.1,112v-0.2l0.2-0.1l7.1-10.4l14.2,3.1c-12-5-22.9-9-22.9-14.4C19.7,81.3,32.2,73.2,42.6,75.3z M58,110.9c2.2-1.4,3-3.9,3-6.6
		c0-12.4-17-18.8-27.2-21.7c-5.3-1.5-9.6-0.8-9.6,2.1c0,8.5,14.8,15.6,26,21.4l0.4,0.1l2.4-2.5L58,110.9z M71.5,105.6l9.9-7.5
		l-0.1,8l-9.8,4.2V105.6z"/>
	<path class="st0" d="M44.4,168l-14.2-3.1l10.7,11.8l-0.5,0.9L21.1,163l7.3-10.7l16,3.5c5.1,1.1,20.8,16.9,20.8,10.5
		c0-10.4-41-26.7-44.1-29.1v-12.3l34.9,7.7l-10.7-11.7l0.5-0.9l19.4,14.7v1.5l-10.9,11.3l-2.5-3.6l-22.5-5
		c13.4,7,37.3,16.6,37.3,28.5C66.5,173.5,60.2,171.6,44.4,168z"/>
	<path class="st0" d="M47.8,223.7l-4.1-0.9l0.7-2.2v-39.7l-0.7-2.5l4.1,0.9l-0.8,2.1v39.7L47.8,223.7z"/>
	<path class="st0" d="M31.6,235.1c-3.7-0.8-5.4,1.7-5.4,4.9c0,2.7,1,5.3,2.8,7.4l13.2,14.5l-0.5,0.9l-21.8-18.1
		c-1-15.3,9.8-13,22-10.3l22.1,4.9v-10.4l1.3,0.3v10.4l8.5,1.9l2.4-2.5l11,16.2v1.5l-22-4.8v12.4l-1.3-0.3v-12.4l-17.6-3.9
		C42.8,243.5,36.1,236.1,31.6,235.1z"/>
	<path class="st0" d="M35.4,309.9c-10.8-3.3-15.5-19.2-15.5-29c0-8.2,2.9-17.7,10-19.6l5.6,7.9c-6.8,3-12.2,13-12.2,22
		c0,4.3,1.4,10.1,6.2,11.6c3.3,0.9,6.5-0.6,8.6-2.3c-1.8-4.7-2.7-9.7-2.7-14.7c0-9.8,4.8-22.8,15.4-19.6s15.5,19.3,15.5,29
		c0,6.7-1.8,13.5-5.9,17.3l-5.8-8.1c5.2-5.1,8.2-12.1,8.2-19.4c0-4.3-1.4-10.1-6.2-11.5c-3.3-1-6.5,0.6-8.6,2.2
		c1.8,4.7,2.7,9.7,2.7,14.8C50.8,300.2,46.1,313.2,35.4,309.9z M38.9,295.7c0,1.2,0.1,2.4,0.3,3.6c4.3-3.8,8.2-11.6,8.2-19.3
		c0-1.2-0.1-2.4-0.3-3.6C42.8,280.3,38.9,288.1,38.9,295.7z"/>
	<path class="st0" d="M65.2,333.9l-44.1-9.6V312l29.4,6.5l2.4-2.4L65.2,333.9z M78.6,326.2l0.1,8l-9.9-11.9v-4.7L78.6,326.2z"/>
	<path class="st0" d="M47.8,381.6l-4.1-0.9l0.7-2.1v-39.7l-0.7-2.5l4.1,0.9l-0.8,2.1V379L47.8,381.6z"/>
	<path class="st0" d="M43.2,438.6c-12.4-2-23.3-13.6-23.3-25.5c0-7.3,2.4-13.6,6.6-17.8l-5.4-8v-1.5l52.7,11.6l2.4-2.5l11,16.2v1.6
		l-46.8-10.4c13.1,7.2,26,14,26,18.5C66.4,432.7,55.4,440.7,43.2,438.6z M27.5,396.7c-1.7,1.7-2.3,4.4-2.3,7.3
		c0,14.7,15.6,27.4,27.2,29.3c5.4,0.9,8.9-0.3,8.9-5.5c0-10.5-15.2-19.6-26.6-26.7h-0.1l-2.4,2.5L27.5,396.7z"/>
	<path class="st0" d="M42.6,442.4c13.7,2.6,23.6,12.2,23.6,20.2c0,4.9-3.7,13.7-7.4,16.5l6.4,9.5L30.1,481l10.8,11.9l-0.5,0.9
		L21,479.1v-0.2l0.2-0.1l7.1-10.4l14.2,3.1c-12-5-22.9-9-22.9-14.4C19.7,448.4,32.2,440.4,42.6,442.4z M58,478c2.2-1.4,3-3.9,3-6.6
		c0-12.4-17-18.8-27.2-21.7c-5.3-1.5-9.6-0.8-9.6,2.1c0,8.5,14.8,15.6,26,21.4l0.4,0.1l2.4-2.5L58,478z"/>
	<path class="st0" d="M44.4,532l-14.2-3.2L41,540.7l-0.5,0.9l-19.4-14.8l7.4-10.7l15.9,3.6c5.1,1.1,20.9,16.8,20.9,10.4
		c0-10.4-41.1-24.9-44.2-27.3v-12.3l66.1,14.2v1.5l-11,11.4l-2.4-3.7l-44.4-9.5c13.5,6.7,37.1,15,37.1,26.8
		C66.5,537.5,60.2,535.4,44.4,532z"/>
	<path class="st0" d="M27.7,838.1l13.2,14.6l-0.5,0.9L21,838.8V829l23.4-9.4c0-0.8-0.1-1.5-0.1-2.2L21,812.3V800l52.7,11.6l2.4-2.5
		l11,16.3v1.5l-40.9-9l17.5,17.6l1.4,12.1l-0.2-1.1l0.2,1.6c-13-3.6-19.6-14-20.3-25.3l-2,8.5L27.7,838.1z M45.6,818.5
		c0.2,7.5,2.1,17.9,8.9,19.4c2.8,0.7,5.6-0.8,8.1-2.1L45.6,818.5z"/>
	<path class="st0" d="M65.2,870.5l-35.1-7.6l10.8,11.9l-0.5,0.9L21.1,861v-0.2h0.2l7.1-10.5l22.1,4.8l2.4-2.5L65.2,870.5z
		 M77.4,859.5c3.4,0.8,6.2,4.8,6.2,9s-2.8,7.1-6.2,6.4s-6.1-4.9-6.1-9.1S74,858.7,77.4,859.5L77.4,859.5z"/>
	<path class="st0" d="M42.6,875.2c13.7,2.6,23.6,12.2,23.6,20.2c0,4.9-3.7,13.7-7.4,16.5l6.4,9.5l-35.1-7.6l10.8,11.9l-0.5,0.9
		L21,911.9v-0.2l0.2-0.1l7.1-10.4l14.2,3.1c-12-5-22.9-9-22.9-14.4C19.7,881.2,32.2,873.1,42.6,875.2z M58,910.7
		c2.2-1.4,3-3.9,3-6.6c0-12.4-17-18.8-27.2-21.7c-5.3-1.5-9.6-0.8-9.6,2c0,8.5,14.8,15.6,26,21.4l0.4,0.1l2.4-2.5L58,910.7z
		 M71.5,905.5l9.9-7.5l-0.1,8l-9.8,4.2V905.5z"/>
	<path class="st0" d="M44.4,967.9l-14.2-3.1l10.7,11.8l-0.5,0.9L21,962.8l7.3-10.7l16,3.5c5.1,1.1,20.8,16.9,20.8,10.5
		c0-10.4-41-26.7-44.1-29.1v-12.2l34.9,7.7l-10.7-11.7l0.5-0.9l19.4,14.7v1.5l-10.9,11.3l-2.5-3.5l-22.5-5
		c13.4,7,37.3,16.6,37.3,28.5C66.5,973.4,60.2,971.4,44.4,967.9z"/>
	<path class="st0" d="M47.8,1023.6l-4.1-0.9l0.7-2.2v-39.8l-0.7-2.5l4.1,0.9l-0.8,2.2v39.8L47.8,1023.6z"/>
	<path class="st0" d="M31.6,1034.9c-3.7-0.8-5.4,1.7-5.4,4.9c0,2.7,1,5.3,2.8,7.4l13.2,14.5l-0.5,0.9l-21.8-18.2
		c-1-15.3,9.8-13,22-10.3L64,1039v-10.4l1.3,0.3v10.4l8.5,1.9l2.4-2.5l11,16.2v1.5l-22-4.8v12.4l-1.3-0.3v-12.4l-17.6-3.9
		C42.8,1043.4,36.1,1036,31.6,1034.9z"/>
	<path class="st0" d="M35.4,1109.7c-10.8-3.3-15.5-19.2-15.5-29c0-8.2,2.9-17.7,10-19.6l5.6,7.8c-6.8,3-12.2,13-12.2,22
		c0,4.3,1.4,10.1,6.2,11.6c3.3,0.9,6.5-0.7,8.6-2.3c-1.8-4.7-2.7-9.7-2.7-14.7c0-9.8,4.8-22.8,15.4-19.6s15.5,19.3,15.5,29
		c0,6.7-1.8,13.5-5.9,17.3l-5.8-8.1c5.2-5.1,8.2-12,8.2-19.3c0-4.3-1.4-10.1-6.2-11.5c-3.3-1-6.5,0.6-8.6,2.2
		c1.8,4.7,2.7,9.7,2.7,14.8C50.8,1100.1,46.1,1113.1,35.4,1109.7z M38.9,1095.6c0,1.2,0.1,2.4,0.3,3.7c4.3-3.8,8.2-11.6,8.2-19.3
		c0-1.2-0.1-2.4-0.3-3.7C42.8,1080.2,38.9,1088,38.9,1095.6L38.9,1095.6z"/>
	<path class="st0" d="M65.2,1133.8l-44.1-9.6v-12.3l29.4,6.4l2.4-2.4L65.2,1133.8z M78.6,1126l0.1,8l-9.9-11.9v-4.7L78.6,1126z"/>
	<path class="st0" d="M47.8,1181.4l-4.1-0.9l0.7-2.2v-39.8l-0.7-2.5l4.1,0.9l-0.8,2.2v39.8L47.8,1181.4z"/>
	<path class="st0" d="M43.2,1238.5c-12.4-2-23.3-13.6-23.3-25.4c0-7.3,2.4-13.7,6.6-17.8l-5.4-8v-1.5l52.7,11.6l2.4-2.5l11,16.2v1.6
		l-46.9-10.4c13.1,7.2,26,14,26,18.5C66.4,1232.6,55.4,1240.6,43.2,1238.5z M27.4,1196.6c-1.7,1.7-2.3,4.4-2.3,7.3
		c0,14.7,15.6,27.4,27.2,29.3c5.4,0.9,8.9-0.3,8.9-5.5c0-10.5-15.2-19.6-26.6-26.7h-0.1l-2.4,2.5L27.4,1196.6z"/>
	<path class="st0" d="M42.6,1242.3c13.7,2.6,23.6,12.2,23.6,20.2c0,4.9-3.7,13.7-7.4,16.6l6.4,9.4l-35.1-7.7l10.8,11.9l-0.5,0.9
		L21.1,1279v-0.2l0.2-0.1l7.1-10.4l14.2,3.1c-12-5-22.9-9-22.9-14.4C19.7,1248.3,32.2,1240.3,42.6,1242.3z M58,1277.9
		c2.2-1.4,3-3.9,3-6.6c0-12.4-17-18.8-27.2-21.7c-5.3-1.5-9.6-0.8-9.6,2.1c0,8.5,14.8,15.6,26,21.4l0.4,0.1l2.4-2.5L58,1277.9z"/>
	<path class="st0" d="M44.4,1331.8l-14.2-3.2l10.8,11.9l-0.5,0.9l-19.4-14.7l7.4-10.7l15.9,3.6c5.1,1.1,20.9,16.8,20.9,10.4
		c0-10.4-41.1-24.9-44.2-27.3v-12.2l66.1,14.2v1.5l-11,11.4l-2.4-3.6l-44.4-9.5c13.5,6.7,37.1,15,37.1,26.8
		C66.5,1337.4,60.2,1335.3,44.4,1331.8z"/>
</g>
</svg>
