<?xml version="1.0" encoding="utf-8"?>
<!-- Generator: Adobe Illustrator 25.0.1, SVG Export Plug-In . SVG Version: 6.00 Build 0)  -->
<svg version="1.1" id="圖層_1" xmlns="http://www.w3.org/2000/svg" xmlns:xlink="http://www.w3.org/1999/xlink" x="0px" y="0px"
	 viewBox="0 0 92.8 1160.3" style="enable-background:new 0 0 92.8 1160.3;" xml:space="preserve">
<style type="text/css">
	.st0{fill:#FFFFFF;}
</style>
<rect x="24.5" y="0.5" class="st0" width="2.4" height="1159.7"/>
<g>
	<path class="st0" d="M36.2,461.7c-19.5,0-35.3-15.8-35.3-35.3s15.8-35.3,35.3-35.3s35.3,15.8,35.3,35.3l0,0
		C71.5,445.9,55.7,461.7,36.2,461.7z M36.2,393.5c-18.2,0-32.9,14.7-32.9,32.9s14.7,32.9,32.9,32.9s32.9-14.7,32.9-32.9
		C69.1,408.3,54.4,393.5,36.2,393.5L36.2,393.5z"/>
	<path class="st0" d="M36.2,530c-19.5,0-35.3-15.8-35.3-35.3s15.8-35.3,35.3-35.3s35.3,15.8,35.3,35.3l0,0
		C71.5,514.2,55.7,530,36.2,530z M36.2,461.8c-18.2,0-32.9,14.7-32.9,32.9s14.7,32.9,32.9,32.9s32.9-14.7,32.9-32.9
		C69.2,476.5,54.4,461.8,36.2,461.8L36.2,461.8z"/>
	<path class="st0" d="M23,452.1c-1.1,0-1.7-0.5-1.7-1.6c0-0.2,0-1,0.1-2.4s0.1-3.1,0.2-5.3s0.1-4.6,0.2-7.3s0.1-5.4,0.1-8.3
		c0-3.5,0-6.3-0.1-8.5c0-1.5-0.2-3.1-0.4-4.6c-0.1-0.3,0-0.5,0.1-0.6s0.3-0.2,0.7,0c1.1,0.3,2.1,0.7,3.1,1.2
		c1.3,0.6,2.5,1.1,3.6,1.6H40v-6.4H25c-1.2,0-2.3,0-3.2,0.1c-1,0-1.9,0.1-2.9,0.2l-0.6-2.5c1.8,0.2,4.1,0.4,6.8,0.5h15v-2.5
		c0-0.8,0-1.7-0.1-2.5c0-0.5-0.2-0.9-0.4-1.4c-0.1-0.2-0.1-0.5-0.1-0.7c0.1-0.2,0.4-0.3,0.6-0.3c0.8,0,1.5,0.1,2.3,0.2
		c1,0.1,2,0.2,3,0.4s1.7,0.3,2.2,0.4c0.4,0.1,0.6,0.4,0.6,0.8c0.1,0.5-0.3,0.9-0.8,1h-0.1c-0.7,0.1-1.1,0.5-1.1,1.1v3.4h10.9
		c0.3,0,0.6,0,0.9-0.1c0.2-0.1,0.5-0.3,0.6-0.5c0.2-0.2,0.5-0.6,0.8-1.1l1.1-1.4l0.8-1c0.2-0.3,0.5-0.4,0.8-0.4
		c0.5,0.1,1,0.3,1.4,0.5c0.7,0.4,1.4,0.8,2,1.3c0.7,0.5,1.4,1,2,1.5s1.1,0.9,1.3,1.2c0.2,0.2,0.3,0.5,0.3,0.7c0,0.6-0.2,0.8-0.7,0.8
		H46.2v6.4h10.9c0.5,0.1,0.9-0.2,1.1-0.6c0.2-0.3,0.4-0.6,0.5-0.9c0.2-0.4,0.4-0.7,0.5-0.9c0.1-0.3,0.4-0.6,0.8-0.6
		c0.2,0,0.4,0.1,0.6,0.1c0.7,0.2,1.4,0.5,2,0.8c0.8,0.3,1.5,0.7,2.2,1.1c0.6,0.3,1.2,0.6,1.8,1c0.4,0.2,0.7,0.7,0.7,1.1
		c0,0.5-0.3,0.9-0.7,1.1c-0.1,0.1-0.3,0.2-0.4,0.3c-0.1,0.1-0.2,0.2-0.3,0.2c-0.5,0.5-0.8,1.1-0.8,1.9v5.3c0,2.6,0,5.2,0.1,7.6
		c0.1,2.5,0.1,4.6,0.1,6.3c0,1.7,0.1,2.8,0.1,3.3c0,1.4-0.2,2.7-0.7,4c-0.5,1.2-1.4,2.2-2.6,2.8c-1.8,0.9-3.7,1.5-5.6,1.7
		c-0.2-1.3-0.5-2.7-1-4c-0.3-0.9-0.9-1.6-1.7-2.1c-1.1-0.5-2.3-0.9-3.5-1c-0.1-0.2-0.2-0.3-0.2-0.5s0.1-0.5,0.3-0.6H57
		c1,0,1.5-0.5,1.5-1.5V418h-9.9c0.6,0.2,1.3,0.5,2.1,0.8l2.2,0.9c0.5,0.2,1,0.4,1.5,0.7c0.2,0.1,0.3,0.3,0.3,0.6s-0.1,0.5-0.2,0.6
		c-0.2,0.1-0.4,0.1-0.6,0.1c-0.4,0-0.7,0-1.1,0.1c-0.4,0.2-0.8,0.5-1.1,0.8c-0.9,0.9-2,1.9-3.1,2.9s-2.2,1.9-3.1,2.6h3.3
		c0.4,0,0.9-0.2,1.1-0.6l1.4-2.2c0.1-0.2,0.4-0.4,0.6-0.4c0.2,0,0.4,0.1,0.6,0.2c0.8,0.5,1.5,1,2.2,1.6c0.7,0.5,1.3,1.1,1.8,1.7
		c0.1,0.2,0.2,0.4,0.2,0.6c0,0.5-0.2,0.7-0.6,0.7h-10v5.5h3.3c0.4,0,0.9-0.2,1.1-0.6l0.9-1.4c0.4-0.6,0.7-1.1,0.9-1.3
		c0.1-0.2,0.3-0.4,0.6-0.5c0.1,0,0.2,0,0.3,0s0.2,0.1,0.3,0.2c0.5,0.3,1,0.7,1.5,1.2c0.6,0.5,1.1,1,1.6,1.5c0.4,0.4,0.8,0.8,1.1,1.3
		c0.2,0.2,0.2,0.4,0.2,0.6c0,0.5-0.2,0.7-0.6,0.7H46.1c0,1.5,0,3.1,0.1,4.7c0,1.6,0.1,3,0.1,4.2s0.1,1.9,0.1,2.2s-0.3,0.7-0.8,1
		c-0.6,0.3-1.3,0.6-2,0.7c-0.8,0.2-1.6,0.3-2.5,0.2c-1,0-1.5-0.5-1.5-1.4c0-0.1,0-0.6,0-1.4s0.1-1.8,0.1-2.9s0.1-2.4,0.1-3.7
		s0-2.5,0-3.8h-4c-1.2,0-2.3,0-3.3,0s-1.9,0.1-2.9,0.2l-0.8-2.4c1.9,0.2,4.1,0.4,6.8,0.5h4v-5.5h-4.2c-1.7,0-3.3,0.1-4.9,0.2
		l-0.6-2.2c1.7,0.1,3.5,0.3,5.5,0.3h0.2c-0.4-0.4-0.6-0.8-0.7-1.4c-0.3-1.6-0.7-3.1-1.2-4.6c-0.5-1.1-1.1-2.1-2-3c0-0.1,0-0.1,0-0.2
		v-0.1c0-0.4,0.2-0.7,0.6-0.7l0,0c1.4,0.2,2.8,0.6,4.2,1.2c1.2,0.5,2.3,1.2,3.1,2.2c0.8,0.9,1.2,2.1,1.1,3.4c0,0.7-0.2,1.4-0.5,2
		c-0.3,0.5-0.8,1-1.3,1.3h4.3c0.3-0.8,0.6-1.7,1-2.7s0.7-2.1,1-3.3s0.6-2.1,0.8-3c0.1-0.2,0.1-0.4,0.1-0.6s0-0.3,0.1-0.5H28.1v31.6
		c0,0.7-0.5,1.3-1.4,1.8C25.5,451.9,24.2,452.1,23,452.1z"/>
	<path class="st0" d="M17.7,520.9c-0.6,0-0.9-0.3-0.8-0.8c1.8-2.2,3.2-4.6,4.3-7.2c1.3-3.3,2.2-6.7,2.7-10.1c0.7-4.9,1-9.9,0.9-14.8
		v-3c0-3.1-0.1-5.5-0.3-7.4c-0.1-1.2-0.3-2.5-0.5-3.7c0-0.3,0-0.5,0.1-0.6c0.2-0.1,0.4-0.1,0.6-0.1c0.8,0.3,1.5,0.6,2.2,0.9
		c1,0.5,2,0.9,3,1.4s1.8,0.9,2.3,1.2c2.3-0.4,4.8-0.9,7.4-1.4s5.2-1.3,7.7-2c2.2-0.7,4.4-1.5,6.6-2.4l1-0.5l1-0.5
		c0.1-0.1,0.3-0.2,0.5-0.2s0.3,0.1,0.4,0.2c0.3,0.3,0.8,0.7,1.5,1.2s1.3,1.1,2,1.7s1.3,1.2,2,1.7s1,0.9,1.3,1.2
		c0.2,0.2,0.3,0.4,0.3,0.6s-0.1,0.4-0.2,0.5c-0.2,0.4-0.6,0.5-1,0.4c0,0-0.1,0-0.1-0.1c-0.6-0.2-1.2-0.4-1.8-0.4h-0.5
		c-0.2,0-0.4,0-0.5,0.1c-0.8,0.1-1.6,0.2-2.4,0.3l-2.5,0.2c0.1,5.1,0.9,10.2,2.3,15.1c1.2,4.3,3,8.4,5.4,12.2
		c2.1,3.3,4.7,6.4,7.7,8.9c-1.6,0.5-3.1,1.3-4.6,2.2c-1.3,0.8-2.5,1.9-3.4,3.1c-3.5-5.1-6.1-10.9-7.5-16.9
		c-1.6-7.1-2.4-14.4-2.3-21.7v-2.8c-1.2,0.1-2.4,0.2-3.6,0.3l-3.7,0.2v32l4.1-0.3c-0.5-1-1-1.9-1.6-2.8c-0.5-0.8-1.1-1.6-1.8-2.2
		v-0.1c0-0.2,0.1-0.4,0.2-0.5c0.1-0.2,0.3-0.3,0.5-0.2c2.4,0.8,4.8,1.9,6.9,3.3c1.9,1.3,3.3,3.3,3.8,5.6c0.1,0.5,0.2,0.9,0.2,1.4
		c0.1,1.2-0.4,2.4-1.2,3.2c-0.7,0.7-1.6,1.1-2.5,1.1c-0.5,0-1.1-0.2-1.5-0.5c-0.5-0.4-0.8-0.9-0.8-1.5c-0.3-1.7-0.7-3.4-1.3-5
		l-4.2,1.4c-1.6,0.6-3.2,1.1-4.8,1.7c-1.6,0.6-3.1,1.1-4.4,1.6s-2.4,0.9-3.1,1.2c-0.4,0.1-0.7,0.3-1,0.5c-0.1,0.2-0.1,0.5-0.1,0.8
		v0.1v0.1c0,0.3-0.2,0.6-0.5,0.7c-0.1,0.1-0.2,0.1-0.3,0.1c-0.3,0-0.6-0.2-0.7-0.5s-0.4-0.7-0.7-1.4s-0.6-1.4-1-2.2s-0.7-1.5-1-2.2
		s-0.5-1.2-0.7-1.5s-0.1-0.4,0-0.5s0.2-0.2,0.4-0.2l1-0.1l1.1-0.1c1.2-0.1,2.5-0.2,4-0.3s3.1-0.3,4.7-0.4v-32.3c-1.3,0-2.5,0-3.7,0
		h-3.5v7.5c0.1,4.3-0.3,8.7-1,12.9c-0.6,3.3-1.6,6.5-2.9,9.6c-1.2,2.6-2.6,4.9-4.4,7.1C21.5,517.5,19.7,519.3,17.7,520.9z"/>
	<path class="st0" d="M36.2,1040.1c-19.5,0-35.3-15.8-35.3-35.3c0-19.5,15.8-35.3,35.3-35.3s35.3,15.8,35.3,35.3l0,0
		C71.5,1024.2,55.7,1040,36.2,1040.1z M36.2,971.8c-18.2,0-32.9,14.7-32.9,32.9s14.7,32.9,32.9,32.9s32.9-14.7,32.9-32.9
		C69.1,986.6,54.4,971.8,36.2,971.8L36.2,971.8z"/>
	<path class="st0" d="M36.2,1108.3c-19.5,0-35.3-15.8-35.3-35.3s15.8-35.3,35.3-35.3s35.3,15.8,35.3,35.3l0,0
		C71.5,1092.5,55.7,1108.3,36.2,1108.3z M36.2,1040c-18.2,0-32.9,14.7-32.9,32.9s14.7,32.9,32.9,32.9s32.9-14.7,32.9-32.9l0,0
		C69.1,1054.8,54.4,1040.1,36.2,1040L36.2,1040z"/>
	<path class="st0" d="M23,1030.4c-0.8,0.1-1.6-0.4-1.7-1.2c0-0.1,0-0.3,0-0.4c0-0.2,0-1,0.1-2.4s0.1-3.1,0.2-5.3s0.1-4.6,0.2-7.3
		s0.1-5.4,0.1-8.3c0-3.5,0-6.3-0.1-8.5c0-1.5-0.2-3.1-0.4-4.6c-0.1-0.3,0-0.5,0.1-0.6c0.1-0.2,0.3-0.2,0.7,0
		c1.1,0.3,2.2,0.7,3.2,1.2c1.3,0.6,2.5,1.1,3.6,1.6h11v-6.4H25c-1.2,0-2.3,0-3.2,0.1c-1,0-1.9,0.1-2.9,0.2l-0.7-2.4
		c1.8,0.2,4.1,0.4,6.8,0.4h15V984c0-0.8,0-1.7-0.1-2.5c0-0.5-0.2-0.9-0.4-1.3c-0.1-0.2-0.1-0.5-0.1-0.7c0.1-0.2,0.4-0.3,0.6-0.3
		c0.8,0,1.5,0.1,2.3,0.2c1,0.1,2,0.2,3,0.4s1.7,0.3,2.2,0.4c0.4,0.1,0.6,0.4,0.6,0.8c0.1,0.5-0.3,0.9-0.8,1h-0.1
		c-0.7,0.1-1.1,0.5-1.1,1.1v3.4H57c0.3,0,0.6,0,0.9-0.1c0.2-0.1,0.5-0.3,0.6-0.5c0.2-0.2,0.5-0.6,0.8-1.1l1.1-1.4
		c0.4-0.5,0.6-0.8,0.8-1c0.2-0.3,0.5-0.5,0.8-0.5c0.5,0.1,1,0.3,1.4,0.5c0.7,0.4,1.4,0.8,2,1.3c0.7,0.5,1.4,1,2,1.6s1.1,0.9,1.3,1.2
		c0.2,0.2,0.3,0.5,0.3,0.7c0,0.6-0.2,0.8-0.7,0.8H46.2v6.4h10.9c0.5,0.1,0.9-0.2,1.1-0.6c0.2-0.2,0.3-0.5,0.5-0.9s0.4-0.7,0.5-0.9
		c0.1-0.3,0.4-0.6,0.8-0.5c0.2,0,0.4,0.1,0.6,0.1c0.7,0.2,1.3,0.5,2,0.8c0.8,0.3,1.5,0.7,2.2,1.1s1.3,0.7,1.8,1
		c0.6,0.3,0.9,1.1,0.6,1.7c-0.1,0.3-0.3,0.5-0.6,0.6c-0.1,0.1-0.3,0.2-0.4,0.2c-0.1,0.1-0.2,0.2-0.3,0.2c-0.5,0.5-0.8,1.2-0.8,1.9
		v5.3c0,2.7,0,5.2,0.1,7.7s0.1,4.5,0.1,6.3c0,1.7,0.1,2.8,0.1,3.3c0,1.4-0.2,2.7-0.7,4c-0.5,1.2-1.4,2.2-2.5,2.8
		c-1.8,0.9-3.7,1.5-5.6,1.7c-0.2-1.4-0.5-2.7-1-4c-0.3-0.9-0.9-1.6-1.7-2.1c-1.1-0.6-2.3-0.9-3.5-1c-0.1-0.2-0.2-0.3-0.2-0.5
		s0.1-0.5,0.3-0.6H57c1,0,1.5-0.5,1.5-1.5v-24.3h-9.9c0.6,0.2,1.3,0.5,2.1,0.8l2.2,0.9c0.5,0.2,1,0.4,1.5,0.7
		c0.2,0.1,0.3,0.3,0.3,0.6s-0.1,0.5-0.2,0.6c-0.2,0.1-0.4,0.1-0.6,0.1c-0.4,0-0.7,0-1.1,0.1c-0.4,0.2-0.8,0.5-1.1,0.8
		c-0.9,0.9-2,1.9-3.1,2.9s-2.2,1.8-3.1,2.6h3.3c0.4,0,0.9-0.2,1.1-0.6l1.4-2.2c0.1-0.2,0.4-0.4,0.6-0.4c0.2,0,0.4,0.1,0.6,0.2
		c0.8,0.5,1.5,1,2.2,1.6c0.7,0.5,1.3,1.1,1.8,1.7c0.1,0.2,0.2,0.4,0.2,0.6c0,0.5-0.2,0.7-0.6,0.7h-10v5.5h3.3c0.4,0,0.9-0.2,1.1-0.6
		l0.9-1.4c0.4-0.6,0.7-1.1,0.9-1.3c0.1-0.4,0.5-0.5,0.9-0.4l0,0c0.1,0,0.2,0.1,0.3,0.2c0.5,0.3,1,0.7,1.5,1.2c0.6,0.5,1.1,1,1.6,1.5
		c0.4,0.4,0.8,0.8,1.2,1.2c0.2,0.2,0.2,0.4,0.2,0.6c0,0.4-0.2,0.7-0.6,0.7H46.1c0,1.5,0,3.1,0.1,4.7c0,1.6,0.1,3,0.1,4.2
		s0.1,1.9,0.1,2.2s-0.3,0.7-0.8,1c-0.6,0.3-1.3,0.6-2,0.7c-0.8,0.2-1.6,0.3-2.5,0.3c-1,0-1.5-0.5-1.5-1.4c0-0.2,0-0.6,0-1.4
		s0.1-1.8,0.1-2.9s0.1-2.4,0.1-3.7s0-2.6,0-3.8h-4c-1.2,0-2.3,0-3.3,0.1s-1.9,0.1-2.9,0.2l-0.7-2.4c1.9,0.2,4.1,0.4,6.8,0.5h4v-5.5
		h-4.3c-1.7,0-3.3,0.1-4.9,0.2l-0.6-2.2c1.7,0.2,3.5,0.3,5.5,0.3h0.2c-0.4-0.4-0.6-0.8-0.7-1.4c-0.3-1.6-0.7-3.1-1.2-4.6
		c-0.5-1.1-1.1-2.1-2-3c0-0.1,0-0.1,0-0.2v-0.1c0-0.4,0.2-0.7,0.6-0.7l0,0c1.4,0.2,2.8,0.6,4.2,1.2c1.2,0.5,2.3,1.2,3.1,2.2
		c0.8,0.9,1.2,2.1,1.2,3.4c0,0.7-0.2,1.4-0.5,2c-0.3,0.5-0.8,1-1.3,1.3h4.3c0.3-0.8,0.6-1.7,1-2.7s0.7-2.2,1-3.3s0.6-2.2,0.8-3
		c0.1-0.2,0.1-0.4,0.1-0.6c0-0.2,0-0.3,0.1-0.5H28.1v31.6c0,0.7-0.5,1.3-1.4,1.8C25.5,1030.2,24.2,1030.4,23,1030.4z"/>
	<path class="st0" d="M17.7,1099.2c-0.6,0-0.9-0.3-0.8-0.8c1.8-2.2,3.2-4.6,4.3-7.2c1.3-3.3,2.2-6.7,2.7-10.1
		c0.7-4.9,1-9.9,0.9-14.8v-3c0-3.1-0.1-5.5-0.3-7.4c-0.1-1.2-0.3-2.5-0.5-3.7c0-0.3,0-0.5,0.1-0.6c0.2-0.1,0.4-0.1,0.6,0
		c0.8,0.3,1.5,0.6,2.2,0.9c1,0.4,2,0.9,3,1.4s1.8,0.9,2.3,1.2c2.3-0.4,4.8-0.8,7.4-1.4s5.2-1.3,7.7-2c2.2-0.7,4.4-1.5,6.6-2.4l1-0.5
		l1-0.5c0.1-0.1,0.3-0.2,0.5-0.2s0.3,0.1,0.4,0.2c0.3,0.3,0.8,0.7,1.5,1.2s1.3,1.1,2,1.7s1.3,1.2,2,1.7s1,0.9,1.3,1.2
		c0.2,0.2,0.3,0.4,0.3,0.6s-0.1,0.4-0.2,0.5c-0.2,0.4-0.6,0.5-1,0.4h-0.1c-0.6-0.3-1.2-0.4-1.8-0.4h-0.5c-0.2,0-0.4,0-0.5,0.1
		c-0.8,0.1-1.6,0.2-2.4,0.3l-2.5,0.2c0.1,5.1,0.9,10.2,2.3,15.1c1.2,4.3,3.1,8.4,5.5,12.2c2.1,3.4,4.7,6.4,7.7,9
		c-1.6,0.5-3.1,1.3-4.6,2.2c-1.3,0.8-2.5,1.9-3.4,3.1c-3.5-5.1-6.1-10.9-7.5-16.9c-1.6-7.1-2.4-14.4-2.3-21.7v-2.8
		c-1.2,0.1-2.4,0.2-3.6,0.3l-3.7,0.2v32l4.1-0.3c-0.5-1-1-1.9-1.6-2.8c-0.5-0.8-1.1-1.6-1.8-2.2v-0.1c0-0.2,0.1-0.4,0.2-0.5
		c0.1-0.2,0.3-0.3,0.5-0.2c2.4,0.8,4.8,1.9,6.9,3.3c1.9,1.3,3.3,3.3,3.8,5.6c0.1,0.5,0.2,0.9,0.2,1.4c0.1,1.2-0.4,2.4-1.2,3.2
		c-0.7,0.7-1.6,1-2.6,1c-0.5,0-1.1-0.2-1.5-0.5c-0.5-0.4-0.8-0.9-0.8-1.5c-0.3-1.7-0.7-3.4-1.3-5l-4.2,1.4c-1.6,0.6-3.2,1.1-4.8,1.7
		s-3.1,1.1-4.4,1.6s-2.4,0.9-3.1,1.2c-0.4,0.1-0.7,0.3-1,0.5c-0.1,0.2-0.1,0.5-0.1,0.8v0.1v0.1c0,0.3-0.2,0.6-0.5,0.7
		c-0.1,0.1-0.2,0.1-0.3,0.1c-0.3,0-0.6-0.2-0.7-0.4c-0.1-0.3-0.4-0.7-0.7-1.4s-0.6-1.4-1-2.2s-0.7-1.5-1-2.2s-0.5-1.2-0.7-1.5
		s-0.1-0.4,0-0.5s0.2-0.2,0.4-0.2l1-0.1l1.1-0.1c1.2-0.1,2.5-0.2,4-0.3s3.1-0.2,4.7-0.4v-32.2c-1.3,0-2.5,0.1-3.7,0.1h-3.5v7.5
		c0.1,4.3-0.3,8.7-1,12.9c-0.6,3.3-1.6,6.6-2.9,9.6c-1.2,2.6-2.6,4.9-4.4,7.1C21.5,1095.8,19.7,1097.6,17.7,1099.2z"/>
	<path class="st0" d="M27.7,38.3l13.2,14.6l-0.5,0.9L21.1,39v-9.9l23.4-9.4c0-0.7-0.1-1.5-0.1-2.2l-23.3-5.2V0l52.7,11.6l2.4-2.5
		l11,16.3v1.5l-40.9-9l17.5,17.6l1.4,12.1L65,46.4l0.2,1.6c-13-3.6-19.6-14-20.3-25.3l-2,8.5L27.7,38.3z M45.6,18.6
		c0.2,7.5,2,17.9,8.9,19.4c2.8,0.7,5.6-0.8,8.1-2.1L45.6,18.6z"/>
	<path class="st0" d="M65.1,70.6l-35-7.6l10.8,11.9l-0.5,0.9L21.1,61.1v-0.2h0.2l7.1-10.5l22.1,4.8l2.4-2.5L65.1,70.6z M77.4,59.6
		c3.4,0.8,6.2,4.8,6.2,9s-2.8,7.1-6.2,6.4s-6.1-4.9-6.1-9.1S74,58.8,77.4,59.6L77.4,59.6z"/>
	<path class="st0" d="M44.4,119.6L29,116.2c13.4,7.1,37.4,16.6,37.4,28.6c0,6.1-6.3,4.1-22.1,0.7l-14.2-3.2l10.8,11.8l-0.5,0.9
		l-19.3-14.7l7.3-10.7l16,3.6c5,1,20.8,16.8,20.8,10.4c0-10.4-41-26.6-44-29.1l7.3-10.7l16,3.6c5,1,20.8,16.8,20.8,10.4
		c0-10.4-41-26.7-44-29.1V76.4L56,84.1L45.3,72.6l0.5-0.9l18.9,14.4l0.5,0.1v1.5l-11,11.4l-2.5-3.6l-22.5-4.9
		c13.4,7,37.3,16.6,37.3,28.5C66.4,125.1,60.2,123.1,44.4,119.6z"/>
	<path class="st0" d="M47.8,201.2l-4.1-0.9l0.8-2.1v-39.8l-0.8-2.5l4.1,0.9l-0.8,2.1v39.8L47.8,201.2z"/>
	<path class="st0" d="M27.7,244.8l13.2,14.6l-0.5,0.9L21,245.5v-9.9l23.4-9.4c0-0.8-0.1-1.5-0.1-2.2L21,218.9v-12.3l52.7,11.6
		l2.4-2.5l11,16.3v1.5l-40.9-9L63.8,242l1.4,12.1L65,253l0.2,1.6c-13-3.6-19.6-14-20.3-25.4l-2,8.5L27.7,244.8z M45.6,225.2
		c0.2,7.5,2,17.9,8.9,19.4c2.8,0.6,5.6-0.8,8.1-2.1L45.6,225.2z"/>
	<path class="st0" d="M43.2,258.5l23.3,5l-7.4,10.7l-15.9-3.5c-5-1.1-20.7-16.9-20.7-10c0,9.5,29,25.4,44,28.6v12.2L31.4,294
		l10.8,11.8l-0.5,0.9l-19.4-14.8v-1.5l11-11.3l2.5,3.6l15.9,3.5c-15-6.8-30.6-16.6-30.6-26.8C21.1,253,27.4,255,43.2,258.5z"/>
	<path class="st0" d="M31,347.8l-2.3,1.2c-5.1-7.4-8.8-12.9-8.8-22.2c0-14.6,11-23.1,23.3-20.6s23.3,15.4,23.3,30s-8.8,15.5-18,5.8
		c-5.3-5.7-9.5-14.9-11.6-23.1c-6.5,4.2-11.6,11.1-11.6,18.9c0,3.8,1.7,8.6,5.5,9.5L31,347.8z M49.9,335.3
		c5.7,4.4,11.1-0.6,11.1-10.1c0-6.1-3.4-9-8.6-10c-4.5-0.9-9.8,0.4-14.5,3.1C40,325.1,44.2,331.1,49.9,335.3z"/>
	<path class="st0" d="M27.7,615l13.2,14.6l-0.5,0.9L21,615.7v-9.9l23.4-9.5c0-0.8-0.1-1.5-0.1-2.2L21.1,589v-12.3l52.7,11.6l2.4-2.5
		l11,16.3v1.5l-40.9-9l17.5,17.6l1.4,12.1l-0.2-1.1l0.2,1.6c-13-3.5-19.6-14-20.3-25.3l-2,8.5L27.7,615z M45.6,595.4
		c0.2,7.5,2,17.9,8.9,19.4c2.8,0.7,5.6-0.8,8.1-2.1L45.6,595.4z"/>
	<path class="st0" d="M65.1,647.4L30,639.8l10.8,11.9l-0.5,0.9l-19.4-14.8v-0.2h0.2l7.1-10.5l22.1,4.8l2.4-2.5L65.1,647.4z
		 M77.4,636.4c3.4,0.8,6.2,4.8,6.2,9s-2.8,7.1-6.2,6.4s-6.1-4.9-6.1-9.1S74,635.6,77.4,636.4L77.4,636.4z"/>
	<path class="st0" d="M44.4,696.4L29,693c13.4,7.1,37.4,16.7,37.4,28.6c0,6.1-6.3,4.1-22.1,0.7L30.1,719l10.8,11.8l-0.5,0.9L21,717
		l7.3-10.7l16,3.5c5,1,20.8,16.8,20.8,10.4c0-10.4-41-26.7-44-29.1l7.3-10.7l16,3.6c5,1,20.8,16.8,20.8,10.4c0-10.4-41-26.7-44-29.1
		v-12.2l34.7,7.7l-10.5-11.5l0.5-0.9l18.9,14.4l0.5,0.1v1.5l-11.1,11.4l-2.5-3.7l-22.5-5c13.4,7,37.3,16.5,37.3,28.5
		C66.4,701.8,60.2,699.9,44.4,696.4z"/>
	<path class="st0" d="M47.8,778l-4.1-0.9l0.8-2.2v-39.8l-0.8-2.5l4.1,0.9l-0.8,2.2v39.8L47.8,778z"/>
	<path class="st0" d="M27.7,821.6l13.2,14.6l-0.5,0.9L21,822.3v-9.9l23.4-9.4c0-0.8-0.1-1.5-0.1-2.2L21,795.7v-12.3L73.7,795
		l2.4-2.5l11,16.3v1.5l-40.9-9l17.5,17.6l1.4,12.1l-0.2-1.1l0.2,1.6c-13-3.6-19.6-14-20.3-25.3l-2,8.5L27.7,821.6z M45.6,801.9
		c0.2,7.5,2,17.9,8.9,19.4c2.8,0.7,5.6-0.8,8.1-2.1L45.6,801.9z"/>
	<path class="st0" d="M43.2,835.3l23.3,5L59.1,851l-15.9-3.5c-5-1.1-20.7-16.9-20.7-10c0,9.5,29,25.3,44,28.6v12.2l-35.1-7.7
		l10.7,11.8l-0.5,0.9l-19.4-14.7v-1.5l11-11.3l2.4,3.6l15.9,3.5c-15-6.8-30.6-16.6-30.6-26.8C21.1,829.8,27.4,831.7,43.2,835.3z"/>
	<path class="st0" d="M31,924.6l-2.3,1.2c-5.1-7.4-8.8-12.9-8.8-22.2c0-14.6,11-23.1,23.3-20.6s23.3,15.4,23.3,30s-8.8,15.4-18,5.8
		c-5.3-5.7-9.5-14.9-11.6-23.1c-6.5,4.2-11.6,11.1-11.6,18.9c0,3.8,1.7,8.6,5.5,9.5L31,924.6z M49.9,912.1
		c5.7,4.4,11.1-0.6,11.1-10.1c0-6.1-3.4-9-8.6-10c-4.5-0.9-9.8,0.4-14.5,3.1C40,901.9,44.2,907.9,49.9,912.1z"/>
</g>
</svg>
