<?xml version="1.0" encoding="utf-8"?>
<!-- Generator: Adobe Illustrator 25.0.1, SVG Export Plug-In . SVG Version: 6.00 Build 0)  -->
<svg version="1.1" id="圖層_1" xmlns="http://www.w3.org/2000/svg" xmlns:xlink="http://www.w3.org/1999/xlink" x="0px" y="0px"
	 viewBox="0 0 92.8 1053.9" style="enable-background:new 0 0 92.8 1053.9;" xml:space="preserve">
<style type="text/css">
	.st0{fill:#FFFFFF;}
</style>
<path class="st0" d="M24.5,0.5h2.4v1053.4c0,0.7-0.5,1.2-1.2,1.2h0c-0.7,0-1.2-0.5-1.2-1.2V0.5z"/>
<g>
	<path class="st0" d="M36.2,412.7c-19.5,0-35.3-15.8-35.3-35.3c0-19.5,15.8-35.3,35.3-35.3s35.3,15.8,35.3,35.3l0,0
		C71.5,396.9,55.7,412.7,36.2,412.7z M36.2,344.5c-18.2,0-32.9,14.7-32.9,32.9s14.7,32.9,32.9,32.9s32.9-14.7,32.9-32.9c0,0,0,0,0,0
		C69.1,359.2,54.4,344.5,36.2,344.5z"/>
	<path class="st0" d="M36.2,481c-19.5,0-35.3-15.8-35.3-35.3c0-19.5,15.8-35.3,35.3-35.3s35.3,15.8,35.3,35.3
		C71.5,465.2,55.7,481,36.2,481z M36.2,412.7c-18.2,0-32.9,14.7-32.9,32.9s14.7,32.9,32.9,32.9s32.9-14.7,32.9-32.9c0,0,0,0,0,0
		C69.1,427.5,54.4,412.8,36.2,412.7L36.2,412.7z"/>
	<path class="st0" d="M21.9,402.5c-0.1,0.1-0.3,0.1-0.4,0.1c-0.3,0-0.5-0.2-0.6-0.4c-0.1-0.3-0.4-0.8-0.7-1.5l-1-2.3
		c-0.4-0.8-0.7-1.6-1-2.4c-0.3-0.8-0.5-1.3-0.6-1.8v-0.3c0.1-0.1,0.2-0.2,0.4-0.1l1.5-0.2c1.9-0.2,4.3-0.4,7.1-0.6v-10.9h-2.2v3.3
		c0,0.5-0.5,0.8-1.3,1.1c-0.9,0.3-1.8,0.4-2.7,0.4c-0.6,0-1-0.4-1.1-0.9c0,0,0-0.1,0-0.1c0-0.2,0-1.1,0-2.7s0-3.6,0.1-6.1
		s0.1-5.1,0.1-7.9c0-2.3,0-4.1-0.1-5.3c0-0.8-0.1-1.6-0.3-2.5c-0.1-0.1-0.1-0.3,0.1-0.5c0.1-0.1,0.1-0.1,0.2-0.1
		c0.5,0.1,0.9,0.2,1.4,0.5l2.4,1c0.6,0.3,1.3,0.6,1.9,0.9h1.6v-6.8c0-0.8,0-1.5-0.1-2.3c-0.1-0.4-0.1-0.8-0.3-1.2
		c-0.1-0.1-0.1-0.3,0-0.5c0.1-0.2,0.3-0.3,0.5-0.2c0.6,0,1.2,0.1,1.9,0.2l2.5,0.3c0.8,0.1,1.4,0.2,1.8,0.3c0.3,0,0.5,0.3,0.5,0.6
		c0,0,0,0.1,0,0.1c0,0.3-0.2,0.6-0.5,0.6c-0.1,0-0.1,0-0.2,0c-0.6,0.1-0.9,0.4-0.9,0.9v8H33c0.3,0,0.6-0.2,0.7-0.5l0.8-1.4
		c0.2-0.3,0.5-0.5,0.9-0.3s1.3,0.6,2.3,1s1.8,0.8,2.3,1.1c0.3,0.1,0.5,0.5,0.5,0.9c0,0.4-0.3,0.7-0.6,0.8l-0.4,0.1
		c-0.1,0-0.2,0.1-0.2,0.2c-0.5,0.4-0.7,0.9-0.6,1.5c0,0.8,0,1.7,0,2.6s0,1.8,0,2.8c1.4-1.8,2.7-3.7,3.8-5.8c1.2-2.1,2.2-4.3,3.1-6.6
		c0.8-1.9,1.4-3.9,1.8-6c0.1-0.3,0.1-0.6,0.1-0.9c0-0.3,0-0.5,0.1-0.8c0-0.2,0.1-0.4,0.2-0.5c0.2-0.1,0.3-0.1,0.5-0.1
		c0.6,0.1,1.4,0.3,2.4,0.6s2.1,0.6,3.2,0.9s1.8,0.6,2.3,0.8c0.2,0.1,0.4,0.4,0.3,0.6c0,0.2-0.1,0.4-0.2,0.5
		c-0.1,0.2-0.3,0.2-0.5,0.2H56c1,1.9,2.3,3.7,3.8,5.2c1.6,1.6,3.4,3,5.4,4.1c1.8,1.1,3.8,2,5.8,2.7c-0.9,0.5-1.6,1.1-2.3,1.8
		c-0.8,0.7-1.5,1.6-2.2,2.4c-0.6,0.7-1,1.5-1.4,2.3c-2.8-2.1-5.1-4.8-6.8-7.9c-1.8-3.2-3-6.7-3.7-10.3c-0.2,0.2-0.3,0.5-0.5,0.7
		c-1.1,2.5-2.5,4.8-4.1,7c-1.6,2.2-3.4,4.3-5.4,6.2c-1.8,1.7-3.7,3.3-5.8,4.6c0,1.5,0.1,2.9,0.1,4.3s0,2.4,0.1,3.3s0,1.4,0,1.5
		c0,0.5-0.5,0.9-1.4,1.2c-0.9,0.3-1.8,0.4-2.8,0.4c-0.8,0-1.1-0.4-1.1-1.1v-1.5h-2.2v10.5c0.6-0.1,1.2-0.1,1.7-0.2l1.4-0.1
		c-0.3-0.9-0.6-1.8-1-2.7c-0.4-0.8-0.8-1.6-1.4-2.3c-0.1-0.4,0.2-0.8,0.6-0.9c0.1,0,0.1,0,0.2,0c1.4,0.7,2.7,1.5,4,2.5
		c1.2,0.9,2.2,2,3,3.2c0.8,1.2,1.2,2.7,1.2,4.2c0.1,1.1-0.4,2.2-1.3,2.9c-0.7,0.6-1.6,1-2.6,1c-0.5,0-0.9-0.1-1.3-0.4
		c-0.4-0.3-0.6-0.8-0.6-1.2c0-0.8-0.1-1.5-0.2-2.3s-0.2-1.5-0.3-2.2c-0.9,0.4-2,0.9-3.2,1.5s-2.4,1.2-3.6,1.8l-3.3,1.7
		c-1,0.5-1.7,0.9-2.3,1.2c-0.2,0.1-0.4,0.3-0.5,0.5c-0.1,0.2-0.1,0.5-0.1,0.7l0.1,0.2C22.2,402.1,22.1,402.4,21.9,402.5z
		 M26.6,364.9h-2.2v15.6h2.2V364.9z M33.8,364.9h-2.2v15.6h2.2V364.9z M44.2,402.8c-0.9,0-1.4-0.4-1.4-1.3c0-0.3,0-1,0.1-2.3
		s0.1-2.9,0.2-4.8s0.1-3.9,0.1-5.9c0-2.7,0-4.7-0.1-6.1c0-0.9-0.1-1.8-0.4-2.7c0-0.1,0-0.3,0.1-0.4c0.1-0.1,0.3-0.2,0.5-0.2
		c0.6,0.1,1.3,0.4,2.2,0.7s1.7,0.7,2.6,1s1.5,0.7,2.1,1h7.2c0.4,0,0.7-0.1,0.9-0.5l1-1.8c0.1-0.3,0.4-0.4,0.7-0.5c0.1,0,0.1,0,0.2,0
		l0.3,0.1c1,0.3,1.9,0.7,2.8,1.1c1.1,0.5,2,1,2.7,1.4c0.4,0.2,0.6,0.6,0.6,1c0,0.5-0.3,0.9-0.8,1.1l-0.3,0.1c-0.1,0-0.2,0.1-0.3,0.2
		c-0.6,0.5-0.8,1.3-0.7,2.1c0,1.1,0,2.4,0.1,3.9c0,1.5,0.1,2.9,0.2,4.4s0.1,2.6,0.2,3.6s0,1.5,0,1.7c0,0.6-0.6,1.1-1.7,1.4
		c-1.1,0.4-2.3,0.5-3.5,0.5c-1,0-1.5-0.5-1.5-1.4v-2.7h-8.8v3.1c0,0.6-0.6,1.1-1.7,1.4C46.5,402.7,45.4,402.8,44.2,402.8L44.2,402.8
		z M43.3,374.8l-0.7-2.2c1.5,0.1,3.3,0.2,5.4,0.3h5.5c0.5,0,0.9-0.2,1.1-0.6c0.2-0.3,0.5-0.8,0.9-1.4s0.7-1.1,0.9-1.3
		c0.1-0.3,0.3-0.4,0.6-0.5c0.1,0,0.2,0,0.3,0l0.3,0.2c0.5,0.3,1,0.7,1.5,1.1c0.6,0.5,1.1,1,1.6,1.5c0.4,0.4,0.8,0.8,1.2,1.3
		c0.2,0.2,0.2,0.4,0.2,0.6c0,0.5-0.2,0.7-0.6,0.7H48.1C46.1,374.6,44.5,374.7,43.3,374.8L43.3,374.8z M58.2,383.6h-8.8v12.5h8.8
		V383.6z"/>
	<path class="st0" d="M32.2,471.8c-0.6,0-0.8-0.3-0.8-0.8c0.9-1.1,1.8-2.3,2.5-3.6c0.8-1.4,1.5-2.9,2-4.4c-0.3,0.3-0.7,0.5-1.2,0.7
		c-0.2,0.1-0.4,0.1-0.6,0.1c-0.4,0-0.7-0.2-1-0.4c-0.3-0.3-0.5-0.7-0.6-1.1c0-0.4-0.1-0.8-0.2-1.3s-0.2-0.9-0.2-1.3
		c-0.7,0.4-1.6,0.9-2.6,1.5l-3.1,1.7c-1,0.6-2,1.1-2.8,1.6l-1.9,1.1c-0.2,0.1-0.4,0.3-0.5,0.5c-0.1,0.2-0.1,0.5,0,0.7v0.2
		c0,0.4-0.2,0.6-0.7,0.8c-0.1,0-0.2,0.1-0.3,0.1c-0.2,0-0.5-0.1-0.6-0.3l-0.9-1.9l-1.2-2.6c-0.4-0.9-0.7-1.5-0.9-2c0,0,0-0.1,0-0.1
		c0,0,0-0.1,0-0.1c0-0.2,0.1-0.3,0.4-0.4l1.6-0.2c0.8-0.1,1.7-0.3,2.7-0.5l3.1-0.5V449H23v3.3c0,0.4-0.4,0.8-1.3,1
		c-0.8,0.2-1.7,0.4-2.6,0.4c-0.7,0-1-0.3-1-0.9c0-0.3,0-1.8,0.1-4.7s0.1-6.6,0.1-11.3c0.1-2.4,0-4.8-0.3-7.2c-0.1-0.2,0-0.4,0.1-0.5
		s0.2-0.1,0.5-0.1c0.5,0.2,1,0.3,1.4,0.6l2,0.9c0.7,0.3,1.2,0.6,1.5,0.8h1.3v-6.7c0-0.7,0-1.5-0.1-2.2c0-0.4-0.1-0.8-0.3-1.1
		c-0.1-0.1-0.1-0.3,0-0.5c0.1-0.1,0.2-0.2,0.4-0.2c0.6,0,1.2,0.1,1.8,0.1c0.8,0.1,1.6,0.2,2.4,0.3s1.4,0.2,1.8,0.3s0.5,0.3,0.4,0.7
		c0,0.3-0.2,0.5-0.4,0.6c0,0-0.1,0-0.1,0c-0.6,0.1-0.9,0.4-0.9,0.9v7.8h1.2c0.3,0,0.5-0.1,0.7-0.3l0.7-1.3c0.2-0.3,0.5-0.4,0.8-0.3
		c0,0,0,0,0,0c0.6,0.2,1.3,0.5,2.3,0.9c0.7,0.3,1.5,0.7,2.2,1.1c0.3,0.2,0.5,0.5,0.5,0.8c0,0.3-0.2,0.6-0.6,0.7
		c-0.2,0-0.3,0.1-0.5,0.2c-0.4,0.4-0.6,1-0.6,1.6c0,1.7,0,3.4,0,5.1s0,3.3,0,4.8s0,2.7,0,3.7s0,1.5,0,1.6c0,0.4-0.4,0.8-1.3,1
		c-0.9,0.3-1.8,0.4-2.7,0.4c-0.7,0-1-0.3-1-1V449h-1.8v9.4c0.4-0.1,0.8-0.1,1.2-0.2l0.9-0.1c-0.2-0.8-0.5-1.6-0.8-2.4
		c-0.3-0.7-0.7-1.5-1.1-2.1c0.1-0.5,0.3-0.8,0.8-0.7c1.5,0.7,2.9,1.5,4.2,2.5c1.2,0.9,2,2.2,2.3,3.7c0.7-3,1.1-6.1,1.3-9.2
		c0.3-3.6,0.4-7.8,0.4-12.8c0-4.7-0.1-8.3-0.2-10.7c-0.1-2.4-0.3-3.9-0.4-4.5c0-0.2,0-0.3,0.1-0.5c0.2-0.1,0.4-0.2,0.6-0.1
		c0.4,0.1,1,0.4,1.7,0.8s1.5,0.7,2.3,1.1c0.6,0.3,1.2,0.6,1.8,0.9h16.2c0.5,0,1-0.2,1.2-0.6c0.2-0.3,0.5-0.8,0.9-1.4s0.7-1,0.9-1.3
		c0.1-0.2,0.3-0.3,0.6-0.3c0.6,0.1,1.1,0.4,1.5,0.8c0.7,0.5,1.4,1.1,2.1,1.7c0.6,0.5,1.1,1,1.5,1.5c0.1,0.1,0.1,0.2,0.2,0.3
		c0,0.1,0.1,0.2,0.1,0.3c0,0.4-0.2,0.6-0.6,0.6H44.1v5.1h4.7v-0.7c0-0.7,0-1.5-0.1-2.2c0-0.4-0.1-0.8-0.3-1.2
		c-0.1-0.2-0.1-0.3,0-0.5c0.1-0.2,0.2-0.2,0.4-0.2c0.4,0,1,0,1.8,0.1l2.5,0.3c0.8,0.1,1.4,0.2,1.7,0.3c0.3,0,0.5,0.3,0.5,0.6
		c0,0,0,0.1,0,0.1c0,0.3-0.2,0.5-0.6,0.6c-0.6,0-0.8,0.3-0.8,0.8v1.9h4.1v-0.7c0-0.7,0-1.5-0.1-2.2c-0.1-0.4-0.1-0.8-0.2-1.2
		c-0.1-0.1-0.2-0.3,0-0.5c0,0,0,0,0,0c0.1-0.1,0.2-0.2,0.4-0.2c0.4,0,1,0,1.8,0.1l2.5,0.3c0.8,0.1,1.4,0.2,1.8,0.3
		c0.3,0,0.5,0.3,0.5,0.6c0,0,0,0.1,0,0.1c0,0.3-0.2,0.5-0.6,0.6s-0.8,0.3-0.8,0.8v1.9h0.3c0.4,0,0.7-0.1,1-0.4
		c0.2-0.4,0.5-0.9,0.8-1.3c0.4-0.5,0.7-1,0.9-1.2c0.1-0.2,0.3-0.3,0.6-0.3c0.2,0,0.4,0.1,0.5,0.2c0.5,0.4,1.1,0.9,1.8,1.6
		c0.6,0.5,1.2,1.1,1.6,1.8c0.2,0.1,0.2,0.3,0.2,0.6c0,0.4-0.2,0.6-0.5,0.6h-7.2c0,0.7,0,1.3,0,1.9v0.9c0,0.5-0.5,0.8-1.4,1
		c-0.9,0.2-1.8,0.4-2.7,0.4c-0.7,0-1-0.3-1-1v-3.3h-4v3c0,0.5-0.5,0.8-1.4,1c-0.9,0.2-1.8,0.4-2.7,0.4c-0.7,0-1.1-0.3-1.1-1
		c0-0.2,0-0.7,0-1.4s0-1.4,0-2.1h-4.6v7c0,3.9-0.2,7.8-0.8,11.7c-0.4,3.1-1.2,6.1-2.3,8.9c-0.9,2.4-2.2,4.6-3.7,6.6
		C35.8,468.5,34.1,470.3,32.2,471.8z M24.6,433.1H23v14.3h1.7L24.6,433.1z M31.4,433.1h-1.8v14.3h1.8L31.4,433.1z M45,471.8
		c-0.7,0-1-0.3-1-1c0-0.2,0-0.9,0-2s0.1-2.6,0.1-4.4s0-3.6,0-5.6s0-3.2-0.1-4.1s-0.1-1.5-0.2-1.9c0-0.2,0-0.3,0.1-0.5
		c0.2-0.2,0.4-0.2,0.6-0.1c0.4,0.1,0.9,0.3,1.5,0.6l1.9,0.8c0.5,0.2,1,0.4,1.4,0.7h4.1v-4.1h-2.9v0.7c0,0.5-0.5,0.8-1.4,1.1
		c-0.9,0.3-1.8,0.4-2.7,0.4c-0.5,0.1-0.9-0.3-1-0.8c0-0.1,0-0.1,0-0.2c0-0.2,0-0.9,0-2s0-2.3,0.1-3.8s0.1-2.9,0.1-4.2
		c0.1-1.6,0-3.2-0.3-4.8c0-0.2,0-0.3,0.1-0.5c0.1-0.1,0.2-0.1,0.3-0.1c0.5,0.1,1,0.2,1.4,0.4c0.7,0.3,1.4,0.6,2.1,0.9
		s1.3,0.6,1.6,0.8h10c0.3,0,0.5-0.1,0.7-0.3c0.1-0.1,0.2-0.4,0.4-0.6c0.1-0.2,0.3-0.4,0.4-0.6c0.2-0.3,0.6-0.4,0.9-0.3
		c0.5,0.2,1.3,0.5,2.2,0.9c0.8,0.3,1.5,0.7,2.2,1.1c0.3,0.1,0.4,0.4,0.4,0.7c0,0.4-0.2,0.7-0.6,0.8l-0.4,0.2
		c-0.5,0.3-0.7,0.8-0.7,1.3c0,0.5,0,1.1,0,2.1s0,1.9,0.1,3s0,1.9,0,2.7s0,1.2,0,1.3c0,0.5-0.5,0.8-1.4,1.1c-0.9,0.3-1.8,0.4-2.7,0.4
		c-0.7,0-1.1-0.3-1.1-1v-0.6h-3v4.1h4c0.4,0,0.6-0.1,0.7-0.3s0.2-0.4,0.4-0.6s0.3-0.5,0.4-0.6c0.1-0.3,0.4-0.4,0.7-0.3
		c0,0,0.1,0,0.1,0c0.8,0.2,1.6,0.5,2.3,0.9c0.8,0.3,1.5,0.7,2.2,1.1c0.3,0.2,0.5,0.5,0.5,0.8c0,0.4-0.2,0.7-0.6,0.8
		c-0.1,0-0.3,0.1-0.4,0.2c-0.5,0.3-0.7,0.9-0.7,1.5v8.6c0,1.4-0.5,2.7-1.5,3.7c-1.4,1.1-3.2,1.8-5,1.9c-0.1-1-0.4-1.9-0.7-2.8
		c-0.2-0.7-0.7-1.2-1.4-1.5c-0.9-0.4-1.9-0.6-2.9-0.6c-0.1-0.2-0.2-0.4-0.2-0.6c0-0.2,0.1-0.5,0.3-0.6h5.2c0.8,0,1.1-0.4,1.1-1.1
		c-0.3,0.1-0.6,0.2-0.8,0.2c-0.7,0.1-1.3-0.4-1.4-1.1c0,0,0,0,0,0c0-0.3-0.1-0.6-0.2-0.9c-0.1-0.3-0.2-0.6-0.2-0.9l-3,1.1
		c-1.1,0.4-2.1,0.8-3,1.1s-1.6,0.6-2.1,0.9c-0.2,0.1-0.4,0.2-0.5,0.3c-0.1,0.1-0.1,0.3-0.1,0.5v0.1c0,0.2-0.2,0.4-0.3,0.6
		c-0.1,0.1-0.3,0.1-0.5,0.1c-0.2,0-0.4-0.1-0.5-0.3c-0.2-0.4-0.4-0.7-0.5-1.1c-0.2-0.5-0.5-1-0.7-1.5v6.7c0,0.5-0.5,0.8-1.4,1.1
		C46.8,471.7,45.9,471.8,45,471.8z M53.5,456h-4.3v4.9l0.5-0.1l1.7-0.1l2.1-0.1L53.5,456z M53.5,439.8h-2.9v3.6h2.9L53.5,439.8z
		 M53.5,445h-2.9v3.8h2.9L53.5,445z M61.5,439.8h-3.1v3.6h3.1L61.5,439.8z M61.5,445h-3.1v3.8h3.1L61.5,445z M62.9,456h-4.6v4.3
		l1.4-0.1c-0.3-0.8-0.8-1.5-1.3-2.2v-0.1c0-0.5,0.2-0.7,0.6-0.7c0.7,0.2,1.4,0.5,2.1,0.9c0.6,0.3,1.2,0.7,1.7,1.1L62.9,456z"/>
	<path class="st0" d="M36.2,935.4c-19.5,0-35.3-15.8-35.3-35.3s15.8-35.3,35.3-35.3s35.3,15.8,35.3,35.3
		C71.5,919.5,55.7,935.3,36.2,935.4z M36.2,867.1C18,867.1,3.3,881.8,3.3,900S18,933,36.2,933s32.9-14.7,32.9-32.9c0,0,0,0,0,0
		C69.1,881.9,54.4,867.1,36.2,867.1z"/>
	<path class="st0" d="M36.2,1003.6c-19.5,0-35.3-15.8-35.3-35.3c0-19.5,15.8-35.3,35.3-35.3s35.3,15.8,35.3,35.3
		C71.5,987.8,55.7,1003.6,36.2,1003.6z M36.2,935.4c-18.2,0-32.9,14.7-32.9,32.9c0,18.2,14.7,32.9,32.9,32.9s32.9-14.7,32.9-32.9
		c0,0,0,0,0,0C69.1,950.1,54.4,935.4,36.2,935.4L36.2,935.4z"/>
	<path class="st0" d="M21.9,925.2c-0.1,0.1-0.3,0.1-0.4,0.1c-0.2,0-0.4-0.1-0.5-0.4c-0.1-0.3-0.4-0.8-0.7-1.5l-1-2.3
		c-0.4-0.8-0.7-1.6-1-2.4c-0.3-0.8-0.5-1.3-0.6-1.8v-0.3c0.1-0.1,0.2-0.2,0.3-0.2l1.5-0.2c1.9-0.2,4.3-0.4,7.1-0.6v-10.9h-2.2v3.3
		c0,0.5-0.5,0.8-1.3,1.1c-0.9,0.3-1.8,0.4-2.7,0.4c-0.6,0-1-0.4-1.1-0.9c0,0,0-0.1,0-0.1c0-0.2,0-1.1,0-2.7s0-3.6,0.1-6.1
		s0.1-5.1,0.1-7.9c0-2.3,0-4.1-0.1-5.3c0-0.8-0.1-1.6-0.3-2.5c-0.1-0.1-0.1-0.3,0.1-0.5c0.1-0.1,0.1-0.1,0.2-0.1
		c0.5,0.1,0.9,0.2,1.4,0.5l2.4,1c0.6,0.3,1.3,0.6,1.9,0.9h1.6v-6.8c0-0.8,0-1.5-0.1-2.3c-0.1-0.4-0.1-0.8-0.3-1.2
		c-0.1-0.1-0.1-0.3,0-0.5c0.1-0.2,0.3-0.3,0.5-0.2c0.6,0,1.2,0.1,1.9,0.2l2.5,0.3c0.8,0.1,1.4,0.2,1.8,0.3c0.3,0,0.5,0.3,0.5,0.6
		c0,0,0,0.1,0,0.1c0,0.3-0.2,0.6-0.5,0.6c-0.1,0-0.1,0-0.2,0c-0.6,0.1-0.9,0.4-0.9,0.9v8h1.5c0.3,0,0.6-0.2,0.7-0.5l0.8-1.4
		c0.2-0.3,0.5-0.5,0.9-0.3s1.3,0.6,2.3,1s1.8,0.8,2.3,1.1c0.3,0.1,0.5,0.5,0.5,0.8c0,0.4-0.3,0.7-0.6,0.8l-0.4,0.1
		c-0.1,0-0.2,0.1-0.2,0.2c-0.5,0.4-0.7,0.9-0.6,1.5c0,0.8,0,1.7,0,2.6s0,1.8,0,2.8c1.4-1.8,2.7-3.7,3.8-5.8c1.2-2.1,2.2-4.3,3.1-6.6
		c0.8-1.9,1.4-3.9,1.8-6c0.1-0.3,0.1-0.6,0.1-0.8c0-0.3,0-0.5,0.1-0.8c0-0.2,0.1-0.4,0.2-0.5c0.2-0.1,0.3-0.1,0.5-0.1
		c0.6,0.1,1.4,0.3,2.4,0.6s2.1,0.6,3.2,0.9s1.8,0.6,2.3,0.8c0.2,0.1,0.4,0.4,0.3,0.6c0,0.2-0.1,0.4-0.2,0.5
		c-0.1,0.2-0.3,0.2-0.5,0.2H56c1,1.9,2.3,3.7,3.8,5.2c1.6,1.6,3.4,3,5.4,4.1c1.9,1.1,3.9,2,5.9,2.6c-0.9,0.5-1.6,1.1-2.3,1.8
		c-0.8,0.7-1.5,1.6-2.2,2.4c-0.6,0.7-1,1.5-1.4,2.3c-2.8-2.1-5.1-4.8-6.8-7.9c-1.8-3.2-3-6.7-3.7-10.3c-0.2,0.2-0.3,0.5-0.5,0.7
		c-1.1,2.5-2.5,4.8-4.1,7c-1.6,2.2-3.4,4.3-5.4,6.2c-1.8,1.7-3.7,3.3-5.8,4.6c0,1.5,0.1,2.9,0.1,4.3s0,2.4,0.1,3.3s0,1.4,0,1.5
		c0,0.5-0.5,0.9-1.4,1.2c-0.9,0.3-1.8,0.4-2.8,0.4c-0.8,0-1.1-0.3-1.1-1.1v-1.5h-2.2v10.5c0.6-0.1,1.2-0.1,1.7-0.2l1.4-0.1
		c-0.3-0.9-0.6-1.8-1-2.7c-0.4-0.8-0.8-1.6-1.4-2.3c-0.1-0.4,0.2-0.8,0.6-0.8c0.1,0,0.1,0,0.2,0c1.4,0.7,2.7,1.5,4,2.5
		c1.2,0.9,2.2,2,3,3.2c0.8,1.2,1.2,2.7,1.2,4.2c0.1,1.1-0.4,2.2-1.3,2.9c-0.7,0.6-1.6,1-2.6,1c-0.5,0-0.9-0.1-1.3-0.4
		c-0.4-0.3-0.6-0.8-0.6-1.2c0-0.8-0.1-1.5-0.2-2.3s-0.2-1.5-0.3-2.2c-0.9,0.4-2,0.9-3.2,1.5s-2.4,1.2-3.6,1.8l-3.2,1.7
		c-1,0.5-1.7,0.9-2.3,1.2c-0.2,0.1-0.4,0.3-0.5,0.5c-0.1,0.2-0.1,0.5-0.1,0.7l0.1,0.2C22.4,924.8,22.2,925.1,21.9,925.2z
		 M26.6,887.6h-2.2v15.6h2.2V887.6z M33.8,887.6h-2.2v15.6h2.2V887.6z M44.2,925.5c-0.9,0-1.4-0.4-1.4-1.3c0-0.3,0-1,0.1-2.3
		s0.1-2.9,0.2-4.8s0.1-3.9,0.1-5.9c0-2.7,0-4.7-0.1-6.1c0-0.9-0.1-1.8-0.4-2.7c0-0.1,0-0.3,0.1-0.4c0.1-0.1,0.3-0.2,0.5-0.2
		c0.6,0.2,1.3,0.4,2.2,0.7s1.7,0.7,2.6,1s1.5,0.7,2.1,1h7.2c0.4,0,0.7-0.1,0.9-0.5l1-1.8c0.1-0.3,0.4-0.4,0.7-0.5c0.1,0,0.1,0,0.2,0
		l0.3,0.1c1,0.3,1.9,0.7,2.8,1.2c1.1,0.5,2,1,2.7,1.4c0.4,0.2,0.6,0.6,0.6,1c0,0.5-0.3,0.9-0.8,1.1l-0.3,0.1c-0.1,0-0.2,0.1-0.3,0.2
		c-0.6,0.5-0.8,1.3-0.7,2.1c0,1.1,0,2.4,0.1,3.9c0,1.5,0.1,2.9,0.2,4.3s0.1,2.6,0.2,3.6s0,1.5,0,1.7c0,0.6-0.6,1.1-1.7,1.4
		c-1.1,0.4-2.3,0.5-3.5,0.5c-1,0-1.5-0.5-1.5-1.4v-2.7h-8.8v3c0,0.6-0.6,1.1-1.7,1.4C46.5,925.2,45.4,925.4,44.2,925.5z M43.3,897.5
		l-0.7-2.2c1.5,0.2,3.3,0.2,5.4,0.3h5.5c0.5,0,0.9-0.2,1.1-0.6c0.2-0.3,0.5-0.8,0.9-1.4s0.7-1.1,0.9-1.3c0.1-0.3,0.3-0.4,0.6-0.5
		c0.1,0,0.2,0,0.3,0l0.3,0.2c0.5,0.3,1,0.7,1.5,1.1c0.6,0.5,1.1,1,1.6,1.5c0.4,0.4,0.8,0.8,1.2,1.3c0.2,0.2,0.2,0.4,0.2,0.6
		c0,0.5-0.2,0.7-0.6,0.7H48.1C46.1,897.3,44.5,897.3,43.3,897.5z M58.2,906.3h-8.8v12.5h8.8V906.3z"/>
	<path class="st0" d="M32.2,994.5c-0.6,0-0.8-0.3-0.8-0.8c0.9-1.1,1.8-2.3,2.5-3.6c0.8-1.4,1.5-2.9,2-4.4c-0.3,0.3-0.7,0.5-1.2,0.7
		c-0.2,0.1-0.4,0.1-0.6,0.1c-0.4,0-0.7-0.2-1-0.4c-0.3-0.3-0.5-0.7-0.6-1.1c0-0.4-0.1-0.8-0.2-1.3s-0.2-0.9-0.2-1.3
		c-0.7,0.4-1.6,0.9-2.6,1.5l-3.1,1.7c-1,0.6-2,1.1-2.8,1.6l-1.9,1.1c-0.2,0.1-0.4,0.3-0.5,0.4c-0.1,0.2-0.1,0.5,0,0.7v0.1
		c0,0.4-0.2,0.6-0.7,0.8c-0.1,0-0.2,0.1-0.3,0.1c-0.2,0-0.5-0.1-0.6-0.3l-0.9-1.9l-1.1-2.6c-0.4-0.9-0.7-1.5-0.9-2c0,0,0-0.1,0-0.1
		c0,0,0-0.1,0-0.1c0-0.2,0.1-0.3,0.4-0.4l1.6-0.2c0.8-0.2,1.7-0.3,2.7-0.4l3.1-0.4v-10.2H23v3.3c0,0.4-0.4,0.8-1.3,1
		c-0.8,0.2-1.7,0.4-2.6,0.4c-0.7,0-1-0.3-1-0.9c0-0.3,0-1.8,0.1-4.7s0.1-6.6,0.1-11.3c0.1-2.4,0-4.8-0.3-7.2c-0.1-0.2,0-0.4,0.1-0.5
		s0.2-0.1,0.5-0.1c0.5,0.2,1,0.3,1.4,0.6l2,0.9c0.7,0.3,1.2,0.6,1.5,0.8h1.3v-6.7c0-0.7,0-1.5-0.1-2.2c0-0.4-0.1-0.8-0.3-1.1
		c-0.1-0.1-0.1-0.3,0-0.5c0.1-0.1,0.2-0.2,0.4-0.2c0.6,0,1.2,0.1,1.8,0.1c0.8,0.1,1.6,0.2,2.4,0.3s1.4,0.2,1.8,0.3s0.5,0.3,0.4,0.7
		c0,0.3-0.2,0.5-0.4,0.6c0,0-0.1,0-0.1,0c-0.6,0.1-0.9,0.4-0.9,0.8v7.8h1.2c0.3,0,0.5-0.1,0.7-0.3l0.7-1.3c0.2-0.3,0.5-0.4,0.8-0.3
		c0,0,0,0,0,0c0.6,0.2,1.3,0.5,2.3,0.9c0.7,0.3,1.5,0.7,2.2,1.1c0.3,0.2,0.5,0.5,0.5,0.8c0,0.3-0.2,0.6-0.6,0.7
		c-0.2,0-0.3,0.1-0.5,0.2c-0.4,0.4-0.6,1-0.6,1.6c0,1.7,0,3.4,0,5.1s0,3.3,0,4.8s0,2.7,0,3.7s0,1.5,0,1.6c0,0.4-0.4,0.8-1.3,1
		c-0.9,0.3-1.8,0.4-2.7,0.4c-0.7,0-1-0.3-1-1v-1.5h-1.8v9.4c0.4-0.1,0.8-0.1,1.2-0.2l0.9-0.1c-0.2-0.8-0.5-1.6-0.8-2.4
		c-0.3-0.7-0.7-1.5-1.1-2.2c0.1-0.5,0.3-0.8,0.8-0.7c1.5,0.7,2.9,1.5,4.2,2.5c1.2,0.9,2,2.2,2.3,3.7c0.7-3,1.1-6.1,1.3-9.2
		c0.3-3.6,0.4-7.8,0.4-12.8c0-4.7-0.1-8.3-0.2-10.7c-0.1-2.4-0.3-3.9-0.4-4.5c0-0.2,0-0.3,0.1-0.5c0.2-0.1,0.4-0.2,0.6-0.1
		c0.4,0.2,1,0.4,1.7,0.8s1.5,0.7,2.3,1.1c0.6,0.3,1.2,0.6,1.8,0.9h16.3c0.5,0,1-0.2,1.2-0.6c0.2-0.3,0.5-0.8,0.9-1.4s0.7-1,0.9-1.3
		c0.1-0.2,0.3-0.3,0.6-0.3c0.6,0.1,1.1,0.4,1.5,0.8c0.7,0.5,1.4,1.1,2.1,1.7c0.6,0.5,1.1,1,1.5,1.5c0.1,0.1,0.1,0.2,0.2,0.3
		c0,0.1,0.1,0.2,0.1,0.3c0,0.4-0.2,0.6-0.6,0.6H44.1v5.1h4.7v-0.7c0-0.7,0-1.5-0.1-2.2c0-0.4-0.1-0.8-0.3-1.2
		c-0.1-0.2-0.1-0.3,0-0.5c0.1-0.2,0.2-0.2,0.4-0.2c0.4,0,1,0,1.8,0.1l2.5,0.3c0.8,0.1,1.4,0.2,1.7,0.3c0.3,0,0.5,0.3,0.5,0.6
		c0,0,0,0.1,0,0.1c0,0.3-0.2,0.5-0.6,0.6c-0.6,0-0.8,0.3-0.8,0.8v1.9h4.1v-0.7c0-0.7,0-1.5-0.1-2.2c-0.1-0.4-0.1-0.8-0.2-1.2
		c-0.1-0.1-0.2-0.3,0-0.5c0,0,0,0,0,0c0.1-0.1,0.2-0.2,0.4-0.2c0.4,0,1,0,1.8,0.1l2.5,0.3c0.8,0.1,1.4,0.2,1.8,0.3
		c0.3,0,0.5,0.3,0.5,0.6c0,0,0,0.1,0,0.1c0,0.3-0.2,0.5-0.6,0.6s-0.8,0.3-0.8,0.8v1.9h0.3c0.4,0,0.7-0.1,1-0.4
		c0.2-0.4,0.5-0.9,0.8-1.3c0.4-0.5,0.7-1,0.9-1.2c0.1-0.2,0.3-0.3,0.6-0.3c0.2,0,0.4,0.1,0.5,0.2c0.5,0.4,1.1,0.9,1.8,1.6
		c0.6,0.5,1.2,1.1,1.6,1.8c0.2,0.1,0.2,0.3,0.2,0.6c0,0.4-0.2,0.6-0.5,0.6h-7.2c0,0.7,0,1.3,0,1.9v0.9c0,0.5-0.5,0.8-1.4,1
		c-0.9,0.2-1.8,0.4-2.7,0.4c-0.7,0-1-0.3-1-1v-3.3h-4v3c0,0.5-0.5,0.8-1.4,1c-0.9,0.2-1.8,0.4-2.7,0.4c-0.7,0-1.1-0.3-1.1-1
		c0-0.2,0-0.7,0-1.4s0-1.4,0-2.1h-4.6v7c0,3.9-0.2,7.8-0.8,11.7c-0.4,3-1.2,5.9-2.3,8.8c-0.9,2.4-2.2,4.6-3.7,6.6
		C35.8,991.1,34.1,992.9,32.2,994.5z M24.6,955.7H23V970h1.7L24.6,955.7z M31.4,955.7h-1.8V970h1.8L31.4,955.7z M45,994.5
		c-0.7,0-1-0.3-1-1c0-0.2,0-0.9,0-2s0.1-2.6,0.1-4.4s0-3.6,0-5.6s0-3.2-0.1-4.1s-0.1-1.5-0.2-1.9c0-0.2,0-0.3,0.1-0.5
		c0.2-0.2,0.4-0.2,0.6-0.1c0.4,0.1,0.9,0.3,1.5,0.6l1.9,0.8c0.5,0.2,1,0.4,1.4,0.7h4.1v-4.1h-2.9v0.7c0,0.5-0.5,0.8-1.4,1.1
		c-0.9,0.3-1.8,0.4-2.7,0.4c-0.5,0.1-0.9-0.3-1-0.8c0-0.1,0-0.1,0-0.2c0-0.2,0-0.9,0-2s0-2.3,0.1-3.8s0.1-2.9,0.1-4.2
		c0.1-1.6,0-3.2-0.3-4.8c0-0.2,0-0.3,0.1-0.5c0.1-0.1,0.2-0.1,0.3-0.1c0.5,0.1,1,0.2,1.4,0.4c0.7,0.3,1.4,0.6,2.1,0.9
		s1.3,0.6,1.6,0.8h10c0.3,0,0.5-0.1,0.7-0.3c0.1-0.2,0.2-0.4,0.4-0.7c0.1-0.2,0.3-0.4,0.4-0.7c0.2-0.3,0.6-0.4,0.9-0.3
		c0.5,0.2,1.3,0.5,2.2,0.9c0.8,0.3,1.5,0.7,2.2,1.1c0.3,0.1,0.4,0.4,0.4,0.7c0,0.4-0.2,0.7-0.6,0.8l-0.4,0.2
		c-0.5,0.3-0.7,0.8-0.7,1.3c0,0.5,0,1.1,0,2.1s0,1.9,0.1,3s0,1.9,0,2.7s0,1.2,0,1.3c0,0.5-0.5,0.8-1.4,1.1c-0.9,0.3-1.8,0.4-2.7,0.4
		c-0.7,0-1.1-0.3-1.1-1v-0.6h-3v4.1h4c0.4,0,0.6-0.1,0.7-0.3s0.2-0.4,0.4-0.7s0.3-0.5,0.4-0.7c0.1-0.3,0.4-0.4,0.7-0.3
		c0,0,0.1,0,0.1,0c0.8,0.2,1.6,0.5,2.3,0.9c0.8,0.3,1.5,0.7,2.2,1.1c0.3,0.2,0.5,0.5,0.5,0.8c0,0.3-0.2,0.6-0.6,0.7
		c-0.1,0-0.3,0.1-0.4,0.2c-0.5,0.3-0.7,0.9-0.7,1.5v8.7c0,1.4-0.5,2.7-1.5,3.7c-1.4,1.1-3.2,1.8-5,1.9c-0.1-1-0.4-1.9-0.7-2.8
		c-0.2-0.7-0.7-1.2-1.4-1.5c-0.9-0.4-1.9-0.6-2.9-0.6c-0.1-0.2-0.2-0.4-0.2-0.6c0-0.2,0.1-0.5,0.3-0.6h5.2c0.8,0,1.1-0.4,1.1-1.1
		c-0.3,0.1-0.6,0.2-0.8,0.2c-0.7,0.1-1.3-0.4-1.4-1.1c0,0,0,0,0,0c0-0.3-0.1-0.6-0.2-0.9c-0.1-0.3-0.2-0.6-0.2-0.9l-3,1.1
		c-1.1,0.4-2.1,0.8-3,1.1s-1.6,0.7-2.1,0.9c-0.2,0.1-0.4,0.2-0.5,0.3c-0.1,0.1-0.1,0.3-0.1,0.5v0.1c0,0.2-0.2,0.4-0.3,0.6
		c-0.1,0.1-0.3,0.1-0.5,0.1c-0.2,0-0.4-0.1-0.5-0.3c-0.2-0.4-0.4-0.7-0.5-1.1c-0.2-0.5-0.5-1-0.7-1.5v6.7c0,0.4-0.5,0.8-1.4,1.1
		C46.8,994.4,45.9,994.5,45,994.5z M53.5,978.7h-4.3v4.9l0.5-0.1l1.7-0.1l2.1-0.1L53.5,978.7z M53.5,962.5h-2.9v3.6h2.9L53.5,962.5z
		 M53.5,967.6h-2.9v3.8h2.9L53.5,967.6z M61.5,962.5h-3.1v3.6h3.1L61.5,962.5z M61.5,967.6h-3.1v3.8h3.1L61.5,967.6z M62.9,978.7
		h-4.6v4.2l1.4-0.1c-0.3-0.8-0.8-1.5-1.3-2.2v-0.1c0-0.4,0.2-0.7,0.6-0.7c0.7,0.2,1.4,0.5,2.1,0.8c0.6,0.3,1.2,0.7,1.7,1.1
		L62.9,978.7z"/>
	<path class="st0" d="M44.4,41.4l-14.2-3.2l10.8,11.9l-0.5,0.9L21.1,36.3l7.4-10.7l15.9,3.6c5,1.1,20.8,16.8,20.8,10.4
		c0-10.4-41.1-24.9-44.1-27.3V0l66.1,14.2v1.5l-11,11.4l-2.4-3.7l-44.5-9.5c13.5,6.7,37.1,15,37.1,26.8
		C66.4,46.9,60.2,44.9,44.4,41.4z"/>
	<path class="st0" d="M42.6,52.9c13.7,2.6,23.6,12.2,23.6,20.2c0,4.9-3.7,13.7-7.4,16.6l6.4,9.4l-35.1-7.7l10.9,11.9l-0.5,0.9
		L21.1,89.6v-0.2l0.2-0.1l7.1-10.4L42.6,82c-12-5-22.9-9-22.9-14.4C19.7,58.9,32.2,50.9,42.6,52.9z M57.9,88.5c2.2-1.4,3-3.9,3-6.6
		c0-12.4-17-18.8-27.2-21.7c-5.3-1.5-9.6-0.8-9.6,2.1c0,8.5,14.8,15.6,26,21.4l0.4,0.1l2.4-2.5L57.9,88.5z"/>
	<path class="st0" d="M44.4,149.7L29,146.2c13.4,7.1,37.4,16.6,37.4,28.6c0,6.1-6.3,4.1-22.1,0.6l-14.2-3.2l10.8,11.8l-0.5,0.9
		l-19.3-14.7l7.3-10.7l16,3.6c5,1,20.8,16.8,20.8,10.4c0-10.4-41-26.6-44-29.1l7.3-10.7l16,3.5c5,1,20.8,16.8,20.8,10.4
		c0-10.4-41-26.7-44-29.1v-12.3l34.7,7.7l-10.5-11.5l0.5-0.9l18.9,14.4l0.5,0.1v1.5l-11,11.4l-2.5-3.6l-22.5-5
		c13.4,7,37.3,16.6,37.3,28.5C66.4,155.1,60.2,153.1,44.4,149.7z"/>
	<path class="st0" d="M47.7,233.6l-4.1-0.9l0.8-2.1v-39.8l-0.8-2.5l4.1,0.9l-0.7,2.1V231L47.7,233.6z"/>
	<path class="st0" d="M42.6,242.8c13.7,2.6,23.6,12.2,23.6,20.2c0,4.9-3.7,13.7-7.4,16.6l6.4,9.4l-35.1-7.7l10.9,11.9l-0.5,0.9
		l-19.4-14.7v-0.2l0.2-0.1l7.1-10.4l14.2,3.1c-12-5-22.9-9-22.9-14.4C19.7,248.7,32.2,240.7,42.6,242.8z M57.9,278.3
		c2.2-1.4,3-3.9,3-6.6c0-12.4-17-18.8-27.2-21.7c-5.3-1.5-9.6-0.8-9.6,2.1c0,8.5,14.8,15.6,26,21.4l0.4,0.1l2.4-2.5L57.9,278.3z
		 M81.2,268.7l0.1,8l-9.9-12V260L81.2,268.7z"/>
	<path class="st0" d="M44.4,570l-14.2-3.2l10.8,11.9l-0.5,0.9l-19.4-14.8l7.4-10.7l15.9,3.6c5,1.1,20.8,16.8,20.8,10.4
		c0-10.4-41.1-24.9-44.1-27.3v-12.3l66.1,14.2v1.5l-11,11.4l-2.4-3.7l-44.4-9.5c13.5,6.7,37.1,15,37.1,26.8
		C66.4,575.6,60.2,573.5,44.4,570z"/>
	<path class="st0" d="M42.6,581.6c13.7,2.6,23.6,12.2,23.6,20.2c0,4.9-3.7,13.7-7.4,16.6l6.4,9.4l-35.1-7.7l10.9,11.8l-0.5,0.9
		l-19.4-14.7V618l0.2-0.1l7.1-10.4l14.2,3.1c-12-5-22.9-9-22.9-14.4C19.7,587.5,32.2,579.5,42.6,581.6z M57.9,617.1
		c2.2-1.4,3-3.9,3-6.6c0-12.4-17-18.8-27.2-21.7c-5.3-1.5-9.6-0.8-9.6,2.1c0,8.5,14.8,15.6,26,21.4l0.4,0.1l2.4-2.5L57.9,617.1z"/>
	<path class="st0" d="M44.4,678.3L29,674.8c13.4,7.1,37.4,16.6,37.4,28.6c0,6.1-6.3,4.1-22.1,0.7l-14.2-3.2l10.8,11.8l-0.5,0.9
		l-19.4-14.7l7.3-10.7l16,3.6c5,1,20.8,16.8,20.8,10.4c0-10.4-41-26.7-44-29.1l7.3-10.7l16,3.5c5,1,20.8,16.8,20.8,10.4
		c0-10.4-41-26.7-44-29.1v-12.2l34.7,7.7l-10.6-11.5l0.5-0.9l18.9,14.4l0.5,0.1v1.5l-10.9,11.4l-2.5-3.7l-22.5-5
		c13.4,7,37.3,16.6,37.3,28.5C66.4,683.7,60.2,681.7,44.4,678.3z"/>
	<path class="st0" d="M47.7,762.2l-4.1-0.9l0.8-2.2v-39.8l-0.8-2.5l4.1,0.9l-0.7,2.2v39.8L47.7,762.2z"/>
	<path class="st0" d="M42.6,771.3c13.7,2.6,23.6,12.2,23.6,20.2c0,4.9-3.7,13.7-7.4,16.5l6.4,9.5l-35.1-7.6l10.9,11.9l-0.5,0.9
		L21.1,808v-0.2l0.2-0.1l7.1-10.4l14.2,3.1c-12-5-22.9-9-22.9-14.4C19.7,777.3,32.2,769.3,42.6,771.3z M57.9,806.9
		c2.2-1.4,3-3.9,3-6.6c0-12.4-17-18.8-27.2-21.7c-5.3-1.5-9.6-0.8-9.6,2c0,8.5,14.8,15.6,26,21.4l0.4,0.1l2.4-2.5L57.9,806.9z
		 M81.2,797.3l0.1,8l-9.9-12v-4.7L81.2,797.3z"/>
</g>
</svg>
