<svg xmlns="http://www.w3.org/2000/svg" viewBox="0 0 648.04 457.86"><defs><style>.cls-1{fill:#fff;}.cls-2{fill:none;stroke:#fff;stroke-miterlimit:10;stroke-width:0.75px;}</style></defs><g id="圖層_2" data-name="圖層 2"><g id="_3盤" data-name="3盤"><g id="_3盤盧筍炒蝦仁" data-name="3盤盧筍炒蝦仁"><path class="cls-1" d="M379.27,325.64h-.16a1.07,1.07,0,0,1-1.14-1.05,31.73,31.73,0,0,0,3.9-8.65,63.64,63.64,0,0,0,2.07-12.22q.62-7.23.61-17.38,0-6.82-.2-10.56a26.91,26.91,0,0,0-.53-4.79.67.67,0,0,1,.24-.73.93.93,0,0,1,.65-.09c.65.22,1.64.63,3,1.22l4,1.79c1.32.6,2.25,1.06,2.8,1.38h16.16v-4.87a29.7,29.7,0,0,0-.2-3.86,9.19,9.19,0,0,0-.45-2,.89.89,0,0,1-.08-.81.87.87,0,0,1,.81-.41,30.69,30.69,0,0,1,3.17.25c1.46.16,2.93.33,4.42.52a27,27,0,0,1,3.13.53,1,1,0,0,1,.73,1.22.94.94,0,0,1-1,1.06c-1,.16-1.55.64-1.55,1.46v.73h12.27a1.68,1.68,0,0,0,1.46-.57c.27-.43.71-1.08,1.34-1.95s1-1.46,1.26-1.79a1.36,1.36,0,0,1,1-.57,1.22,1.22,0,0,1,.73.25c.76.54,1.76,1.35,3,2.44a17.84,17.84,0,0,1,2.68,2.76,1.18,1.18,0,0,1,.24.73c0,.65-.24,1-.73,1H419.55v3.9h22.34a1.48,1.48,0,0,0,1.05-.32l2.68-2.69a1.17,1.17,0,0,1,.73-.4.94.94,0,0,1,.65.32,17.66,17.66,0,0,1,2.11,1.87c.87.87,1.72,1.75,2.56,2.64s1.45,1.58,1.83,2.07a1.43,1.43,0,0,1,.41,1.06,1.18,1.18,0,0,1-.33.89,1.35,1.35,0,0,1-1.22.49,15.64,15.64,0,0,0-3.25.4,20.65,20.65,0,0,0-3.93,1.39,10.45,10.45,0,0,0-3.05,2,3.23,3.23,0,0,1,.81,2.11,3.32,3.32,0,0,1-1,2.39,4.92,4.92,0,0,1-3.09,1.26l-2.27.25c1,.38,2.05.82,3.25,1.34a21.87,21.87,0,0,1,2.84,1.42,1.2,1.2,0,0,1,.73,1.21,1.36,1.36,0,0,1-1,1.3,3.39,3.39,0,0,0-.81.41,2.86,2.86,0,0,0-.89,2.44c0,1.08,0,2.26,0,3.53s.07,2.4.12,3.37.08,1.6.08,1.87c0,.54-.51,1-1.54,1.38q1.62.57,3.45,1.38a19.71,19.71,0,0,1,2.8,1.46,1.66,1.66,0,0,1,.81,1.38,1.46,1.46,0,0,1-1,1.3,2,2,0,0,0-.73.25,2.63,2.63,0,0,0-1.06,2.43v5a1.29,1.29,0,0,0,1.14-.49l1.22-1.95a24.34,24.34,0,0,1,1.38-2,1,1,0,0,1,.81-.57,1.07,1.07,0,0,1,.81.33,14.87,14.87,0,0,1,1.63,1.46c.65.65,1.28,1.32,1.91,2A10.65,10.65,0,0,1,454,322.4a1.16,1.16,0,0,1,.24.73c0,.65-.3,1-.89,1h-58.8c-2.82,0-5.09.14-6.82.24l-1-2.92c2.17.22,4.74.35,7.72.41h.16v-7.64c0-1.4,0-2.56-.08-3.45a12.36,12.36,0,0,0-.25-2,.67.67,0,0,1,.17-.65.63.63,0,0,1,.48-.16,3.52,3.52,0,0,1,1,.24l1.58.57v-.16c0-.33,0-1.18,0-2.56s.06-3,.08-4.83,0-3.55,0-5.12c0-1.19,0-2.29-.13-3.29a11.94,11.94,0,0,0-.36-2.31c-.11-.38,0-.62.24-.73a.65.65,0,0,1,.73-.08,21.07,21.07,0,0,1,2.32.81l3.41,1.34a18.81,18.81,0,0,1,2.56,1.18h25a1.21,1.21,0,0,0,1.14-.57l1.05-1.87c-2.16.11-4.44.2-6.82.28s-4.68.12-6.9.12c-1.79,0-3.41,0-4.87-.08s-2.66-.1-3.58-.16c-3.08-.21-4.63-1.6-4.63-4.14v-2.44c-1.19.11-2.19.19-3,.25a9.07,9.07,0,0,0-1.46.16c-2.82.32-5.09.62-6.83.89l-1.13-2.84c2.11.06,4.65,0,7.63-.24l4.79-.41v-5.2H393.81V289.5a53.49,53.49,0,0,1-2.11,15.23,52,52,0,0,1-5.45,12.51A33.4,33.4,0,0,1,379.27,325.64Zm22.82-58.23c-1.52,0-2.27-.62-2.27-1.87,0-.37,0-1,0-1.78s.06-1.68.12-2.6H389.91c-1.73,0-3.28,0-4.63.08s-2.74.16-4.14.33l-1-3.5q4,.49,9.67.65H400v-.81a19.27,19.27,0,0,0-.08-3.17,5.08,5.08,0,0,0-.49-1.78,2.3,2.3,0,0,1-.08-.65c0-.49.3-.73.89-.73a27.54,27.54,0,0,1,3.25.28c1.46.19,2.94.39,4.43.61s2.56.41,3.21.57a1.08,1.08,0,0,1,.89,1.38q0,1-1.14,1.14c-1,.16-1.54.7-1.54,1.62v1.54h13.16v-.81q0-3.81-.57-5a1,1,0,0,1-.08-.9q.15-.48.81-.48a27.78,27.78,0,0,1,3.33.28c1.46.19,2.93.39,4.42.61s2.56.41,3.21.57.9.57.9,1.38a1.23,1.23,0,0,1-1.22,1.14c-1,.16-1.55.7-1.55,1.62v1.54H439A2.46,2.46,0,0,0,441,258a16.47,16.47,0,0,0,1.38-1.91,19.66,19.66,0,0,1,1.3-1.82,1.35,1.35,0,0,1,1.06-.65,2,2,0,0,1,.89.24,13.56,13.56,0,0,1,2.48,1.34c.95.62,1.87,1.29,2.76,2a10.26,10.26,0,0,1,2,1.95,1.62,1.62,0,0,1,.33,1.06c0,.64-.3,1-.9,1H431.82c0,.76,0,1.45,0,2.07s0,1,0,1.1c0,.76-.69,1.39-2.07,1.91a14.76,14.76,0,0,1-5.08.77c-1.52,0-2.27-.62-2.27-1.87v-4H409.32v3.57c0,.76-.69,1.4-2.07,1.91A14.77,14.77,0,0,1,402.09,267.41Zm2,43.94H434a1.35,1.35,0,0,0,1.22-.65l.73-1.22a5.7,5.7,0,0,1-1,.08H434c-1.19,0-1.79-.54-1.79-1.62v-.24H406.15v.16c0,.54-.53,1-1.58,1.42a14.77,14.77,0,0,1-3.45.85l1.7.65C403.36,311,403.8,311.19,404.12,311.35Zm4.39,2.19h-4.79v8.29h4.79Zm6.41-18.35h-8.77v4h8.77Zm0,6.17h-8.77v4.14h8.77Zm2.28-17a9.1,9.1,0,0,0,1.34.08h1.91c1.35,0,2.85,0,4.5-.08s3.26-.14,4.84-.25,2.84-.21,3.81-.32a2.15,2.15,0,0,0,1.87-1.38,20.25,20.25,0,0,0,1.06-2.93q.48-1.69.81-2.76h-9.58c.86.54,1.74,1.15,2.63,1.83a13,13,0,0,1,1.91,1.67,1.18,1.18,0,0,1,.33.89.77.77,0,0,1-.65.81l-16.33,1.38a1,1,0,0,0,.41.77A2.88,2.88,0,0,0,417.2,284.39Zm7.06-7.64h-8.61v4.39l5.69-.49a1.37,1.37,0,0,0,1.14-.65c.16-.32.43-.81.81-1.46S424,277.29,424.26,276.75Zm-2.6,36.79h-4.87v8.29h4.87Zm10.56-18.35h-8.85v4h8.85Zm0,6.17h-8.85v4.14h8.85Zm2.52,12.18h-4.87v8.29h4.87Zm5.85-30.21,1.46-6.58h-2.84V282a1.49,1.49,0,0,0,.16.81,1.51,1.51,0,0,0,.89.41.24.24,0,0,0,.16.08A.27.27,0,0,1,440.59,283.33Z"/><path class="cls-1" d="M512.38,326.29a17.94,17.94,0,0,0-.53-4.87,4.84,4.84,0,0,0-2.15-2.8,15.29,15.29,0,0,0-5-1.67,2.41,2.41,0,0,1-.16-.73,1.45,1.45,0,0,1,.16-.65,15.27,15.27,0,0,1-2.43.53,17.83,17.83,0,0,1-2.68.2c-1.3,0-1.95-.59-1.95-1.78v-1.79H485.9v3.09c0,.54-.39,1-1.17,1.42a10.64,10.64,0,0,1-2.93.93,18.13,18.13,0,0,1-3.37.33c-1.3,0-1.95-.62-1.95-1.87,0-.43.07-2.33.2-5.69s.21-8.06.21-14.13c0-3.3-.08-5.85-.25-7.63a96.92,96.92,0,0,1-7.83,8.65,55.86,55.86,0,0,1-7.92,6.62,1,1,0,0,1-.81-.37,1,1,0,0,1-.25-.85,36.17,36.17,0,0,0,4.31-5.61,77.08,77.08,0,0,0,4.18-7.43c1.33-2.68,2.5-5.34,3.53-8a58.21,58.21,0,0,0,2.36-7.31,9.77,9.77,0,0,0,.49-2.27c.1-.43.29-.65.56-.65a9.28,9.28,0,0,1,1.47.33c.81.21,1.78.5,2.92.85l3.25,1a1.46,1.46,0,0,0-.16-.57,30.64,30.64,0,0,0-1.14-5.15,10.52,10.52,0,0,0-2.11-3.78h-3.41a101.19,101.19,0,0,1-7.68,8.81,75.16,75.16,0,0,1-7.35,6.7c-.81,0-1.22-.37-1.22-1.13a40,40,0,0,0,2.93-4.75c1-1.93,2-4,3-6.3s1.9-4.57,2.68-6.9a48.65,48.65,0,0,0,1.75-6.5c.11-.43.2-.84.28-1.22s.15-.75.21-1.13.27-.65.81-.49c.86.16,2,.46,3.45.89s2.88.9,4.34,1.38,2.63.92,3.5,1.3a1,1,0,0,1,.48,1,1.76,1.76,0,0,1-.28.89.83.83,0,0,1-.69.49,3.16,3.16,0,0,0-1.3.2,3.07,3.07,0,0,0-1,1c-.33.54-.68,1.09-1.06,1.66s-.76,1.15-1.14,1.75h7.72a3.83,3.83,0,0,0,1.14-.13,1.36,1.36,0,0,0,.73-.69l1.26-1.7c.51-.7,1-1.33,1.34-1.87a1.73,1.73,0,0,1,1.21-.73,1.62,1.62,0,0,1,.49.08,2.77,2.77,0,0,1,.49.24,27.23,27.23,0,0,1,3.12,2.44c1.17,1,2.1,1.92,2.81,2.68a1.34,1.34,0,0,1,.4,1c0,.7-.32,1-1,1H482.41a14.23,14.23,0,0,1,5.64,1.63,6,6,0,0,1,3,4.06c.05.21.09.42.12.61a3.86,3.86,0,0,1,0,.6,4.6,4.6,0,0,1-1.05,3.05,5.05,5.05,0,0,1-2.44,1.67l-.53.12-.53.12a.29.29,0,0,1-.08.24,1,1,0,0,1-1,.65h-.41a1.46,1.46,0,0,0-.93.29,3.15,3.15,0,0,0-.77,1.17c-.17.33-.33.67-.49,1a6.85,6.85,0,0,1-.65,1.1H519a1.43,1.43,0,0,0,1.3-.65c.16-.27.39-.68.69-1.22s.55-1,.77-1.3.57-.65.89-.65a2.41,2.41,0,0,1,.73.16,24.16,24.16,0,0,1,2.6,1c1,.46,2.06.93,3.09,1.42s1.87.92,2.52,1.3a1.64,1.64,0,0,1,.89,1.54,1.57,1.57,0,0,1-1.14,1.46,7.91,7.91,0,0,0-1,.49,3.23,3.23,0,0,0-1.06,2.84V291a141,141,0,0,1-.85,17.1,33.65,33.65,0,0,1-2.84,10.72,12.2,12.2,0,0,1-5.24,5.6A19.75,19.75,0,0,1,512.38,326.29Zm1.87-10.64a4.24,4.24,0,0,0,2.51-1.13,7.46,7.46,0,0,0,1.75-3.58,41.5,41.5,0,0,0,1-7.39q.32-4.79.32-12.59v-7.47h-39l-2.19,3.17c.81.27,1.74.62,2.8,1.06s2.07.84,3,1.21a13.28,13.28,0,0,1,2.11,1h10.16a1.23,1.23,0,0,0,1.21-.65l1.39-2.36a1.1,1.1,0,0,1,.89-.65,2.76,2.76,0,0,1,.65.17c.65.21,1.47.54,2.47,1s2,.88,3,1.34a23.57,23.57,0,0,1,2.31,1.18,1.51,1.51,0,0,1,.9,1.38,1.34,1.34,0,0,1-1.06,1.38l-.44.16a1.15,1.15,0,0,0-.37.25,3.27,3.27,0,0,0-1,2.76c0,2.65.05,5.3.13,8s.15,4.88.2,6.7.08,2.85.08,3.12c0,.6-.59,1.17-1.79,1.71.92.05,1.9.14,2.93.24a31.39,31.39,0,0,0,3.33.17H513A9.58,9.58,0,0,0,514.25,315.65Zm-16.65-23.3H485.9v7.22h11.7Zm0,9.66H485.9v8.28h11.7Zm20.71-24.36a4.49,4.49,0,0,1-2.72-.94,3.64,3.64,0,0,1-1.42-2.8,21.25,21.25,0,0,0-1.3-5.48,8.62,8.62,0,0,0-2.68-3.78h-2.44a84.88,84.88,0,0,1-6.05,6.66c-2.09,2.06-4.1,3.87-6.05,5.44h-.16a.91.91,0,0,1-.77-.36,1.2,1.2,0,0,1-.29-.77,42,42,0,0,0,3.13-5.89,74.21,74.21,0,0,0,3-7.88,53,53,0,0,0,1.91-7.68l.24-1.94c0-.49.3-.65.9-.49a33.31,33.31,0,0,1,3.41.89q2.12.66,4.26,1.38c1.44.49,2.59.92,3.45,1.3a.89.89,0,0,1,.53.65,1.44,1.44,0,0,1,0,.9c-.22.54-.51.81-.89.81a3.45,3.45,0,0,0-1.22.16,3.18,3.18,0,0,0-1.06,1.06l-2.43,3.41h10.56a2.17,2.17,0,0,0,1.94-.82c.44-.59,1-1.31,1.55-2.15s1.11-1.53,1.54-2.07a1.37,1.37,0,0,1,1.14-.73,1.73,1.73,0,0,1,.49.08,2.21,2.21,0,0,1,.48.25,16.27,16.27,0,0,1,2.28,1.66c.86.73,1.71,1.48,2.55,2.23a24.92,24.92,0,0,1,1.91,1.87,1.34,1.34,0,0,1,.41,1c0,.7-.3,1-.89,1H513.11a28.27,28.27,0,0,1,4.43,1.26,14.91,14.91,0,0,1,4,2.15,4.84,4.84,0,0,1,1.9,3.33,2.06,2.06,0,0,0,.05.45,3,3,0,0,1,0,.45,4.88,4.88,0,0,1-1.67,4A5.46,5.46,0,0,1,518.31,277.65Z"/><path class="cls-1" d="M383.74,390.45a4.06,4.06,0,0,1-3.41-1.3,4.71,4.71,0,0,1-1.22-3.25,6,6,0,0,1,.57-2.47,6.27,6.27,0,0,1,1.7-2.24,10.75,10.75,0,0,0,2.92-4.26,16.3,16.3,0,0,0,1.06-6.13,17.93,17.93,0,0,0-.12-2c-.08-.7-.18-1.41-.29-2.11a1.15,1.15,0,0,1,1-.65,1,1,0,0,1,.57.24,33.42,33.42,0,0,1,2.8,7.27,28.5,28.5,0,0,1,.93,6.94,14.17,14.17,0,0,1-1.58,7A5.59,5.59,0,0,1,383.74,390.45Zm-3.66,32.33c-.76-.17-1-.65-.81-1.47A27.07,27.07,0,0,0,387,412a42.67,42.67,0,0,0,3.81-13.35,145.51,145.51,0,0,0,1.1-19.41q0-9.84-.12-15.76c-.08-3.95-.22-6.92-.41-8.89a13.32,13.32,0,0,0-.77-3.94,1.21,1.21,0,0,1-.08-1,1.07,1.07,0,0,1,.89-.32c.76,0,1.9.08,3.41.24s3,.37,4.55.61,2.63.45,3.33.61a1.08,1.08,0,0,1,.89,1.14,1.29,1.29,0,0,1-1.21,1.46c-1.14.05-1.71.6-1.71,1.62v17.55a49.38,49.38,0,0,0,2.23-4.59c.73-1.71,1.32-3.21,1.75-4.51l.49-1.54c.16-.54.48-.68,1-.41a21.52,21.52,0,0,1,2.64,1.3c1.06.6,2.14,1.22,3.25,1.87s2,1.22,2.72,1.7a2.83,2.83,0,0,0,.2-.89,4.73,4.73,0,0,1,.13-.81l.24-1.38c.05-.49.35-.71.89-.65l2.48.81,3.65,1.22c1.28.43,2.29.81,3,1.13v-9.42a30.55,30.55,0,0,0-.2-3.89,6.46,6.46,0,0,0-.53-2,1,1,0,0,1,0-1,1,1,0,0,1,.73-.24c.65,0,1.69.08,3.13.24s2.87.34,4.3.53a25.09,25.09,0,0,1,3.05.53,1,1,0,0,1,.81,1.05,1.18,1.18,0,0,1-1.14,1.3c-1,.11-1.54.6-1.54,1.46v23.39c0,1.68,0,3.6,0,5.77s.07,4.16.12,6,.08,3.07.08,3.77a7,7,0,0,1-2.92,5.45,19.39,19.39,0,0,1-7.8,3.65q-1-4.71-2.76-6.62c-1.19-1.27-3.09-1.93-5.68-2a1.5,1.5,0,0,1-.25-.81.87.87,0,0,1,.41-.81h8a2.31,2.31,0,0,0,1.78-.49,2.38,2.38,0,0,0,.41-1.54V368.44h-.57a1.1,1.1,0,0,0-.73.21,2.87,2.87,0,0,0-.57.85,57.68,57.68,0,0,1-3.37,6.62c-1.38,2.35-2.88,4.67-4.51,6.94s-3.27,4.4-4.95,6.38a49.27,49.27,0,0,1-4.71,4.91h-.16a1,1,0,0,1-1.14-1,42.9,42.9,0,0,0,3.61-7q1.83-4.31,3.46-9.09t2.59-8.86a2.25,2.25,0,0,0-.65-.08,2,2,0,0,0-1.21.49q-1.8,1.31-4,2.68t-4.31,2.52c-1.38.76-2.53,1.35-3.45,1.78v6.91a73,73,0,0,1-.41,7.92,68.67,68.67,0,0,1-1.13,7,26.56,26.56,0,0,1,6.41,2,13.58,13.58,0,0,1,4.75,3.57,8.24,8.24,0,0,1,1.83,5.45,5.7,5.7,0,0,1-1.7,4.5,5.34,5.34,0,0,1-3.58,1.51,4.09,4.09,0,0,1-2.6-.9,3.64,3.64,0,0,1-1.3-2.68q-.24-7.07-4.46-11.12a36.07,36.07,0,0,1-6.91,13.56A38.12,38.12,0,0,1,380.08,422.78Zm17.22,0a1.2,1.2,0,0,1-.57-1,.88.88,0,0,1,.24-.65q15.27-3.33,26-10.92a55.25,55.25,0,0,0,17.14-19.86,11.07,11.07,0,0,0,1.54-4c.06-.89.25-1.45.57-1.66a.75.75,0,0,1,.81-.17c.65.22,1.65.64,3,1.26s2.72,1.29,4.1,2,2.4,1.25,3.05,1.63a1.36,1.36,0,0,1,.6.85,1.18,1.18,0,0,1-.12.93,1.35,1.35,0,0,1-1.46.82,2,2,0,0,0-1.5.2,5.37,5.37,0,0,0-1.26,1.58,53.88,53.88,0,0,1-21.2,20.27Q415,421.07,397.3,422.78Zm51-37.85a3.45,3.45,0,0,1-2-.65,3.56,3.56,0,0,1-1.34-1.95,55.45,55.45,0,0,0-4.1-9.38,26.45,26.45,0,0,0-6.13-7.67v-.17a1.07,1.07,0,0,1,1-1.21,40.46,40.46,0,0,1,7,3,29.51,29.51,0,0,1,6.05,4.26,14.73,14.73,0,0,1,3.78,5.28,8.7,8.7,0,0,1,.65,3,5.35,5.35,0,0,1-1.55,4A4.72,4.72,0,0,1,448.3,384.93Z"/><path class="cls-1" d="M465.36,420.26a1.24,1.24,0,0,1-.49.08,1.17,1.17,0,0,1-.9-.49c-.27-.54-.69-1.49-1.25-2.84s-1.14-2.77-1.71-4.26-1-2.64-1.26-3.46a.79.79,0,0,1,0-.48,1.57,1.57,0,0,1,.41-.25q.4-.07.93-.12c.35,0,.72-.07,1.1-.12l4.34-.37,5.24-.44V392.32h-2.6V397c0,.65-.61,1.17-1.82,1.54a12.64,12.64,0,0,1-3.78.57c-1,0-1.54-.46-1.54-1.38,0-.38,0-1.68,0-3.9s.06-5,.12-8.48.08-7.11.08-11c0-6.22-.19-9.88-.57-11-.11-.38-.08-.6.08-.65a.48.48,0,0,1,.33-.17,7.44,7.44,0,0,1,2.11.61c1,.41,2.11.87,3.25,1.38s2,.94,2.51,1.26h1.79v-12.1a7.75,7.75,0,0,0-.49-3.25.91.91,0,0,1,0-.73.74.74,0,0,1,.65-.24c.33,0,1.07.07,2.24.2l3.61.45c1.25.16,2.11.3,2.6.41a.82.82,0,0,1,.65,1.05c0,.49-.3.79-.89.89-.87.11-1.3.52-1.3,1.22v12.1h1.54a1.14,1.14,0,0,0,1.06-.56c.1-.22.28-.55.52-1a10.45,10.45,0,0,1,.61-1,.94.94,0,0,1,1.3-.41,25.53,25.53,0,0,1,3.33,1.38c1.35.65,2.41,1.19,3.17,1.62A1.29,1.29,0,0,1,491,367a1.22,1.22,0,0,1-.89,1.22l-.57.24c-.71.33-1.06,1.09-1.06,2.28q0,3,0,6.86c0,2.57.07,5.08.12,7.51s.1,4.48.13,6.13,0,2.56,0,2.73c0,.64-.64,1.17-1.91,1.58a13.08,13.08,0,0,1-3.94.61c-1.08,0-1.63-.49-1.63-1.46v-2.36h-2.51v14.62l4-.24a26.74,26.74,0,0,0-1.18-3.17,14.52,14.52,0,0,0-1.67-2.84c.11-.87.52-1.25,1.22-1.14a32.93,32.93,0,0,1,7.35,5.85,11.58,11.58,0,0,1,2.89,7.87,4.64,4.64,0,0,1-1.59,3.82,4.55,4.55,0,0,1-3.12,1.22,3,3,0,0,1-1.87-.61,2.13,2.13,0,0,1-.81-1.83c-.06-1.13-.13-2.27-.21-3.41a25.22,25.22,0,0,0-.44-3.25q-1.87.81-4.27,2t-4.83,2.36q-2.43,1.22-4.43,2.23l-3,1.58a1.49,1.49,0,0,0-.81,1.55l.08.32A1.11,1.11,0,0,1,465.36,420.26Zm6.41-52.06h-2.6v21.68h2.6Zm9.58,0h-2.51v21.68h2.51Zm12,54.66c-1.08,0-1.62-.52-1.62-1.55q0-.65.24-10.84t.25-31.22q0-7.56-.08-12.55t-.21-8c-.08-2-.17-3.52-.28-4.55a8.06,8.06,0,0,0-.41-2.11c-.11-.38-.05-.6.17-.65.05-.16.27-.19.65-.08a23.9,23.9,0,0,1,2.43.77c1.14.41,2.32.84,3.53,1.3a30.11,30.11,0,0,1,2.81,1.18h2.51a1.18,1.18,0,0,0,1.14-.65,10.56,10.56,0,0,0,.65-1.06c.27-.49.46-.84.57-1.06a1.14,1.14,0,0,1,1.46-.4,30.8,30.8,0,0,1,3.45,1.26c1.49.62,2.7,1.18,3.62,1.66.59.06,1.31.11,2.15.16s1.69.09,2.56.09h2.84a1.18,1.18,0,0,0,1.14-.65,12.31,12.31,0,0,1,.69-1.18,10,10,0,0,0,.69-1.26.93.93,0,0,1,.81-.57,7.93,7.93,0,0,1,2.15.69c1.11.46,2.28,1,3.49,1.54a24.58,24.58,0,0,1,2.72,1.43,1.2,1.2,0,0,1,.74,1.21,1.43,1.43,0,0,1-1,1.39l-.57.24a2.5,2.5,0,0,0-1.22,2.43c0,1.52,0,3.17.09,5s.09,3.5.12,5.16.06,3,.12,4.18.08,1.79.08,1.95c0,.49-.41.91-1.22,1.26a12.68,12.68,0,0,1-2.88.81,18.18,18.18,0,0,1-3,.28c-1.13,0-1.7-.54-1.7-1.62v-2h-1.87q-4.14.08-6.17.24l-.81-3q2.6.24,6.9.32H523V357H519c-.92,0-1.8,0-2.64,0s-1.48.07-1.91.13l-.33.16-.32.16a2.52,2.52,0,0,0-1.06,2.35c0,1.52,0,3.17.09,5s.09,3.5.12,5.16.06,3,.12,4.18.08,1.79.08,1.95c0,.49-.37.91-1.1,1.26a10.5,10.5,0,0,1-2.68.81,16.67,16.67,0,0,1-3,.28q-1.71,0-1.71-1.62v-2H500v11.37h.82a1.74,1.74,0,0,0,1.54-.73l2.19-3.41a1.09,1.09,0,0,1,.81-.49,1.23,1.23,0,0,1,.74.24q.89.66,2.31,1.95a28.47,28.47,0,0,1,2.4,2.44h9.5a1.16,1.16,0,0,0,1-.41l1.1-1.34c.46-.57.8-1,1-1.18a1.17,1.17,0,0,1,.9-.48,2,2,0,0,1,.81.24l2.31,1.26c1.06.57,2.12,1.15,3.17,1.75a14.22,14.22,0,0,1,2.24,1.46,1.41,1.41,0,0,1,.64,1.3,1.2,1.2,0,0,1-1,1.38l-.61.12a1.27,1.27,0,0,0-.53.2,3,3,0,0,0-1.7,2.28A39.91,39.91,0,0,1,523,405.8a37.18,37.18,0,0,0,6.25,3.21q3.33,1.33,7,2.4a13.92,13.92,0,0,0-3.37,2.47,22.89,22.89,0,0,0-3,3.54,13.46,13.46,0,0,0-1.79,3.33,41.93,41.93,0,0,1-5.8-4.07,34.4,34.4,0,0,1-4.92-5,40.56,40.56,0,0,1-8,5.44,56.56,56.56,0,0,1-9.34,3.82c-.27.59-1.11,1.07-2.51,1.42A16.92,16.92,0,0,1,493.37,422.86ZM504.66,357H500v15.35h4.63Zm6.91,48.65H500V419a41.09,41.09,0,0,0,8.09-5.24,31.67,31.67,0,0,0,6.13-6.94,37.94,37.94,0,0,1-3.05-8.33,48,48,0,0,1-1.26-9.87H500v14.54h1.39a1.6,1.6,0,0,0,1.54-.73q.41-.64,1.14-1.74c.48-.74.83-1.26,1-1.59a1,1,0,0,1,.81-.57,1,1,0,0,1,.73.33,16.62,16.62,0,0,1,1.83,1.46q1.1,1,2.07,2a11.86,11.86,0,0,1,1.46,1.7,1.16,1.16,0,0,1,.25.74C512.3,405.31,512.05,405.64,511.57,405.64Zm5.76-4.71a55.05,55.05,0,0,0,3.5-12.35h-8.78a27,27,0,0,0,1.91,6.95A21.71,21.71,0,0,0,517.33,400.93Z"/><path class="cls-1" d="M552.66,422.94c-1.41,0-2.11-.65-2.11-1.95,0-.22,0-1.06.08-2.52s.12-3.35.2-5.68.17-4.86.25-7.6.14-5.49.2-8.28.08-5.37.08-7.76V381.6q-2.43,3.16-4.91,5.93a70.25,70.25,0,0,1-5.08,5.12c-.81,0-1.22-.38-1.22-1.14a54.92,54.92,0,0,0,4.84-8.08,96.62,96.62,0,0,0,4.26-10.11q1.95-5.44,3.33-11a80.88,80.88,0,0,0,1.95-10.64l.24-2.11a.56.56,0,0,1,.16-.4,1.29,1.29,0,0,1,.57-.09,40,40,0,0,1,3.9.9q2.36.64,4.71,1.38c1.57.49,2.84.92,3.82,1.3q.32.07.45.57a1.78,1.78,0,0,1,0,1c-.22.6-.55.89-1,.89a2.32,2.32,0,0,0-1.54.29,3.16,3.16,0,0,0-.9,1.5q-1,2.93-2.19,5.65t-2.52,5.32V420a1.86,1.86,0,0,1-1.13,1.55,9.93,9.93,0,0,1-2.89,1A16.73,16.73,0,0,1,552.66,422.94ZM565,416.52l-.9-3.08c2.06.21,4.58.35,7.55.4h26a3.73,3.73,0,0,0,1.3-.16,2.59,2.59,0,0,0,.9-.73q.4-.49,1.17-1.5c.52-.68,1-1.37,1.55-2.07s.88-1.19,1.09-1.47a1.43,1.43,0,0,1,1.14-.65,4.62,4.62,0,0,1,2.07.78,32.13,32.13,0,0,1,2.88,1.9q1.54,1.14,2.85,2.28a21.4,21.4,0,0,1,1.86,1.78,1.56,1.56,0,0,1,.49,1.14q0,1.14-1.05,1.14H571.75C568.93,416.33,566.68,416.42,565,416.52Zm2.19-48.08-1-3.16c2.12.21,4.66.35,7.64.4h22.33a4.7,4.7,0,0,0,1.18-.12,1.61,1.61,0,0,0,.85-.69c.27-.33.64-.8,1.1-1.42s.93-1.25,1.42-1.87a14,14,0,0,0,1-1.34,1.43,1.43,0,0,1,1.14-.65,4.12,4.12,0,0,1,1.87.73,29.2,29.2,0,0,1,2.64,1.83c.94.73,1.83,1.45,2.64,2.15a19.25,19.25,0,0,1,1.78,1.71,1.42,1.42,0,0,1,.41,1.05c0,.71-.32,1.06-1,1.06H573.94C571.12,368.17,568.88,368.28,567.2,368.44Z"/><path class="cls-1" d="M96.15,155.3c-.86,0-1.3-.38-1.3-1.14a35.7,35.7,0,0,0,3-5.44,29.18,29.18,0,0,0,1.91-6.82,84.36,84.36,0,0,0,.93-10.64l-.57.16-.48.17a2.12,2.12,0,0,0-1,.44,1.08,1.08,0,0,0-.2.94.8.8,0,0,1-.73.81,1,1,0,0,1-.41.08.57.57,0,0,1-.57-.4q-.24-.74-.69-2.28c-.3-1-.6-2.1-.89-3.21s-.5-1.93-.61-2.47c-.11-.17-.11-.3,0-.41a.55.55,0,0,1,.49-.24l1.3-.09c.59,0,1.28,0,2.07,0s1.61,0,2.47,0v-2.11c0-2.16,0-4.27-.08-6.33s-.13-3.86-.24-5.4a14.76,14.76,0,0,0-.41-3c-.11-.32-.08-.51.08-.57a.61.61,0,0,1,.82-.16,18.53,18.53,0,0,1,2.39.73l3.25,1.18a26.09,26.09,0,0,1,2.64,1.1H110c0-1,0-2.2-.08-3.5s-.14-2.43-.25-3.41l-.24-1.38a.69.69,0,0,1,.16-.65c.11-.21.3-.27.57-.16.71,0,1.68.18,2.93.36s2.49.4,3.73.61a27.54,27.54,0,0,1,2.93.65c.37.06.56.41.56,1.06s-.38.81-.81.81a7.6,7.6,0,0,0-1,.2,1.75,1.75,0,0,0-.82.69c-.7.87-1.45,1.72-2.23,2.56s-1.5,1.56-2.15,2.16h5.93a1,1,0,0,0,.81-.49l1.3-2.11a.87.87,0,0,1,1-.41c.6.22,1.37.53,2.32.93s1.89.83,2.84,1.26a20.69,20.69,0,0,1,2.32,1.22.84.84,0,0,1,.48.81,1.2,1.2,0,0,1-.65,1.06l-.48.32a2.45,2.45,0,0,0-.41.33,2.56,2.56,0,0,0-.89,2.11v9c.92-.06,1.74-.09,2.47-.09H132c0,.06,0,.09.08.09a21.21,21.21,0,0,0,1.54-6,66.5,66.5,0,0,0,.41-7.84,25.5,25.5,0,0,0-.57-6.74.87.87,0,0,1,.08-.81,1.44,1.44,0,0,1,1-.17c.7.17,1.59.44,2.68.82s2.15.78,3.2,1.21a29,29,0,0,1,2.64,1.22h3.41a1.09,1.09,0,0,0,1-.49,7.28,7.28,0,0,1,.57-1c.27-.43.51-.81.73-1.14.21-.49.62-.62,1.22-.4s1.46.52,2.43.93,2,.84,3,1.3a20,20,0,0,1,2.39,1.26.9.9,0,0,1,.49.89,1.21,1.21,0,0,1-.65,1.06,3.43,3.43,0,0,1-.49.28,1.53,1.53,0,0,0-.4.29,2.41,2.41,0,0,0-1.14,2.19v3.9c0,.86.6,1.3,1.79,1.3a6.8,6.8,0,0,0,3.29-.57,3.19,3.19,0,0,0,1.34-1.79q.31-1,.81-2.64l.93-3.21c.3-1,.5-1.7.61-2a1.49,1.49,0,0,1,.73-.24.91.91,0,0,1,.9.49q0,.57-.09,2.19t-.12,3.21c0,1.05,0,1.74,0,2.07a1.76,1.76,0,0,0,.21,1,2.17,2.17,0,0,0,.85.61,5.44,5.44,0,0,1,1.87,1.5,3.36,3.36,0,0,1,.73,2.08,4,4,0,0,1-.77,2.47,4.73,4.73,0,0,1-2.64,1.51,34.32,34.32,0,0,1-5.53.85q-3.33.28-6.25.28h-1.83a11.12,11.12,0,0,1-1.5-.08,4.32,4.32,0,0,1-2.76-.93,3.4,3.4,0,0,1-.73-2.4V108.28h-5v2.35a19.79,19.79,0,0,1-2.07,9.51,19.14,19.14,0,0,1-5.64,6.41c.76.06,1.66.11,2.72.16s2.07.08,3,.08h10.24a1.53,1.53,0,0,0,1.22-.56,3.72,3.72,0,0,1,.56-.73,4.79,4.79,0,0,0,.65-.82.93.93,0,0,1,.74-.4,7.91,7.91,0,0,1,2.11.81c1.13.54,2.34,1.16,3.61,1.87a27,27,0,0,1,2.88,1.78,1.2,1.2,0,0,1,.41,1,1.77,1.77,0,0,1-.28.93.88.88,0,0,1-.78.45h-1a1.8,1.8,0,0,0-1.22.53,10.34,10.34,0,0,0-.89,1.17,32.72,32.72,0,0,1-2.28,3.38c-.81,1-1.65,2-2.51,3a61,61,0,0,0,7.91,1.75,75.27,75.27,0,0,0,7.84.77,14.41,14.41,0,0,0-2.47,2.92,24.39,24.39,0,0,0-2,3.62,16.54,16.54,0,0,0-1.14,3.28,58.52,58.52,0,0,1-8.89-2.76,39.43,39.43,0,0,1-7.92-4.22,35.64,35.64,0,0,1-9.22,3.9,85.1,85.1,0,0,1-11.33,2.19,1.42,1.42,0,0,1-.49-1,1,1,0,0,1,.25-.73,35.36,35.36,0,0,0,8.73-3.25,35.87,35.87,0,0,0,7.35-5.2,36.58,36.58,0,0,1-3.74-5,40.26,40.26,0,0,1-3.09-6.05l-2.11.17-.57-1.87c-.81.49-1.73,1-2.76,1.54a1,1,0,0,1-.89-1.46,7.48,7.48,0,0,0,.89-.89,10.35,10.35,0,0,0,.73-1l-3.16.49V131c0,1.08,0,2.48,0,4.18s0,3.32.08,4.83,0,2.52,0,3q0,7.07-10.15,8a15.89,15.89,0,0,0-1-4.55,3.59,3.59,0,0,0-2-2,13.77,13.77,0,0,0-3.65-.77A1.49,1.49,0,0,1,111,143a1.12,1.12,0,0,1,.48-1h6.82a2.24,2.24,0,0,0,1.43-.32,1.62,1.62,0,0,0,.36-1.22V127.77l-3,.49v1.62c0,1.84,0,3.6.08,5.28s.08,2.73.08,3.17-.61,1.07-1.83,1.42a13,13,0,0,1-3.61.53c-.92,0-1.38-.44-1.38-1.3,0-.33,0-1.42.12-3.29s.12-3.81.12-5.81v-.49l-2.6.49a45.41,45.41,0,0,1-2.15,10.8,31.29,31.29,0,0,1-4.06,8A49.46,49.46,0,0,1,96.15,155.3Zm0,17.79L95.26,170c2.11.22,4.66.35,7.63.41h1.55v-14.3c0-2-.06-3.43-.17-4.46a13.24,13.24,0,0,0-.32-2.11.69.69,0,0,1,.08-.74.85.85,0,0,1,.89-.16,24,24,0,0,1,2.85.85l3.49,1.26c1.19.44,2.19.84,3,1.22h33a1.08,1.08,0,0,0,1-.65l1.38-2.19a1.07,1.07,0,0,1,1.38-.41c.71.22,1.59.54,2.64,1s2.11.88,3.17,1.34a21.33,21.33,0,0,1,2.64,1.34,1.11,1.11,0,0,1,.57,1.05,1.37,1.37,0,0,1-.73,1.3,3.69,3.69,0,0,0-.73.41,2,2,0,0,0-.9,1,5.82,5.82,0,0,0-.16,1.59v12.67a1.68,1.68,0,0,0,1.71-.9l2.51-4.46a1.16,1.16,0,0,1,1-.73,1.77,1.77,0,0,1,1,.4,25.55,25.55,0,0,1,3.13,3c1.16,1.27,2.07,2.28,2.72,3a1.51,1.51,0,0,1,.33,1c0,.75-.3,1.13-.9,1.13H102.89C100.13,172.9,97.89,173,96.15,173.09Zm12.27-48.57,11.69-.24V112.5H108.42Zm6.57-.73a4.9,4.9,0,0,1-.6.12,3.4,3.4,0,0,1-.53,0c-1.3,0-2-.75-2.2-2.27a27.77,27.77,0,0,0-.64-4.22,8.33,8.33,0,0,0-1.55-3.42v-.16a.88.88,0,0,1,.33-.69.7.7,0,0,1,.65-.2,14.51,14.51,0,0,1,5.6,2.6,5.45,5.45,0,0,1,2.27,4.46,3.14,3.14,0,0,1-1,2.44A5.85,5.85,0,0,1,115,123.79Zm4.63,30.62h-6v16h6Zm14.3,0h-6v16h6Zm12.5-18.19a33.4,33.4,0,0,0,4.15-7H140.41c-.43,0-.85,0-1.25,0s-.83,0-1.26,0a22,22,0,0,0,3.77,3.82A31.3,31.3,0,0,0,146.42,136.22Zm1.87,18.19h-6v16h6Z"/><circle class="cls-2" cx="424.57" cy="234.39" r="223.09"/><circle class="cls-2" cx="96.23" cy="107.16" r="95.86"/><path class="cls-1" d="M77.82,62.64C74,79.8,54,94.48,32.22,94.48S-3.17,79.8.63,62.64H13.08a29.36,29.36,0,0,0-6.42,12C5,82.29,9.54,87.27,19.24,87.27c20.31,0,49-20.44,52.55-36.56,1.57-7.6-3-12.58-12.58-12.58-11.14,0-23.59,6-32.5,12.06l-9.83-10c.13,0,.13-.26,0-.26L65.76,1.83H35.49L17.8,13.76H15.7L18.72,0H85.16l-.4,1.83L49.38,31.06C69.43,32.5,81.36,46.52,77.82,62.64Z"/><polygon class="cls-1" points="353.66 211.45 353.66 320.79 176.75 149.37 174.59 151.6 351.4 322.93 242.18 322.93 242.18 325.93 356.66 325.93 356.66 211.45 353.66 211.45"/></g></g></g></svg>