<svg xmlns="http://www.w3.org/2000/svg" viewBox="0 0 699.96 457.86"><defs><style>.cls-1{fill:#fff;}.cls-2,.cls-3{fill:none;stroke:#fff;stroke-miterlimit:10;}.cls-2{stroke-width:0.75px;}.cls-3{stroke-width:4px;}</style></defs><g id="圖層_2" data-name="圖層 2"><g id="Scroll_Down" data-name="Scroll Down"><path class="cls-1" d="M87.63,143l-.31.07a1.18,1.18,0,0,1-1.08-.84c-.36-.83-.86-1.94-1.51-3.36s-1.24-2.85-1.81-4.32-1-2.61-1.23-3.43a.65.65,0,0,1,.07-.7,1,1,0,0,1,.7-.23H99.35q1.16-2.77,2.43-6.78t2.35-8.26a65.9,65.9,0,0,0,1.54-7.71c0-.41.11-.81.16-1.2a8.53,8.53,0,0,0,.08-1.11,2,2,0,0,1,.3-.78,1,1,0,0,1,.7-.15c.67.15,1.59.4,2.77.73s2.46.71,3.82,1.12,2.64.81,3.82,1.2,2.11.7,2.78,1a1,1,0,0,1,.69,1.08c0,.93-.41,1.39-1.23,1.39A3.43,3.43,0,0,0,118,111a3.6,3.6,0,0,0-1.23,1.15q-1.69,2.72-4.16,6c-1.65,2.19-3.36,4.33-5.13,6.44s-3.44,4-5,5.63h33.86a43.67,43.67,0,0,0-13-12.57.86.86,0,0,1-.07-.38c0-.47.28-.8.85-1a71.9,71.9,0,0,1,12.61,4.55,34.57,34.57,0,0,1,9.52,6.44,13.64,13.64,0,0,1,4.24,8.14,2.52,2.52,0,0,1,.08.58v.5a5.33,5.33,0,0,1-1.73,4.36,5.89,5.89,0,0,1-3.82,1.43,4.45,4.45,0,0,1-2.24-.58,3.07,3.07,0,0,1-1.39-1.66,50.22,50.22,0,0,0-3.62-7.56L129,133.72l-10.88,1.66q-5.75.88-11.26,1.77t-10,1.66c-3,.52-5.36.95-7,1.31a1.29,1.29,0,0,0-1.16,1.39v.16A1.46,1.46,0,0,1,87.63,143Zm5.78,32.7c-1.65,0-2.47-.75-2.47-2.24q0-1,.39-5.94t.38-12.18q0-4.4-.15-7.68a27.47,27.47,0,0,0-.46-4.51c-.11-.41-.06-.67.15-.77a.69.69,0,0,1,.77-.15c1.34.36,3,.91,4.94,1.65s3.73,1.48,5.32,2.2h27.31a1.27,1.27,0,0,0,1.15-.61q.31-.47.81-1.35c.34-.6.63-1.1.89-1.51a1.09,1.09,0,0,1,.92-.62,2.74,2.74,0,0,1,.62.16c.82.26,1.86.65,3.12,1.19s2.52,1.11,3.78,1.7,2.28,1.12,3.05,1.58a1.29,1.29,0,0,1,.62,1.16,1.5,1.5,0,0,1-.85,1.39,4.14,4.14,0,0,0-.62.38,5.83,5.83,0,0,1-.54.39,3.47,3.47,0,0,0-1.31,2.93c0,1.44,0,3.16.12,5.17s.18,4,.31,6,.23,3.67.3,5.09.12,2.19.12,2.35a2.14,2.14,0,0,1-1.27,1.77,10.58,10.58,0,0,1-3.28,1.2,19.92,19.92,0,0,1-4.09.42c-1.65,0-2.47-.77-2.47-2.31v-2.47H101.59v2.31c0,1-.85,1.78-2.55,2.39A16.3,16.3,0,0,1,93.41,175.68ZM131,148.38H101.59v19.36H131Z"/><path class="cls-1" d="M198.15,174.91c-1.54,0-2.31-.7-2.31-2.08,0-.26,0-1.25.08-3s.12-3.89.23-6.48.18-5.36.23-8.29.08-5.71.08-8.33v-12.5H179.33A67.45,67.45,0,0,1,177.25,149a42.79,42.79,0,0,1-4.36,10.69,36.73,36.73,0,0,1-5.9,7.63,46.72,46.72,0,0,1-6.71,5.48,1.16,1.16,0,0,1-.81-.31.8.8,0,0,1-.27-.77,41.68,41.68,0,0,0,4.51-6.29,38.46,38.46,0,0,0,3.4-7.86,59,59,0,0,0,2.16-10.65,125.76,125.76,0,0,0,.73-14.46v-3.62c-.05-4.12-.22-7.79-.5-11a50.67,50.67,0,0,0-.81-6.4c-.1-.31-.08-.54.08-.69a.58.58,0,0,1,.77-.16,18.92,18.92,0,0,1,3.12,1.12l4.2,1.85c1.44.65,2.57,1.17,3.4,1.59q4.86-.93,10-2.28t10-3a71.38,71.38,0,0,0,8.4-3.54l1.62-.93a1.3,1.3,0,0,1,.54-.15,1.18,1.18,0,0,1,.46.15q.78.46,2.16,1.5c.93.7,1.91,1.44,2.93,2.24s2,1.56,2.9,2.28,1.55,1.26,2,1.62a1.09,1.09,0,0,1,.39.77,1.44,1.44,0,0,1-.23.69,1,1,0,0,1-1.31.39,4.49,4.49,0,0,0-1.55-.31h-.69a4.4,4.4,0,0,0-1,.15q-4.94.93-11.38,1.58t-13.19,1q-6.75.3-12.84.38V132H215a2.36,2.36,0,0,0,1.93-.85c.25-.31.6-.76,1-1.35l1.31-1.77a10.46,10.46,0,0,1,1-1.2,1.28,1.28,0,0,1,1.16-.62,2.28,2.28,0,0,1,.69.16,12.92,12.92,0,0,1,2.62,1.62c1,.77,2,1.55,3,2.35a15.1,15.1,0,0,1,2,2,1.33,1.33,0,0,1,.38,1c0,.67-.28,1-.84,1H205.87v12.5q0,4.23.07,8.48t.12,7.87q0,3.63.11,6c.05,1.56.08,2.48.08,2.73q0,.93-1.23,1.62a10.42,10.42,0,0,1-3.09,1.08A18.23,18.23,0,0,1,198.15,174.91Z"/><circle class="cls-2" cx="476.49" cy="234.39" r="223.09"/><circle class="cls-2" cx="96.23" cy="107.16" r="95.86"/><path class="cls-1" d="M74,0,53.5,92.78H36.34L52.59,18.87l-3.54-3.41L71.72,0Z"/><polyline class="cls-3" points="468.57 237.59 468.57 386.39 319.77 386.39"/><line class="cls-3" x1="468.57" y1="386.39" x2="233.27" y2="151.09"/></g></g></svg>