<svg xmlns="http://www.w3.org/2000/svg" viewBox="0 0 137.27 162.02"><defs><style>.cls-1{fill:#fff;}</style></defs><g id="圖層_2" data-name="圖層 2"><g id="Layer_1" data-name="Layer 1"><path class="cls-1" d="M126.48,66.55a13.39,13.39,0,0,0-12.08.68,14.27,14.27,0,0,0-1.78,1.14A18.56,18.56,0,0,0,108.74,63a15.44,15.44,0,0,0-9.42-4.44c-3.64-.33-6.62,1.47-9.06,3.27l-.63.49a13.51,13.51,0,0,0-6.36-6.61,13.23,13.23,0,0,0-7.09-1.34,18,18,0,0,0-6.19,2V53.72c0-12,0-24.34,0-35.69C70,11.46,67.2,6.19,62,2.77A15.3,15.3,0,0,0,45.71,2c-5.82,3.13-9.05,8.33-9.09,14.64,0,8.29-.06,14.69-.06,20.55,0,10.31,0,19.21-.28,34l0,2a48.08,48.08,0,0,0-5.18-7.91c-4.3-5.27-10.5-7.36-18.49-6.2l-.13,0A14.55,14.55,0,0,0,1.73,66.76,14.76,14.76,0,0,0,1.42,80l15.17,37.22c.69,1.7,1.46,3.39,2.14,4.88,1.36,3,2.26,5.12,3.06,7a112.56,112.56,0,0,0,6.33,13c.22.38.44.77.67,1.15a37.54,37.54,0,0,0,30.65,18.15c7.63.37,20,.64,30.41.64,4.89,0,9.38-.06,12.79-.19a36.86,36.86,0,0,0,11.62-2.26,13.94,13.94,0,0,0,6.2-4.62,19.73,19.73,0,0,1,2-2.14c9.51-8.42,14.34-19.42,14.35-32.72,0-10.77,0-14.58,0-18.8,0-3.74,0-7.81,0-17.36a22.39,22.39,0,0,0-.54-5.33A17.13,17.13,0,0,0,126.48,66.55Zm2,34.74c0,4.22,0,8,0,18.79,0,11-3.79,19.64-11.55,26.5a28.14,28.14,0,0,0-2.84,3,5.92,5.92,0,0,1-2.81,2.24,28.79,28.79,0,0,1-9,1.73c-9.41.36-30.44.14-42.47-.44A29.3,29.3,0,0,1,35.94,139c-.19-.31-.37-.63-.55-1a105.83,105.83,0,0,1-5.95-12.19c-.82-1.92-1.74-4.1-3.14-7.18-.68-1.49-1.38-3-2-4.58L9.08,76.76c0-.08-.07-.15-.1-.23a6.5,6.5,0,0,1,.11-5.9,6.28,6.28,0,0,1,4.64-3.33l.11,0c6.53-1,9.28,1.39,10.78,3.23a48.64,48.64,0,0,1,6.12,10.22,34.55,34.55,0,0,0,4.62,7.78l1.49,1.7a4.15,4.15,0,0,0,5.1.92,5,5,0,0,0,2.62-5.21c0-1.88,0-3.75,0-5.63,0-3,0-6,0-9,.26-14.86.27-23.79.28-34.14,0-5.85,0-12.23.07-20.51C45,13.41,46.5,11,49.65,9.3a7,7,0,0,1,7.79.41c2.82,1.86,4.2,4.59,4.21,8.35,0,11.33,0,23.7,0,35.66V69.09a4.15,4.15,0,0,0,8.12,1.24c2-6.41,4.41-7.29,7.55-7.77a5.8,5.8,0,0,1,2.2.54c1,.49,3.65,1.82,4,10.27a4.16,4.16,0,0,0,8.15,1c.85-2.93,1.9-4.69,3.51-5.89s2.7-1.74,3.35-1.67A7.16,7.16,0,0,1,103,68.91a10.46,10.46,0,0,1,2.77,4.63,15.14,15.14,0,0,1,.35,3.89c0,1,0,1.94.12,3a4.16,4.16,0,0,0,8.17.68c1-3.8,2-5.46,4.1-6.61l.14-.08a5.17,5.17,0,0,1,4.69-.17,8.93,8.93,0,0,1,5,6.36,13.59,13.59,0,0,1,.3,3.33C128.53,93.48,128.53,97.55,128.53,101.29Z"/><path class="cls-1" d="M104.49,27.15h19l-7.73,7.35a4.16,4.16,0,1,0,5.73,6L136,26.77a4.16,4.16,0,0,0,0-6L121.52,7a4.16,4.16,0,0,0-5.73,6l6.11,5.81H104.49a4.16,4.16,0,0,0,0,8.32Z"/></g></g></svg>