<svg xmlns="http://www.w3.org/2000/svg" viewBox="0 0 169.56 221.99"><defs><style>.cls-1{fill:#fff;}</style></defs><g id="圖層_2" data-name="圖層 2"><g id="Layer_1" data-name="Layer 1"><path class="cls-1" d="M158.81,126.83a13.38,13.38,0,0,0-12.06.68,16.6,16.6,0,0,0-1.76,1.12,18.45,18.45,0,0,0-3.86-5.38,15.4,15.4,0,0,0-9.4-4.43c-3.63-.32-6.61,1.46-9,3.26l-.62.48a13.43,13.43,0,0,0-6.33-6.58,13.13,13.13,0,0,0-7.08-1.33,18,18,0,0,0-6.15,2v-2.58c0-11.93,0-24.26,0-35.57,0-6.55-2.76-11.81-7.93-15.22a15.26,15.26,0,0,0-16.26-.79c-5.81,3.12-9,8.31-9.07,14.61,0,8.27-.06,14.65-.07,20.49,0,10.27,0,19.14-.27,33.87l0,1.93a47.64,47.64,0,0,0-5.13-7.84c-4.29-5.26-10.48-7.34-18.44-6.18l-.13,0a14.51,14.51,0,0,0-10.7,7.66,14.67,14.67,0,0,0-.3,13.21l15.11,37.1c.68,1.67,1.42,3.29,2.13,4.86,1.35,3,2.25,5.09,3.05,7a111.94,111.94,0,0,0,6.31,12.93c.22.39.44.78.67,1.16A37.44,37.44,0,0,0,92,221.36c7.6.37,19.88.63,30.31.63,4.87,0,9.34-.06,12.73-.19a36.89,36.89,0,0,0,11.58-2.25,13.85,13.85,0,0,0,6.18-4.61,20.71,20.71,0,0,1,2-2.13c9.48-8.39,14.29-19.36,14.31-32.61,0-10.74,0-14.53,0-18.73,0-3.73,0-7.78,0-17.31a21.78,21.78,0,0,0-.54-5.31A17.09,17.09,0,0,0,158.81,126.83Zm2,34.64c0,4.2,0,8,0,18.72,0,10.92-3.77,19.56-11.5,26.39a28.94,28.94,0,0,0-2.83,3,5.82,5.82,0,0,1-2.8,2.23,28.2,28.2,0,0,1-9,1.72c-9.36.36-30.33.15-42.32-.44a29.16,29.16,0,0,1-23.82-14c-.18-.3-.36-.62-.54-.94a104.33,104.33,0,0,1-5.93-12.14c-.81-1.91-1.73-4.08-3.13-7.15-.68-1.5-1.38-3-2-4.56L41.82,137a1.6,1.6,0,0,0-.1-.23,6.49,6.49,0,0,1,.11-5.87,6.28,6.28,0,0,1,4.62-3.32h.1c6.51-1,9.24,1.38,10.74,3.22A48.77,48.77,0,0,1,63.38,141,34,34,0,0,0,68,148.74l1.49,1.69a4.15,4.15,0,0,0,5.09.93,5,5,0,0,0,2.62-5.22c0-1.86,0-3.73,0-5.6,0-2.94,0-6,0-8.94.25-14.8.27-23.69.28-34,0-5.83,0-12.2.06-20.45,0-3.25,1.56-5.65,4.7-7.34a7,7,0,0,1,7.75.41c2.8,1.86,4.17,4.57,4.18,8.31,0,11.29,0,23.61,0,35.53v15.31a4.16,4.16,0,0,0,8.12,1.25c2-6.38,4.38-7.25,7.51-7.74h0a5.74,5.74,0,0,1,2.17.54c1,.49,3.63,1.81,4,10.23a4.15,4.15,0,0,0,8.14,1c.85-2.92,1.89-4.68,3.5-5.87s2.68-1.72,3.33-1.66a7,7,0,0,1,4.36,2.11,10.38,10.38,0,0,1,2.75,4.6,15,15,0,0,1,.36,3.88c0,.95,0,1.93.11,3a4.16,4.16,0,0,0,8.17.68c1-3.78,2-5.44,4.08-6.58l.14-.08a5.16,5.16,0,0,1,4.66-.17,8.88,8.88,0,0,1,4.93,6.33,13.8,13.8,0,0,1,.3,3.31C160.83,153.68,160.83,157.74,160.83,161.47Z"/><path class="cls-1" d="M73.88,21.43l6.53-6.87V31.08a4.16,4.16,0,0,0,8.32,0V14.56l6.53,6.87a4.16,4.16,0,1,0,6-5.73L87.58,1.29s0,0,0,0a3.79,3.79,0,0,0-.37-.31C87.08.87,87,.79,86.92.73a4,4,0,0,0-.53-.3L86.2.33A4.21,4.21,0,0,0,84.65,0h-.08a4,4,0,0,0-1.63.34l-.09,0a3.88,3.88,0,0,0-.63.35L82,.89a4.83,4.83,0,0,0-.42.37l0,0L67.85,15.7a4.16,4.16,0,0,0,6,5.73Z"/><path class="cls-1" d="M13.76,87.6H35.14a4.16,4.16,0,0,0,0-8.31H15.36l6.07-5.77a4.16,4.16,0,1,0-5.73-6L1.29,81.19a4.17,4.17,0,0,0,0,6l14.41,13.7a4.11,4.11,0,0,0,2.86,1.15,4.16,4.16,0,0,0,2.87-7.17Z"/><path class="cls-1" d="M136.89,87.6H155.8l-7.67,7.3a4.16,4.16,0,0,0,2.87,7.17,4.11,4.11,0,0,0,2.86-1.15l14.41-13.7a4.17,4.17,0,0,0,0-6l-14.41-13.7a4.16,4.16,0,0,0-5.73,6l6.07,5.77H136.89a4.16,4.16,0,1,0,0,8.31Z"/></g></g></svg>