<svg xmlns="http://www.w3.org/2000/svg" viewBox="0 0 648.03 457.86"><defs><style>.cls-1{fill:#fff;}.cls-2{fill:none;stroke:#fff;stroke-miterlimit:10;stroke-width:0.75px;}</style></defs><g id="圖層_2" data-name="圖層 2"><g id="_3盤" data-name="3盤"><g id="_3盤盧筍炒蝦仁" data-name="3盤盧筍炒蝦仁"><path class="cls-1" d="M386.9,325.4a2.12,2.12,0,0,1-2.44-2.36c0-.32,0-1.46.13-3.41s.17-4.48.28-7.59.2-6.59.28-10.43.13-7.83.13-11.94q0-7.56-.21-12.19a44.45,44.45,0,0,0-.61-6.57c-.1-.49,0-.79.17-.9s.48-.24,1-.08a42,42,0,0,1,4.59,1.71q2.88,1.22,5.16,2.35h15.92v-9.26H389.74c-1.73,0-3.27,0-4.63.08s-2.73.17-4.14.33l-1-3.49q4,.48,9.74.65h21.53v-3.58a24.59,24.59,0,0,0-.21-3.57,5.8,5.8,0,0,0-.53-2,1.18,1.18,0,0,1-.08-1,1,1,0,0,1,.9-.41,32.35,32.35,0,0,1,3.29.24c1.43.17,2.86.36,4.3.57s2.5.41,3.21.57a1.09,1.09,0,0,1,.89,1.14,1.29,1.29,0,0,1-1.22,1.46c-1,.16-1.54.7-1.54,1.62v4.88H436a5.14,5.14,0,0,0,1.26-.12,1.7,1.7,0,0,0,.86-.7c.27-.32.66-.83,1.17-1.54s1-1.39,1.55-2.07l1.09-1.42a1.35,1.35,0,0,1,1.22-.65,4.74,4.74,0,0,1,2,.77,32.39,32.39,0,0,1,2.88,1.91c1,.76,2,1.5,2.85,2.23s1.51,1.32,1.95,1.75a1.42,1.42,0,0,1,.4,1.06c0,.81-.35,1.21-1.05,1.21H420.28V274H436a1.64,1.64,0,0,0,1.63-.81,14.47,14.47,0,0,0,.73-1.26c.27-.51.51-1,.73-1.34a1.16,1.16,0,0,1,1.14-.81,4.5,4.5,0,0,1,.81.16,25.39,25.39,0,0,1,2.92,1.14c1.09.48,2.14,1,3.17,1.54s1.87,1,2.52,1.46a1.81,1.81,0,0,1-.08,3.25,2.67,2.67,0,0,0-.57.37,5.1,5.1,0,0,1-.49.36,3.2,3.2,0,0,0-1.14,2.68v7.64q0,5.69.13,11c.08,3.55.14,6.57.2,9.06s.08,4.06.08,4.71a16.1,16.1,0,0,1-.93,5.76,8.17,8.17,0,0,1-3.66,4.06,22.72,22.72,0,0,1-8.08,2.44,27.48,27.48,0,0,0-1.38-5.69,6.09,6.09,0,0,0-2.48-3,13.49,13.49,0,0,0-5-1.5,1.49,1.49,0,0,1-.24-.73,1.24,1.24,0,0,1,.4-.9h9.5c1.46,0,2.2-.7,2.2-2.11v-35h-14.3c.92.32,1.94.72,3.05,1.18s2.15.88,3.12,1.26a13.18,13.18,0,0,1,2.12,1c.32.11.48.41.48.89s-.12.71-.36.81a2.09,2.09,0,0,1-.86.17,3,3,0,0,0-1.54.2,5.43,5.43,0,0,0-1.54,1.18c-1.35,1.35-2.84,2.75-4.47,4.18s-3.11,2.67-4.46,3.69H424a2.13,2.13,0,0,0,1.62-.81l2-3.16a1,1,0,0,1,.89-.57,1.44,1.44,0,0,1,.9.32,32.75,32.75,0,0,1,3.12,2.32,19.67,19.67,0,0,1,2.64,2.48,1.07,1.07,0,0,1,.33.81q0,1-.9,1H420.2v8h4.71a1.55,1.55,0,0,0,1.54-.81c.27-.43.69-1.1,1.26-2s1-1.53,1.26-1.91.57-.65.89-.65a1.29,1.29,0,0,1,.45.08,3.62,3.62,0,0,1,.45.25,17.1,17.1,0,0,1,2.11,1.66c.81.73,1.58,1.45,2.31,2.15a18.61,18.61,0,0,1,1.67,1.79,1.24,1.24,0,0,1,.32.89c0,.65-.3,1-.89,1H420.2q0,3.33.08,6.78c.05,2.3.11,4.3.16,6s.08,2.77.08,3.21-.39,1-1.17,1.46a10.55,10.55,0,0,1-2.93,1,16.73,16.73,0,0,1-3.53.37c-1.41,0-2.11-.65-2.11-1.95,0-.22,0-.89.08-2s.11-2.53.16-4.18.11-3.41.16-5.28.09-3.67.09-5.4H405.5c-1.79,0-3.36,0-4.71.08s-2.74.16-4.14.32l-1-3.49c2.65.33,5.93.54,9.83.65h5.77v-8h-6.1q-3.65.09-7,.25l-.89-3.17q3.57.33,7.87.48h.33a3.05,3.05,0,0,1-1-1.94,32.76,32.76,0,0,0-1.78-6.62,12.55,12.55,0,0,0-2.93-4.35.52.52,0,0,0,0-.24.32.32,0,0,1,0-.16,1,1,0,0,1,.9-1.06,25.32,25.32,0,0,1,6,1.67,12,12,0,0,1,4.5,3.12,7.14,7.14,0,0,1,1.71,4.88,5.23,5.23,0,0,1-.77,2.84,5.47,5.47,0,0,1-1.91,1.86h6.25c.43-1.08.92-2.38,1.46-3.89s1.05-3.09,1.51-4.71.82-3.09,1.09-4.39a3,3,0,0,0,.21-.81,3.71,3.71,0,0,1,.12-.73H394.29v45.48q0,1.54-2.07,2.52A12.52,12.52,0,0,1,386.9,325.4Z"/><path class="cls-1" d="M460.24,325.32q-1.31,0-1.14-1.14a41.61,41.61,0,0,0,6.21-10.31,59.23,59.23,0,0,0,3.86-14.58,147.81,147.81,0,0,0,1.3-21.32v-4.3c-.06-4.44-.2-8-.45-10.6a33.18,33.18,0,0,0-.77-5.32,1.08,1.08,0,0,1,.16-.89,1,1,0,0,1,.9-.08,28.4,28.4,0,0,1,3.2,1.29c1.44.65,2.87,1.34,4.31,2.07s2.53,1.32,3.29,1.75q5-.81,10.6-2.07t11.08-2.92a86.45,86.45,0,0,0,9.5-3.45c.49-.22,1-.45,1.47-.7l1.38-.69a1.37,1.37,0,0,1,.65-.24.81.81,0,0,1,.57.24l2.11,1.67c.92.73,1.88,1.54,2.88,2.44l2.8,2.47c.87.76,1.49,1.33,1.87,1.71a1.25,1.25,0,0,1,.41.89,1.48,1.48,0,0,1-.25.73c-.43.65-.95.82-1.54.49a6.84,6.84,0,0,0-2.6-.57h-.69a4.29,4.29,0,0,0-.77.08c-1.14.16-2.29.3-3.45.41l-3.54.32A86.34,86.34,0,0,0,517,284.47a69.51,69.51,0,0,0,7.88,17.58,57.45,57.45,0,0,0,11,12.87,28.43,28.43,0,0,0-6.54,3.17,17,17,0,0,0-4.91,4.47,72.53,72.53,0,0,1-10.85-24.37A132.42,132.42,0,0,1,510.26,267V263c-1.68.16-3.41.29-5.19.4l-5.36.33v46l5.93-.4a40.84,40.84,0,0,0-2.28-4.1,16.9,16.9,0,0,0-2.6-3.21v-.16a1.23,1.23,0,0,1,.29-.77.84.84,0,0,1,.69-.37,36.92,36.92,0,0,1,9.91,4.79,13.08,13.08,0,0,1,5.44,8,9.19,9.19,0,0,1,.24,2,5.93,5.93,0,0,1-1.79,4.63,5.41,5.41,0,0,1-3.65,1.63,3.61,3.61,0,0,1-2.19-.73,3,3,0,0,1-1.14-2.12,46.2,46.2,0,0,0-1.87-7.14l-6.05,2.07c-2.3.78-4.62,1.6-6.94,2.43s-4.46,1.63-6.38,2.36-3.4,1.31-4.42,1.75a2.91,2.91,0,0,0-1.39.77,1.41,1.41,0,0,0-.08,1.09.22.22,0,0,0,0,.13s0,.09,0,.2a1,1,0,0,1-.73,1,1.25,1.25,0,0,1-.48.17,1.21,1.21,0,0,1-1.06-.66c-.22-.37-.54-1-1-2s-.93-2-1.47-3.09-1-2.17-1.46-3.17-.76-1.72-1-2.15-.17-.57,0-.73a.63.63,0,0,1,.57-.24l1.38-.17,1.54-.16c1.68-.11,3.61-.26,5.81-.45s4.45-.36,6.78-.52V264c-1.84.06-3.63.08-5.36.08h-5v10.8a101.42,101.42,0,0,1-1.5,18.6,59.25,59.25,0,0,1-4.22,13.85A46.15,46.15,0,0,1,468,317.56,58.58,58.58,0,0,1,460.24,325.32Z"/><path class="cls-1" d="M551,325.4a7.94,7.94,0,0,1-3.61-.69,2.53,2.53,0,0,1-1.34-2.48,21.3,21.3,0,0,1,.57-4.46,26.44,26.44,0,0,0,.56-5.53c0-.37,0-.74,0-1.09s-.06-.72-.12-1.1a8.44,8.44,0,0,0-1.74-4.14,8.72,8.72,0,0,0-3.7-2.68,1,1,0,0,1-.08-.41,1.06,1.06,0,0,1,.81-1.13,9.63,9.63,0,0,0,3,.56,2.77,2.77,0,0,0,1.62-.4,3,3,0,0,0,.89-1q1.23-2.19,3.37-5.76c1.44-2.38,2.94-4.88,4.51-7.47s3.06-5,4.47-7.27l3.33-5.32a.82.82,0,0,1,.4-.08,1.15,1.15,0,0,1,1.14.73c-.43.86-1,2.25-1.78,4.14s-1.59,4-2.48,6.42-1.75,4.83-2.56,7.35-1.48,4.9-2,7.14a25.81,25.81,0,0,0-.77,5.65,19,19,0,0,0,1.26,7,24.33,24.33,0,0,1,1.58,6.05,29.38,29.38,0,0,0,3.86-6.37,39.11,39.11,0,0,0,2.52-8.33A91.29,91.29,0,0,0,566,293.28q.4-6.7.4-16,0-6.26-.16-10c-.11-2.49-.24-4.42-.41-5.8a16,16,0,0,0-.57-3q-.24-.57.09-.81a.73.73,0,0,1,.89-.08,27.81,27.81,0,0,1,3.13.93c1.32.46,2.68,1,4.06,1.46l3.29,1.26q3.07-.74,6.62-1.95a62.91,62.91,0,0,0,6.82-2.8,42.1,42.1,0,0,0,5.64-3.21c.33-.27.65-.53,1-.77s.62-.47.89-.69a.71.71,0,0,1,.49-.24,2.3,2.3,0,0,1,.65.08,15.11,15.11,0,0,1,2.43,1.26c1,.62,2.13,1.3,3.29,2s2.26,1.45,3.29,2.15a24.75,24.75,0,0,1,2.28,1.7,1.12,1.12,0,0,1,.48,1c0,.76-.4,1.08-1.22,1-.27-.05-.55-.09-.85-.12s-.61,0-.93,0c-.54,0-1.07,0-1.59.08l-1.42.17c-2.76.37-5.82.77-9.17,1.17s-6.74.75-10.16,1-6.6.46-9.58.57V276c2.44-.54,4.91-1.2,7.43-2a61.17,61.17,0,0,0,7.19-2.72,45.45,45.45,0,0,0,5.93-3.17,14.13,14.13,0,0,0,1.95-1.46,2.2,2.2,0,0,1,.57-.32,1.16,1.16,0,0,1,.65.16,30.84,30.84,0,0,1,3.16,1.91c1.25.84,2.49,1.69,3.74,2.56s2.19,1.57,2.84,2.11a1,1,0,0,1,.41.81,1.4,1.4,0,0,1-.17.65,1,1,0,0,1-1.05.57l-1.06-.12c-.32,0-.67,0-1.05,0a12.61,12.61,0,0,0-2.44.24l-4.55.69c-1.57.24-3.19.48-4.87.69a49.11,49.11,0,0,0,1.26,7,51.25,51.25,0,0,0,2,6.13,38.94,38.94,0,0,0,2.23-4.31,45.4,45.4,0,0,0,1.83-4.71,23.74,23.74,0,0,0,.73-2.43c.11-.38.27-.6.49-.65a.83.83,0,0,1,.73,0c.86.38,2.06,1,3.57,1.82s3,1.7,4.39,2.56,2.41,1.52,3,2a.92.92,0,0,1,.33,1.22c-.11.49-.46.73-1.06.73a12.19,12.19,0,0,0-1.83.12,8.45,8.45,0,0,0-2,.69l-6,2.8c-2.14,1-4,1.83-5.49,2.48a38.88,38.88,0,0,0,8.21,11.41,57.34,57.34,0,0,0,10.07,7.68,26.17,26.17,0,0,0-6.7,3.77,21.59,21.59,0,0,0-4.75,5,33.21,33.21,0,0,1-7.19-10.6,62.92,62.92,0,0,1-4.35-14.74,113.86,113.86,0,0,1-1.62-17.71l-1.59.17-1.58.16v16.08c0,3.2,0,6.44.08,9.75s.14,6.37.25,9.21.19,5.19.24,7,.08,2.89.08,3.17c0,.59-.39,1.12-1.18,1.58a9.82,9.82,0,0,1-3,1.06,18.47,18.47,0,0,1-3.66.36c-1.46,0-2.19-.68-2.19-2,0-.22,0-1.34.08-3.37s.14-4.56.25-7.59.19-6.26.24-9.67.08-6.6.08-9.58V278l-4.71.24A98.09,98.09,0,0,1,574,297.58a40.37,40.37,0,0,1-5.53,14A40,40,0,0,1,558,322.23h-.08a5.12,5.12,0,0,1-2.68,2.32A10.63,10.63,0,0,1,551,325.4Zm-.16-38.5a3.55,3.55,0,0,1-2.07-.64,3.33,3.33,0,0,1-1.26-2.12,28.46,28.46,0,0,0-2-5.8,9.5,9.5,0,0,0-3.86-4.35,1.24,1.24,0,0,1-.16-.57,1,1,0,0,1,.65-1.05,20.38,20.38,0,0,1,9.22,1.7,7.89,7.89,0,0,1,4.5,5.85,5.34,5.34,0,0,1,.13.65c0,.22,0,.46,0,.73a5.16,5.16,0,0,1-1.71,4.1A5.28,5.28,0,0,1,550.79,286.9Zm7.39-19.57a3.87,3.87,0,0,1-2.11-.61,3.26,3.26,0,0,1-1.38-1.82,21.92,21.92,0,0,0-3.13-6.1,13.2,13.2,0,0,0-4.67-4.14,2.47,2.47,0,0,1-.16-.65,1,1,0,0,1,.57-1,8.47,8.47,0,0,1,1.13-.08h1.14a22.53,22.53,0,0,1,6.13.81,14.16,14.16,0,0,1,4.87,2.35,6.41,6.41,0,0,1,2.48,3.74,7.67,7.67,0,0,1,.25,1.95,5.42,5.42,0,0,1-5.12,5.52Z"/><path class="cls-1" d="M105.25,175.28c-1.41,0-2.12-.65-2.12-1.95q0-.41.09-2.88t.24-6.26q.17-3.76.28-8.16t.21-8.61A64.34,64.34,0,0,1,99.72,154c-1.51,2.09-3.06,4-4.63,5.81h-.16a1.09,1.09,0,0,1-1.22-1,72.72,72.72,0,0,0,4-9.83,126.92,126.92,0,0,0,3.41-12.31,126.71,126.71,0,0,0,2.32-13.52h-1.87c-2.49.06-4.52.16-6.09.33l-.81-3.25c1.89.21,4.17.38,6.82.49H104V110.47a46.53,46.53,0,0,0-.21-5.24,12.43,12.43,0,0,0-.52-2.56.67.67,0,0,1,0-.65c.1-.16.32-.24.65-.24a20.86,20.86,0,0,1,3.08.33c1.36.21,2.72.44,4.1.69a26.36,26.36,0,0,1,3.13.69.74.74,0,0,1,.57.44,1.88,1.88,0,0,1,.16.78,1.12,1.12,0,0,1-1,1.13,2.94,2.94,0,0,0-1.51.57,2.55,2.55,0,0,0-.44,1.79v12.59h.24a1.63,1.63,0,0,0,1.46-.74c.27-.43.71-1.08,1.3-1.94a22.1,22.1,0,0,1,1.46-2,1,1,0,0,1,.82-.41,1.48,1.48,0,0,1,1,.33c.87.7,1.81,1.55,2.84,2.55a20.83,20.83,0,0,1,2.36,2.64v-.16c-.11-.38-.08-.65.08-.81a.84.84,0,0,1,1-.08,44.31,44.31,0,0,1,4.23,1.42c1.78.68,3.33,1.28,4.63,1.82h18.51a2.34,2.34,0,0,0,.69-.08,1,1,0,0,0,.53-.4,9.51,9.51,0,0,1,.53-.94c.19-.29.39-.63.61-1s.57-.65.89-.65a2.48,2.48,0,0,1,.73.16c1,.33,2.34.84,3.94,1.54a24.55,24.55,0,0,1,3.7,2,1.53,1.53,0,0,1,.89,1.38,1.85,1.85,0,0,1-1.14,1.55,2.32,2.32,0,0,0-.28.16,2.41,2.41,0,0,0-.29.24,1.51,1.51,0,0,0-.52.86,10,10,0,0,0-.12,1.9c0,1.25,0,2.64.08,4.19s.1,3.06.16,4.55.11,2.77.16,3.85.08,1.79.08,2.11q0,1.06-2.19,2a12.27,12.27,0,0,1-4.71.9,3.17,3.17,0,0,1-1.75-.41,1.64,1.64,0,0,1-.61-1.46v-1.3H146.1c-.06,1.52-.15,2.94-.29,4.26a33.44,33.44,0,0,1-.61,3.86h11.05a2.07,2.07,0,0,0,1.87-.89c.27-.49.67-1.14,1.21-1.95s1-1.49,1.3-2a1.34,1.34,0,0,1,1.06-.73,1.21,1.21,0,0,1,.73.24,43.8,43.8,0,0,1,4.14,2.72,16.27,16.27,0,0,1,3.33,3.05,1.87,1.87,0,0,1,.41,1.05.87.87,0,0,1-1,1H145.85a12.18,12.18,0,0,0,5.24,5.32,26.58,26.58,0,0,0,8.53,2.68,99.15,99.15,0,0,0,11,1,18,18,0,0,0-4.5,5.08,23.54,23.54,0,0,0-2.72,5.72,26.44,26.44,0,0,1-12.92-6.49,20.67,20.67,0,0,1-6.41-11.7,23.61,23.61,0,0,1-6.09,9.91,27.54,27.54,0,0,1-9.83,5.85,56.44,56.44,0,0,1-12.91,2.76,1.06,1.06,0,0,1-.57-1,.9.9,0,0,1,.24-.65,54.7,54.7,0,0,0,9.22-3.49,21.32,21.32,0,0,0,7-5.56,22.74,22.74,0,0,0,4.31-9.46H126c-1.74,0-3.28,0-4.63.08s-2.76.16-4.23.32l-1-3.49c2.71.33,6,.54,9.75.65h9.9a49.53,49.53,0,0,0,.73-8.12H132.7v1.14c0,.7-.73,1.35-2.2,2a12.45,12.45,0,0,1-4.71.89,3.31,3.31,0,0,1-1.74-.37,1.6,1.6,0,0,1-.61-1.5c0-.43,0-1.46.16-3.08s.2-3.55.28-5.77.13-4.44.13-6.66c0-3.57-.09-6.28-.25-8.12q-.08.24-.48.24H112.07v9a17.4,17.4,0,0,1,7.59,2.72,6.66,6.66,0,0,1,3.21,5.8,5.22,5.22,0,0,1-1.46,4,4.44,4.44,0,0,1-3.09,1.38,3.39,3.39,0,0,1-2.07-.69,2.79,2.79,0,0,1-1.1-2,31.18,31.18,0,0,0-1-4.75,10.65,10.65,0,0,0-2.11-3.94v37.61c0,.86-.71,1.57-2.11,2.11A13.08,13.08,0,0,1,105.25,175.28Zm27-53.6a2.67,2.67,0,0,1-1.75-.57,1.8,1.8,0,0,1-.69-1.46c0-.43,0-1.19.08-2.28s.11-2.38.17-3.89h-1.3c-1.79,0-3.36,0-4.71.08s-2.74.16-4.14.32l-1-3.49q4,.48,9.75.65h1.46c0-.7.08-1.43.08-2.19v-2.28a7.83,7.83,0,0,0-.49-3.57.84.84,0,0,1-.08-.81c.11-.27.38-.41.81-.41a24.37,24.37,0,0,1,2.85.24c1.24.17,2.53.36,3.85.57s2.4.44,3.21.65a1,1,0,0,1,.81,1c0,.81-.35,1.22-1.05,1.22a1.38,1.38,0,0,0-1.3,1.46V111h6.66v-4.47A7.83,7.83,0,0,0,145,103a.76.76,0,0,1,.73-1.22,24.08,24.08,0,0,1,2.84.24c1.25.17,2.53.36,3.86.57s2.4.44,3.21.65a1,1,0,0,1,.81,1c0,.81-.35,1.22-1.05,1.22a1.38,1.38,0,0,0-1.3,1.46v1.87c0,.7,0,1.46.08,2.27h2.11a2,2,0,0,0,1.79-.81c.27-.38.7-1,1.3-1.91a19.33,19.33,0,0,1,1.46-2,1,1,0,0,1,.89-.57,1.87,1.87,0,0,1,.73.24,18.22,18.22,0,0,1,2.19,1.71c.87.76,1.71,1.52,2.52,2.27a12.18,12.18,0,0,1,1.71,1.87,1.34,1.34,0,0,1,.24.81c0,.55-.22.82-.65.82H154.38l.16,5.19c0,.92-.68,1.66-2,2.2a12.88,12.88,0,0,1-4.79.81c-1.46,0-2.19-.68-2.19-2v-6.17h-6.66v5.19c0,.92-.64,1.66-1.91,2.2A12,12,0,0,1,132.29,121.68Zm21,4.3H132.7v6.58h20.62Zm0,9H132.7v7.06h20.62Z"/><circle class="cls-2" cx="424.56" cy="234.39" r="223.09"/><circle class="cls-2" cx="96.23" cy="107.16" r="95.86"/><path class="cls-1" d="M94.59,0,74.15,92.78H57L73.23,18.87l-3.54-3.41L92.36,0Z"/><polygon class="cls-1" points="353.66 211.45 353.66 320.79 176.75 149.37 174.58 151.6 351.39 322.93 242.18 322.93 242.18 325.93 356.66 325.93 356.66 211.45 353.66 211.45"/></g></g></g></svg>