<svg xmlns="http://www.w3.org/2000/svg" viewBox="0 0 648.03 457.86"><defs><style>.cls-1{fill:#fff;}.cls-2{fill:none;stroke:#fff;stroke-miterlimit:10;stroke-width:0.75px;}</style></defs><g id="圖層_2" data-name="圖層 2"><g id="_3盤" data-name="3盤"><g id="_3盤盧筍炒蝦仁" data-name="3盤盧筍炒蝦仁"><path class="cls-1" d="M385.44,324.75a1.3,1.3,0,0,1-.57.16.83.83,0,0,1-.81-.56c-.22-.44-.54-1.14-1-2.12s-.9-2.05-1.42-3.25-1-2.32-1.38-3.41-.72-1.92-.93-2.51v-.49a.55.55,0,0,1,.48-.25l2.12-.24q4.14-.48,10.15-.89V295.6h-3.17v4.7c0,.66-.64,1.18-1.91,1.59a13,13,0,0,1-3.94.61,1.36,1.36,0,0,1-1.54-1.54c0-.33,0-1.63,0-3.9s.07-5.19.12-8.73.08-7.35.08-11.41q0-5-.16-7.68a21.84,21.84,0,0,0-.4-3.53.54.54,0,0,1,.08-.65.43.43,0,0,1,.32-.16,7.74,7.74,0,0,1,2,.64L387,267a28.76,28.76,0,0,1,2.72,1.26h2.36v-9.75a22,22,0,0,0-.2-3.33,12.9,12.9,0,0,0-.37-1.7.75.75,0,0,1-.08-.74.66.66,0,0,1,.65-.32,22.16,22.16,0,0,1,2.68.24l3.57.49c1.19.16,2.06.3,2.6.41a.82.82,0,0,1,.65,1.05.79.79,0,0,1-.89.89c-.87.17-1.3.6-1.3,1.31v11.45h2.11a1.09,1.09,0,0,0,1.05-.65l1.22-1.95c.22-.49.65-.65,1.3-.49.81.32,1.94.81,3.37,1.46s2.53,1.19,3.29,1.63a1.2,1.2,0,0,1,.73,1.21,1.29,1.29,0,0,1-.89,1.22l-.53.16a1.11,1.11,0,0,0-.36.25,2.51,2.51,0,0,0-.9,2.19c0,1.19,0,2.44,0,3.74s0,2.65,0,4.06a59.53,59.53,0,0,0,5.45-8.29,83.52,83.52,0,0,0,4.5-9.5,43.09,43.09,0,0,0,2.56-8.61,6.35,6.35,0,0,0,.2-1.21c0-.38.07-.76.13-1.14a.83.83,0,0,1,.32-.73,1.06,1.06,0,0,1,.73-.08c.81.16,2,.46,3.49.89s3,.88,4.55,1.34,2.63.82,3.33,1.1a.9.9,0,0,1,.49.89,1.37,1.37,0,0,1-.24.77.7.7,0,0,1-.74.29h-.08a28.65,28.65,0,0,0,5.53,7.51,38.85,38.85,0,0,0,7.71,5.92,43.58,43.58,0,0,0,8.37,3.86,16.41,16.41,0,0,0-3.37,2.56,29,29,0,0,0-3.13,3.49,16.25,16.25,0,0,0-2,3.37,33.85,33.85,0,0,1-9.79-11.33,49.74,49.74,0,0,1-5.32-14.82,4.93,4.93,0,0,0-.65,1.06,54.19,54.19,0,0,1-5.88,10,71,71,0,0,1-7.76,8.93A50.54,50.54,0,0,1,410,284q.07,3.25.12,6.13c0,1.93.05,3.51.08,4.75s0,1.95,0,2.12c0,.7-.66,1.25-2,1.66a13.57,13.57,0,0,1-4,.61c-1.08,0-1.63-.51-1.63-1.54V295.6h-3.16v15q1.29-.17,2.43-.24c.76-.06,1.44-.11,2-.17a28.21,28.21,0,0,0-1.38-3.85,13.55,13.55,0,0,0-2-3.29,1.08,1.08,0,0,1,1.22-1.22,38.51,38.51,0,0,1,5.77,3.53,17.44,17.44,0,0,1,4.34,4.59,10.9,10.9,0,0,1,1.67,6,5,5,0,0,1-1.87,4.22,6,6,0,0,1-3.74,1.46,3.22,3.22,0,0,1-1.86-.56,2,2,0,0,1-.82-1.79c-.05-1.08-.13-2.17-.24-3.25s-.24-2.14-.41-3.17c-1.29.6-2.81,1.32-4.54,2.15s-3.47,1.71-5.2,2.6l-4.71,2.44c-1.41.73-2.49,1.31-3.25,1.75a1.7,1.7,0,0,0-.73.65,1.68,1.68,0,0,0-.08,1l.08.33A1,1,0,0,1,385.44,324.75Zm6.66-54.09h-3.17v22.5h3.17Zm10.47,0h-3.16v22.5h3.16Zm14.95,54.5c-1.36,0-2-.63-2-1.87,0-.38.05-1.49.16-3.33s.2-4.13.28-6.86.13-5.57.13-8.49q0-5.76-.21-8.81a12.74,12.74,0,0,0-.61-3.86.57.57,0,0,1,.17-.57.88.88,0,0,1,.65-.24c.81.22,1.84.55,3.08,1s2.48.95,3.7,1.47,2.23,1,3,1.42h10.4a1.43,1.43,0,0,0,1.3-.65l1.46-2.52a1.17,1.17,0,0,1,1-.65,1.24,1.24,0,0,1,.33,0l.41.12a29.35,29.35,0,0,1,4.06,1.67,43.67,43.67,0,0,1,3.89,2.07,1.56,1.56,0,0,1,.9,1.46,1.62,1.62,0,0,1-1.14,1.54l-.49.17a1,1,0,0,0-.4.24,3.57,3.57,0,0,0-1.06,3c0,1.63,0,3.5.08,5.61s.14,4.19.25,6.25.19,3.79.24,5.2.08,2.22.08,2.44c0,.86-.8,1.55-2.39,2.07a16.61,16.61,0,0,1-5.08.77c-1.41,0-2.11-.65-2.11-1.95V318H424.91v4.39c0,.86-.8,1.54-2.4,2A17.21,17.21,0,0,1,417.52,325.16Zm-1.3-40.28-1-3.17c2.17.21,4.74.35,7.72.4h7.88a1.73,1.73,0,0,0,1.62-.81l1.26-2c.57-.89,1-1.53,1.26-1.91s.57-.65.89-.65a1.29,1.29,0,0,1,.45.08,3.62,3.62,0,0,1,.45.25,19.49,19.49,0,0,1,2.11,1.62c.81.71,1.58,1.42,2.31,2.16a22.53,22.53,0,0,1,1.67,1.82,1.25,1.25,0,0,1,.32.9c0,.64-.3,1-.89,1H423C420.23,284.6,418,284.71,416.22,284.88Zm21.36,12.66H424.91v18h12.67Z"/><path class="cls-1" d="M481.11,325.32c-.81,0-1.22-.38-1.22-1.14a35,35,0,0,0,3.65-5.11,37.78,37.78,0,0,0,2.93-6.34,4.26,4.26,0,0,1-1.71,1,5.09,5.09,0,0,1-.89.16,2.31,2.31,0,0,1-1.5-.57,2.52,2.52,0,0,1-.86-1.62q-.08-.9-.24-1.83c-.11-.62-.22-1.26-.32-1.91-1,.6-2.28,1.3-3.74,2.11l-4.43,2.48q-2.23,1.26-4,2.31c-1.19.71-2.08,1.22-2.68,1.55a1.41,1.41,0,0,0-.69.65,2.23,2.23,0,0,0,0,1v.16c0,.54-.32.92-1,1.14a1.21,1.21,0,0,1-.49.08.83.83,0,0,1-.81-.49c-.27-.59-.68-1.5-1.22-2.72s-1.08-2.45-1.62-3.69-1-2.2-1.3-2.85a.4.4,0,0,0,0-.2s0-.06,0-.12c0-.27.18-.46.56-.57l2.36-.32c1.14-.22,2.45-.44,3.94-.65l4.51-.65V292.51h-2.44v4.71c0,.6-.62,1.07-1.87,1.42a13.77,13.77,0,0,1-3.73.53c-1,0-1.47-.43-1.47-1.3q0-.57.08-6.74t.09-16.25c0-5.84-.17-9.28-.49-10.31-.11-.32-.06-.54.16-.65.05-.16.27-.19.65-.08a14.58,14.58,0,0,1,2.07.81l2.88,1.34c1,.46,1.71.83,2.2,1.1h1.87v-9.58a23.4,23.4,0,0,0-.17-3.13,5,5,0,0,0-.4-1.59.68.68,0,0,1,0-.65.57.57,0,0,1,.57-.32,24.75,24.75,0,0,1,2.51.2l3.5.45c1.19.16,2,.3,2.51.41s.68.38.57,1a.72.72,0,0,1-.81.81c-.81.17-1.22.57-1.22,1.22v11.21H479a1.08,1.08,0,0,0,1-.49l1.06-1.87a.89.89,0,0,1,1.21-.4c.82.27,1.9.7,3.25,1.3a25.76,25.76,0,0,1,3.09,1.54,1.28,1.28,0,0,1,.65,1.14,1.1,1.1,0,0,1-.81,1.05,1.91,1.91,0,0,0-.65.33A2.73,2.73,0,0,0,487,272q0,3.66,0,7.39c0,2.49,0,4.81,0,6.95s0,3.91,0,5.32,0,2.19,0,2.35c0,.6-.65,1.08-1.95,1.46a13.56,13.56,0,0,1-3.82.57c-1,0-1.46-.46-1.46-1.38v-2.19h-2.6v13.56c.6-.11,1.15-.19,1.67-.24s1-.11,1.34-.16a32,32,0,0,0-1.18-3.5,18.17,18.17,0,0,0-1.59-3.08c.11-.76.49-1.09,1.14-1a29.92,29.92,0,0,1,6,3.66,8.47,8.47,0,0,1,3.25,5.28,89.45,89.45,0,0,0,1.91-13.24q.6-7.71.61-18.36,0-10.23-.29-15.39c-.19-3.43-.36-5.59-.52-6.45a.67.67,0,0,1,.16-.65.91.91,0,0,1,.81-.17c.54.22,1.37.59,2.48,1.1l3.37,1.58c1.13.55,2,1,2.52,1.31h23.38a2,2,0,0,0,1.79-.82c.27-.43.72-1.08,1.34-2s1-1.48,1.26-1.87a1.11,1.11,0,0,1,.81-.48,4.47,4.47,0,0,1,2.11,1.09c1,.74,2,1.55,3,2.44a15.52,15.52,0,0,1,2.15,2.23,2.53,2.53,0,0,1,.24.45,1.1,1.1,0,0,1,.09.45c0,.59-.28.89-.82.89H498.24v7.39H505v-1.06a24,24,0,0,0-.17-3.2,6.11,6.11,0,0,0-.4-1.67c-.17-.27-.17-.48,0-.65a.57.57,0,0,1,.57-.32c.54,0,1.4.07,2.59.2s2.37.29,3.54.45,2,.3,2.47.4a.83.83,0,0,1,.65,1.06c0,.49-.29.79-.89.89-.81.06-1.22.44-1.22,1.14v2.76H518v-1.06a20.41,20.41,0,0,0-.2-3.2,13.35,13.35,0,0,0-.37-1.67.49.49,0,0,1,0-.73.64.64,0,0,1,.57-.24c.54,0,1.41.07,2.6.2l3.57.45c1.19.16,2,.3,2.52.4a.83.83,0,0,1,.65,1.06c0,.49-.3.79-.89.89-.82.06-1.22.44-1.22,1.14v2.76h.48a1.7,1.7,0,0,0,1.38-.57c.22-.43.59-1,1.1-1.82a19.59,19.59,0,0,1,1.26-1.75,1.09,1.09,0,0,1,.81-.49,1,1,0,0,1,.73.33c.71.54,1.59,1.3,2.64,2.27a14,14,0,0,1,2.32,2.6,1.13,1.13,0,0,1,.32.81c0,.54-.24.81-.73.81H525.21c0,1,.08,1.94.08,2.73v1.34c0,.64-.66,1.15-2,1.5a15.1,15.1,0,0,1-3.86.52c-1,0-1.46-.45-1.46-1.38v-4.71h-5.85v4.31q0,1-1.95,1.5a14.63,14.63,0,0,1-3.81.53c-1,0-1.55-.46-1.55-1.38,0-.33,0-1,0-1.95s0-2,0-3h-6.66v10.08a110.59,110.59,0,0,1-1.13,16.81,59.12,59.12,0,0,1-3.29,12.62,38.47,38.47,0,0,1-5.36,9.51A48.71,48.71,0,0,1,481.11,325.32Zm-10.88-55.79h-2.44v20.54h2.44Zm9.66,0h-2.6v20.54h2.6Zm19.57,55.79c-1,0-1.46-.46-1.46-1.38,0-.27,0-1.25.08-2.92s.11-3.79.16-6.34.08-5.22.08-8,0-4.68-.12-5.93a26.38,26.38,0,0,0-.28-2.76.67.67,0,0,1,.16-.65.64.64,0,0,1,.81-.08,21.9,21.9,0,0,1,2.16.81l2.68,1.14c.89.38,1.58.7,2.07,1h5.85v-5.85H507.5v1c0,.65-.66,1.17-2,1.54a13.94,13.94,0,0,1-3.86.57,1.29,1.29,0,0,1-1.46-1.46c0-.32,0-1.26,0-2.8s.07-3.37.13-5.48.08-4.12.08-6a37.57,37.57,0,0,0-.41-6.91.7.7,0,0,1,.16-.65.56.56,0,0,1,.41-.16,7,7,0,0,1,2,.61c1,.41,2,.85,3.09,1.34s1.82.87,2.31,1.14h14.37a1.11,1.11,0,0,0,1-.49c.11-.22.28-.53.53-.93s.42-.72.53-.94a1,1,0,0,1,1.29-.4c.76.27,1.84.7,3.25,1.3a23.12,23.12,0,0,1,3.17,1.54,1.21,1.21,0,0,1,.65,1.05,1.15,1.15,0,0,1-.81,1.14l-.57.24a2,2,0,0,0-1,1.87c0,.65,0,1.66.05,3s0,2.77.08,4.26.05,2.79.08,3.9,0,1.74,0,1.91c0,.65-.66,1.16-2,1.54a14.28,14.28,0,0,1-3.94.57c-1,0-1.54-.49-1.54-1.46v-.82h-4.47v5.85h5.69c.54,0,.86-.16,1-.48s.28-.53.53-.94a8.88,8.88,0,0,1,.61-.93.77.77,0,0,1,1.13-.41,26.24,26.24,0,0,1,3.37,1.26,26.65,26.65,0,0,1,3.21,1.58,1.29,1.29,0,0,1,.65,1.14,1.11,1.11,0,0,1-.81,1.06,1.16,1.16,0,0,0-.57.32,2.24,2.24,0,0,0-1,2.11v12.43a6.9,6.9,0,0,1-2.16,5.28c-1.43,1.35-3.83,2.27-7.18,2.76a19.45,19.45,0,0,0-1-4.1,4,4,0,0,0-2-2.19,11.36,11.36,0,0,0-4.22-.86,1.07,1.07,0,0,1-.33-.81.84.84,0,0,1,.49-.81h7.55c1.09,0,1.63-.51,1.63-1.54a3.12,3.12,0,0,1-1.22.24,1.74,1.74,0,0,1-2-1.63,10.2,10.2,0,0,0-.24-1.3l-.33-1.29-4.26,1.58c-1.54.57-3,1.11-4.3,1.62s-2.35.94-3.05,1.26a2.37,2.37,0,0,0-.77.45c-.14.13-.18.39-.12.77v.16a1.38,1.38,0,0,1-.49.82,1.59,1.59,0,0,1-.65.16.63.63,0,0,1-.65-.49,14.22,14.22,0,0,1-.77-1.62c-.3-.71-.64-1.44-1-2.2v9.67c0,.65-.68,1.16-2,1.54A14.66,14.66,0,0,1,499.46,325.32Zm12.19-22.74h-6.18v7.06l.73-.08,2.48-.16,3-.16Zm0-23.31H507.5v5.2h4.15Zm0,7.39H507.5v5.44h4.15Zm11.53-7.39h-4.47v5.2h4.47Zm0,7.39h-4.47v5.44h4.47Zm2.11,15.92h-6.58v6.17l2-.08a13.53,13.53,0,0,0-1.87-3.17v-.16c0-.65.3-1,.9-1a18.17,18.17,0,0,1,3,1.21,13.15,13.15,0,0,1,2.48,1.63Z"/><path class="cls-1" d="M550.22,325.4a7.73,7.73,0,0,1-3.17-.61,2.36,2.36,0,0,1-1.38-2.39,23.72,23.72,0,0,1,.53-4.51,28.53,28.53,0,0,0,.53-5.57c0-.37,0-.75,0-1.13s-.07-.76-.12-1.14a8.83,8.83,0,0,0-1.47-4.14,7.33,7.33,0,0,0-3.49-2.68,1,1,0,0,1-.08-.41,1.06,1.06,0,0,1,.81-1.13,12,12,0,0,0,3.17.73,1.91,1.91,0,0,0,1.22-.33,2.17,2.17,0,0,0,.65-.89c.43-.92,1.14-2.28,2.11-4.06s2.1-3.82,3.37-6.09,2.6-4.62,4-7,2.72-4.73,4-7,2.45-4.23,3.45-5.93,1.77-3,2.32-3.78l.32-.08a1,1,0,0,1,1.06.81c-.27.71-.8,1.94-1.59,3.7s-1.68,3.83-2.68,6.21-2,4.9-3,7.56c.59.05,1.22.08,1.87.08h39.06a4.2,4.2,0,0,0,1.14-.13,1.36,1.36,0,0,0,.73-.69l2.84-4.06a1.36,1.36,0,0,1,1.06-.65,2,2,0,0,1,.89.25,24.54,24.54,0,0,1,2.56,1.66c1,.73,2,1.46,2.92,2.19a16.64,16.64,0,0,1,2.07,1.83,1.82,1.82,0,0,1,.41,1c0,.76-.33,1.13-1,1.13H581.81c-.7,1.14-1.42,2.25-2.15,3.33a38.2,38.2,0,0,1-2.31,3.09H602a1.31,1.31,0,0,0,1.21-.73l.57-.9c.22-.32.41-.62.57-.89a.81.81,0,0,1,1.14-.32c.65.21,1.55.58,2.72,1.09l3.45,1.55a15.91,15.91,0,0,1,2.52,1.34,1.18,1.18,0,0,1,.57,1.13A1.13,1.13,0,0,1,614,298a3.79,3.79,0,0,0-.57.2,3.33,3.33,0,0,1-.48.21A3.19,3.19,0,0,0,611.7,301a72.5,72.5,0,0,1-2.23,12.66,19.92,19.92,0,0,1-3.54,7.27,10.5,10.5,0,0,1-5.11,3.37,28.64,28.64,0,0,1-7,1.06,19.52,19.52,0,0,0-.48-4.87,4.93,4.93,0,0,0-2-2.81,11.85,11.85,0,0,0-4.31-1.58,1.46,1.46,0,0,1-.24-.73.88.88,0,0,1,.65-.89c.38,0,1,.05,2,.16s2,.2,3.21.28,2.17.13,3,.13a4.18,4.18,0,0,0,3.09-1.34c.86-.9,1.63-2.64,2.31-5.24A74.2,74.2,0,0,0,602.85,297h-3.17a38.63,38.63,0,0,1-9,13.92A42.83,42.83,0,0,1,578,319.31a86.82,86.82,0,0,1-15.43,4.95,1.21,1.21,0,0,1-.57-.73.88.88,0,0,1,.16-.89,50.63,50.63,0,0,0,11.25-5.24,38.09,38.09,0,0,0,16-20.42h-1.79a41.37,41.37,0,0,1-8.12,10,40.75,40.75,0,0,1-9.5,6.26A64.24,64.24,0,0,1,559.48,317c-.76-.38-1-.9-.57-1.55a38.4,38.4,0,0,0,10.76-7.19A31.68,31.68,0,0,0,577.35,297h-2.2a49.13,49.13,0,0,1-9,7.43,58.37,58.37,0,0,1-9.42,4.91,1.09,1.09,0,0,1-.73-1.54,33.64,33.64,0,0,0,9-8.12,40.28,40.28,0,0,0,6.29-11.54h-6.82c-.86,0-1.72,0-2.55,0s-1.59,0-2.24,0Q557.53,293.88,556,299a23.9,23.9,0,0,0-1.38,7.68,22.88,22.88,0,0,0,1,5c.49,1.51.95,3,1.38,4.46a16.91,16.91,0,0,1,.65,4.79,3.58,3.58,0,0,1-2.35,3.33A11.42,11.42,0,0,1,550.22,325.4Zm.33-39.14a3.37,3.37,0,0,1-2-.65,3.31,3.31,0,0,1-1.22-2,25.75,25.75,0,0,0-1.79-5.45,8.86,8.86,0,0,0-3.82-4.14,1.21,1.21,0,0,1-.08-.49,1.07,1.07,0,0,1,.65-1.13,20.17,20.17,0,0,1,6.74.89,11.13,11.13,0,0,1,4.79,2.88,6.56,6.56,0,0,1,1.79,4.67,5,5,0,0,1-1.66,4A5.2,5.2,0,0,1,550.55,286.26Zm6.66-18.44a3.33,3.33,0,0,1-1.91-.57,3.28,3.28,0,0,1-1.26-1.79,18.34,18.34,0,0,0-2.76-5.76,12.78,12.78,0,0,0-4.79-3.9,1.29,1.29,0,0,1-.09-.57,1,1,0,0,1,.65-1,26.86,26.86,0,0,1,10.11,1.54q4.19,1.62,4.92,5c0,.28.09.53.12.78a6.29,6.29,0,0,1,0,.77,5.32,5.32,0,0,1-1.62,4.1A5,5,0,0,1,557.21,267.82Zm12.91,15.92c-1.3,0-2-.6-2-1.79,0-.32.05-1.34.16-3s.22-3.79.33-6.26.16-4.91.16-7.35q0-5.28-.12-7.92a14,14,0,0,0-.45-3.53.6.6,0,0,1,.16-.73.56.56,0,0,1,.41-.16,11.63,11.63,0,0,1,2.35.57c1.25.38,2.62.82,4.11,1.34a38,38,0,0,1,3.61,1.42h15.76a1.36,1.36,0,0,0,1.13-.41l1.54-2.52a1,1,0,0,1,.9-.57,2.65,2.65,0,0,1,.73.17c.65.21,1.54.57,2.68,1l3.37,1.46a18.12,18.12,0,0,1,2.4,1.22,1.67,1.67,0,0,1,.73,1.46,1.34,1.34,0,0,1-1,1.39,2,2,0,0,0-.4.16l-.33.16a2.32,2.32,0,0,0-1,1.95c0,1.25,0,2.81.08,4.71s.12,3.79.2,5.69.15,3.53.2,4.91.08,2.23.08,2.56c0,.54-.44,1-1.34,1.42a14.52,14.52,0,0,1-3.24,1,18.85,18.85,0,0,1-3.62.37c-1.3,0-1.95-.6-1.95-1.79v-1.46H578v1.87c0,.54-.42,1-1.26,1.42a11.9,11.9,0,0,1-3.09.93A19.92,19.92,0,0,1,570.12,283.74Zm25.74-25H578v7.48h17.86Zm0,9.91H578v8.12h17.86Z"/><path class="cls-1" d="M111,175.2a1,1,0,0,1-.73-1.46,47.92,47.92,0,0,0,10.68-8,41.59,41.59,0,0,0,8.49-12.63,2.54,2.54,0,0,1-.73.16,3.78,3.78,0,0,1-2.56-.73,2.5,2.5,0,0,1-.94-2.44,9.36,9.36,0,0,0,.09-1.3v-1.21a13.51,13.51,0,0,0-.17-2.16,6.36,6.36,0,0,0-.57-1.82c-.7.86-1.4,1.7-2.11,2.51s-1.41,1.6-2.11,2.36l.33,13.16c0,.7-.73,1.28-2.2,1.74a14.77,14.77,0,0,1-4.46.69c-1.25,0-1.87-.57-1.87-1.7V160h-4.31v7.39c0,.81-.66,1.45-2,1.91a13.12,13.12,0,0,1-4.34.69,1.58,1.58,0,0,1-1.79-1.79c0-.26,0-1.13.08-2.59s.11-3.31.17-5.53.1-4.6.16-7.14.08-5,.08-7.39v-2q-1.3,1.78-2.68,3.45t-2.76,3.21h-.16a1.08,1.08,0,0,1-1.14-1.06,44.06,44.06,0,0,0,5-10.88,97.82,97.82,0,0,0,3.25-13.44c.82-4.74,1.38-9.38,1.71-13.93h-.89c-2.77.05-5,.13-6.75.24L94.93,108c2.11.21,4.66.35,7.64.4h11.77a1.88,1.88,0,0,0,1.63-.81l2.35-3.33a1.15,1.15,0,0,1,.89-.49,1.2,1.2,0,0,1,.65.16,16,16,0,0,1,2,1.47c.76.65,1.49,1.32,2.2,2a13.39,13.39,0,0,1,1.54,1.78,1.14,1.14,0,0,1,.32.82c0,.54-.24.81-.73.81H113.53a71.1,71.1,0,0,1-5.69,19.49h3.33a1.17,1.17,0,0,0,1.14-.65,10.56,10.56,0,0,0,.65-1.06,10.15,10.15,0,0,1,.65-1,1,1,0,0,1,1.38-.41,28.72,28.72,0,0,1,3.66,1.46c1.51.71,2.68,1.3,3.49,1.79a1.21,1.21,0,0,1,.73,1.22,1.36,1.36,0,0,1-1,1.3l-.37.2a1.76,1.76,0,0,0-.37.29c-.59.37-.89,1.19-.89,2.43v8.93a56.8,56.8,0,0,0,3.49-9.86,74.81,74.81,0,0,0,2-10.52c-.32,0-.65.1-1,.12s-.68,0-1.06,0a3.7,3.7,0,0,1-3-1.22,4.18,4.18,0,0,1-1-2.76,5.09,5.09,0,0,1,.89-2.76,4.8,4.8,0,0,1,2.69-2,16,16,0,0,0,3-1.34,4.28,4.28,0,0,0,1.71-1.91,11.8,11.8,0,0,0,1-3.73,1.8,1.8,0,0,1,.89-.41.9.9,0,0,1,.82.41c.1.65.18,1.28.24,1.91s.11,1.23.16,1.82h9v-3.57a31.19,31.19,0,0,0-.21-4.1,6.41,6.41,0,0,0-.52-2.07.85.85,0,0,1-.09-.81.9.9,0,0,1,.82-.41c.65,0,1.7.08,3.16.24s2.91.36,4.35.57,2.48.41,3.13.57a1,1,0,0,1,.81,1.06,1.18,1.18,0,0,1-1.14,1.3c-1,.16-1.54.67-1.54,1.54v5.68h7.79a1.55,1.55,0,0,0,1.22-.56,17.21,17.21,0,0,1,1.22-1.26c.49-.46.92-.86,1.3-1.18a1.34,1.34,0,0,1,1-.41c.44,0,.71.14.82.41a24.86,24.86,0,0,1,2.07,2q1.33,1.38,2.64,2.76c.86.92,1.46,1.6,1.78,2a1.92,1.92,0,0,1,.49,1.3,1.24,1.24,0,0,1,0,.33,2.56,2.56,0,0,1-.12.32,1.4,1.4,0,0,1-1.38,1h-1.87c-.65,0-1.27,0-1.87.08a16.87,16.87,0,0,0-4.63,1.26,15.37,15.37,0,0,0-3.73,2.32h-.25a1,1,0,0,1-1.13-.89c.43-1,.92-2.24,1.46-3.62s1-2.5,1.38-3.37H131.15a14.88,14.88,0,0,1-.81,5.28c.27.05.91.2,1.91.45s2,.48,2.92.73,1.48.39,1.59.44a.89.89,0,0,1,.65,1.14.94.94,0,0,1-1.06,1.06,1.93,1.93,0,0,0-1.95,1.46,53.28,53.28,0,0,1-2,5h1.63a1.17,1.17,0,0,0,1-.4,8.53,8.53,0,0,1,.85-1.1c.41-.46.72-.82.94-1.09s.67-.38,1.22-.17,1.51.75,2.76,1.42,2.27,1.26,3.08,1.75a37.18,37.18,0,0,0-.2-4.14,12.61,12.61,0,0,0-.45-2.44.58.58,0,0,1,0-.57.84.84,0,0,1,.74-.16,17.47,17.47,0,0,1,2.35.73c1,.38,2.1.79,3.21,1.22a22.15,22.15,0,0,1,2.56,1.14h3.33a1.18,1.18,0,0,0,1.13-.57,9.17,9.17,0,0,1,.57-1.1,10.93,10.93,0,0,1,.65-1,1,1,0,0,1,1.38-.41,29.09,29.09,0,0,1,3.45,1.42c1.44.68,2.53,1.23,3.29,1.67a1.47,1.47,0,0,1,.73,1.3,1.19,1.19,0,0,1-.89,1.21l-.57.25a2.64,2.64,0,0,0-1.14,2.52v5.11q0,4.06.13,7.39t.12,4.71q0,3.66-1.95,5.4c-1.3,1.17-3.77,2-7.39,2.4a18,18,0,0,0-.85-5.16,3.24,3.24,0,0,0-2.48-1.82v13.4a1.81,1.81,0,0,0,.49,1.46,2.88,2.88,0,0,0,1.78.4,18,18,0,0,0,3-.08c1.11-.11,1.93-.21,2.47-.32a3.2,3.2,0,0,0,1.55-.81,7.17,7.17,0,0,0,.89-1.55q.33-.81.93-2.64c.41-1.22.8-2.43,1.18-3.65s.65-2,.81-2.48a1.41,1.41,0,0,1,.65-.24,1,1,0,0,1,1,.57c-.06.7-.14,1.63-.25,2.8s-.2,2.29-.28,3.37-.15,1.81-.2,2.19v.25a1.15,1.15,0,0,0,.24.81,4.12,4.12,0,0,0,.81.57,4.58,4.58,0,0,1,2.85,4.38,4.21,4.21,0,0,1-1.1,2.92,7.16,7.16,0,0,1-3.7,1.87,30.31,30.31,0,0,1-5.36.73c-2.32.17-4.52.25-6.57.25-.82,0-1.58,0-2.28,0s-1.3-.07-1.79-.13a7.07,7.07,0,0,1-3.69-1,3,3,0,0,1-1.1-2.6V134.19a1.67,1.67,0,0,1-.4.16,2.73,2.73,0,0,0-1.22,2.27q-1.71,11.06-5.93,18.4a39.07,39.07,0,0,1-10.64,12.1A65.81,65.81,0,0,1,111,175.2Zm1.14-42.4h-4.31v24.78h4.31Zm20.14,12.51c.49-1.84.93-3.76,1.34-5.76a59.64,59.64,0,0,0,.93-6.42h-3.24a46.34,46.34,0,0,1-2.32,4.22q-1.26,2-2.64,3.9a14.34,14.34,0,0,1,3.49,1.59A6.78,6.78,0,0,1,132.29,145.31Zm24.12-16h-4.79v19h3.09c1.13,0,1.7-.54,1.7-1.63Z"/><circle class="cls-2" cx="424.56" cy="234.39" r="223.09"/><circle class="cls-2" cx="96.23" cy="107.16" r="95.86"/><path class="cls-1" d="M94.59,0,74.15,92.78H57L73.23,18.87l-3.54-3.41L92.36,0Z"/><polygon class="cls-1" points="353.66 211.45 353.66 320.79 176.75 149.37 174.58 151.61 351.39 322.93 242.18 322.93 242.18 325.93 356.66 325.93 356.66 211.45 353.66 211.45"/></g></g></g></svg>