<?xml version="1.0" encoding="utf-8"?>
<!-- Generator: Adobe Illustrator 25.0.1, SVG Export Plug-In . SVG Version: 6.00 Build 0)  -->
<svg version="1.1" id="Layer_1" xmlns="http://www.w3.org/2000/svg" xmlns:xlink="http://www.w3.org/1999/xlink" x="0px" y="0px"
	 viewBox="0 0 98 1089.1" style="enable-background:new 0 0 98 1089.1;" xml:space="preserve">
<style type="text/css">
	.st0{fill:#FFFFFF;}
	.st1{fill:none;stroke:#FFFFFF;stroke-width:2.39;stroke-miterlimit:10;}
</style>
<path class="st0" d="M47.7,75.7l-14.6-3.3l11,12.2l-0.5,1L23.9,70.4l7.6-10.9l16.3,3.6c5.2,1.2,21.4,17.3,21.4,10.6
	c0-10.6-42.1-25.5-45.2-28V33.2l67.8,14.6v1.5L80.3,61l-2.5-3.7l-45.5-9.8c13.8,6.9,38.1,15.3,38.1,27.5
	C70.4,81.4,63.9,79.3,47.7,75.7z"/>
<path class="st0" d="M45.9,87.5c14,2.7,24.2,12.5,24.2,20.7c0,5-3.8,14-7.6,17l6.5,9.6L33.1,127l11.1,12.2l-0.5,1l-19.8-15V125
	l0.2-0.1l7.3-10.6l14.6,3.2c-12.3-5.1-23.5-9.2-23.5-14.8C22.4,93.7,35.3,85.4,45.9,87.5z M61.6,123.9c2.2-1.4,3.1-4,3.1-6.8
	c0-12.8-17.5-19.3-27.9-22.2c-5.5-1.5-9.9-0.9-9.9,2.1c0,8.7,15.1,16,26.6,22l0.4,0.1l2.5-2.6L61.6,123.9z"/>
<path class="st0" d="M47.7,186.6L32,183.1c13.7,7.3,38.3,17.1,38.3,29.3c0,6.2-6.4,4.2-22.6,0.7l-14.6-3.3l11,12.1l-0.5,1
	l-19.8-15.1l7.5-10.9l16.4,3.6c5.2,1,21.3,17.2,21.3,10.6c0-10.6-42-27.3-45.2-29.8l7.5-10.9l16.4,3.6c5.2,1,21.3,17.2,21.3,10.6
	c0-10.6-42-27.3-45.2-29.8v-12.6l35.6,7.9l-10.7-11.8l0.5-1l19.4,14.8l0.5,0.1v1.5l-11.2,11.7l-2.6-3.7l-23.1-5.1
	c13.7,7.2,38.2,17,38.2,29.2C70.4,192.2,63.9,190.2,47.7,186.6z"/>
<path class="st0" d="M51.2,272.6l-4.2-1l0.8-2.2v-40.7l-0.7-2.6l4.2,1l-0.8,2.2V270L51.2,272.6z"/>
<path class="st0" d="M45.9,282c14,2.7,24.2,12.5,24.2,20.7c0,5-3.8,14-7.6,17l6.5,9.7l-36-7.9l11.1,12.2l-0.5,1l-19.8-15v-0.2
	l0.2-0.1l7.3-10.6l14.6,3.2c-12.3-5.1-23.5-9.2-23.5-14.8C22.4,288.1,35.3,279.9,45.9,282z M61.6,318.4c2.2-1.4,3.1-4,3.1-6.8
	c0-12.8-17.5-19.3-27.9-22.2c-5.5-1.5-9.9-0.9-9.9,2.1c0,8.7,15.1,16,26.6,22l0.4,0.1l2.5-2.5L61.6,318.4z M85.5,308.5l0.1,8.2
	l-10.2-12.2v-4.8L85.5,308.5z"/>
<path class="st0" d="M47.7,592.5l-14.6-3.3l11,12.2l-0.5,1l-19.8-15.2l7.6-10.9l16.3,3.7c5.2,1.2,21.4,17.2,21.4,10.6
	c0-10.6-42.1-25.5-45.2-28V550l67.8,14.6v1.5l-11.3,11.7l-2.5-3.7l-45.5-9.8c13.8,6.9,38.1,15.3,38.1,27.5
	C70.4,598.1,63.9,596,47.7,592.5z"/>
<path class="st0" d="M45.9,604.3c14,2.7,24.2,12.5,24.2,20.7c0,5-3.8,14-7.6,17l6.5,9.6l-36-7.9l11.1,12.2l-0.5,1l-19.8-15.1v-0.2
	l0.2-0.1l7.3-10.7l14.6,3.2c-12.3-5.1-23.5-9.2-23.5-14.8C22.4,610.4,35.3,602.2,45.9,604.3z M61.6,640.7c2.2-1.4,3.1-4,3.1-6.8
	c0-12.8-17.5-19.3-27.9-22.2c-5.5-1.5-9.9-0.9-9.9,2.1c0,8.7,15.1,16,26.6,22l0.4,0.1l2.5-2.6L61.6,640.7z"/>
<path class="st0" d="M47.7,703.4L32,699.8c13.7,7.3,38.3,17.1,38.3,29.3c0,6.2-6.4,4.2-22.6,0.7l-14.6-3.3l11,12.1l-0.5,1l-19.8-15
	l7.5-10.9l16.4,3.6c5.2,1,21.3,17.2,21.3,10.5c0-10.6-42-27.3-45.2-29.8l7.5-10.9l16.4,3.6c5.2,1,21.3,17.3,21.3,10.6
	c0-10.6-42-27.3-45.2-29.8v-12.6l35.6,7.9l-10.7-11.8l0.5-1L68.5,669l0.5,0.1v1.5l-11.2,11.7l-2.6-3.7l-23.1-5.1
	c13.7,7.2,38.2,17,38.2,29.2C70.4,709,63.9,706.9,47.7,703.4z"/>
<path class="st0" d="M51.2,789.4l-4.2-1l0.8-2.2v-40.7l-0.7-2.6l4.2,1l-0.8,2.2v40.7L51.2,789.4z"/>
<path class="st0" d="M45.9,798.8c14,2.7,24.2,12.5,24.2,20.7c0,5-3.8,14-7.6,17l6.5,9.6l-36-7.9l11.1,12.2l-0.5,1l-19.8-15v-0.2
	l0.2-0.1l7.3-10.7l14.6,3.2c-12.3-5.1-23.5-9.2-23.5-14.8C22.4,804.9,35.3,796.7,45.9,798.8z M61.6,835.2c2.2-1.4,3.1-4,3.1-6.8
	c0-12.8-17.5-19.3-27.9-22.2c-5.5-1.5-9.9-0.9-9.9,2.1c0,8.7,15.1,16,26.6,22l0.4,0.1l2.5-2.6L61.6,835.2z M85.5,825.3l0.1,8.2
	l-10.2-12.3v-4.8L85.5,825.3z"/>
<line class="st1" x1="26.1" y1="838.1" x2="26.1" y2="1354.6"/>
<line class="st1" x1="26.1" y1="-5.9" x2="26.1" y2="2092.8"/>
<circle class="st1" cx="34.1" cy="408.1" r="34.1"/>
<circle class="st1" cx="34.1" cy="476.4" r="34.1"/>
<path class="st0" d="M20.7,428.8c-0.1,0.1-0.2,0.1-0.4,0.1c-0.2,0-0.4-0.1-0.5-0.4c-0.1-0.3-0.3-0.7-0.6-1.4l-0.9-2.1
	c-0.3-0.8-0.6-1.5-0.9-2.2l-0.6-1.6V421c0.1-0.1,0.2-0.2,0.3-0.2l1.4-0.1c1.8-0.2,3.9-0.4,6.5-0.6v-9.9h-2v3c0,0.4-0.4,0.8-1.2,1
	c-0.8,0.3-1.7,0.4-2.5,0.4c-0.5,0.1-0.9-0.2-1-0.7c0-0.1,0-0.2,0-0.3c0-0.2,0-1,0-2.5c0-1.5,0-3.3,0.1-5.6s0.1-4.7,0.1-7.3
	c0-2.1,0-3.8-0.1-4.9c0-0.8-0.1-1.5-0.3-2.2c-0.1-0.1-0.1-0.3,0-0.4c0.1-0.1,0.1-0.1,0.2-0.1c0.4,0.1,0.9,0.2,1.3,0.4l2.2,0.9
	c0.8,0.3,1.4,0.6,1.7,0.8h1.5v-6.2c0-0.7,0-1.4-0.1-2.1c-0.1-0.4-0.1-0.7-0.2-1.1c-0.1-0.1-0.1-0.3,0-0.5c0.1-0.1,0.2-0.2,0.4-0.2
	c0.6,0,1.1,0.1,1.7,0.2l2.3,0.3c0.8,0.1,1.3,0.2,1.7,0.3c0.3,0,0.5,0.3,0.5,0.6c0,0,0,0.1,0,0.1c0,0.3-0.1,0.5-0.4,0.6
	c-0.1,0-0.1,0-0.2,0c-0.6,0.1-0.8,0.4-0.8,0.8v7.3h1.3c0.3,0,0.6-0.1,0.7-0.4l0.8-1.2c0.1-0.3,0.5-0.5,0.8-0.3c0,0,0,0,0,0
	c0.5,0.2,1.2,0.5,2.2,0.9s1.6,0.8,2.1,1c0.3,0.1,0.5,0.4,0.5,0.8c0,0.4-0.2,0.7-0.6,0.8c-0.1,0-0.2,0.1-0.3,0.1
	c-0.1,0-0.2,0.1-0.2,0.2c-0.4,0.3-0.6,0.9-0.6,1.4c0,0.8,0,1.5,0,2.4s0,1.7,0,2.6c1.3-1.7,2.5-3.4,3.5-5.3c1.1-2,2-4,2.9-6.1
	c0.7-1.8,1.3-3.6,1.6-5.5c0.1-0.3,0.1-0.5,0.1-0.8c0-0.2,0-0.5,0.1-0.7c0-0.2,0.1-0.4,0.2-0.5c0.1-0.1,0.3-0.1,0.5,0
	c0.5,0.1,1.3,0.3,2.2,0.6s1.9,0.6,2.9,0.9s1.7,0.5,2.1,0.7c0.2,0.1,0.3,0.3,0.3,0.6c0,0.2-0.1,0.3-0.2,0.5c-0.1,0.2-0.3,0.2-0.5,0.2
	h0c0.9,1.8,2.1,3.4,3.5,4.8c1.5,1.5,3.1,2.8,4.9,3.8c1.7,1,3.5,1.8,5.3,2.5c-0.8,0.5-1.5,1-2.2,1.6c-0.7,0.7-1.4,1.4-2,2.2
	c-0.5,0.7-0.9,1.4-1.3,2.1c-2.6-1.9-4.7-4.4-6.2-7.2c-1.6-3-2.8-6.1-3.4-9.5c-0.2,0.2-0.3,0.4-0.4,0.7c-1,2.3-2.3,4.4-3.8,6.4
	c-1.5,2-3.1,3.9-4.9,5.7c-1.6,1.6-3.4,3-5.3,4.2c0,1.4,0.1,2.7,0.1,3.9s0,2.2,0,3s0,1.2,0,1.3c0,0.5-0.4,0.8-1.3,1.1
	c-0.8,0.3-1.7,0.4-2.6,0.4c-0.7,0-1-0.3-1-1v-1.3h-2v9.6c0.5-0.1,1.1-0.1,1.5-0.2l1.3-0.1c-0.2-0.8-0.5-1.7-0.9-2.5
	c-0.3-0.8-0.8-1.5-1.3-2.1c-0.1-0.4,0.2-0.7,0.6-0.8c0.1,0,0.1,0,0.2,0c1.3,0.6,2.5,1.4,3.7,2.2c1.1,0.8,2,1.8,2.8,2.9
	c0.7,1.1,1.1,2.5,1.1,3.8c0.1,1-0.4,2-1.2,2.7c-0.7,0.6-1.5,0.9-2.4,0.9c-0.4,0-0.8-0.1-1.2-0.4c-0.4-0.3-0.5-0.7-0.5-1.1
	c0-0.7-0.1-1.4-0.2-2.1s-0.2-1.4-0.3-2c-0.8,0.4-1.8,0.8-2.9,1.4s-2.2,1.1-3.3,1.7l-3,1.5c-0.9,0.5-1.6,0.8-2.1,1.1
	c-0.2,0.1-0.4,0.2-0.5,0.4c-0.1,0.2-0.1,0.4,0,0.6v0.2C21.1,428.5,20.9,428.7,20.7,428.8z M24.9,394.3h-2v14.4h2V394.3z M31.6,394.3
	h-2v14.4h2V394.3z M41.1,429.1c-0.9,0-1.3-0.4-1.3-1.2c0-0.2,0-1,0.1-2.1s0.1-2.6,0.2-4.4s0.1-3.5,0.1-5.4c0-2.5,0-4.3-0.1-5.6
	c0-0.8-0.1-1.7-0.4-2.5c0-0.1,0-0.3,0.1-0.4c0.1-0.1,0.3-0.2,0.4-0.2c0.5,0.1,1.2,0.4,2,0.6s1.6,0.6,2.3,0.9s1.4,0.6,1.9,0.9h6.6
	c0.3,0,0.6-0.1,0.8-0.4l0.9-1.6c0.1-0.2,0.4-0.4,0.6-0.4h0.2l0.2,0.1c0.9,0.3,1.8,0.6,2.6,1.1c1,0.5,1.9,0.9,2.5,1.3
	c0.4,0.2,0.6,0.5,0.6,0.9c0,0.5-0.3,0.9-0.7,1l-0.3,0.1c-0.1,0-0.2,0.1-0.3,0.2c-0.5,0.5-0.8,1.2-0.7,1.9c0,1,0,2.2,0,3.6
	s0.1,2.7,0.2,4s0.2,2.5,0.2,3.3s0,1.4,0,1.6c0,0.5-0.5,1-1.5,1.3c-1,0.3-2.1,0.5-3.2,0.5c-0.9,0-1.3-0.4-1.3-1.2v-2.5h-8v2.8
	c0,0.5-0.5,1-1.5,1.3C43.3,428.9,42.2,429.1,41.1,429.1z M40.3,403.4l-0.6-2c1.4,0.1,3,0.2,4.9,0.3h5c0.4,0,0.8-0.2,1-0.5l0.8-1.3
	c0.4-0.6,0.6-1,0.8-1.2s0.4-0.4,0.6-0.4c0.1,0,0.2,0,0.3,0.1c0.1,0,0.2,0.1,0.3,0.1c0.5,0.3,0.9,0.6,1.3,1c0.5,0.5,1,0.9,1.5,1.4
	c0.4,0.4,0.8,0.8,1.1,1.2c0.1,0.2,0.2,0.4,0.2,0.6c0,0.4-0.2,0.6-0.6,0.6H44.7C42.9,403.2,41.4,403.3,40.3,403.4z M53.9,411.4h-8.1
	V423h8.1V411.4z"/>
<path class="st0" d="M30.8,500.4c-0.5,0-0.8-0.2-0.8-0.7c0.9-1,1.7-2.1,2.3-3.3c0.7-1.3,1.4-2.6,1.9-4c-0.3,0.3-0.7,0.5-1.1,0.6
	c-0.2,0.1-0.4,0.1-0.6,0.1c-0.4,0-0.7-0.1-1-0.4c-0.3-0.3-0.5-0.6-0.5-1c0-0.4-0.1-0.8-0.2-1.2s-0.1-0.8-0.2-1.2
	c-0.7,0.4-1.5,0.8-2.4,1.4l-2.8,1.6c-1,0.5-1.8,1-2.6,1.5s-1.3,0.8-1.7,1c-0.2,0.1-0.3,0.2-0.4,0.4c0,0.2,0,0.4,0,0.6v0.1
	c0,0.4-0.2,0.6-0.6,0.7c-0.1,0-0.2,0.1-0.3,0c-0.2,0-0.4-0.1-0.5-0.3l-0.8-1.7c-0.3-0.8-0.7-1.6-1-2.4s-0.6-1.4-0.8-1.8
	c0,0,0-0.1,0-0.1c0,0,0-0.1,0-0.1c0-0.2,0.1-0.3,0.4-0.4l1.5-0.2c0.7-0.1,1.6-0.3,2.5-0.4l2.9-0.4v-9.3h-1.6v3
	c0,0.4-0.4,0.7-1.2,0.9c-0.8,0.2-1.6,0.3-2.4,0.3c-0.6,0-0.9-0.3-0.9-0.8c0-0.2,0-1.7,0-4.3s0-6.1,0-10.4c0.1-2.2,0-4.4-0.3-6.6
	c-0.1-0.2,0-0.3,0.1-0.4s0.2-0.1,0.4,0c0.5,0.1,0.9,0.3,1.3,0.5c0.6,0.3,1.2,0.6,1.8,0.9s1.1,0.5,1.4,0.7h1.2v-6.1
	c0-0.7,0-1.3-0.1-2c0-0.3-0.1-0.7-0.3-1c-0.1-0.1-0.1-0.3,0-0.4c0.1-0.1,0.2-0.2,0.4-0.2c0.5,0,1.1,0.1,1.6,0.1
	c0.7,0.1,1.5,0.2,2.2,0.3s1.3,0.2,1.6,0.3s0.4,0.2,0.4,0.6c0,0.3-0.1,0.5-0.4,0.5c0,0-0.1,0-0.1,0c-0.5,0.1-0.8,0.4-0.8,0.8v7.1h1.1
	c0.2,0,0.5-0.1,0.6-0.3l0.7-1.2c0.1-0.3,0.5-0.4,0.8-0.3c0,0,0,0,0,0c0.5,0.2,1.2,0.5,2.1,0.8c0.7,0.3,1.4,0.6,2,1
	c0.2,0.1,0.4,0.4,0.4,0.6c0,0.3-0.2,0.6-0.5,0.7c-0.2,0-0.3,0.1-0.4,0.2c-0.4,0.4-0.6,0.9-0.5,1.5c0,1.6,0,3.1,0,4.7
	c0,1.6,0,3.1,0,4.4s0,2.5,0,3.4s0,1.4,0,1.5c0,0.4-0.4,0.7-1.2,0.9c-0.8,0.2-1.6,0.4-2.4,0.4c-0.6,0-0.9-0.3-0.9-0.9v-1.4h-1.6v8.6
	c0.4-0.1,0.7-0.1,1.1-0.1l0.9-0.1c-0.2-0.8-0.5-1.5-0.8-2.2c-0.3-0.7-0.6-1.4-1-2c0.1-0.5,0.3-0.7,0.7-0.6c1.4,0.6,2.6,1.4,3.8,2.3
	c1.1,0.8,1.8,2,2.1,3.4c0.6-2.8,1-5.6,1.2-8.4c0.3-3.3,0.4-7.2,0.4-11.7c0-4.3-0.1-7.6-0.2-9.8c-0.1-2.2-0.2-3.6-0.3-4.1
	c0-0.1,0-0.3,0.1-0.4c0.2-0.1,0.3-0.1,0.5-0.1c0.3,0.1,0.9,0.4,1.6,0.7s1.4,0.7,2.2,1s1.3,0.6,1.6,0.8h14.9c0.4,0,0.9-0.2,1.1-0.5
	c0.2-0.3,0.5-0.7,0.8-1.2c0.3-0.4,0.6-0.8,0.8-1.2c0.1-0.2,0.3-0.3,0.5-0.3c0.5,0.1,1,0.4,1.3,0.7c0.6,0.5,1.2,1,1.9,1.6
	c0.5,0.4,1,0.9,1.4,1.5c0.1,0.1,0.1,0.2,0.2,0.3c0,0.1,0,0.2,0,0.3c0,0.4-0.2,0.6-0.5,0.6h-23v4.7H46v-0.7c0-0.7,0-1.3-0.1-2
	c0-0.4-0.1-0.7-0.3-1.1c-0.1-0.2-0.1-0.3,0-0.4c0.1-0.1,0.2-0.2,0.4-0.2c0.3,0,0.9,0,1.7,0.1s1.5,0.2,2.2,0.3s1.3,0.2,1.6,0.3
	c0.3,0,0.5,0.3,0.4,0.6c0,0,0,0.1,0,0.1c0,0.3-0.2,0.5-0.6,0.6c-0.5,0-0.8,0.3-0.8,0.7v1.8h3.7v-0.7c0-0.7,0-1.3-0.1-2
	c-0.1-0.4-0.1-0.7-0.2-1.1c-0.1-0.1-0.1-0.3,0-0.4c0,0,0,0,0,0c0.1-0.1,0.2-0.2,0.4-0.2c0.3,0,0.9,0,1.7,0.1s1.5,0.2,2.3,0.3
	s1.3,0.2,1.6,0.3c0.3,0,0.5,0.3,0.4,0.6c0,0,0,0.1,0,0.1c0,0.3-0.2,0.5-0.6,0.6c-0.5,0-0.8,0.3-0.8,0.7v1.8h0.3
	c0.3,0,0.7-0.1,0.9-0.4c0.1-0.3,0.4-0.7,0.7-1.2s0.6-0.9,0.8-1.1c0.1-0.2,0.3-0.3,0.5-0.3c0.2,0,0.3,0.1,0.5,0.2
	c0.5,0.4,1,0.8,1.7,1.5c0.6,0.5,1.1,1,1.5,1.7c0.1,0.1,0.2,0.3,0.2,0.5c0,0.3-0.2,0.5-0.5,0.5h-6.6c0,0.6,0,1.2,0,1.7v0.9
	c0,0.4-0.4,0.7-1.3,1c-0.8,0.2-1.6,0.3-2.5,0.3c-0.6,0-0.9-0.3-0.9-0.9v-3h-3.7v2.7c0,0.4-0.4,0.7-1.2,1c-0.8,0.2-1.6,0.3-2.4,0.3
	c-0.7,0-1-0.3-1-0.9c0-0.2,0-0.6,0-1.2s0-1.3,0-1.9h-4.2v6.4c0,3.5-0.2,7.1-0.7,10.6c-0.4,2.8-1.1,5.5-2.1,8.1
	c-0.9,2.2-2,4.2-3.4,6.1C34.1,497.4,32.5,499,30.8,500.4z M23.8,464.8h-1.5v13.1h1.5V464.8z M30,464.8h-1.6v13.1H30L30,464.8z
	 M42.5,500.4c-0.6,0-0.9-0.3-0.9-0.9c0-0.2,0-0.8,0-1.9s0.1-2.4,0.1-4s0-3.3,0-5.1s0-3-0.1-3.8s-0.1-1.4-0.2-1.8
	c0-0.1,0-0.3,0.1-0.4c0.1-0.1,0.4-0.2,0.5,0c0.5,0.1,0.9,0.3,1.4,0.5l1.7,0.7c0.6,0.2,1,0.5,1.3,0.6h3.7v-3.7h-2.6v0.6
	c0,0.4-0.4,0.8-1.3,1c-0.8,0.2-1.6,0.4-2.5,0.4c-0.5,0.1-0.9-0.3-0.9-0.7c0-0.1,0-0.2,0-0.2c0-0.2,0-0.8,0-1.8s0-2.1,0.1-3.5
	s0-2.6,0-3.8c0-1.5,0-2.9-0.3-4.4c0-0.1,0-0.3,0.1-0.4c0.1-0.1,0.2-0.1,0.3-0.1c0.4,0.1,0.9,0.2,1.3,0.4c0.6,0.3,1.3,0.5,2,0.9
	s1.2,0.5,1.5,0.7h9.2c0.2,0,0.5-0.1,0.6-0.3c0.1-0.1,0.2-0.3,0.3-0.6l0.3-0.6c0.2-0.3,0.5-0.4,0.8-0.3c0.5,0.2,1.2,0.5,2.1,0.8
	c0.7,0.3,1.4,0.6,2,1c0.3,0.1,0.4,0.4,0.4,0.7c0,0.3-0.2,0.6-0.5,0.7l-0.4,0.1c-0.4,0.2-0.7,0.7-0.6,1.2c0,0.4,0,1.1,0,1.9
	s0,1.8,0,2.7s0,1.8,0.1,2.5s0,1.1,0,1.2c0,0.4-0.4,0.7-1.3,1c-0.8,0.2-1.7,0.4-2.5,0.4c-0.7,0-1-0.3-1-0.9v-0.5h-2.7v3.7h3.6
	c0.3,0,0.5-0.1,0.6-0.3s0.2-0.3,0.3-0.6s0.3-0.5,0.4-0.6c0.1-0.3,0.4-0.4,0.6-0.3c0,0,0.1,0,0.1,0c0.7,0.2,1.5,0.5,2.2,0.8
	c0.7,0.3,1.4,0.6,2.1,1c0.3,0.1,0.4,0.4,0.4,0.7c0,0.3-0.2,0.6-0.5,0.7c-0.1,0-0.3,0.1-0.4,0.2c-0.4,0.3-0.7,0.8-0.6,1.4v7.9
	c0,1.3-0.5,2.5-1.4,3.4c-1.3,1-2.9,1.6-4.6,1.8c-0.1-0.9-0.3-1.8-0.7-2.6c-0.2-0.6-0.7-1.1-1.3-1.4c-0.9-0.4-1.8-0.5-2.7-0.5
	c-0.1-0.1-0.2-0.3-0.2-0.5c0-0.2,0.1-0.4,0.3-0.5h4.8c0.7,0,1-0.3,1-1c-0.2,0.1-0.5,0.2-0.8,0.2c-0.6,0.1-1.2-0.4-1.2-1c0,0,0,0,0,0
	c0-0.3-0.1-0.6-0.2-0.8l-0.2-0.8l-2.7,1l-2.8,1c-0.8,0.3-1.5,0.6-1.9,0.8c-0.2,0.1-0.3,0.2-0.5,0.3c-0.1,0.1-0.1,0.2-0.1,0.5v0.1
	c0,0.2-0.1,0.4-0.3,0.5c-0.1,0.1-0.3,0.1-0.4,0.1c-0.2,0-0.4-0.1-0.4-0.3c-0.2-0.3-0.3-0.7-0.5-1c-0.2-0.5-0.4-0.9-0.7-1.4v6
	c0,0.4-0.4,0.8-1.3,1C44.2,500.2,43.3,500.4,42.5,500.4z M50.2,485.9h-3.9v4.5l0.5,0l1.6-0.1l1.9-0.1L50.2,485.9z M50.2,471h-2.6
	v3.3h2.6V471z M50.2,475.7h-2.6v3.5h2.6V475.7z M57.6,471h-2.9v3.3h2.8L57.6,471z M57.6,475.7h-2.9v3.5h2.8L57.6,475.7z M59,485.9
	h-4.2v3.9l1.3,0c-0.3-0.7-0.7-1.4-1.2-2v-0.1c0-0.4,0.2-0.6,0.6-0.6c0.7,0.2,1.3,0.5,1.9,0.8c0.6,0.3,1.1,0.6,1.6,1L59,485.9z"/>
<circle class="st1" cx="34.1" cy="924.6" r="34.1"/>
<circle class="st1" cx="34.1" cy="992.8" r="34.1"/>
<path class="st0" d="M20.7,945.2c-0.1,0.1-0.2,0.1-0.4,0.1c-0.2,0-0.4-0.1-0.5-0.4c-0.1-0.3-0.3-0.7-0.6-1.3l-0.9-2.1
	c-0.3-0.8-0.6-1.5-0.9-2.2l-0.6-1.6v-0.3c0.1-0.1,0.2-0.2,0.3-0.2l1.4-0.2c1.8-0.2,3.9-0.4,6.5-0.6v-10h-2v3c0,0.4-0.4,0.8-1.2,1
	c-0.8,0.3-1.7,0.4-2.5,0.4c-0.5,0.1-0.9-0.2-1-0.7c0-0.1,0-0.2,0-0.3c0-0.2,0-1,0-2.5c0-1.5,0-3.3,0.1-5.6s0.1-4.7,0.1-7.3
	c0-2.1,0-3.8-0.1-4.9c0-0.8-0.1-1.5-0.3-2.2c-0.1-0.1-0.1-0.3,0-0.4c0.1-0.1,0.1-0.1,0.2-0.1c0.4,0.1,0.9,0.2,1.3,0.4l2.2,0.9
	c0.8,0.3,1.4,0.6,1.7,0.8h1.5V903c0-0.7,0-1.4-0.1-2.1c-0.1-0.4-0.1-0.7-0.2-1.1c-0.1-0.1-0.1-0.3,0-0.5c0.1-0.1,0.2-0.2,0.4-0.2
	c0.6,0,1.1,0.1,1.7,0.2l2.3,0.3c0.8,0.1,1.3,0.2,1.7,0.3c0.3,0,0.5,0.3,0.4,0.6c0,0,0,0,0,0.1c0,0.3-0.1,0.5-0.4,0.6
	c-0.1,0-0.1,0-0.2,0c-0.6,0.1-0.8,0.4-0.8,0.8v7.3h1.3c0.3,0,0.6-0.1,0.7-0.4l0.8-1.2c0.1-0.3,0.4-0.4,0.8-0.3s1.2,0.5,2.2,0.9
	s1.6,0.8,2.1,1c0.3,0.1,0.5,0.4,0.5,0.8c0,0.4-0.2,0.7-0.6,0.8c-0.1,0-0.2,0.1-0.3,0.1c-0.1,0-0.2,0.1-0.2,0.2
	c-0.4,0.3-0.6,0.9-0.6,1.4c0,0.8,0,1.6,0,2.4s0,1.7,0,2.6c1.3-1.7,2.5-3.4,3.5-5.3c1.1-2,2.1-4,3-6.1c0.7-1.8,1.3-3.6,1.6-5.5
	c0.1-0.3,0.1-0.5,0.1-0.8c0-0.2,0-0.5,0.1-0.7c0-0.2,0.1-0.4,0.2-0.5c0.1-0.1,0.3-0.1,0.5,0c0.5,0.1,1.3,0.3,2.2,0.6
	s1.9,0.6,2.9,0.9s1.7,0.5,2.1,0.7c0.2,0.1,0.3,0.3,0.3,0.6c0,0.2-0.1,0.3-0.2,0.5c-0.1,0.2-0.3,0.2-0.5,0.2H52
	c0.9,1.8,2.1,3.4,3.5,4.8c1.5,1.5,3.1,2.7,4.9,3.8c1.7,1,3.5,1.8,5.3,2.5c-0.8,0.5-1.5,1-2.2,1.6c-0.7,0.7-1.4,1.4-2,2.2
	c-0.5,0.7-0.9,1.4-1.3,2.2c-2.6-1.9-4.7-4.4-6.2-7.2c-1.6-3-2.8-6.1-3.4-9.5c-0.2,0.2-0.3,0.4-0.4,0.7c-1,2.3-2.3,4.4-3.8,6.4
	c-1.5,2-3.1,3.9-4.9,5.7c-1.6,1.6-3.4,3-5.3,4.2c0,1.4,0.1,2.7,0.1,3.9s0,2.2,0,3s0,1.2,0,1.3c0,0.5-0.4,0.8-1.3,1.1
	c-0.8,0.3-1.7,0.4-2.6,0.4c-0.7,0-1-0.3-1-1v-1.3h-2v9.6c0.5-0.1,1.1-0.1,1.5-0.2l1.3-0.1c-0.2-0.8-0.5-1.7-0.9-2.5
	c-0.3-0.8-0.8-1.5-1.3-2.1c-0.1-0.4,0.2-0.7,0.6-0.8c0.1,0,0.1,0,0.2,0c1.3,0.6,2.5,1.4,3.7,2.2c1.1,0.8,2,1.8,2.8,2.9
	c0.7,1.1,1.1,2.5,1.1,3.8c0.1,1-0.4,2-1.2,2.7c-0.7,0.6-1.5,0.9-2.4,0.9c-0.4,0-0.8-0.1-1.2-0.4c-0.4-0.3-0.5-0.7-0.5-1.1
	c0-0.7-0.1-1.4-0.2-2.1s-0.2-1.4-0.3-2c-0.8,0.4-1.8,0.8-2.9,1.4s-2.2,1.1-3.3,1.7l-3,1.5c-0.9,0.5-1.6,0.8-2.1,1.1
	c-0.2,0.1-0.4,0.2-0.5,0.4c-0.1,0.2-0.1,0.4,0,0.6v0.2C21.1,944.9,20.9,945.1,20.7,945.2z M24.9,910.8h-2v14.3h2V910.8z M31.6,910.8
	h-2v14.3h2V910.8z M41.1,945.5c-0.9,0-1.3-0.4-1.3-1.2c0-0.2,0-1,0.1-2.1s0.1-2.6,0.2-4.4s0.1-3.5,0.1-5.4c0-2.5,0-4.3-0.1-5.6
	c0-0.8-0.1-1.7-0.4-2.5c0-0.1,0-0.3,0.1-0.4c0.1-0.1,0.3-0.2,0.4-0.2c0.5,0.1,1.2,0.4,2,0.7s1.6,0.6,2.3,0.9s1.4,0.6,1.9,0.9h6.6
	c0.3,0,0.6-0.1,0.8-0.4l0.9-1.6c0.1-0.2,0.4-0.4,0.6-0.4h0.2l0.2,0.1c0.9,0.3,1.8,0.6,2.6,1.1c1,0.5,1.9,0.9,2.5,1.3
	c0.4,0.2,0.6,0.5,0.6,0.9c0,0.5-0.3,0.9-0.7,1l-0.3,0.1c-0.1,0-0.2,0.1-0.3,0.2c-0.5,0.5-0.8,1.2-0.7,1.9c0,1,0,2.2,0,3.6
	s0.1,2.7,0.2,4s0.1,2.4,0.2,3.3s0,1.4,0,1.6c0,0.5-0.5,1-1.5,1.3c-1,0.3-2.1,0.5-3.2,0.5c-0.9,0-1.3-0.4-1.3-1.2V941h-8v2.8
	c0,0.5-0.5,1-1.5,1.3C43.3,945.4,42.2,945.5,41.1,945.5z M40.3,919.8l-0.6-2c1.4,0.1,3,0.2,4.9,0.3h5c0.4,0,0.8-0.2,1-0.5l0.8-1.3
	c0.4-0.6,0.6-1,0.8-1.2s0.4-0.4,0.6-0.4c0.1,0,0.2,0,0.3,0l0.3,0.2c0.5,0.3,0.9,0.6,1.3,1c0.5,0.5,1,0.9,1.5,1.4
	c0.4,0.4,0.7,0.8,1.1,1.2c0.1,0.2,0.2,0.4,0.2,0.6c0,0.4-0.2,0.6-0.6,0.6H44.7C42.9,919.6,41.4,919.7,40.3,919.8z M53.9,927.9h-8.1
	v11.5h8.1V927.9z"/>
<path class="st0" d="M30.8,1016.8c-0.5,0-0.8-0.2-0.8-0.7c0.9-1,1.7-2.1,2.3-3.3c0.7-1.3,1.4-2.6,1.9-4c-0.3,0.3-0.7,0.5-1.1,0.6
	c-0.2,0.1-0.4,0.1-0.6,0.1c-0.4,0-0.7-0.1-1-0.4c-0.3-0.3-0.5-0.6-0.5-1c0-0.4-0.1-0.8-0.2-1.2s-0.1-0.8-0.2-1.2
	c-0.7,0.4-1.5,0.8-2.4,1.3l-2.8,1.6c-1,0.5-1.8,1-2.6,1.5s-1.3,0.8-1.7,1c-0.2,0.1-0.3,0.2-0.4,0.4c0,0.2,0,0.4,0,0.6v0.1
	c0,0.3-0.2,0.6-0.6,0.7c-0.1,0-0.2,0-0.3,0c-0.2,0-0.4-0.1-0.5-0.3l-0.8-1.7c-0.3-0.8-0.7-1.6-1-2.4s-0.6-1.4-0.8-1.8
	c0,0,0-0.1,0-0.1c0,0,0-0.1,0-0.1c0-0.2,0.1-0.3,0.4-0.4l1.5-0.2c0.7-0.1,1.6-0.3,2.5-0.4l2.9-0.4v-9.4h-1.6v3
	c0,0.4-0.4,0.7-1.2,0.9c-0.8,0.2-1.6,0.3-2.4,0.3c-0.6,0-0.9-0.3-0.9-0.8c0-0.2,0-1.7,0-4.3s0-6.1,0-10.4c0.1-2.2,0-4.4-0.3-6.6
	c-0.1-0.2,0-0.3,0.1-0.4s0.2-0.1,0.4-0.1c0.5,0.1,0.9,0.3,1.3,0.5c0.6,0.3,1.2,0.6,1.8,0.9s1.1,0.5,1.4,0.7h1.2v-6.1
	c0-0.7,0-1.3-0.1-2c0-0.3-0.1-0.7-0.3-1c-0.1-0.1-0.1-0.3,0-0.4c0.1-0.1,0.2-0.2,0.4-0.2c0.5,0,1.1,0.1,1.6,0.1
	c0.7,0.1,1.5,0.2,2.2,0.3s1.3,0.2,1.6,0.3s0.4,0.2,0.4,0.6c0,0.3-0.1,0.5-0.4,0.5c0,0-0.1,0-0.1,0c-0.5,0.1-0.8,0.4-0.8,0.8v7.2h1.1
	c0.2,0,0.5-0.1,0.6-0.3l0.7-1.2c0.1-0.3,0.5-0.4,0.8-0.3c0,0,0,0,0,0c0.5,0.2,1.2,0.4,2.1,0.8c0.7,0.3,1.4,0.6,2,1
	c0.3,0.1,0.4,0.4,0.4,0.7c0,0.3-0.2,0.6-0.5,0.7c-0.1,0-0.3,0.1-0.4,0.2c-0.4,0.4-0.6,1-0.5,1.5c0,1.5,0,3.1,0,4.7
	c0,1.6,0,3.1,0,4.4s0,2.5,0,3.4s0,1.4,0,1.5c0,0.4-0.4,0.7-1.2,0.9c-0.8,0.2-1.6,0.4-2.4,0.4c-0.6,0-0.9-0.3-0.9-0.9v-1.4h-1.6v8.7
	c0.4-0.1,0.7-0.1,1.1-0.2l0.9-0.1c-0.2-0.8-0.5-1.5-0.8-2.2c-0.3-0.7-0.6-1.4-1-2c0.1-0.5,0.3-0.7,0.7-0.6c1.4,0.6,2.6,1.4,3.8,2.3
	c1.1,0.8,1.8,2,2.1,3.4c0.6-2.8,1-5.6,1.2-8.4c0.3-3.3,0.4-7.2,0.4-11.7c0-4.4-0.1-7.6-0.2-9.8c-0.1-2.2-0.2-3.6-0.3-4.1
	c0-0.1,0-0.3,0.1-0.4c0.2-0.1,0.3-0.1,0.5-0.1c0.3,0.1,0.9,0.4,1.6,0.7s1.4,0.7,2.2,1s1.3,0.6,1.6,0.8h14.9c0.4,0,0.9-0.2,1.1-0.5
	c0.2-0.3,0.5-0.7,0.8-1.2c0.3-0.4,0.6-0.8,0.8-1.2c0.1-0.2,0.3-0.3,0.5-0.3c0.5,0.1,1,0.4,1.3,0.7c0.6,0.5,1.2,1,1.9,1.6
	c0.5,0.4,1,0.9,1.4,1.5c0.1,0.1,0.1,0.2,0.2,0.3c0,0.1,0,0.2,0,0.3c0,0.4-0.2,0.6-0.5,0.6h-23v4.7H46v-0.7c0-0.7,0-1.3-0.1-2
	c0-0.4-0.1-0.7-0.3-1.1c-0.1-0.2-0.1-0.3,0-0.4c0.1-0.1,0.2-0.2,0.4-0.2c0.3,0,0.9,0,1.7,0.1s1.5,0.2,2.2,0.3s1.3,0.2,1.6,0.3
	c0.3,0,0.5,0.3,0.4,0.6c0,0,0,0.1,0,0.1c0,0.3-0.2,0.5-0.6,0.6c-0.5,0-0.8,0.3-0.8,0.7v1.8h3.7v-0.7c0-0.7,0-1.3-0.1-2
	c-0.1-0.4-0.1-0.7-0.2-1.1c-0.1-0.1-0.1-0.3,0-0.4c0,0,0,0,0,0c0.1-0.1,0.2-0.2,0.4-0.2c0.3,0,0.9,0,1.7,0.1s1.5,0.2,2.3,0.3
	s1.3,0.2,1.6,0.3c0.3,0,0.5,0.3,0.4,0.6c0,0,0,0.1,0,0.1c0,0.3-0.2,0.5-0.6,0.6c-0.5,0-0.8,0.3-0.8,0.7v1.8h0.3
	c0.3,0,0.7-0.1,0.9-0.4c0.1-0.3,0.4-0.7,0.7-1.2s0.6-0.9,0.8-1.1c0.1-0.2,0.3-0.3,0.5-0.3c0.2,0,0.3,0.1,0.5,0.2
	c0.5,0.3,1,0.8,1.7,1.5c0.6,0.5,1.1,1,1.5,1.7c0.1,0.1,0.2,0.3,0.2,0.5c0,0.3-0.2,0.5-0.5,0.5h-6.6c0,0.7,0,1.2,0,1.7v0.8
	c0,0.4-0.4,0.7-1.3,1c-0.8,0.2-1.6,0.3-2.5,0.3c-0.6,0-0.9-0.3-0.9-0.9v-3h-3.7v2.8c0,0.4-0.4,0.7-1.2,1c-0.8,0.2-1.6,0.3-2.4,0.3
	c-0.7,0-1-0.3-1-0.9c0-0.2,0-0.6,0-1.2s0-1.3,0-1.9h-4.2v6.4c0,3.5-0.2,7.1-0.7,10.6c-0.4,2.8-1.1,5.5-2.1,8.1
	c-0.9,2.2-2,4.2-3.4,6.1C34.1,1013.8,32.5,1015.4,30.8,1016.8z M23.8,981.2h-1.5v13.1h1.5V981.2z M30,981.2h-1.6v13.1H30L30,981.2z
	 M42.5,1016.8c-0.6,0-0.9-0.3-0.9-0.9c0-0.2,0-0.8,0-1.9s0.1-2.4,0.1-4s0-3.3,0-5.1s0-3-0.1-3.8s-0.1-1.4-0.2-1.8
	c0-0.1,0-0.3,0.1-0.4c0.1-0.1,0.4-0.2,0.5,0c0.5,0.1,0.9,0.3,1.4,0.5l1.7,0.7c0.6,0.2,1,0.5,1.3,0.6h3.7V997h-2.6v0.6
	c0,0.4-0.4,0.8-1.3,1c-0.8,0.2-1.6,0.4-2.5,0.4c-0.5,0.1-0.9-0.3-0.9-0.7c0-0.1,0-0.2,0-0.2c0-0.2,0-0.8,0-1.8s0-2.2,0.1-3.5
	s0-2.6,0-3.8c0-1.5,0-2.9-0.3-4.4c0-0.1,0-0.3,0.1-0.4c0.1-0.1,0.2-0.1,0.3-0.1c0.4,0.1,0.9,0.2,1.3,0.4c0.6,0.3,1.3,0.5,2,0.8
	s1.2,0.5,1.5,0.7h9.2c0.2,0,0.5-0.1,0.6-0.3c0.1-0.1,0.2-0.3,0.3-0.6s0.3-0.5,0.3-0.6c0.2-0.3,0.5-0.4,0.8-0.2
	c0.5,0.2,1.2,0.4,2.1,0.8c0.7,0.3,1.4,0.6,2,1c0.3,0.1,0.4,0.4,0.4,0.7c0,0.3-0.2,0.6-0.5,0.7l-0.4,0.2c-0.4,0.2-0.7,0.7-0.6,1.2
	c0,0.4,0,1.1,0,1.9s0,1.8,0,2.7s0,1.8,0.1,2.5s0,1.1,0,1.2c0,0.4-0.4,0.8-1.3,1c-0.8,0.2-1.7,0.4-2.5,0.4c-0.7,0-1-0.3-1-0.9V997
	h-2.7v3.7h3.6c0.3,0,0.5-0.1,0.6-0.3s0.2-0.3,0.3-0.6s0.3-0.5,0.4-0.6c0.1-0.3,0.4-0.4,0.6-0.3c0,0,0.1,0,0.1,0
	c0.7,0.2,1.5,0.5,2.2,0.8c0.7,0.3,1.4,0.6,2.1,1c0.3,0.1,0.4,0.4,0.4,0.7c0,0.3-0.2,0.6-0.5,0.7c-0.1,0-0.3,0.1-0.4,0.2
	c-0.4,0.3-0.7,0.8-0.6,1.3v7.9c0,1.3-0.5,2.5-1.4,3.4c-1.3,1-2.9,1.6-4.6,1.8c-0.1-0.9-0.3-1.8-0.7-2.6c-0.2-0.6-0.7-1.1-1.3-1.4
	c-0.9-0.3-1.8-0.5-2.7-0.5c-0.1-0.1-0.2-0.3-0.2-0.5c0-0.2,0.1-0.4,0.3-0.5h4.8c0.7,0,1-0.3,1-1c-0.2,0.1-0.5,0.2-0.8,0.2
	c-0.6,0.1-1.2-0.4-1.2-1c0,0,0,0,0,0c0-0.3-0.1-0.6-0.2-0.8l-0.2-0.8l-2.7,1c-1,0.4-1.9,0.7-2.8,1s-1.5,0.6-1.9,0.8
	c-0.2,0.1-0.3,0.2-0.5,0.3c-0.1,0.1-0.1,0.2-0.1,0.5v0.1c0,0.2-0.1,0.4-0.3,0.5c-0.1,0.1-0.3,0.1-0.4,0.1c-0.2,0-0.4-0.1-0.4-0.3
	c-0.2-0.3-0.3-0.7-0.5-1c-0.2-0.5-0.4-0.9-0.7-1.4v6.2c0,0.4-0.4,0.7-1.3,1C44.2,1016.7,43.3,1016.8,42.5,1016.8z M50.2,1002.3h-3.9
	v4.5l0.5,0l1.6-0.1l1.9-0.1L50.2,1002.3z M50.2,987.5h-2.6v3.3h2.6V987.5z M50.2,992.2h-2.6v3.5h2.6V992.2z M57.6,987.5h-2.9v3.3
	h2.8L57.6,987.5z M57.6,992.2h-2.9v3.5h2.8L57.6,992.2z M59,1002.3h-4.2v3.9H56c-0.3-0.7-0.7-1.4-1.2-2v-0.1c0-0.4,0.2-0.6,0.6-0.6
	c0.7,0.2,1.3,0.5,1.9,0.8c0.6,0.3,1.1,0.6,1.6,1L59,1002.3z"/>
</svg>
