<?xml version="1.0" encoding="utf-8"?>
<!-- Generator: Adobe Illustrator 25.0.1, SVG Export Plug-In . SVG Version: 6.00 Build 0)  -->
<svg version="1.1" id="Layer_1" xmlns="http://www.w3.org/2000/svg" xmlns:xlink="http://www.w3.org/1999/xlink" x="0px" y="0px"
	 viewBox="0 0 99.6 1234.3" style="enable-background:new 0 0 99.6 1234.3;" xml:space="preserve">
<style type="text/css">
	.st0{enable-background:new    ;}
	.st1{fill:#FFFFFF;}
	.st2{fill:none;stroke:#FFFFFF;stroke-width:2.39;stroke-miterlimit:10;}
</style>
<g class="st0">
	<path class="st1" d="M35.3,78.6l13.5,15l-0.5,1L28.5,79.3V69.2l24-9.7c0-0.8-0.1-1.5-0.1-2.3l-23.9-5.3V39.4l54,11.9l2.5-2.6
		l11.3,16.7v1.5l-41.9-9.2l17.9,18l1.4,12.4l-0.3-1.2l0.2,1.6c-13.3-3.6-20.1-14.4-20.8-26l-2,8.7L35.3,78.6z M53.6,58.4
		c0.2,7.7,2.1,18.3,9.1,19.8c2.9,0.7,5.8-0.9,8.3-2.1L53.6,58.4z"/>
</g>
<g class="st0">
	<path class="st1" d="M73.6,114.1l-35.9-7.8l11.1,12.2l-0.5,1l-19.8-15.1v-0.2h0.2L36,93.4l22.6,4.9l2.5-2.6L73.6,114.1z
		 M86.2,102.8c3.5,0.8,6.3,4.9,6.3,9.2s-2.9,7.3-6.3,6.5c-3.5-0.8-6.2-5-6.2-9.3C80,104.9,82.7,102.1,86.2,102.8z"/>
</g>
<g class="st0">
	<path class="st1" d="M52.4,166.8l-15.7-3.5c13.7,7.3,38.3,17.1,38.3,29.3c0,6.2-6.4,4.2-22.6,0.7L37.8,190l11,12.1l-0.5,1l-19.8-15
		L36,177l16.4,3.6c5.2,1.1,21.3,17.3,21.3,10.6c0-10.6-42-27.3-45.1-29.8l7.5-10.9l16.4,3.6c5.2,1.1,21.3,17.3,21.3,10.6
		c0-10.6-42-27.3-45.1-29.8v-12.6l35.6,7.9l-10.7-11.8l0.5-1l19.4,14.8l0.5,0.1v1.5l-11.2,11.7l-2.6-3.7l-23.1-5.1
		c13.7,7.2,38.2,17,38.2,29.2C75,172.3,68.6,170.3,52.4,166.8z"/>
</g>
<g class="st0">
	<path class="st1" d="M55.8,252.8l-4.2-1l0.8-2.2v-40.7l-0.8-2.6l4.2,1l-0.8,2.2v40.7L55.8,252.8z"/>
</g>
<g class="st0">
	<path class="st1" d="M35.3,299.8l13.5,15l-0.5,1l-19.8-15.1v-10.2l24-9.7c0-0.8-0.1-1.5-0.1-2.3l-23.9-5.3v-12.6l54,11.9l2.5-2.6
		l11.3,16.7v1.5l-41.9-9.2l17.9,18l1.4,12.4l-0.3-1.2l0.2,1.6c-13.3-3.6-20.1-14.4-20.8-26l-2,8.7L35.3,299.8z M53.6,279.7
		c0.2,7.7,2.1,18.3,9.1,19.8c2.9,0.7,5.8-0.9,8.3-2.1L53.6,279.7z"/>
</g>
<g class="st0">
	<path class="st1" d="M51.1,316.3l23.9,5.2l-7.6,10.9l-16.3-3.5c-5.2-1.2-21.2-17.3-21.2-10.3c0,9.7,29.7,26,45.1,29.3v12.6
		L39,352.7l11,12.1l-0.5,1l-19.8-15.1V349L41,337.4l2.5,3.6l16.3,3.6c-15.3-7-31.3-17-31.3-27.4C28.5,310.7,34.9,312.7,51.1,316.3z"
		/>
	<path class="st1" d="M38.6,410.2l-2.4,1.2c-5.3-7.6-9-13.2-9-22.7c0-15,11.2-23.7,23.9-21.1c12.6,2.5,23.9,15.8,23.9,30.8
		c0,15-9,15.8-18.5,5.9c-5.5-5.8-9.7-15.2-11.9-23.7C38,385,32.7,392.1,32.7,400c0,3.9,1.7,8.8,5.7,9.8L38.6,410.2z M58,397.4
		c5.8,4.5,11.4-0.6,11.4-10.4c0-6.2-3.5-9.2-8.8-10.3c-4.6-1-10.1,0.4-14.9,3.2C48.1,387.4,51.9,392.6,58,397.4z"/>
</g>
<line class="st2" x1="30.7" y1="0" x2="30.7" y2="636.6"/>
<circle class="st2" cx="38.7" cy="483.6" r="34.1"/>
<circle class="st2" cx="38.7" cy="551.9" r="34.1"/>
<g class="st0">
	<path class="st1" d="M26.8,504.5c-1,0-1.6-0.5-1.6-1.5c0-0.2,0-0.9,0.1-2.2s0.1-2.9,0.2-4.8c0.1-2,0.1-4.2,0.2-6.6
		c0.1-2.4,0.1-5,0.1-7.6c0-3.2,0-5.8-0.1-7.8c-0.1-2-0.2-3.4-0.4-4.2c-0.1-0.3,0-0.5,0.1-0.6c0.1-0.1,0.3-0.2,0.6-0.1
		c0.7,0.2,1.7,0.6,2.9,1.1c1.2,0.5,2.3,1,3.3,1.5h10.1v-5.9H28.6c-1.1,0-2.1,0-2.9,0.1c-0.9,0-1.7,0.1-2.6,0.2l-0.6-2.2
		c1.7,0.2,3.8,0.3,6.2,0.4h13.7V462c0-0.9,0-1.7-0.1-2.3c-0.1-0.6-0.2-1-0.3-1.2c-0.1-0.2-0.1-0.4-0.1-0.6c0.1-0.2,0.3-0.3,0.6-0.3
		c0.5,0,1.2,0.1,2.1,0.2c0.9,0.1,1.8,0.2,2.7,0.4c0.9,0.1,1.6,0.3,2,0.4c0.4,0.1,0.6,0.3,0.6,0.7c0,0.6-0.3,0.9-0.8,0.9
		c-0.7,0.1-1,0.4-1,1v3.1h10c0.3,0,0.6,0,0.8-0.1c0.2-0.1,0.4-0.2,0.5-0.4c0.2-0.2,0.4-0.5,0.8-1c0.3-0.4,0.7-0.9,1-1.3
		c0.3-0.4,0.6-0.7,0.7-0.9c0.2-0.3,0.4-0.4,0.8-0.4c0.3,0,0.7,0.2,1.3,0.5c0.6,0.3,1.2,0.7,1.8,1.2s1.3,1,1.8,1.4s1,0.8,1.2,1.1
		c0.2,0.2,0.3,0.4,0.3,0.7c0,0.5-0.2,0.8-0.7,0.8H48.1v5.9h10c0.5,0,0.9-0.2,1-0.5c0.1-0.2,0.3-0.5,0.5-0.8c0.2-0.3,0.3-0.6,0.5-0.9
		c0.1-0.3,0.4-0.5,0.7-0.5c0.1,0,0.2,0,0.5,0.1c0.6,0.2,1.2,0.4,1.9,0.7c0.7,0.3,1.4,0.6,2,1s1.2,0.7,1.6,0.9c0.4,0.2,0.6,0.6,0.6,1
		s-0.2,0.8-0.7,1c-0.1,0.1-0.3,0.1-0.4,0.2s-0.2,0.2-0.3,0.2c-0.5,0.4-0.7,0.9-0.7,1.7v4.9c0,2.4,0,4.8,0.1,7
		c0.1,2.3,0.1,4.2,0.1,5.8c0,1.6,0.1,2.6,0.1,3c0,1.4-0.2,2.6-0.6,3.7c-0.4,1-1.2,1.9-2.3,2.6c-1.2,0.7-2.9,1.2-5.1,1.6
		c-0.2-1.6-0.5-2.8-0.9-3.6c-0.3-0.9-0.9-1.5-1.6-1.9c-0.7-0.4-1.8-0.8-3.2-1c-0.1-0.2-0.2-0.3-0.2-0.5c0-0.2,0.1-0.4,0.3-0.6H58
		c0.9,0,1.4-0.4,1.4-1.3v-22.3h-9.1c0.6,0.2,1.2,0.5,1.9,0.8c0.7,0.3,1.4,0.6,2,0.8c0.6,0.2,1.1,0.4,1.3,0.6
		c0.2,0.1,0.3,0.3,0.3,0.6c0,0.3-0.1,0.4-0.2,0.5s-0.3,0.1-0.5,0.1c-0.4,0-0.7,0-1,0.1c-0.3,0.1-0.6,0.4-1,0.8
		c-0.9,0.9-1.8,1.8-2.8,2.7c-1,0.9-2,1.7-2.8,2.4h3c0.4,0,0.7-0.2,1-0.5l1.3-2c0.1-0.2,0.3-0.4,0.6-0.4c0.2,0,0.4,0.1,0.6,0.2
		c0.6,0.3,1.2,0.8,2,1.5c0.8,0.6,1.3,1.2,1.7,1.6c0.1,0.1,0.2,0.3,0.2,0.5c0,0.4-0.2,0.7-0.6,0.7H48v5.1h3c0.5,0,0.8-0.2,1-0.5
		c0.2-0.3,0.4-0.7,0.8-1.3c0.4-0.6,0.6-1,0.8-1.2c0.2-0.3,0.4-0.4,0.6-0.4c0.1,0,0.2,0,0.3,0.1c0.1,0,0.2,0.1,0.3,0.2
		c0.4,0.2,0.8,0.6,1.3,1.1c0.5,0.5,1,0.9,1.5,1.4c0.5,0.4,0.8,0.8,1.1,1.1c0.1,0.1,0.2,0.3,0.2,0.6c0,0.4-0.2,0.6-0.6,0.6H48
		c0,1.4,0,2.9,0.1,4.3c0,1.5,0.1,2.7,0.1,3.8c0,1.1,0.1,1.8,0.1,2c0,0.3-0.3,0.7-0.8,0.9c-0.5,0.3-1.1,0.5-1.9,0.6
		c-0.7,0.2-1.5,0.2-2.3,0.2c-0.9,0-1.3-0.4-1.3-1.2c0-0.1,0-0.6,0.1-1.3c0-0.7,0.1-1.6,0.1-2.7c0-1.1,0.1-2.2,0.1-3.4
		c0-1.2,0.1-2.3,0.1-3.4h-3.7c-1.1,0-2.1,0-3,0.1c-0.9,0-1.7,0.1-2.6,0.2l-0.6-2.2c1.7,0.2,3.8,0.3,6.3,0.4h3.7v-5.1
		c-0.4,0-0.8,0-1.1,0c-0.3,0-0.7,0-1,0c-0.5,0-0.9,0-1.2,0c-0.3,0-0.5,0-0.6,0c-1.6,0-3,0.1-4.4,0.2l-0.6-2c1.5,0.1,3.2,0.2,5,0.3
		h0.2c-0.4-0.4-0.6-0.8-0.6-1.2c-0.3-1.7-0.7-3.1-1.1-4.2c-0.4-1.1-1.1-2-1.9-2.8c0-0.1,0-0.1,0-0.2c0,0,0-0.1,0-0.1
		c0-0.4,0.2-0.6,0.6-0.7c1.3,0.2,2.6,0.6,3.8,1.1s2.1,1.2,2.9,2c0.7,0.8,1.1,1.9,1.1,3.1c0,0.7-0.2,1.3-0.5,1.8
		c-0.3,0.5-0.7,0.9-1.2,1.2h4c0.3-0.7,0.6-1.5,0.9-2.5c0.3-1,0.7-2,1-3c0.3-1,0.5-2,0.7-2.8c0.1-0.2,0.1-0.3,0.1-0.5
		c0-0.2,0-0.3,0.1-0.5H31.5v29c0,0.7-0.4,1.2-1.3,1.6C29.3,504.3,28.2,504.5,26.8,504.5z"/>
</g>
<g class="st0">
	<path class="st1" d="M21.2,574.5c-0.6,0-0.8-0.2-0.7-0.7c1.6-1.9,2.9-4.1,4-6.6c1.1-2.5,1.9-5.6,2.5-9.3s0.8-8.2,0.8-13.6v-2.7
		c0-2.8-0.1-5.1-0.3-6.8c-0.2-1.7-0.3-2.8-0.5-3.4c0-0.3,0-0.5,0.1-0.6c0.2-0.1,0.4-0.1,0.6-0.1c0.4,0.1,1.1,0.4,2,0.8
		c0.9,0.4,1.8,0.9,2.7,1.3c0.9,0.5,1.6,0.8,2.1,1.1c2.1-0.3,4.4-0.8,6.8-1.3c2.4-0.5,4.8-1.2,7.1-1.9c2.3-0.7,4.3-1.4,6.1-2.2
		c0.3-0.1,0.6-0.3,0.9-0.4c0.3-0.2,0.6-0.3,0.9-0.4c0.2-0.1,0.3-0.2,0.4-0.2c0.1,0,0.3,0.1,0.4,0.2c0.3,0.2,0.8,0.6,1.3,1.1
		c0.6,0.5,1.2,1,1.8,1.6c0.6,0.6,1.2,1.1,1.8,1.6c0.6,0.5,0.9,0.8,1.2,1.1c0.2,0.2,0.3,0.4,0.3,0.6c0,0.1-0.1,0.3-0.2,0.5
		c-0.3,0.4-0.6,0.5-1,0.3c-0.6-0.2-1.1-0.4-1.7-0.4c-0.1,0-0.3,0-0.4,0s-0.3,0-0.5,0.1c-0.7,0.1-1.5,0.2-2.2,0.3
		c-0.7,0.1-1.5,0.1-2.3,0.2c0.2,5,0.9,9.7,2.1,13.9c1.3,4.2,2.9,7.9,5,11.2c2.1,3.3,4.4,6,7,8.2c-1.4,0.4-2.8,1.1-4.2,2
		c-1.4,0.9-2.4,1.8-3.1,2.8c-3.2-4.6-5.5-9.8-6.9-15.5s-2.1-12.3-2.1-19.9v-2.6c-1.1,0.1-2.2,0.2-3.3,0.3s-2.3,0.1-3.4,0.2v29.3
		l3.8-0.3c-0.4-0.9-0.9-1.8-1.4-2.6s-1.1-1.5-1.7-2v-0.1c0-0.2,0.1-0.3,0.2-0.5c0.1-0.2,0.3-0.2,0.4-0.2c2.4,0.8,4.5,1.8,6.3,3.1
		c1.8,1.3,3,3,3.5,5.1c0.1,0.4,0.2,0.9,0.2,1.3c0,1.3-0.4,2.3-1.1,2.9c-0.8,0.7-1.5,1-2.3,1c-0.5,0-1-0.2-1.4-0.5
		c-0.4-0.3-0.7-0.8-0.7-1.3c-0.2-1.4-0.6-2.9-1.2-4.6c-1.1,0.4-2.4,0.8-3.9,1.3c-1.5,0.5-2.9,1-4.4,1.6c-1.5,0.5-2.8,1-4.1,1.5
		c-1.2,0.5-2.2,0.8-2.8,1.1c-0.5,0.2-0.8,0.3-0.9,0.5s-0.1,0.4-0.1,0.7c0,0,0,0.1,0,0.1c0,0,0,0.1,0,0.1c0,0.3-0.2,0.5-0.5,0.6
		c-0.1,0.1-0.2,0.1-0.3,0.1c-0.3,0-0.5-0.1-0.7-0.4c-0.1-0.2-0.3-0.7-0.6-1.3c-0.3-0.6-0.6-1.3-0.9-2c-0.3-0.7-0.7-1.4-0.9-2
		c-0.3-0.6-0.5-1.1-0.6-1.4c-0.1-0.2-0.1-0.4,0-0.5c0.1-0.1,0.2-0.2,0.4-0.2c0.3,0,0.6-0.1,0.9-0.1s0.6-0.1,1-0.1
		c1.1-0.1,2.3-0.2,3.7-0.3c1.4-0.1,2.8-0.2,4.3-0.3v-29.5c-1.2,0-2.3,0.1-3.4,0.1c-1.1,0-2.2,0-3.2,0v6.9c0,4.5-0.3,8.5-1,11.8
		c-0.6,3.4-1.5,6.3-2.7,8.8c-1.2,2.5-2.5,4.7-4,6.5C24.7,571.4,23,573,21.2,574.5z"/>
</g>
<g class="st0">
	<path class="st1" d="M35.3,673.5l13.5,15l-0.5,1l-19.8-15.1v-10.2l24-9.7c0-0.8-0.1-1.5-0.1-2.3l-23.9-5.3v-12.6l54,11.9l2.5-2.6
		l11.3,16.7v1.5l-41.9-9.2l17.9,18l1.4,12.4l-0.3-1.2l0.2,1.6c-13.3-3.6-20.1-14.4-20.8-26l-2,8.7L35.3,673.5z M53.6,653.4
		c0.2,7.7,2.1,18.3,9.1,19.8c2.9,0.7,5.8-0.9,8.3-2.1L53.6,653.4z"/>
</g>
<g class="st0">
	<path class="st1" d="M73.6,709.1l-35.9-7.8l11.1,12.2l-0.5,1l-19.8-15.1v-0.2h0.2l7.3-10.7l22.6,4.9l2.5-2.6L73.6,709.1z
		 M86.2,697.8c3.5,0.8,6.3,4.9,6.3,9.2s-2.9,7.3-6.3,6.5c-3.5-0.8-6.2-5-6.2-9.3C80,699.9,82.7,697,86.2,697.8z"/>
</g>
<g class="st0">
	<path class="st1" d="M52.4,761.7l-15.7-3.5c13.7,7.3,38.3,17.1,38.3,29.3c0,6.2-6.4,4.2-22.6,0.7l-14.6-3.3l11,12.1l-0.5,1
		l-19.8-15L36,772l16.4,3.6c5.2,1.1,21.3,17.3,21.3,10.6c0-10.6-42-27.3-45.1-29.8l7.5-10.9l16.4,3.6c5.2,1.1,21.3,17.3,21.3,10.6
		c0-10.6-42-27.3-45.1-29.8v-12.6l35.6,7.9l-10.7-11.8l0.5-1l19.4,14.8l0.5,0.1v1.5l-11.2,11.7l-2.6-3.7l-23.1-5.1
		c13.7,7.2,38.2,17,38.2,29.2C75,767.3,68.6,765.3,52.4,761.7z"/>
</g>
<g class="st0">
	<path class="st1" d="M55.8,847.7l-4.2-1l0.8-2.2v-40.7l-0.8-2.6l4.2,1l-0.8,2.2v40.7L55.8,847.7z"/>
</g>
<g class="st0">
	<path class="st1" d="M35.3,894.8l13.5,15l-0.5,1l-19.8-15.1v-10.2l24-9.7c0-0.8-0.1-1.5-0.1-2.3l-23.9-5.3v-12.6l54,11.9l2.5-2.6
		l11.3,16.7v1.5l-41.9-9.2l17.9,18l1.4,12.4l-0.3-1.2l0.2,1.6c-13.3-3.6-20.1-14.4-20.8-26l-2,8.7L35.3,894.8z M53.6,874.6
		c0.2,7.7,2.1,18.3,9.1,19.8c2.9,0.7,5.8-0.9,8.3-2.1L53.6,874.6z"/>
</g>
<g class="st0">
	<path class="st1" d="M51.1,911.3l23.9,5.2l-7.6,10.9l-16.3-3.5c-5.2-1.2-21.2-17.3-21.2-10.3c0,9.7,29.7,26,45.1,29.3v12.6
		L39,947.6l11,12.1l-0.5,1l-19.8-15.1V944L41,932.4l2.5,3.6l16.3,3.6c-15.3-7-31.3-17-31.3-27.4C28.5,905.6,34.9,907.6,51.1,911.3z"
		/>
	<path class="st1" d="M38.6,1005.1l-2.4,1.2c-5.3-7.6-9-13.2-9-22.7c0-15,11.2-23.7,23.9-21.1c12.6,2.5,23.9,15.8,23.9,30.8
		s-9,15.8-18.5,5.9c-5.5-5.8-9.7-15.2-11.9-23.7C38,979.9,32.7,987,32.7,995c0,3.9,1.7,8.8,5.7,9.8L38.6,1005.1z M58,992.4
		c5.8,4.5,11.4-0.6,11.4-10.4c0-6.2-3.5-9.2-8.8-10.3c-4.6-1-10.1,0.4-14.9,3.2C48.1,982.3,51.9,987.6,58,992.4z"/>
</g>
<line class="st2" x1="30.7" y1="595" x2="30.7" y2="1231.6"/>
<circle class="st2" cx="38.7" cy="1078.6" r="34.1"/>
<circle class="st2" cx="38.7" cy="1146.8" r="34.1"/>
<g class="st0">
	<path class="st1" d="M26.8,1099.5c-1,0-1.6-0.5-1.6-1.5c0-0.2,0-0.9,0.1-2.2s0.1-2.9,0.2-4.8c0.1-2,0.1-4.2,0.2-6.6
		c0.1-2.4,0.1-5,0.1-7.6c0-3.2,0-5.8-0.1-7.8c-0.1-2-0.2-3.4-0.4-4.2c-0.1-0.3,0-0.5,0.1-0.6c0.1-0.1,0.3-0.2,0.6-0.1
		c0.7,0.2,1.7,0.6,2.9,1.1c1.2,0.5,2.3,1,3.3,1.5h10.1v-5.9H28.6c-1.1,0-2.1,0-2.9,0.1c-0.9,0-1.7,0.1-2.6,0.2l-0.6-2.2
		c1.7,0.2,3.8,0.3,6.2,0.4h13.7v-2.3c0-0.9,0-1.7-0.1-2.3c-0.1-0.6-0.2-1-0.3-1.2c-0.1-0.2-0.1-0.4-0.1-0.6c0.1-0.2,0.3-0.3,0.6-0.3
		c0.5,0,1.2,0.1,2.1,0.2c0.9,0.1,1.8,0.2,2.7,0.4c0.9,0.1,1.6,0.3,2,0.4c0.4,0.1,0.6,0.3,0.6,0.7c0,0.6-0.3,0.9-0.8,0.9
		c-0.7,0.1-1,0.4-1,1v3.1h10c0.3,0,0.6,0,0.8-0.1c0.2-0.1,0.4-0.2,0.5-0.4c0.2-0.2,0.4-0.5,0.8-1c0.3-0.4,0.7-0.9,1-1.3
		c0.3-0.4,0.6-0.7,0.7-0.9c0.2-0.3,0.4-0.4,0.8-0.4c0.3,0,0.7,0.2,1.3,0.5c0.6,0.3,1.2,0.7,1.8,1.2s1.3,1,1.8,1.4s1,0.8,1.2,1.1
		c0.2,0.2,0.3,0.4,0.3,0.7c0,0.5-0.2,0.8-0.7,0.8H48.1v5.9h10c0.5,0,0.9-0.2,1-0.5c0.1-0.2,0.3-0.5,0.5-0.8c0.2-0.3,0.3-0.6,0.5-0.9
		c0.1-0.3,0.4-0.5,0.7-0.5c0.1,0,0.2,0,0.5,0.1c0.6,0.2,1.2,0.4,1.9,0.7c0.7,0.3,1.4,0.6,2,1s1.2,0.7,1.6,0.9c0.4,0.2,0.6,0.6,0.6,1
		s-0.2,0.8-0.7,1c-0.1,0.1-0.3,0.1-0.4,0.2s-0.2,0.2-0.3,0.2c-0.5,0.4-0.7,0.9-0.7,1.7v4.9c0,2.4,0,4.8,0.1,7
		c0.1,2.3,0.1,4.2,0.1,5.8c0,1.6,0.1,2.6,0.1,3c0,1.4-0.2,2.6-0.6,3.7c-0.4,1-1.2,1.9-2.3,2.6c-1.2,0.7-2.9,1.2-5.1,1.6
		c-0.2-1.6-0.5-2.8-0.9-3.6c-0.3-0.9-0.9-1.5-1.6-1.9c-0.7-0.4-1.8-0.8-3.2-1c-0.1-0.2-0.2-0.3-0.2-0.5c0-0.2,0.1-0.4,0.3-0.6H58
		c0.9,0,1.4-0.4,1.4-1.3v-22.3h-9.1c0.6,0.2,1.2,0.5,1.9,0.8c0.7,0.3,1.4,0.6,2,0.8c0.6,0.2,1.1,0.4,1.3,0.6
		c0.2,0.1,0.3,0.3,0.3,0.6c0,0.3-0.1,0.4-0.2,0.5s-0.3,0.1-0.5,0.1c-0.4,0-0.7,0-1,0.1c-0.3,0.1-0.6,0.4-1,0.8
		c-0.9,0.9-1.8,1.8-2.8,2.7c-1,0.9-2,1.7-2.8,2.4h3c0.4,0,0.7-0.2,1-0.5l1.3-2c0.1-0.2,0.3-0.4,0.6-0.4c0.2,0,0.4,0.1,0.6,0.2
		c0.6,0.3,1.2,0.8,2,1.5c0.8,0.6,1.3,1.2,1.7,1.6c0.1,0.1,0.2,0.3,0.2,0.5c0,0.4-0.2,0.7-0.6,0.7H48v5.1h3c0.5,0,0.8-0.2,1-0.5
		c0.2-0.3,0.4-0.7,0.8-1.3c0.4-0.6,0.6-1,0.8-1.2c0.2-0.3,0.4-0.4,0.6-0.4c0.1,0,0.2,0,0.3,0.1c0.1,0,0.2,0.1,0.3,0.2
		c0.4,0.2,0.8,0.6,1.3,1.1c0.5,0.5,1,0.9,1.5,1.4c0.5,0.4,0.8,0.8,1.1,1.1c0.1,0.1,0.2,0.3,0.2,0.6c0,0.4-0.2,0.6-0.6,0.6H48
		c0,1.4,0,2.9,0.1,4.3c0,1.5,0.1,2.7,0.1,3.8c0,1.1,0.1,1.8,0.1,2c0,0.3-0.3,0.7-0.8,0.9c-0.5,0.3-1.1,0.5-1.9,0.6
		c-0.7,0.2-1.5,0.2-2.3,0.2c-0.9,0-1.3-0.4-1.3-1.2c0-0.1,0-0.6,0.1-1.3c0-0.7,0.1-1.6,0.1-2.7c0-1.1,0.1-2.2,0.1-3.4
		c0-1.2,0.1-2.3,0.1-3.4h-3.7c-1.1,0-2.1,0-3,0.1c-0.9,0-1.7,0.1-2.6,0.2l-0.6-2.2c1.7,0.2,3.8,0.3,6.3,0.4h3.7v-5.1
		c-0.4,0-0.8,0-1.1,0c-0.3,0-0.7,0-1,0c-0.5,0-0.9,0-1.2,0c-0.3,0-0.5,0-0.6,0c-1.6,0-3,0.1-4.4,0.2l-0.6-2c1.5,0.1,3.2,0.2,5,0.3
		h0.2c-0.4-0.4-0.6-0.8-0.6-1.2c-0.3-1.7-0.7-3.1-1.1-4.2c-0.4-1.1-1.1-2-1.9-2.8c0-0.1,0-0.1,0-0.2c0,0,0-0.1,0-0.1
		c0-0.4,0.2-0.6,0.6-0.7c1.3,0.2,2.6,0.6,3.8,1.1s2.1,1.2,2.9,2c0.7,0.8,1.1,1.9,1.1,3.1c0,0.7-0.2,1.3-0.5,1.8
		c-0.3,0.5-0.7,0.9-1.2,1.2h4c0.3-0.7,0.6-1.5,0.9-2.5c0.3-1,0.7-2,1-3c0.3-1,0.5-2,0.7-2.8c0.1-0.2,0.1-0.3,0.1-0.5
		c0-0.2,0-0.3,0.1-0.5H31.5v29c0,0.7-0.4,1.2-1.3,1.6C29.3,1099.3,28.2,1099.5,26.8,1099.5z"/>
</g>
<g class="st0">
	<path class="st1" d="M21.2,1169.4c-0.6,0-0.8-0.2-0.7-0.7c1.6-1.9,2.9-4.1,4-6.6c1.1-2.5,1.9-5.6,2.5-9.3s0.8-8.2,0.8-13.6v-2.7
		c0-2.8-0.1-5.1-0.3-6.8c-0.2-1.7-0.3-2.8-0.5-3.4c0-0.3,0-0.5,0.1-0.6c0.2-0.1,0.4-0.1,0.6-0.1c0.4,0.1,1.1,0.4,2,0.8
		c0.9,0.4,1.8,0.9,2.7,1.3c0.9,0.5,1.6,0.8,2.1,1.1c2.1-0.3,4.4-0.8,6.8-1.3c2.4-0.5,4.8-1.2,7.1-1.9c2.3-0.7,4.3-1.4,6.1-2.2
		c0.3-0.1,0.6-0.3,0.9-0.4c0.3-0.2,0.6-0.3,0.9-0.4c0.2-0.1,0.3-0.2,0.4-0.2c0.1,0,0.3,0.1,0.4,0.2c0.3,0.2,0.8,0.6,1.3,1.1
		c0.6,0.5,1.2,1,1.8,1.6c0.6,0.6,1.2,1.1,1.8,1.6c0.6,0.5,0.9,0.8,1.2,1.1c0.2,0.2,0.3,0.4,0.3,0.6c0,0.1-0.1,0.3-0.2,0.5
		c-0.3,0.4-0.6,0.5-1,0.3c-0.6-0.2-1.1-0.4-1.7-0.4c-0.1,0-0.3,0-0.4,0s-0.3,0-0.5,0.1c-0.7,0.1-1.5,0.2-2.2,0.3
		c-0.7,0.1-1.5,0.1-2.3,0.2c0.2,5,0.9,9.7,2.1,13.9c1.3,4.2,2.9,7.9,5,11.2c2.1,3.3,4.4,6,7,8.2c-1.4,0.4-2.8,1.1-4.2,2
		c-1.4,0.9-2.4,1.8-3.1,2.8c-3.2-4.6-5.5-9.8-6.9-15.5s-2.1-12.3-2.1-19.9v-2.6c-1.1,0.1-2.2,0.2-3.3,0.3s-2.3,0.1-3.4,0.2v29.3
		l3.8-0.3c-0.4-0.9-0.9-1.8-1.4-2.6s-1.1-1.5-1.7-2v-0.1c0-0.2,0.1-0.3,0.2-0.5c0.1-0.2,0.3-0.2,0.4-0.2c2.4,0.8,4.5,1.8,6.3,3.1
		c1.8,1.3,3,3,3.5,5.1c0.1,0.4,0.2,0.9,0.2,1.3c0,1.3-0.4,2.3-1.1,2.9c-0.8,0.7-1.5,1-2.3,1c-0.5,0-1-0.2-1.4-0.5
		c-0.4-0.3-0.7-0.8-0.7-1.3c-0.2-1.4-0.6-2.9-1.2-4.6c-1.1,0.4-2.4,0.8-3.9,1.3c-1.5,0.5-2.9,1-4.4,1.6c-1.5,0.5-2.8,1-4.1,1.5
		c-1.2,0.5-2.2,0.8-2.8,1.1c-0.5,0.2-0.8,0.3-0.9,0.5s-0.1,0.4-0.1,0.7c0,0,0,0.1,0,0.1c0,0,0,0.1,0,0.1c0,0.3-0.2,0.5-0.5,0.6
		c-0.1,0.1-0.2,0.1-0.3,0.1c-0.3,0-0.5-0.1-0.7-0.4c-0.1-0.2-0.3-0.7-0.6-1.3c-0.3-0.6-0.6-1.3-0.9-2c-0.3-0.7-0.7-1.4-0.9-2
		c-0.3-0.6-0.5-1.1-0.6-1.4c-0.1-0.2-0.1-0.4,0-0.5c0.1-0.1,0.2-0.2,0.4-0.2c0.3,0,0.6-0.1,0.9-0.1s0.6-0.1,1-0.1
		c1.1-0.1,2.3-0.2,3.7-0.3c1.4-0.1,2.8-0.2,4.3-0.3v-29.5c-1.2,0-2.3,0.1-3.4,0.1c-1.1,0-2.2,0-3.2,0v6.9c0,4.5-0.3,8.5-1,11.8
		c-0.6,3.4-1.5,6.3-2.7,8.8c-1.2,2.5-2.5,4.7-4,6.5C24.7,1166.3,23,1168,21.2,1169.4z"/>
</g>
</svg>
